<svg xmlns="http://www.w3.org/2000/svg" viewBox="0 0 537.65 345.52"><title>CSU 150 Logo</title><style>#title{opacity:0}.primary-color,.secondary-color{fill:#004c23;transition:fill .3s ease}.secondary-color{fill:#fff}#oneFifty{transform:scale(.95);transform-origin:center;transition:all .3s ease}#oneFifty:hover{cursor:pointer;transform:scale(1)}#numbers{transform:translate(0,-7px)}#left-ribbon-top,#right-ribbon-top{transition:all .3s ease;opacity:0}#right-ribbon-top{transform:translate(-25px,-7px)}#left-ribbon-top{transform:translate(25px,-7px)}#oneFifty:hover #bottom-ribbon-left,#oneFifty:hover #bottom-ribbon-right,#oneFifty:hover #fold-ribbon-left,#oneFifty:hover #fold-ribbon-right,#oneFifty:hover #left-ribbon-top,#oneFifty:hover #right-ribbon-top{transform:translate(0,-7px);opacity:1!important}#bottom-ribbon-left,#bottom-ribbon-right{transition:all .3s ease;opacity:.5}#fold-ribbon-left,#fold-ribbon-right{transition:all .3s ease;opacity:0}#fold-ribbon-left{transform:translate(25px,-17px)}#fold-ribbon-right{transform:translate(-25px,-17px)}#bottom-ribbon-left{transform:translate(50px,-17px)}#bottom-ribbon-right{transform:translate(-50px,-17px)}</style><g id="oneFifty"><g id="bottom-ribbon"><g id="bottom-ribbon-left"><path class="primary-color" d="M52.95 175.07v-6.8H8.19c-1.94 0-3.77.94-4.89 2.53a6.047 6.047 0 0 0-.78 5.45l7.49 21.53-7.56 22.69c-.61 1.83-.3 3.85.83 5.41a6.017 6.017 0 0 0 4.87 2.49H52.9l.05-53.3z"/><path class="secondary-color" d="M29.5 175.07H9.42l7.21 20.73c.43 1.25.44 2.63.02 3.87l-7.3 21.89H53v-46.49H29.5z"/></g><g id="bottom-ribbon-right"><path class="primary-color" d="M484.73 168.27H529.85c1.94 0 3.76.94 4.88 2.53a6.047 6.047 0 0 1 .78 5.45l-7.47 21.53 7.55 22.69c.61 1.83.3 3.85-.82 5.41s-2.94 2.49-4.86 2.49h-45.18v-60.1z"/><path class="secondary-color" d="M508.59 175.07h20.04l-7.19 20.73a6.033 6.033 0 0 0-.02 3.87l7.28 21.89h-43.97v-46.49h23.86z"/></g></g><g id="fold-ribbons"><path id="fold-ribbon-left" class="primary-color" d="M30.59 205.3l34.7 29.46V205.3z"/><path id="fold-ribbon-right" class="primary-color" d="M508.44 205.3l-34.7 29.46V205.3z"/></g><g id="shield"><path class="primary-color" d="M485.73 138.29V88.96c0-4.8-3.03-9.15-7.53-10.82L272.84 2.1c-1.29-.48-2.63-.72-4.01-.72s-2.72.24-4.01.72L59.46 78.14c-4.5 1.67-7.53 6.02-7.53 10.82v167.61c0 4.8 3.03 9.15 7.53 10.82l205.36 76.04c1.29.48 2.63.72 4.01.72 1.37 0 2.72-.24 4.01-.72l205.36-76.04c4.5-1.67 7.53-6.02 7.53-10.82V138.29z"/><g id="white_backgroud"><path class="secondary-color" d="M476.68 84.67L271.32 8.63c-.51-.19-1.05-.28-1.59-.28s-1.08.09-1.59.28L62.78 84.67a4.584 4.584 0 0 0-2.99 4.29v167.6a4.58 4.58 0 0 0 2.99 4.29l205.36 76.04c.51.19 1.05.28 1.59.28s1.08-.09 1.59-.28l205.36-76.04a4.584 4.584 0 0 0 2.99-4.29V88.96a4.57 4.57 0 0 0-2.99-4.29zm-9.19 59.78V249.69c0 1.58-.99 3-2.47 3.55l-194.13 71.6c-.84.31-1.77.31-2.62 0l-194.23-71.6a3.782 3.782 0 0 1-2.47-3.55V96.71c0-1.59.99-3 2.48-3.55L183.37 52.9c12.62-4.39 29.12-9.65 31.44-8.03 3.81 2.67-1.53 8.77 4.96 8.39 6.48-.38 31.28-16.02 37-12.97 4.29 2.29 6.29 7.08 8.92 9.96 2.53 2.77 7.09 2.77 9.62 0 2.63-2.88 4.63-7.67 8.92-9.96 5.72-3.05 30.52 12.59 37 12.97s1.14-5.72 4.96-8.39c1.36-.95 7.62.48 15.1 2.7l123.74 45.59a3.79 3.79 0 0 1 2.48 3.55V144.45h-.02z"/><path class="primary-color" d="M-12.13 88.98h.4z"/></g></g><g id="right-ribbon-top"><path class="primary-color" d="M425.89 144.45v62.13H505.07v-.01c3.2-.13 5.76-2.76 5.76-5.99v-16.4l-.03-8.22v-.89l.03-8.22v-16.4c0-3.31-2.69-6-6-6H425.89z"/><path class="secondary-color" d="M486.62 151.29h17.55v48.15h-71.38v-48.15z"/><g id="_x32_020"><path class="primary-color" d="M452.16 180.16h-5.41c0-.81.33-1.67 1.95-3.17 2.93-2.73 3.54-4.51 3.54-6.51 0-2.84-1.32-5.4-5.14-5.4-3.21 0-4.78 2.5-4.78 4.84v1.98h3.72v-1.39c0-.92.36-1.47 1.16-1.47.76 0 1.19.42 1.19 1.47 0 1-.56 2.14-2.45 4.12-2.99 3.14-3.95 5.29-3.95 8.35v1.11h10.17v-3.93zM460.71 184.56c3.19 0 5.19-2.17 5.19-5.37v-8.71c0-3.23-2-5.37-5.19-5.37-3.21 0-5.21 2.14-5.21 5.37v8.71c0 3.2 2 5.37 5.21 5.37zm-1.14-14.3c0-.61.4-1.06 1.14-1.06.71 0 1.11.44 1.11 1.06v9.12c0 .61-.4 1.09-1.11 1.09-.73 0-1.14-.47-1.14-1.09v-9.12zM479.12 180.16h-5.41c0-.81.33-1.67 1.95-3.17 2.93-2.73 3.54-4.51 3.54-6.51 0-2.84-1.32-5.4-5.14-5.4-3.21 0-4.78 2.5-4.78 4.84v1.98H473v-1.39c0-.92.36-1.47 1.16-1.47.76 0 1.19.42 1.19 1.47 0 1-.56 2.14-2.45 4.12-2.99 3.14-3.95 5.29-3.95 8.35v1.11h10.17v-3.93zM487.67 184.56c3.19 0 5.19-2.17 5.19-5.37v-8.71c0-3.23-2-5.37-5.19-5.37-3.21 0-5.21 2.14-5.21 5.37v8.71c0 3.2 2 5.37 5.21 5.37zm-1.14-14.3c0-.61.4-1.06 1.14-1.06.71 0 1.11.44 1.11 1.06v9.12c0 .61-.4 1.09-1.11 1.09-.73 0-1.14-.47-1.14-1.09v-9.12z"/></g></g><g id="left-ribbon-top"><path class="primary-color" d="M111.41 144.45H34.2c-3.31 0-6 2.69-6 6v16.4l.03 8.22v.89l-.03 8.22v16.4c0 3.23 2.57 5.86 5.76 5.99v.01h82.63v-62.13h-5.18z"/><path class="secondary-color" d="M52.41 151.29H34.86v48.15h74.83v-48.15z"/><g id="_x31_870"><path class="primary-color" d="M49.79 167.59v16.5h4.12v-18.53h-2.3c0 1.05-.48 2.03-1.82 2.03zM63.35 165.08c-3.19 0-5.31 1.98-5.31 4.98v1.34c0 1.47.56 2.81 1.67 3.34-1.11.53-1.67 1.86-1.67 3.34v1.5c0 3.01 2.12 4.98 5.31 4.98 3.21 0 5.31-1.98 5.31-4.98v-1.5c0-1.47-.56-2.81-1.67-3.34 1.11-.53 1.67-1.86 1.67-3.34v-1.34c0-3-2.1-4.98-5.31-4.98zm1.24 14.27c0 .78-.51 1.25-1.24 1.25-.71 0-1.24-.47-1.24-1.25v-2.39c0-.78.53-1.25 1.24-1.25.73 0 1.24.47 1.24 1.25v2.39zm0-6.84c0 .78-.51 1.28-1.24 1.28-.71 0-1.24-.5-1.24-1.28v-2.23c0-.78.53-1.25 1.24-1.25.73 0 1.24.47 1.24 1.25v2.23zM71.21 169.73h6.07c-2.43 3.28-4.53 9.29-4.53 14.36h4.63c0-6.23 1.19-11.24 4.05-16.66v-1.86H71.21v4.16zM89.43 165.11c-3.21 0-5.21 2.14-5.21 5.37v8.71c0 3.2 2 5.37 5.21 5.37 3.19 0 5.19-2.17 5.19-5.37v-8.71c-.01-3.23-2.01-5.37-5.19-5.37zm1.11 14.27c0 .61-.4 1.09-1.11 1.09-.73 0-1.14-.47-1.14-1.09v-9.12c0-.61.4-1.06 1.14-1.06.71 0 1.11.44 1.11 1.06v9.12z"/></g></g><g id="numbers"><path class="secondary-color" d="M117.02 143.57c0-2.08 0-2.08-1.94-2.08h-9.7c-.54 0-.99-.48-.99-1.05 0-2.88-.01-5.64.03-8.41 0-.33.34-.7.6-.98 5.73-6.08 11.46-12.16 17.22-18.21.33-.35.8-.54 1.26-.54 11.23-.03 11.58-.02 22.83-.01.1 0 6.7.04 9.81.09.88.01 1.58.77 1.58 1.71v136.36c0 .57-.44 1.03-.98 1.03h-38.75c-.54 0-.98-.46-.98-1.03v-19.86c.01-34.65.01-52.38.01-87.02zM166.38 204.48c0-.76.61-1.37 1.37-1.37h37.89c.76 0 1.37.61 1.37 1.37v16.15c0 .76.61 1.37 1.37 1.37h41.83c.76 0 1.37-.61 1.37-1.37v-27.9c0-.76-.61-1.37-1.37-1.37h-78.4c-.76 0-1.37-.61-1.37-1.37v-76.25c0-.76.61-1.37 1.37-1.37h112.45c.76 0 1.37.61 1.37 1.37v24.68c0 .76-.61 1.37-1.37 1.37h-71.62c-.76 0-1.37.61-1.37 1.37v19.41c0 .76.61 1.37 1.37 1.37l61.27-.02c.99 0 1.7.28 2.41 1.03 4.89 5.23 9.84 10.4 14.71 15.66.51.55.93 1.62.93 2.37.05 16.56.05 35.07 0 51.63 0 .71-.4 1.72-.89 2.25a1316.5 1316.5 0 0 1-14.95 15.82c-.48.5-1.31.88-1.98.88-29.51.04-60.5.04-90.01 0-.67 0-1.5-.38-1.98-.88-5.03-5.23-10.01-10.52-14.97-15.82-.43-.46-.81-1.18-.81-1.79v-28.59h.01zM426.18 131.25c0-.76-.38-1.7-.88-2.24-4.94-5.32-9.93-10.6-14.96-15.83-.48-.5-1.31-.88-1.98-.88-29.51-.04-60.97-.04-90.48 0-.67 0-1.5.37-1.98.87-4.96 5.16-9.85 10.39-14.8 15.56-.78.82-1.11 1.64-1.1 2.81.03 16.46.02 32.91.02 49.37 0 16.51.01 34.96-.02 51.47 0 1.11.3 1.9 1.05 2.68 4.95 5.17 9.84 10.41 14.8 15.56.51.53 1.39.93 2.11.93 29.46.05 60.87.05 90.33 0 .71 0 1.6-.4 2.11-.93 5-5.19 9.95-10.43 14.85-15.72.53-.57.94-1.57.94-2.37.04-33.1.04-68.16-.01-101.28zm-41.02 90.69c0 1.12-.9 2.02-2.02 2.02h-40.22c-1.12 0-2.02-.9-2.02-2.02v-80.06c0-1.12.9-2.02 2.02-2.02h40.22c1.12 0 2.02.9 2.02 2.02v80.06z"/>
</g></g></svg>
