<!-- minified here: https://jakearchibald.github.io/svgomg/ -->
<?xml version="1.0" encoding="utf-8"?>
<svg version="1.1" xmlns="http://www.w3.org/2000/svg" xmlns:xlink="http://www.w3.org/1999/xlink" x="0px" y="0px"
viewBox="0 0 537.65 345.52" style="enable-background:new 0 0 537.65 345.52;" xml:space="preserve">
<title>CSU 150 Logo</title>
<style type="text/css">
#title {
opacity:0
}
.primary-color{fill:#004C23; transition:fill .3s ease;}
.secondary-color{fill:#FFFFFF; transition:fill .3s ease;}
#oneFifty {
transform: scale(.95);
transform-origin:center;
transition:all .3s ease;
}
#oneFifty:hover {
cursor:pointer;
transform: scale(1);
}
#numbers {
transform:translate(0, -7px);
}
#right-ribbon-top, #left-ribbon-top {
transition:all .3s ease;
opacity:0;
}
#right-ribbon-top {
transform:translate(-25px, -7px);
}
#left-ribbon-top {
transform:translate(25px, -7px);
}
/* top */
#oneFifty:hover #right-ribbon-top, #oneFifty:hover #left-ribbon-top {
transform:translate(0, -7px);
opacity:1 !important;
}

#bottom-ribbon-left, #bottom-ribbon-right {
transition:all .3s ease;
opacity:.5;
}
#fold-ribbon-left, #fold-ribbon-right {
transition:all .3s ease;
opacity:0;
}
#fold-ribbon-left {
transform:translate(25px, -17px);
}
#fold-ribbon-right {
transform:translate(-25px, -17px);
}

#oneFifty:hover #fold-ribbon-left, #oneFifty:hover #fold-ribbon-right {
transform:translate(0, -7px);
opacity:1 !important;
}
#bottom-ribbon-left {
transform:translate(50px, -17px);
}
#bottom-ribbon-right {
transform:translate(-50px, -17px);
}

#oneFifty:hover #bottom-ribbon-left, #oneFifty:hover #bottom-ribbon-right {
transform:translate(0, -7px);
opacity:1 !important;
}




</style>
<g id="oneFifty">
<g id="bottom-ribbon">
<g id="bottom-ribbon-left">
<path class="primary-color" d="M52.95,175.07v-6.8H29.48h-0.23H8.19c-1.94,0-3.77,0.94-4.89,2.53c-1.12,1.58-1.41,3.62-0.78,5.45l7.49,21.53
l-7.56,22.69c-0.61,1.83-0.3,3.85,0.83,5.41c1.12,1.56,2.95,2.49,4.87,2.49H52.9L52.95,175.07z"/>
<path class="secondary-color" d="M29.5,175.07h-0.25H9.42l7.21,20.73c0.43,1.25,0.44,2.63,0.02,3.87l-7.3,21.89H53v-46.49H29.5z"/>
</g>
<g id="bottom-ribbon-right">
<path class="primary-color" d="M484.73,168.27h23.88h0.23h21.01c1.94,0,3.76,0.94,4.88,2.53c1.12,1.58,1.41,3.62,0.78,5.45l-7.47,21.53
l7.55,22.69c0.61,1.83,0.3,3.85-0.82,5.41s-2.94,2.49-4.86,2.49h-45.18L484.73,168.27L484.73,168.27z"/>
<path class="secondary-color" d="M508.59,175.07h0.25h19.79l-7.19,20.73c-0.43,1.25-0.44,2.63-0.02,3.87l7.28,21.89h-43.97v-46.49H508.59z"/>
</g>
</g>
<g id="fold-ribbons">
<polygon id="fold-ribbon-left" class="primary-color" points="30.59,205.3 65.29,234.76 65.29,205.3 	"/>
<polygon id="fold-ribbon-right" class="primary-color" points="508.44,205.3 473.74,234.76 473.74,205.3 	"/>
</g>
<g id="shield">
<path class="primary-color" d="M485.73,138.29V88.96c0-4.8-3.03-9.15-7.53-10.82L272.84,2.1c-1.29-0.48-2.63-0.72-4.01-0.72
s-2.72,0.24-4.01,0.72L59.46,78.14c-4.5,1.67-7.53,6.02-7.53,10.82v46.94v3.95v0.77v70.7v3.26v9.53v10.99v1.26v20.21
c0,4.8,3.03,9.15,7.53,10.82l205.36,76.04c1.29,0.48,2.63,0.72,4.01,0.72c1.37,0,2.72-0.24,4.01-0.72l205.36-76.04
c4.5-1.67,7.53-6.02,7.53-10.82v-27.05V138.29z"/>
<g id="white_backgroud">
<path class="secondary-color" d="M476.68,84.67L271.32,8.63c-0.51-0.19-1.05-0.28-1.59-0.28s-1.08,0.09-1.59,0.28L62.78,84.67
c-1.79,0.66-2.99,2.38-2.99,4.29v50.9v4.59v70.26l0,0v41.85c0,1.91,1.19,3.62,2.99,4.29l205.36,76.04
c0.51,0.19,1.05,0.28,1.59,0.28s1.08-0.09,1.59-0.28l205.36-76.04c1.79-0.66,2.99-2.38,2.99-4.29v-41.85v-7.89v-62.37v-4.59v-50.9
C479.67,87.05,478.48,85.33,476.68,84.67z M467.49,144.45v62.37v7.89v34.98c0,1.58-0.99,3-2.47,3.55l-194.13,71.6
c-0.84,0.31-1.77,0.31-2.62,0l-194.23-71.6c-1.49-0.55-2.47-1.97-2.47-3.55v-34.98v-7.89v-62.37v-4.59V96.71
c0-1.59,0.99-3,2.48-3.55L183.37,52.9c12.62-4.39,29.12-9.65,31.44-8.03c3.81,2.67-1.53,8.77,4.96,8.39
c6.48-0.38,31.28-16.02,37-12.97c4.29,2.29,6.29,7.08,8.92,9.96c2.53,2.77,7.09,2.77,9.62,0c2.63-2.88,4.63-7.67,8.92-9.96
c5.72-3.05,30.52,12.59,37,12.97s1.14-5.72,4.96-8.39c1.36-0.95,7.62,0.48,15.1,2.7l123.74,45.59c1.49,0.55,2.48,1.97,2.48,3.55
v43.15v4.59H467.49z"/>
<polygon class="primary-color" points="-12.13,88.98 -11.73,88.98 -11.73,88.98 		"/>
</g>
</g>
<g id="right-ribbon-top">
<path class="primary-color" d="M425.89,144.45v61.82l0,0v0.31h60.83l0,0h18.11l0,0h0.24v-0.01c3.2-0.13,5.76-2.76,5.76-5.99v-16.4l-0.03-8.22
v-0.89l0.03-8.22v-16.4c0-3.31-2.69-6-6-6h-18.11l0,0h-59.1H425.89z"/>
<polygon class="secondary-color" points="486.62,151.29 504.17,151.29 504.17,199.44 486.62,199.44 432.79,199.44 432.79,151.29 	"/>
<g id="_x32_020">
<path class="primary-color" d="M452.16,180.16h-5.41c0-0.81,0.33-1.67,1.95-3.17c2.93-2.73,3.54-4.51,3.54-6.51c0-2.84-1.32-5.4-5.14-5.4
c-3.21,0-4.78,2.5-4.78,4.84v1.98h3.72v-1.39c0-0.92,0.36-1.47,1.16-1.47c0.76,0,1.19,0.42,1.19,1.47c0,1-0.56,2.14-2.45,4.12
c-2.99,3.14-3.95,5.29-3.95,8.35v1.11h10.17L452.16,180.16L452.16,180.16z"/>
<path class="primary-color" d="M460.71,184.56c3.19,0,5.19-2.17,5.19-5.37v-8.71c0-3.23-2-5.37-5.19-5.37c-3.21,0-5.21,2.14-5.21,5.37v8.71
C455.5,182.39,457.5,184.56,460.71,184.56z M459.57,170.26c0-0.61,0.4-1.06,1.14-1.06c0.71,0,1.11,0.44,1.11,1.06v9.12
c0,0.61-0.4,1.09-1.11,1.09c-0.73,0-1.14-0.47-1.14-1.09V170.26z"/>
<path class="primary-color" d="M479.12,180.16h-5.41c0-0.81,0.33-1.67,1.95-3.17c2.93-2.73,3.54-4.51,3.54-6.51c0-2.84-1.32-5.4-5.14-5.4
c-3.21,0-4.78,2.5-4.78,4.84v1.98H473v-1.39c0-0.92,0.36-1.47,1.16-1.47c0.76,0,1.19,0.42,1.19,1.47c0,1-0.56,2.14-2.45,4.12
c-2.99,3.14-3.95,5.29-3.95,8.35v1.11h10.17L479.12,180.16L479.12,180.16z"/>
<path class="primary-color" d="M487.67,184.56c3.19,0,5.19-2.17,5.19-5.37v-8.71c0-3.23-2-5.37-5.19-5.37c-3.21,0-5.21,2.14-5.21,5.37v8.71
C482.46,182.39,484.46,184.56,487.67,184.56z M486.53,170.26c0-0.61,0.4-1.06,1.14-1.06c0.71,0,1.11,0.44,1.11,1.06v9.12
c0,0.61-0.4,1.09-1.11,1.09c-0.73,0-1.14-0.47-1.14-1.09V170.26z"/>
</g>
</g>
<g id="left-ribbon-top">
<path class="primary-color" d="M111.41,144.45h-59.1l0,0H34.2c-3.31,0-6,2.69-6,6v16.4l0.03,8.22v0.89l-0.03,8.22v16.4
c0,3.23,2.57,5.86,5.76,5.99v0.01h0.24l0,0h18.11l0,0h64.28v-0.31l0,0v-61.82H111.41z"/>
<polygon class="secondary-color" points="52.41,151.29 34.86,151.29 34.86,199.44 52.41,199.44 109.69,199.44 109.69,151.29 	"/>
<g id="_x31_870">
<path class="primary-color" d="M49.79,167.59v16.5h4.12v-18.53h-2.3C51.61,166.61,51.13,167.59,49.79,167.59z"/>
<path class="primary-color" d="M63.35,165.08c-3.19,0-5.31,1.98-5.31,4.98v1.34c0,1.47,0.56,2.81,1.67,3.34c-1.11,0.53-1.67,1.86-1.67,3.34
v1.5c0,3.01,2.12,4.98,5.31,4.98c3.21,0,5.31-1.98,5.31-4.98v-1.5c0-1.47-0.56-2.81-1.67-3.34c1.11-0.53,1.67-1.86,1.67-3.34
v-1.34C68.66,167.06,66.56,165.08,63.35,165.08z M64.59,179.35c0,0.78-0.51,1.25-1.24,1.25c-0.71,0-1.24-0.47-1.24-1.25v-2.39
c0-0.78,0.53-1.25,1.24-1.25c0.73,0,1.24,0.47,1.24,1.25V179.35z M64.59,172.51c0,0.78-0.51,1.28-1.24,1.28
c-0.71,0-1.24-0.5-1.24-1.28v-2.23c0-0.78,0.53-1.25,1.24-1.25c0.73,0,1.24,0.47,1.24,1.25V172.51z"/>
<path class="primary-color" d="M71.21,169.73h6.07c-2.43,3.28-4.53,9.29-4.53,14.36h4.63c0-6.23,1.19-11.24,4.05-16.66v-1.86H71.21V169.73z"
/>
<path class="primary-color" d="M89.43,165.11c-3.21,0-5.21,2.14-5.21,5.37v8.71c0,3.2,2,5.37,5.21,5.37c3.19,0,5.19-2.17,5.19-5.37v-8.71
C94.61,167.25,92.61,165.11,89.43,165.11z M90.54,179.38c0,0.61-0.4,1.09-1.11,1.09c-0.73,0-1.14-0.47-1.14-1.09v-9.12
c0-0.61,0.4-1.06,1.14-1.06c0.71,0,1.11,0.44,1.11,1.06V179.38z"/>
</g>
</g>
<g id="title">
<g>
<polygon class="secondary-color" points="406.99,98.57 406.99,93.98 411.74,85.47 408.62,85.47 405.57,91.16 402.52,85.47 399.36,85.47
404.11,93.98 404.11,98.57 		"/>
<polygon class="secondary-color" points="290.85,87.94 290.85,85.47 281.37,85.47 281.37,98.57 290.85,98.57 290.85,96.1 284.24,96.1
284.24,93.1 289.69,93.1 289.69,90.67 284.24,90.67 284.24,87.94 		"/>
<polygon class="secondary-color" points="246.37,87.92 250.19,87.92 250.19,98.57 253.06,98.57 253.06,87.92 256.88,87.92 256.88,85.47
246.37,85.47 		"/>
<path class="secondary-color" d="M145.31,98.57c1.93,0,2.99-0.96,2.99-2.71v-7.67c0-1.75-1.06-2.71-2.99-2.71h-4.59
c-1.93,0-2.99,0.96-2.99,2.71v7.67c0,1.75,1.06,2.71,2.99,2.71H145.31z M140.6,95.73v-7.42c0-0.19,0.05-0.37,0.44-0.37h3.92
c0.43,0,0.46,0.19,0.46,0.37v7.42c0,0.18-0.04,0.37-0.46,0.37h-3.92C140.66,96.1,140.6,95.92,140.6,95.73z"/>
<path class="secondary-color" d="M134.95,90.22v-2.04c0-1.75-1.06-2.71-2.99-2.71h-4.34c-1.93,0-2.99,0.96-2.99,2.71v7.67
c0,1.75,1.06,2.71,2.99,2.71h4.34c1.93,0,2.99-0.96,2.99-2.71v-2.04h-2.88v1.91c0,0.18-0.04,0.37-0.46,0.37h-3.66
c-0.39,0-0.44-0.18-0.44-0.37V88.3c0-0.19,0.05-0.37,0.44-0.37h3.66c0.43,0,0.46,0.19,0.46,0.37v1.91L134.95,90.22L134.95,90.22z"
/>
<path class="secondary-color" d="M261.29,85.47l-4.81,13.1h3.03l1.05-3.1h4.53l1.05,3.1h3.15l-4.84-13.1H261.29z M261.38,93l1.44-4.27
l1.44,4.27H261.38z"/>
<path class="secondary-color" d="M196.77,95.47l1.05,3.1h3.15l-4.84-13.1h-3.16l-4.81,13.1h3.03l1.05-3.1H196.77z M194.51,88.74l1.44,4.27
h-2.88L194.51,88.74z"/>
<path class="secondary-color" d="M213.57,95.86v-7.67c0-1.75-1.06-2.71-2.99-2.71h-7.39v13.1h7.39C212.51,98.57,213.57,97.61,213.57,95.86z
M210.7,95.73c0,0.19-0.05,0.37-0.44,0.37h-4.18v-8.16h4.18c0.39,0,0.44,0.18,0.44,0.37V95.73z"/>
<polygon class="secondary-color" points="275.53,98.57 275.53,87.92 279.35,87.92 279.35,85.47 268.84,85.47 268.84,87.92 272.65,87.92
272.65,98.57 		"/>
<path class="secondary-color" d="M172.74,95.86v-7.67c0-1.75-1.06-2.71-2.99-2.71h-4.59c-1.93,0-2.99,0.96-2.99,2.71v7.67
c0,1.75,1.06,2.71,2.99,2.71h4.59C171.68,98.57,172.74,97.61,172.74,95.86z M165.49,96.1c-0.39,0-0.44-0.18-0.44-0.37v-7.42
c0-0.19,0.05-0.37,0.44-0.37h3.92c0.43,0,0.46,0.19,0.46,0.37v7.42c0,0.18-0.04,0.37-0.46,0.37H165.49z"/>
<polygon class="secondary-color" points="160.09,96.1 153.97,96.1 153.97,85.47 151.09,85.47 151.09,98.57 160.09,98.57 		"/>
<path class="secondary-color" d="M223.89,98.57c1.93,0,2.99-0.96,2.99-2.71v-7.67c0-1.75-1.06-2.71-2.99-2.71h-4.59
c-1.93,0-2.99,0.96-2.99,2.71v7.67c0,1.75,1.06,2.71,2.99,2.71H223.89z M219.19,95.73v-7.42c0-0.19,0.05-0.37,0.44-0.37h3.91
c0.43,0,0.46,0.19,0.46,0.37v7.42c0,0.19-0.06,0.37-0.46,0.37h-3.91C219.24,96.1,219.19,95.92,219.19,95.73z"/>
<path class="secondary-color" d="M234.17,94.12v1.74c0,1.75,1.06,2.71,2.99,2.71h4.24c1.93,0,2.99-0.96,2.99-2.71v-2.02
c0-1.91-1.45-2.47-3.01-2.78l-3.6-0.72c-0.64-0.13-0.69-0.26-0.69-0.6v-1.47c0-0.19,0.04-0.39,0.46-0.39h3.35
c0.37,0,0.44,0.15,0.44,0.39v1.51h2.84v-1.6c0-1.75-1.06-2.71-2.99-2.71h-3.99c-1.93,0-2.99,0.96-2.99,2.71v1.85
c0,1.91,1.45,2.46,3.01,2.78l3.6,0.73c0.62,0.13,0.69,0.23,0.69,0.58v1.64c0,0.23-0.08,0.39-0.44,0.39h-3.62
c-0.37,0-0.44-0.16-0.44-0.39v-1.65h-2.84V94.12z"/>
<path class="secondary-color" d="M185.76,91.01v-2.82c0-1.75-1.06-2.71-2.99-2.71h-7.23v13.1h2.88v-4.84h2.31l2.5,4.84h3.14l-2.58-4.95
C185.06,93.31,185.76,92.4,185.76,91.01z M182.88,90.94c0,0.19-0.05,0.37-0.44,0.37h-4.03v-3.39h4.03c0.39,0,0.44,0.18,0.44,0.37
V90.94z"/>
<path class="secondary-color" d="M298.38,85.47v10.38c0,1.75,1.06,2.71,2.99,2.71h4.52c1.93,0,2.99-0.96,2.99-2.71V85.47H306v10.26
c0,0.19-0.05,0.37-0.44,0.37h-3.84c-0.41,0-0.46-0.18-0.46-0.37V85.47H298.38z"/>
<polygon class="secondary-color" points="320.01,98.57 322.72,98.57 322.72,85.47 319.98,85.47 319.98,93.86 314.53,85.47 311.66,85.47
311.66,98.57 314.39,98.57 314.39,89.93 		"/>
<polygon class="secondary-color" points="354.56,87.94 354.56,85.47 345.08,85.47 345.08,98.57 354.56,98.57 354.56,96.1 347.95,96.1
347.95,93.1 353.4,93.1 353.4,90.67 347.95,90.67 347.95,87.94 		"/>
<path class="secondary-color" d="M370.08,94.12v1.74c0,1.75,1.06,2.71,2.99,2.71h4.24c1.93,0,2.99-0.96,2.99-2.71v-2.02
c0-1.91-1.45-2.47-3.01-2.78l-3.6-0.72c-0.64-0.13-0.69-0.26-0.69-0.6v-1.47c0-0.19,0.04-0.39,0.46-0.39h3.35
c0.37,0,0.44,0.15,0.44,0.39v1.51h2.84v-1.6c0-1.75-1.06-2.71-2.99-2.71h-3.99c-1.93,0-2.99,0.96-2.99,2.71v1.85
c0,1.91,1.45,2.46,3.01,2.78l3.6,0.73c0.62,0.13,0.69,0.23,0.69,0.58v1.64c0,0.23-0.08,0.39-0.44,0.39h-3.62
c-0.37,0-0.44-0.16-0.44-0.39v-1.65h-2.84V94.12z"/>
<path class="secondary-color" d="M367.46,91.01v-2.82c0-1.75-1.06-2.71-2.99-2.71h-7.23v13.1h2.88v-4.84h2.31l2.5,4.84h3.14l-2.58-4.95
C366.76,93.31,367.46,92.4,367.46,91.01z M364.58,90.94c0,0.19-0.05,0.37-0.44,0.37h-4.03v-3.39h4.03c0.39,0,0.44,0.18,0.44,0.37
V90.94z"/>
<rect x="383" y="85.47" class="secondary-color" width="2.88" height="13.1"/>
<polygon class="secondary-color" points="394.55,98.57 394.55,87.92 398.37,87.92 398.37,85.47 387.86,85.47 387.86,87.92 391.68,87.92
391.68,98.57 		"/>
<rect x="325.51" y="85.47" class="secondary-color" width="2.88" height="13.1"/>
<polygon class="secondary-color" points="342.84,85.47 339.79,85.47 336.77,95.07 333.78,85.47 330.65,85.47 335.2,98.57 338.29,98.57 		"/>
<path class="secondary-color" d="M301.71,96.1h3.84c0.39,0,0.44-0.18,0.44-0.37V85.47h2.88v10.38c0,1.75-1.06,2.71-2.99,2.71h-4.52
c-1.93,0-2.99-0.96-2.99-2.71V85.47h2.87v10.26C301.25,95.92,301.31,96.1,301.71,96.1z"/>
<polygon class="secondary-color" points="311.66,98.57 311.66,85.47 314.53,85.47 319.98,93.86 319.98,85.47 322.72,85.47 322.72,98.57
320.01,98.57 314.39,89.93 314.39,98.57 		"/>
<rect x="325.51" y="85.47" class="secondary-color" width="2.88" height="13.1"/>
<polygon class="secondary-color" points="330.65,85.47 333.78,85.47 336.77,95.07 339.79,85.47 342.84,85.47 338.29,98.57 335.2,98.57 		"/>
<polygon class="secondary-color" points="353.4,90.67 353.4,93.1 347.95,93.1 347.95,96.1 354.56,96.1 354.56,98.57 345.08,98.57
345.08,85.47 354.56,85.47 354.56,87.94 347.95,87.94 347.95,90.67 		"/>
<path class="secondary-color" d="M373.36,96.16h3.62c0.37,0,0.44-0.16,0.44-0.39v-1.64c0-0.35-0.07-0.45-0.69-0.58l-3.6-0.73
c-1.56-0.32-3.01-0.87-3.01-2.78v-1.85c0-1.75,1.06-2.71,2.99-2.71h3.99c1.93,0,2.99,0.96,2.99,2.71v1.6h-2.84v-1.51
c0-0.23-0.08-0.39-0.44-0.39h-3.35c-0.42,0-0.46,0.2-0.46,0.39v1.47c0,0.34,0.05,0.47,0.69,0.6l3.6,0.72
c1.57,0.31,3.01,0.87,3.01,2.78v2.02c0,1.75-1.06,2.71-2.99,2.71h-4.24c-1.93,0-2.99-0.96-2.99-2.71v-1.74h2.84v1.65
C372.91,96,372.99,96.16,373.36,96.16z"/>
<rect x="383" y="85.47" class="secondary-color" width="2.88" height="13.1"/>
<polygon class="secondary-color" points="387.86,87.92 387.86,85.47 398.37,85.47 398.37,87.92 394.55,87.92 394.55,98.57 391.68,98.57
391.68,87.92 		"/>
<polygon class="secondary-color" points="399.36,85.47 402.52,85.47 405.57,91.16 408.62,85.47 411.74,85.47 406.99,93.98 406.99,98.57
404.11,98.57 404.11,93.98 		"/>
<path class="secondary-color" d="M237.44,96.16h3.62c0.37,0,0.44-0.16,0.44-0.39v-1.64c0-0.35-0.07-0.45-0.69-0.58l-3.6-0.73
c-1.56-0.32-3.01-0.87-3.01-2.78v-1.85c0-1.75,1.06-2.71,2.99-2.71h3.99c1.93,0,2.99,0.96,2.99,2.71v1.6h-2.84v-1.51
c0-0.23-0.08-0.39-0.44-0.39h-3.35c-0.42,0-0.46,0.2-0.46,0.39v1.47c0,0.34,0.05,0.47,0.69,0.6l3.6,0.72
c1.57,0.31,3.01,0.87,3.01,2.78v2.02c0,1.75-1.06,2.71-2.99,2.71h-4.24c-1.93,0-2.99-0.96-2.99-2.71v-1.74H237v1.65
C237,96,237.08,96.16,237.44,96.16z"/>
<polygon class="secondary-color" points="268.84,87.92 268.84,85.47 279.35,85.47 279.35,87.92 275.53,87.92 275.53,98.57 272.65,98.57
272.65,87.92 		"/>
<polygon class="secondary-color" points="256.88,87.92 253.06,87.92 253.06,98.57 250.19,98.57 250.19,87.92 246.37,87.92 246.37,85.47
256.88,85.47 		"/>
<polygon class="secondary-color" points="289.69,90.67 289.69,93.1 284.24,93.1 284.24,96.1 290.85,96.1 290.85,98.57 281.37,98.57
281.37,85.47 290.85,85.47 290.85,87.94 284.24,87.94 284.24,90.67 		"/>
<path class="secondary-color" d="M131.61,87.94h-3.66c-0.39,0-0.44,0.18-0.44,0.37v7.42c0,0.19,0.05,0.37,0.44,0.37h3.66
c0.43,0,0.46-0.19,0.46-0.37v-1.91h2.88v2.04c0,1.75-1.06,2.71-2.99,2.71h-4.34c-1.93,0-2.99-0.96-2.99-2.71v-7.67
c0-1.75,1.06-2.71,2.99-2.71h4.34c1.93,0,2.99,0.96,2.99,2.71v2.04h-2.88v-1.91C132.07,88.13,132.04,87.94,131.61,87.94z"/>
<polygon class="secondary-color" points="151.09,98.57 151.09,85.47 153.97,85.47 153.97,96.1 160.09,96.1 160.09,98.57 		"/>
<path class="secondary-color" d="M210.59,85.47h-7.39v13.1h7.39c1.93,0,2.99-0.96,2.99-2.71v-7.67C213.57,86.44,212.51,85.47,210.59,85.47z
M210.7,95.73c0,0.19-0.05,0.37-0.44,0.37h-4.18v-8.16h4.18c0.39,0,0.44,0.18,0.44,0.37V95.73z"/>
<path class="secondary-color" d="M196.13,85.47h-3.16l-4.81,13.1h3.03l1.05-3.1h4.53l1.05,3.1h3.15L196.13,85.47z M193.07,93l1.44-4.27
l1.44,4.27H193.07z"/>
<path class="secondary-color" d="M264.44,85.47h-3.16l-4.81,13.1h3.03l1.05-3.1h4.53l1.05,3.1h3.15L264.44,85.47z M261.38,93l1.44-4.27
l1.44,4.27H261.38z"/>
<path class="secondary-color" d="M223.89,85.47h-4.59c-1.93,0-2.99,0.96-2.99,2.71v7.67c0,1.75,1.06,2.71,2.99,2.71h4.59
c1.93,0,2.99-0.96,2.99-2.71v-7.67C226.88,86.44,225.82,85.47,223.89,85.47z M224,95.73c0,0.19-0.06,0.37-0.46,0.37h-3.91
c-0.39,0-0.44-0.18-0.44-0.37v-7.42c0-0.19,0.05-0.37,0.44-0.37h3.91c0.43,0,0.46,0.19,0.46,0.37V95.73z"/>
<path class="secondary-color" d="M145.31,85.47h-4.59c-1.93,0-2.99,0.96-2.99,2.71v7.67c0,1.75,1.06,2.71,2.99,2.71h4.59
c1.93,0,2.99-0.96,2.99-2.71v-7.67C148.3,86.44,147.23,85.47,145.31,85.47z M145.42,95.73c0,0.18-0.04,0.37-0.46,0.37h-3.92
c-0.39,0-0.44-0.18-0.44-0.37v-7.42c0-0.19,0.05-0.37,0.44-0.37h3.92c0.43,0,0.46,0.19,0.46,0.37V95.73z"/>
<path class="secondary-color" d="M169.76,85.47h-4.59c-1.93,0-2.99,0.96-2.99,2.71v7.67c0,1.75,1.06,2.71,2.99,2.71h4.59
c1.93,0,2.99-0.96,2.99-2.71v-7.67C172.74,86.44,171.68,85.47,169.76,85.47z M169.87,95.73c0,0.18-0.04,0.37-0.46,0.37h-3.92
c-0.39,0-0.44-0.18-0.44-0.37v-7.42c0-0.19,0.05-0.37,0.44-0.37h3.92c0.43,0,0.46,0.19,0.46,0.37V95.73z"/>
<path class="secondary-color" d="M365.49,93.62c1.28-0.31,1.97-1.22,1.97-2.61v-2.82c0-1.75-1.06-2.71-2.99-2.71h-7.23v13.1h2.88v-4.84h2.31
l2.5,4.84h3.14L365.49,93.62z M364.58,90.94c0,0.19-0.05,0.37-0.44,0.37h-4.03v-3.39h4.03c0.39,0,0.44,0.18,0.44,0.37V90.94z"/>
<path class="secondary-color" d="M183.79,93.62c1.28-0.31,1.97-1.22,1.97-2.61v-2.82c0-1.75-1.06-2.71-2.99-2.71h-7.23v13.1h2.88v-4.84h2.31
l2.5,4.84h3.14L183.79,93.62z M182.88,90.94c0,0.19-0.05,0.37-0.44,0.37h-4.03v-3.39h4.03c0.39,0,0.44,0.18,0.44,0.37V90.94z"/>
</g>
</g>
<g id="numbers">
<path class="secondary-color" d="M117.02,143.57c0-2.08,0-2.08-1.94-2.08c-3.19,0-6.39,0-9.7,0c-0.54,0-0.99-0.48-0.99-1.05
c0-2.88-0.01-5.64,0.03-8.41c0-0.33,0.34-0.7,0.6-0.98c5.73-6.08,11.46-12.16,17.22-18.21c0.33-0.35,0.8-0.54,1.26-0.54
c11.23-0.03,11.58-0.02,22.83-0.01c0.1,0,6.7,0.04,9.81,0.09c0.88,0.01,1.58,0.77,1.58,1.71v136.36c0,0.57-0.44,1.03-0.98,1.03
h-38.75c-0.54,0-0.98-0.46-0.98-1.03v-19.86C117.02,195.94,117.02,178.21,117.02,143.57z"/>
<path class="secondary-color" d="M166.38,204.48c0-0.76,0.61-1.37,1.37-1.37h37.89c0.76,0,1.37,0.61,1.37,1.37v16.15
c0,0.76,0.61,1.37,1.37,1.37h41.83c0.76,0,1.37-0.61,1.37-1.37v-27.9c0-0.76-0.61-1.37-1.37-1.37h-78.4
c-0.76,0-1.37-0.61-1.37-1.37v-76.25c0-0.76,0.61-1.37,1.37-1.37h112.45c0.76,0,1.37,0.61,1.37,1.37v24.68
c0,0.76-0.61,1.37-1.37,1.37h-71.62c-0.76,0-1.37,0.61-1.37,1.37v19.41c0,0.76,0.61,1.37,1.37,1.37l61.27-0.02
c0.99,0,1.7,0.28,2.41,1.03c4.89,5.23,9.84,10.4,14.71,15.66c0.51,0.55,0.93,1.62,0.93,2.37c0.05,16.56,0.05,35.07,0,51.63
c0,0.71-0.4,1.72-0.89,2.25c-4.94,5.32-9.93,10.59-14.95,15.82c-0.48,0.5-1.31,0.88-1.98,0.88c-29.51,0.04-60.5,0.04-90.01,0
c-0.67,0-1.5-0.38-1.98-0.88c-5.03-5.23-10.01-10.52-14.97-15.82c-0.43-0.46-0.81-1.18-0.81-1.79v-28.59H166.38z"/>
<path class="secondary-color" d="M426.18,131.25c0-0.76-0.38-1.7-0.88-2.24c-4.94-5.32-9.93-10.6-14.96-15.83c-0.48-0.5-1.31-0.88-1.98-0.88
c-29.51-0.04-60.97-0.04-90.48,0c-0.67,0-1.5,0.37-1.98,0.87c-4.96,5.16-9.85,10.39-14.8,15.56c-0.78,0.82-1.11,1.64-1.1,2.81
c0.03,16.46,0.02,32.91,0.02,49.37c0,16.51,0.01,34.96-0.02,51.47c0,1.11,0.3,1.9,1.05,2.68c4.95,5.17,9.84,10.41,14.8,15.56
c0.51,0.53,1.39,0.93,2.11,0.93c29.46,0.05,60.87,0.05,90.33,0c0.71,0,1.6-0.4,2.11-0.93c5-5.19,9.95-10.43,14.85-15.72
c0.53-0.57,0.94-1.57,0.94-2.37C426.23,199.43,426.23,164.37,426.18,131.25z M385.16,221.94c0,1.12-0.9,2.02-2.02,2.02h-40.22
c-1.12,0-2.02-0.9-2.02-2.02v-80.06c0-1.12,0.9-2.02,2.02-2.02h40.22c1.12,0,2.02,0.9,2.02,2.02V221.94z"/>
</g>
</g>
</svg>
