<svg xmlns="http://www.w3.org/2000/svg" viewBox="0 0 411.5 64.4" enable-background="new 0 0 411.5 64.4"><path d="m32.7.9c-17.3 0-31.3 14-31.3 31.3 0 17.3 14 31.3 31.3 31.3 17.3 0 31.3-14 31.3-31.3-.1-17.3-14.1-31.3-31.3-31.3" fill="#b38808"/><g fill="#fff"><path d="m154.2 26.7c-1.9-1.5-3.7-1.3-4.4-.4l-2.9 3.5v-3.9h-7.1v.6c1.8 0 2.5.5 2.5 2.2v9c0 1.8-.5 2.4-2.3 2.4v.7h9.4v-.6c-1.8-.1-2.4-.7-2.4-2.5v-5c0-1.9 1.3-2.8 2.5-2.8 1.3 0 2.8 1 3.8 2.4l.9-5.6m-21.8-.7c-4.7 0-8.6 3.4-8.6 7.5 0 4.2 3.8 7.6 8.6 7.6 4.7 0 8.5-3.4 8.5-7.6 0-4.2-3.8-7.5-8.5-7.5m-.1 13.7c-2.3 0-4.2-2.9-4.2-6.3 0-3.5 1.9-6.3 4.2-6.3 2.3 0 4.2 2.8 4.2 6.3 0 3.5-1.8 6.3-4.2 6.3m60.6-13.7c-4.7 0-8.5 3.4-8.5 7.5 0 4.2 3.8 7.6 8.5 7.6 4.7 0 8.6-3.4 8.6-7.6 0-4.2-3.9-7.5-8.6-7.5m0 13.7c-2.3 0-4.2-2.9-4.2-6.3 0-3.5 1.9-6.3 4.2-6.3 2.3 0 4.2 2.8 4.2 6.3 0 3.5-1.9 6.3-4.2 6.3m-70.2-2v-16.9h-7.1v.6c1.8.1 2.2.4 2.3 2v14.2c0 2-.5 2.5-2.2 2.6v.7h9.3v-.6c-1.8-.3-2.3-.9-2.3-2.6m43.5-.2v-7.4c0-2.4-3.1-4.2-5.7-4.2-2.9 0-6.3 1.6-6.6 5.5 1.6-2.3 3.9-3.3 6.4-2.3 1.6.7 1.9 2.7.7 3l-4.9 1.5c-2.1.6-3.1 2.1-3 3.8.1 1.7 1.3 3.7 4 3.6 1.7 0 3.3-.8 4.8-2.2.6 1.6 1.8 2.3 3.1 2.3 1.2 0 2.6-1 3-2.4-1.1.6-1.8 0-1.8-1.2m-6.6 1.5c-1.6 0-2.3-1.3-2.3-2.5 0-.9.5-1.6 1.1-1.9l3.4-1.5v3.5c0 1.5-.7 2.4-2.2 2.4m23.3-1.1v-17.1h-6.9v.5c1.8.2 2.4.1 2.4 2v4.2c-1.1-1.1-2.7-1.5-4.3-1.5-4.2 0-6.9 3.9-6.9 7.3 0 4.2 2.1 7.5 8.1 7.5h9.7v-.6c-1.5-.4-2.1-1.3-2.1-2.3m-4.5.2c0 .7-.6 1.6-1.7 1.5-2.9-.1-4.9-3.3-5-6.4-.1-2.4 1.1-5.7 3.7-5.8 1.7 0 3 .6 3 2.6v8.1m-69.9-12.1c-4.7 0-8.6 3.4-8.6 7.5 0 .8.1 1.6.4 2.3-2.2 2.3-4.8 3.2-6.5 3-8.5-.5-8.6-16.7.2-16.6 5.1.1 5.7 4.1 6 6.1l.8-.2-.1-7.1h-.6c-.1.4-.4.9-1.1.9-.4-.1-3.7-1.2-6.2-1.2-3.2.1-10.7 2.2-10.8 10.1-.1 8 6.5 10.3 10.6 10.2 3.8-.1 6.4-2.3 8.2-4.2 1.4 2.5 4.3 4.2 7.7 4.2 4.7 0 8.5-3.4 8.5-7.6 0-4.1-3.8-7.4-8.5-7.4m-.1 13.8c-2.3 0-4.3-2.9-4.3-6.3 0-3.5 1.9-6.3 4.3-6.3 2.3 0 4.2 2.8 4.2 6.3 0 3.4-1.9 6.3-4.2 6.3m273.1-2.1v-11.8h-7v.6c1.6 0 1.9.4 2.2.7.4.3.3 1.6.3 2.5v7.6c0 .9 0 1.7-.5 2.2-.3.3-.9.5-1.8.6v.6h9.2v-.6c-1.6 0-2.5-.4-2.4-2.4m.4-18.2c0-3.2-5.2-3.2-5.2 0-.1 3.2 5.2 3.2 5.2 0m-22.9 6.8l-3 3.5v-3.9h-7.1v.6c1.8 0 2.5.5 2.5 2.2v9c0 1.8-.5 2.4-2.3 2.4v.7h9.4v-.6c-1.8-.1-2.4-.7-2.4-2.5v-5c0-1.9 1.3-2.8 2.5-2.8 1.3 0 2.8 1 3.8 2.4l1.1-5.6c-1.9-1.5-3.7-1.3-4.5-.4m-9.1 9.2c-2.3 3.3-4 3.4-6 3.4-2.5-.1-4.5-3.2-4.4-6.5h10.3c-.3-3.8-2.3-6.6-6.7-6.5-4.9.1-8.6 2.8-8.5 8.1.2 5 5 7.1 8.2 7.1 4.4 0 6.7-2.5 7.6-5.1l-.5-.5m-7.4-8.3c1.3 0 2.5 1.7 2.5 3.7h-5.3c.1-2.2 1.5-3.7 2.8-3.7m-23.6-7.7c0-3.2-5.2-3.2-5.2 0 0 3.2 5.2 3.2 5.2 0m17.9 7.1v-.6h-5.9v.6c1.2.1 1.8.6 1.8 1.6 0 .6-.2 1.2-.6 2l-2.6 5.2-3.4-6.6c-.2-.4-.3-.7-.3-1 0-.7.5-1.1 1.4-1.3v-.6h-8.8-6.9v.6c1.6 0 1.9.4 2.2.7.3.4.3 1.6.3 2.5v7.6c0 .9 0 1.7-.5 2.2-.2.2-.6.4-1.1.5-.8-.1-1.1-.3-1.4-.5-.5-.3-.6-1.3-.6-2.2v-6.2c0-1.6-.5-2.8-1.4-3.8-1-.9-2.1-1.4-3.5-1.4-2.2 0-4.1 1.2-5.4 3.5h-.1v-3.5h-.6-6.2v.6c.9 0 1.5.1 1.9.5.4.4.5.8.5 2.6v8c0 .7 0 1.5-.6 2.1-.3.3-.8.4-1.2.4-.7-.1-1.2-.2-1.4-.5-.4-.4-.5-.9-.5-2.2v-16.5h-6.5v.6c.6 0 1.5.1 1.8.5.3.4.5.5.5 2.3v12.4c-1.7 1.8-3.2 2.8-4.8 2.8-1.1 0-2-.3-2.7-1-.7-.7-1-1.6-1-2.9v-14.7h-6.8v.6c.7 0 1.5.2 1.8.5.5.5.4 1.4.4 2.3v10.4c0 2 .6 3.6 1.8 4.8 1.2 1.2 2.9 1.8 4.9 1.8 1.2 0 2.3-.2 3.2-.7.9-.4 1.9-1.3 3.1-2.5v2.7h6.1 8.6v-.6c-.8-.1-1.1-.2-1.5-.5-.6-.5-.7-1.2-.7-2.3v-6.7c.9-1.7 2.1-2.5 3.6-2.5.8 0 1.5.3 1.9.9.5.6.7 1.4.7 2.5v5.9c0 .8-.1 1.6-.6 2-.4.4-1 .5-1.7.5v.7h7.8 9.2v-.6c-1.7-.1-2.5-.4-2.4-2.4v-11.1c.6.1 1.2.3 1.6.6.5.4 1.1 1.2 1.7 2.4l5.5 11.1h.8l5.3-10.9c.6-1.1 1.1-2 1.6-2.5.4-.4 1-.7 1.7-.7m37.3 6.6c-.7-.8-2.2-1.6-4.3-2.3-1.4-.5-2.3-.9-2.7-1.2-.4-.3-.6-.7-.6-1.2 0-.4.2-.8.7-1.1.5-.3 1.1-.4 1.8-.4 1 0 1.9.3 2.7.9.8.6 1.4 1.4 1.9 2.5h.7v-3.4c-1.9-.9-5.5-1-5.5-1-1.5 0-2.8.4-3.7 1.2-1 .8-1.5 1.8-1.5 3 0 1 .3 1.8 1 2.5.6.7 2 1.4 4 2.1 1.6.6 2.6 1.1 3.1 1.5.5.4.7 1 .7 1.6 0 .6-.3 1-.8 1.4-.5.4-1.1.6-1.9.6-2.1 0-3.9-1.5-5.4-4.4h-.7v4.6c3.3.9 6.2.8 6.2.8 1.4 0 2.6-.5 3.7-1.5 1.1-.9 1.7-2.1 1.7-3.4 0-1-.4-2-1.1-2.8m-111.5 5.7c-2.5-.1-4.5-3.2-4.4-6.5h10.3c-.3-3.8-2.3-6.6-6.7-6.5-4.9.1-8.6 2.8-8.5 8.1 0 1.3.4 2.4 1 3.3-1.8 2-4.1 1.4-4.1-1.6v-8.3h4.5v-1.5h-4.5v-6.7l-.6-.2c-.7 4.2-3.2 6.1-6.2 6.9v1.5h1.9v8.9c0 2.4 1.4 3.7 2.8 4.3 2.8 1.1 5.3 0 6.7-2.6 1.7 2.1 4.6 3 6.7 3 4.4 0 6.8-2.5 7.6-5.1l-.5-.5c-2.2 3.4-4 3.6-6 3.5m-1.4-11.7c1.3 0 2.6 1.7 2.5 3.7h-5.4c.2-2.2 1.6-3.7 2.9-3.7m-18.2 10.3v-7.4c0-2.4-3-4.2-5.6-4.2-2.8 0-6.2 1.6-6.4 5.5 1.6-2.3 3.8-3.3 6.2-2.3 1.6.7 1.9 2.6.7 3l-4.8 1.5c-2 .6-3 2.1-2.9 3.8 0 .2 0 .4.1.5-2.6 1.1-3.7-.3-3.7-2.6v-8h4.5v-1.5h-4.5v-6.7l-.6-.2c-.8 4.2-1.9 5.4-5.2 6.8v-6.6c-4.5-1.9-9.3-1.1-11.2-.2-4.4 1.9-5.6 7.4-1.6 10.7l5.9 4.8c3.3 2.7 1.8 7.5-1.3 8.3-2.9.7-5.7-1.2-7-3.1l-.8.4c1.7 3.2 4.9 5.1 8.2 4.9 3.1-.1 7-1.9 8-5 1.1-3.8-.8-7.4-2.5-8.7l-6.9-5.4c-1.1-.9-1.4-1.6-1.4-2.7.1-2.6 2.7-3.8 4.3-3.8 3.3-.1 5.4 3.7 5.5 8h1.7v8.5c0 2.9 1.3 5.1 3.9 5.2 1.5.1 3.7-.3 4.9-1.9.6 1.1 1.7 1.9 3.4 1.9 1.7-.1 3.3-.8 4.7-2.2.6 1.6 1.7 2.3 3 2.3 1.1 0 2.5-1 2.9-2.4-.9.6-1.5 0-1.5-1.2m-6.5 1.5c-1.6 0-2.3-1.3-2.3-2.5 0-.9.4-1.6 1.1-1.9l3.3-1.5v3.5c0 1.5-.7 2.4-2.1 2.4m167-13.1v.7c1.3.3 1.9.9 1.9 1.9 0 .7-.3 1.7-.9 2.9l-2.2 4.9-3.4-6.7c-.4-.9-.6-1.5-.7-1.9 0-.6.5-1 1.5-1.1v-.7h-6.5-1.7-1.5-1.2v-6.7l-.6-.2c-.7 4.2-2.9 6.4-6 6.9v1.5h1.7v8.9c0 2.4 1.4 3.8 2.8 4.3 2.9 1.2 5.5-.1 6.9-2.9 0 .1-.6-.7-.6-.5-1.9 2.1-4.3 1.6-4.3-1.4v-8.3c0 0 3.8-.1 5.1 2.6l5.9 11.9c-.7 1.6-1.5 2.8-2.2 3.5-1 1-2.2 1.5-3.6 1.5-.7 0-1.4-.1-2.2-.4l-1 4.6c.4.1.8.1 1.4.1 1.7 0 3-.4 4-1.1 1-.8 2-2.1 2.8-3.9l7.2-15.7c.7-1.4 1.2-2.4 1.7-2.9.5-.5 1.2-.8 2.2-1.1v-.7h-6.5"/><path d="M32.6,60.8C16.9,60.8,4,48,4,32.2C4,16.4,16.9,3.5,32.6,3.5c15.8,0,28.6,12.9,28.6,28.7
	C61.3,48,48.4,60.8,32.6,60.8z"/></g><path d="m32.6 2.5c-16.3 0-29.7 13.3-29.7 29.7 0 16.4 13.4 29.7 29.7 29.7 16.4 0 29.7-13.4 29.7-29.7.1-16.4-13.3-29.7-29.7-29.7m0 58.3c-15.7 0-28.6-12.8-28.6-28.6 0-15.8 12.9-28.7 28.6-28.7 15.8 0 28.6 12.9 28.6 28.7.1 15.8-12.8 28.6-28.6 28.6m18.1-10.9c-2.2.1 2.2-5.8 5.2-8.2.7-.6 1.6-1.3 1.7-2.4.1-.8-.3-1.3-1.1-1.4-1.2 0-4.3 1.6-4.4 1.5 5.4-9.7-2.9-14.7.6-16.8 1.2-.8 3.7 0 5.1.2-12.8-7.5-15 0-18.9 3.4-.6.6-3.3 0-3.8-.6-.7-.8-2-3.8-.5-5.7 2.3-2.8 11.5-11.2 20-3.8-4.1-6.6-13.6-11.5-21.9-11.3-8.4-.2-17.9 4.7-22 11.3 8.4-7.4 17.7 1 20 3.8 1.6 1.9.2 4.9-.5 5.7-.5.6-3.2 1.2-3.8.6-3.8-3.5-6.1-11-18.9-3.4 1.4-.2 3.9-1 5.1-.2 3.4 2.1-4.9 7.1.6 16.8 0 .1-3.2-1.6-4.4-1.5-.8 0-1.2.6-1.1 1.4.2 1.1 1 1.8 1.7 2.4 3 2.5 7.4 8.4 5.2 8.2-2.2-.1-7-7.2-7.8-8.9.9 3 2.6 5.8 4.4 8.2 1 1.3 2 2.4 3.4 2.9.9.3 1.8.5 2.7.1.7-.3 1.1-1 1.3-1.8.2-1.1-.5-2.5-1.1-3.4-.8-1.3-2.5-3.5-4.5-5-2.9-2.1-4.9-2.7-4.1-3.2.5-.4 3.2 1.1 3.8 1.4 3 1.6 7.3 6.1 7.8 9.5.4 2.7-2.7 4.6-4.8 3.8 6.8 5.8 14.3 6 17 6.1 0 0 0 0 0 0 2.6-.1 10.2-.3 16.9-6.1-2.1.7-5.2-1.2-4.8-3.8.5-3.4 4.7-7.9 7.8-9.5.5-.3 3.3-1.8 3.8-1.4.7.5-1.3 1.1-4.1 3.2-2 1.5-3.8 3.8-4.6 5-.6.9-1.2 2.2-1 3.4.1.8.6 1.5 1.3 1.8.9.4 1.8.3 2.7-.1 1.4-.5 2.5-1.6 3.4-2.9 1.8-2.4 3.6-5.2 4.5-8.2-.9 1.7-5.7 8.8-7.9 8.9m-31.6-19.2c-1.3-.1-1-1.1-2.8-1.3 0 0-2.3.2-2.2.9.1 1.1 1.2 1.5 2 1.7 1.1.4 2.4-.2 3.3.9.3.3.5.8.4 1.2-.1.4-.1.2-1.4.3.7.9 1.1 2.2 1.1 3.3 0 3.1.8 5.5.5 6.6-1.5-1.8-1.5-4.5-1.7-6.7-.1-1.1-.6-2.4-1.1-3.2-.6-1-1.9-1-2.6-1.6-.8-.6-1.9-1.5-1.8-2.4.1-1.2 1.2-1.6 2.1-1.8 2.7-.8 3.8.2 4.5.3-.8-1-.6-2.6.5-2.7 2.1-.3 1.5 1.9 1 3-.3.5-.8 1.6-1.8 1.5m3.5 9.4c-.9-1.9-1.3-5-1.2-7.1.1-1 .4-2.3 1.3-2.8.6-.3 1.4-.5 2-.2 1 .3 1.4 1.2 2 2.1.6.9 1.6 1.5 2.4 1.9.5 1.2-.4 4-1.2 5.3-.5 1-2.4 3.3-2 6.8-1.6-2.2-2.8-4.6-3.3-6m10.1 10.8c-.5 0-4-.7-3.4-2 0 0 .1-.1.3-.1 1 .1 2.2.3 3.1.3.9 0 2.1-.2 3.1-.3.2 0 .3.1.3.1.6 1.3-2.9 2-3.4 2m4.9-3.6c-1 .9-2.4 1.5-4.3.9-.5-.3-.2-1.3.1-1.7.9-1.1 2.2-.7 2.6-1.3.4-.6.1-1-.1-1.3-.3-.4-.9-.3-1.3-.2-.8.2-1.4.5-1.8 1 0 0 0 0 0 0-.5-.5-1-.8-1.8-1-.5-.1-1-.2-1.3.2-.2.3-.5.7-.1 1.3.4.6 1.8.1 2.6 1.3.2.4.5 1.4 0 1.7-1.9.6-3.3 0-4.3-.9-2.4-2 .9-6.3 2.5-8 .9-1 1.4-1.8 2.4-1.8 0 0 0 0 0 0 1 0 1.5.9 2.4 1.8 1.5 1.7 4.7 6 2.4 8m5.1-7.2c-.5 1.4-1.7 3.8-3.3 6 .4-3.5-1.5-5.9-2-6.8-.8-1.3-1.7-4.1-1.2-5.3.8-.3 1.8-1 2.4-1.9.6-.9.9-1.8 2-2.1.7-.3 1.5-.1 2 .2.9.5 1.2 1.8 1.3 2.8.1 2.1-.3 5.2-1.2 7.1m8.3-7.3c-.8.6-2 .6-2.6 1.6-.6.8-1 2.1-1.1 3.2-.2 2.2-.2 4.9-1.7 6.7-.3-1.1.5-3.5.5-6.6 0-1.1.4-2.5 1.1-3.3-1.3-.1-1.3.1-1.4-.3-.1-.4.1-.8.4-1.2.9-1.1 2.2-.5 3.3-.9.8-.3 1.9-.7 2-1.7 0-.7-2.2-.9-2.2-.9-1.8.1-1.6 1.2-2.9 1.3-1 .1-1.4-1-1.8-1.7-.5-1-1.1-3.3 1-3 1.1.2 1.3 1.8.5 2.7.8-.1 1.9-1.1 4.6-.3.9.3 2 .7 2.1 1.8.1 1.1-1.1 2-1.8 2.6m-24.9 2.9c.6-2.2-1.9-5-2.9-4.2-.7.7-.8 1.8 0 2.3.5.3 1.5.1 1.9.9.6 1 .8 1.1 1 1m16-4.1c-1-.9-3.5 2-2.9 4.2.2.1.4-.1.9-1 .4-.7 1.5-.6 1.9-.9.8-.5.8-1.6.1-2.3" fill="#00674e"/></svg>