<?xml version="1.0" encoding="utf-8"?>
<!-- Generator: Adobe Illustrator 17.1.0, SVG Export Plug-In . SVG Version: 6.00 Build 0)  -->
<!DOCTYPE svg PUBLIC "-//W3C//DTD SVG 1.1//EN" "http://www.w3.org/Graphics/SVG/1.1/DTD/svg11.dtd">
<svg version="1.1" id="Layer_1" xmlns="http://www.w3.org/2000/svg" xmlns:xlink="http://www.w3.org/1999/xlink" x="0px" y="0px"
	 viewBox="0 0 122.7 39.3" enable-background="new 0 0 122.7 39.3" xml:space="preserve">
<g>
	<path fill="#B28608" d="M102.6,38.5c-10.4,0-18.8-8.4-18.8-18.8c0-10.4,8.4-18.8,18.8-18.8c10.4,0,18.8,8.4,18.8,18.8
		C121.4,30,112.9,38.5,102.6,38.5z M102.6,2.5c-9.5,0-17.2,7.7-17.2,17.1c0,9.5,7.7,17.2,17.2,17.2c9.5,0,17.1-7.7,17.1-17.2
		C119.7,10.2,112,2.5,102.6,2.5z"/>
	<path fill="#FFFFFF" d="M51.8,29.8c0,0.3,0.2,0.5,0.5,0.5c0.3,0,0.5-0.2,0.5-0.5c0-0.3-0.2-0.5-0.5-0.5
		C52,29.3,51.8,29.5,51.8,29.8z M48.2,29.3V29h-1.7v0.2c0.2,0,0.7-0.1,0.7,0.6l0,2.6c0,0.9-0.8,1.5-1.4,1.5c-0.9,0-1.4-0.3-1.4-1.5
		V30c0-0.6,0.3-0.7,0.7-0.7V29H43v0.2c0.5,0,0.7,0.2,0.7,0.6l0,2.6c0,1.5,1.1,1.8,2,1.7c0.6,0,1.8-0.5,1.8-1.7v-2.7
		C47.5,29.2,48,29.3,48.2,29.3z M64.7,29.8c0,0.3,0.2,0.5,0.5,0.5c0.3,0,0.5-0.2,0.5-0.5c0-0.3-0.2-0.5-0.5-0.5
		C64.9,29.3,64.7,29.5,64.7,29.8z M61.2,30.6c-0.3,0-0.5,0.2-0.8,0.7v-0.7c-0.3,0.2-0.8,0.4-1.1,0.5c0.4,0,0.4,0.1,0.4,0.5v1.9
		c0,0.4-0.1,0.5-0.5,0.5l0,0.1h1.7V34c-0.4,0-0.5-0.1-0.5-0.5l0-1.7c0-0.3,0.2-0.9,0.6-0.4c0.2,0.2,0.6,0,0.6-0.3
		C61.7,30.8,61.5,30.6,61.2,30.6z M52.9,34c-0.3,0-0.3-0.1-0.3-0.5v-2.9c-0.3,0.2-0.7,0.4-1.1,0.5c0.5,0,0.4,0.2,0.4,0.4v1.9
		c0,0.3-0.1,0.5-0.5,0.5l0,0c-0.3,0-0.4,0-0.4-0.5v-1.6c0-1-0.3-1.3-1-1.3c-0.4,0-0.9,0.2-1.2,0.8l0-0.8c-0.4,0.2-0.8,0.4-1.1,0.6
		c0.3,0.1,0.4,0.1,0.4,0.6v1.6c0,0.5-0.1,0.6-0.5,0.6l0,0.1h1.8V34c-0.3,0-0.6-0.1-0.6-0.5v-1.6c0-1,1.4-1.1,1.4-0.1l0,1.7
		c0,0.4-0.1,0.5-0.3,0.5l0,0.1l1.5,0l0,0L52.9,34L52.9,34z M65.4,33.5v-2.9c-0.3,0.2-0.7,0.4-1.1,0.5c0.5,0,0.4,0.2,0.4,0.4v1.9
		c0,0.3-0.1,0.5-0.5,0.5v0.1h1.7V34C65.6,34,65.4,33.9,65.4,33.5z M59.2,31.9c-0.1-0.9-0.7-1.3-1.4-1.3c-1.1,0-1.7,0.8-1.7,1.9
		c0,1.1,0.8,1.6,1.6,1.6c0.8,0,1.4-0.7,1.5-1.1l-0.1-0.1c-0.3,0.5-0.6,0.6-1,0.7c-0.9,0.1-1.4-0.8-1.3-1.7L59.2,31.9z M57.7,30.8
		c0.4,0,0.6,0.4,0.6,0.9h-1.5C56.8,30.9,57.4,30.8,57.7,30.8z M70.5,30.7L70.5,30.7c0.3,0.1,0.7,0.2,0.5,0.7l-0.8,2l-0.8-2.1
		c-0.2-0.5,0.3-0.5,0.4-0.5v-0.1l-1.8,0l0,0l-1,0l0-0.8L65.9,31h0.4l0,2.4c0,0.8,1.4,1,2,0.1l-0.1-0.1C67.6,34,67,33.7,67,33.1
		l0-2.1l1.2,0l-0.2-0.3l0.1,0.3c0.3,0,0.4,0.3,0.5,0.5l1.2,2.6c-0.4,0.8-0.3,0.2-0.6,0c-0.2-0.1-0.5,0-0.5,0.4c0,0.5,0.7,1,1.3-0.3
		l1.2-2.9c0.2-0.5,0.4-0.5,0.7-0.6l0-0.1H70.5z M63.2,32c-0.5-0.3-0.9-0.4-0.9-0.7c0-0.3,0.3-0.6,0.6-0.6c0.2,0,0.8,0,0.9,1H64
		l0-0.8c-0.3-0.2-0.6-0.3-1.2-0.3c-0.5,0-1.1,0.3-1.1,0.9c0,0.7,0.5,1,1,1.2c0.6,0.3,0.8,0.4,0.8,0.7c0,0.4-0.3,0.6-0.5,0.6
		c-0.7,0-0.9-0.3-1.1-1.1h-0.1l0,1c0.3,0.1,0.7,0.3,1.2,0.3c0.5,0,1.2-0.2,1.3-1C64.2,32.5,63.5,32.2,63.2,32z M56.5,30.7L56.5,30.7
		l-1.2-0.1v0.1c0.2,0,0.5,0.2,0.3,0.6l-0.7,1.8l-0.8-1.7c-0.2-0.5-0.1-0.6,0.3-0.6v-0.1h-1.7l0,0.1c0.4,0,0.5,0.5,0.5,0.5l1.4,3
		l1.2-2.9C56.1,30.8,56.2,30.8,56.5,30.7z M17.6,6.1c-3.1,0-5.5,2.2-5.5,4.9c0,0.6,0.1,1.2,0.4,1.7c-1.3,1.4-2.9,1.9-4,1.9
		C3.3,14.3,3.3,4.4,8.6,4.5c3.1,0,3.4,2.5,3.7,3.7l0.5-0.1l0-4.3h-0.4C12.2,4,12,4.3,11.6,4.3c-0.2-0.1-2.2-0.8-3.8-0.7
		c-2,0-6.5,1.3-6.6,6.1C1.2,14.6,5.2,16,7.8,16c2.3,0,3.9-1.4,5-2.6c0.9,1.5,2.8,2.5,4.8,2.5c3.1,0,5.5-2.2,5.5-4.9
		C23.2,8.3,20.7,6.1,17.6,6.1z M17.6,15c-1.5,0-2.7-1.8-2.7-4.1c0-2.2,1.2-4.1,2.7-4.1c1.5,0,2.7,1.8,2.7,4.1
		C20.3,13.2,19.1,15,17.6,15z M37.8,11c0-2.7-2.5-4.9-5.5-4.9c-3,0-5.5,2.2-5.5,4.9c0,2.7,2.5,4.9,5.5,4.9
		C35.3,15.9,37.8,13.7,37.8,11z M32.2,15c-1.5,0-2.7-1.8-2.7-4.1c0-2.2,1.2-4.1,2.7-4.1c1.5,0,2.7,1.8,2.7,4.1
		C35,13.2,33.7,15,32.2,15z M68.9,6.1c-3.1,0-5.5,2.2-5.5,4.9c0,2.7,2.5,4.9,5.5,4.9c3.1,0,5.5-2.2,5.5-4.9
		C74.4,8.3,71.9,6.1,68.9,6.1z M68.8,15c-1.5,0-2.7-1.8-2.7-4.1c0-2.2,1.2-4.1,2.7-4.1c1.5,0,2.7,1.8,2.7,4.1
		C71.6,13.2,70.3,15,68.8,15z M26.4,13.9V3.5H22v0.4c1.1,0.1,1.4,0.3,1.5,1.3v8.6c0,1.2-0.3,1.6-1.4,1.6l0,0.4h5.8v-0.4
		C26.8,15.3,26.4,14.9,26.4,13.9z M58.3,15.7l1.8,0c-0.4,2.3-1.9,3.5-3.6,4v0.7h1.1v5.2c0,1.4,0.8,2.2,1.6,2.5c1.6,0.6,3,0,3.8-1.4
		c1,1.2,2.7,1.7,3.9,1.7c2.6,0,4-1.5,4.5-3l-0.3-0.3c-1.4,1.9-2.4,2-3.6,2C66.2,27,65,25.2,65,23.2h6.1c-0.2-2.3-1.4-3.9-4-3.9
		c-2.9,0-5.1,1.7-5,4.8c0,0.8,0.3,1.5,0.6,2.1c-1,1-2.3,0.6-2.3-1v-4.9h2.6v-0.8h-2.6l0-3.8l3.9,0v-0.4c-0.9-0.2-1.3-0.8-1.3-1.4
		l0-10.3h-4.3v0.3c1.1,0.1,1.4,0.1,1.4,1.2v2.3c-0.7-0.7-1.7-1-2.7-1c-2.6,0-4.2,2.4-4.2,4.6C53.3,13.6,54.6,15.7,58.3,15.7z
		 M66.9,20.2c0.8,0,1.5,1,1.5,2.2h-3.2C65.2,21,66.1,20.2,66.9,20.2z M58.4,7.4c1,0,1.9,0.4,1.9,1.6v5c0,0.5-0.4,1-1,0.9
		c-1.8-0.1-3-2.1-3.1-4C56.1,9.6,56.8,7.4,58.4,7.4z M41.8,22.6l-4-3.1C37.2,19,37,18.6,37,17.9c0.1-1.2,1.1-1.9,2-2.1
		c0.2,0,0.4-0.1,0.5-0.1c0.2,0,0.4,0,0.6,0.1c1.5,0.4,2.5,2.3,2.5,4.6h1v4.9c0,1.7,0.7,2.9,2.3,3c0.9,0.1,2.2-0.2,2.9-1.1
		c0.4,0.7,1.1,1.2,2.1,1.2c1.1,0,2.1-0.5,3-1.4c0.4,1,1.1,1.4,1.9,1.4c0.7,0,1.6-0.6,1.8-1.5c-0.7,0.4-1.1,0-1.1-0.8v-4.6
		c0-1.5-1.9-2.6-3.5-2.6c-1.8,0-3.9,1-4,3.4c1-1.4,2.4-2,3.9-1.4c1,0.4,1.2,1.6,0.4,1.9l-3,0.9c-1.2,0.4-1.9,1.3-1.8,2.4
		c0,0.1,0,0.3,0.1,0.4c-1.5,0.7-2.2-0.1-2.2-1.5v-4.6H49v-0.8h-2.6l0-3.7c0.3,0.1,0.6,0.1,0.9,0.1c1.1,0,2.1-0.5,3-1.4
		c0.4,1,1.1,1.4,1.9,1.4c0.7,0,1.6-0.6,1.9-1.5c-0.7,0.4-1.1,0-1.1-0.8V9c0-1.5-1.9-2.6-3.6-2.6c-1.8,0-4,1-4.1,3.4
		c1-1.4,2.5-2,4-1.4c1,0.4,1.2,1.6,0.4,1.9l-3.1,0.9c-1.3,0.4-1.9,1.3-1.9,2.4c0,0.8,0.4,1.6,1.3,2c-0.5,2.2-1.2,3-3,3.8l0-3.8
		c-0.2-0.1-0.4-0.2-0.6-0.2c-0.1,0-0.2-0.1-0.3-0.1c-0.2,0-0.3-0.1-0.5-0.1C41.2,15,41,14.6,41,13.8v-3.1C41,9.5,41.8,9,42.5,9
		c0.8,0,1.7,0.6,2.4,1.5L45.6,7c-1.2-0.9-2.3-0.8-2.7-0.2L41,9V6.6h-4.4v0.4c1.1,0,1.5,0.3,1.5,1.3v5.5c0,0.8-0.2,1.2-0.7,1.4
		c0,0,0,0-0.1,0c-0.3,0.1-0.5,0.1-0.7,0.2c0,0,0,0-0.1,0c-2.5,1.1-3.3,4.3-0.9,6.2l3.4,2.8c1.9,1.6,1.1,4.4-0.8,4.8
		c-1.7,0.4-3.3-0.7-4-1.8l-0.5,0.2c1,1.8,2.9,2.9,4.8,2.9c1.8-0.1,4.1-1.1,4.6-2.9C43.9,25.5,42.8,23.4,41.8,22.6z M51.1,25.4
		c0-0.5,0.3-1,0.7-1.2l2-0.9l0,2.2c0,0.9-0.4,1.5-1.3,1.5C51.5,27,51.1,26.2,51.1,25.4z M47.4,13c0-0.5,0.3-1,0.7-1.2l2.1-0.9l0,2.2
		c0,0.9-0.5,1.5-1.4,1.5C47.8,14.6,47.4,13.8,47.4,13z"/>
	<g>
		<g>
			<path fill="#B28608" d="M102.6,37.3c-9.7,0-17.7-7.9-17.7-17.7C84.9,9.9,92.9,2,102.6,2c9.7,0,17.6,7.9,17.6,17.6
				C120.2,29.4,112.3,37.3,102.6,37.3z"/>
		</g>
		<path fill="#FFFFFF" d="M102.6,2.6c-9.4,0-17,7.6-17,17c0,9.4,7.6,17,17,17c9.4,0,17-7.7,17-17C119.6,10.3,111.9,2.6,102.6,2.6z"
			/>
	</g>
	<path fill="#00674E" d="M102.6,2c-9.7,0-17.7,7.9-17.7,17.6c0,9.7,7.9,17.7,17.7,17.7c9.7,0,17.6-7.9,17.6-17.7
		C120.2,9.9,112.3,2,102.6,2z M102.6,36.7c-9.4,0-17-7.7-17-17c0-9.4,7.6-17,17-17c9.4,0,17,7.6,17,17
		C119.6,29,111.9,36.7,102.6,36.7z M113.3,30.2c-1.3,0.1,1.3-3.4,3.1-4.9c0.4-0.4,0.9-0.8,1-1.4c0.1-0.5-0.2-0.8-0.6-0.8
		c-0.7,0-2.6,0.9-2.6,0.9c3.2-5.8-1.7-8.7,0.3-10c0.7-0.5,2.2,0,3,0.1c-7.6-4.5-8.9,0-11.2,2c-0.4,0.3-2,0-2.3-0.4
		c-0.4-0.5-1.2-2.2-0.3-3.4c1.3-1.7,6.8-6.6,11.9-2.3c-2.4-3.9-8.1-6.8-13-6.7c-5-0.1-10.6,2.8-13.1,6.7c5-4.4,10.5,0.6,11.8,2.3
		c0.9,1.2,0.1,2.9-0.3,3.4c-0.3,0.4-1.9,0.7-2.3,0.4c-2.3-2.1-3.6-6.5-11.2-2c0.8-0.1,2.3-0.6,3-0.1c2,1.3-2.9,4.2,0.3,10
		c0,0-1.9-0.9-2.6-0.9c-0.5,0-0.7,0.3-0.6,0.8c0.1,0.7,0.6,1.1,1,1.4c1.8,1.5,4.4,5,3.1,4.9c-1.3-0.1-4.2-4.3-4.6-5.3
		c0.5,1.8,1.6,3.4,2.6,4.9c0.6,0.8,1.2,1.4,2,1.7c0.5,0.2,1.1,0.3,1.6,0c0.4-0.2,0.7-0.6,0.8-1.1c0.1-0.7-0.3-1.5-0.6-2
		c-0.5-0.8-1.5-2.1-2.7-3c-1.7-1.3-2.9-1.6-2.5-1.9c0.3-0.2,1.9,0.7,2.2,0.9c1.8,0.9,4.3,3.6,4.6,5.7c0.2,1.6-1.6,2.7-2.8,2.3
		c4,3.4,8.5,3.6,10.1,3.6l0,0h0c0,0,0,0,0,0l0,0c1.6,0,6-0.2,10.1-3.6c-1.2,0.4-3.1-0.7-2.8-2.3c0.3-2,2.8-4.7,4.6-5.7
		c0.3-0.2,1.9-1.1,2.2-0.9c0.4,0.3-0.7,0.6-2.5,1.9c-1.2,0.9-2.2,2.2-2.7,3c-0.3,0.5-0.7,1.3-0.6,2c0.1,0.5,0.3,0.9,0.7,1.1
		c0.5,0.2,1.1,0.2,1.6,0c0.8-0.3,1.5-0.9,2-1.7c1.1-1.4,2.1-3.1,2.6-4.9C117.5,25.9,114.6,30.1,113.3,30.2z M94.5,18.8
		c-0.7-0.1-0.6-0.7-1.7-0.8c0,0-1.3,0.1-1.3,0.5c0,0.6,0.7,0.9,1.2,1c0.7,0.2,1.4-0.1,2,0.5c0.2,0.2,0.3,0.5,0.2,0.7
		c-0.1,0.2-0.1,0.1-0.8,0.2c0.4,0.5,0.7,1.3,0.7,2c0,1.8,0.5,3.3,0.3,3.9c-0.9-1.1-0.9-2.7-1-4c-0.1-0.7-0.3-1.4-0.7-1.9
		c-0.4-0.6-1.1-0.6-1.6-0.9c-0.4-0.3-1.2-0.9-1.1-1.4c0.1-0.7,0.7-0.9,1.3-1.1c1.6-0.5,2.2,0.1,2.7,0.2c-0.5-0.6-0.4-1.5,0.3-1.6
		c1.2-0.2,0.9,1.1,0.6,1.8C95.4,18.2,95.1,18.8,94.5,18.8z M96.6,24.4c-0.5-1.1-0.8-3-0.7-4.2c0.1-0.6,0.2-1.4,0.8-1.7
		c0.3-0.2,0.8-0.3,1.2-0.1c0.6,0.2,0.8,0.7,1.2,1.3c0.4,0.5,0.9,0.9,1.4,1.1c0.3,0.7-0.2,2.4-0.7,3.1c-0.3,0.6-1.4,2-1.2,4.1
		C97.6,26.6,96.9,25.2,96.6,24.4z M102.6,30.8c-0.3,0-2.4-0.4-2-1.2c0,0,0.1-0.1,0.2-0.1c0.6,0.1,1.3,0.2,1.8,0.2
		c0.5,0,1.2-0.1,1.8-0.2c0.1,0,0.2,0.1,0.2,0.1C105,30.4,102.9,30.8,102.6,30.8z M105.5,28.6c-0.6,0.5-1.4,0.9-2.6,0.6
		c-0.3-0.2-0.1-0.8,0-1c0.5-0.7,1.3-0.4,1.6-0.8c0.2-0.3,0.1-0.6-0.1-0.8c-0.2-0.2-0.5-0.2-0.8-0.1c-0.5,0.1-0.8,0.3-1.1,0.6v0
		c0,0,0,0,0,0c0,0,0,0,0,0v0c-0.3-0.3-0.6-0.5-1.1-0.6c-0.3-0.1-0.6-0.1-0.8,0.1c-0.1,0.2-0.3,0.4-0.1,0.8c0.2,0.3,1,0.1,1.6,0.8
		c0.1,0.3,0.3,0.8,0,1c-1.1,0.3-1.9,0-2.6-0.6c-1.4-1.2,0.5-3.7,1.5-4.8c0.5-0.6,0.9-1.1,1.4-1.1l0,0c0,0,0,0,0,0s0,0,0,0l0,0
		c0.6,0,0.9,0.5,1.4,1.1C105,24.9,106.9,27.4,105.5,28.6z M108.5,24.4c-0.3,0.9-1,2.3-1.9,3.6c0.2-2.1-0.9-3.5-1.2-4.1
		c-0.5-0.8-1-2.4-0.7-3.1c0.5-0.2,1.1-0.6,1.4-1.1c0.4-0.5,0.6-1.1,1.2-1.3c0.4-0.1,0.9-0.1,1.2,0.1c0.5,0.3,0.7,1.1,0.8,1.7
		C109.3,21.4,109.1,23.2,108.5,24.4z M113.5,20c-0.5,0.4-1.2,0.4-1.6,0.9c-0.3,0.5-0.6,1.2-0.7,1.9c-0.1,1.3-0.1,2.9-1,4
		c-0.2-0.6,0.3-2.1,0.3-3.9c0-0.7,0.3-1.5,0.7-2c-0.7-0.1-0.8,0-0.8-0.2c-0.1-0.2,0.1-0.5,0.2-0.7c0.6-0.6,1.3-0.3,2-0.5
		c0.5-0.2,1.1-0.4,1.2-1c0-0.4-1.3-0.5-1.3-0.5c-1.1,0.1-1,0.7-1.7,0.8c-0.6,0-0.9-0.6-1-1c-0.3-0.6-0.6-1.9,0.6-1.8
		c0.7,0.1,0.8,1.1,0.3,1.6c0.5,0,1.1-0.7,2.7-0.2c0.5,0.2,1.2,0.4,1.3,1.1C114.6,19.1,113.9,19.7,113.5,20z M98.7,21.8
		c0.3-1.3-1.2-3-1.7-2.5c-0.4,0.4-0.5,1.1,0,1.4c0.3,0.2,0.9,0.1,1.2,0.5C98.5,21.7,98.5,21.8,98.7,21.8z M108.2,19.3
		c-0.6-0.5-2.1,1.2-1.7,2.5c0.1,0.1,0.2,0,0.6-0.6c0.3-0.4,0.9-0.3,1.2-0.5C108.6,20.4,108.6,19.7,108.2,19.3z"/>
</g>
</svg>
