<!--?xml version="1.0" encoding="utf-8"?-->
<svg version="1.1" id="Layer_1" xmlns="http://www.w3.org/2000/svg" xmlns:xlink="http://www.w3.org/1999/xlink" x="0px" y="0px"
	 viewBox="0 0 330 43" enable-background="new 0 0 330 43" xml:space="preserve">
<style type="text/css">
	.outer, .eyes, .background {
		fill:#004812;
	}
	.face, .wordmark{
		fill:#FFFFFF;
	}
</style>
<g class="ram">
	<path  class="outer" d="M306.1,1c-11.4,0-20.6,9.3-20.6,20.6c0,11.4,9.3,20.6,20.6,20.6c11.3,0,20.6-9.3,20.6-20.6
		C326.7,10.3,317.5,1,306.1,1z"/>
	<path  class="face" d="M306.2,40.8c-10.6,0-19.2-8.6-19.2-19.2c0-10.6,8.6-19.2,19.2-19.2c10.6,0,19.2,8.6,19.2,19.2
		C325.4,32.2,316.8,40.8,306.2,40.8z"/>
	<g class="eyes">
		<path d="M310.5,24c0.2,0.1,0.2-0.1,0.6-0.7c0.3-0.5,1-0.4,1.3-0.6c0.6-0.3,0.5-1.1,0-1.5
			C311.8,20.6,310.1,22.5,310.5,24z"/>
		<path d="M301.8,24c0.4-1.5-1.3-3.4-2-2.8c-0.5,0.5-0.5,1.2,0,1.5c0.3,0.2,1,0.1,1.3,0.6
			C301.5,23.9,301.6,24,301.8,24z"/>
	</g>

	<path class="background" d="M318.1,33.5c-1.4,0.1,1.4-3.9,3.4-5.5c0.5-0.4,1-0.9,1.1-1.6c0.1-0.5-0.2-0.9-0.7-0.9c-0.8-0.1-2.9,1-2.9,1
		c3.6-6.5-1.9-9.8,0.4-11.3c0.8-0.5,2.5,0,3.4,0.1c-8.4-5-9.9,0-12.5,2.3c-0.4,0.4-2.2,0-2.5-0.4c-0.5-0.6-1.4-2.5-0.3-3.8
		c1.5-1.9,7.6-7.5,13.2-2.5c-2.7-4.4-9-7.7-14.5-7.6c-5.6-0.2-11.9,3.1-14.6,7.6c5.6-4.9,11.7,0.6,13.2,2.5c1,1.3,0.1,3.3-0.3,3.8
		c-0.3,0.4-2.1,0.8-2.5,0.4c-2.5-2.3-4-7.4-12.5-2.3c0.9-0.1,2.6-0.6,3.4-0.1c2.3,1.4-3.2,4.7,0.4,11.3c0,0-2.1-1.1-2.9-1
		c-0.5,0-0.8,0.4-0.7,0.9c0.1,0.7,0.7,1.2,1.1,1.6c2,1.7,4.9,5.6,3.4,5.5c-1.4-0.1-4.7-4.8-5.2-6c0.6,2,1.8,3.9,2.9,5.5
		c0.6,0.9,1.4,1.6,2.3,1.9c0.6,0.2,1.2,0.3,1.8,0.1c0.5-0.2,0.8-0.7,0.9-1.2c0.1-0.8-0.3-1.7-0.7-2.3c-0.5-0.9-1.7-2.4-3-3.4
		c-1.9-1.4-3.2-1.8-2.7-2.1c0.3-0.2,2.1,0.7,2.5,1c2,1,4.8,4.1,5.1,6.4c0.3,1.8-1.8,3.1-3.2,2.6c4.5,3.9,9.5,4,11.3,4.1
		c1.7-0.1,6.7-0.2,11.2-4.1c-1.4,0.5-3.4-0.8-3.1-2.6c0.3-2.2,3.1-5.3,5.1-6.4c0.4-0.2,2.2-1.2,2.5-1c0.5,0.3-0.8,0.7-2.7,2.1
		c-1.3,1-2.5,2.5-3,3.4c-0.4,0.6-0.8,1.5-0.7,2.3c0.1,0.5,0.3,1,0.8,1.2c0.6,0.3,1.2,0.2,1.8-0.1c0.9-0.3,1.6-1,2.3-1.9
		c1.2-1.6,2.4-3.5,2.9-5.5C322.7,28.6,319.5,33.4,318.1,33.5z M298.2,19.5c-0.2,0.4-0.5,1.2-1.2,1.1c-0.8-0.1-0.7-0.8-1.9-0.9
		c0,0-1.5,0.1-1.5,0.6c0.1,0.7,0.8,1,1.3,1.2c0.7,0.2,1.6-0.1,2.2,0.6c0.2,0.2,0.3,0.5,0.3,0.8c-0.1,0.3-0.1,0.1-0.9,0.2
		c0.5,0.6,0.7,1.4,0.7,2.2c0,2.1,0.6,3.7,0.3,4.4c-1-1.2-1-3-1.1-4.5c-0.1-0.8-0.4-1.6-0.7-2.2c-0.5-0.6-1.3-0.7-1.8-1.1
		c-0.5-0.4-1.3-1-1.2-1.6c0.1-0.8,0.8-1,1.4-1.2c1.8-0.6,2.5,0.1,3,0.2c-0.6-0.6-0.4-1.7,0.3-1.8C298.9,17.3,298.5,18.8,298.2,19.5z
		 M299.3,26.9c-0.6-1.3-0.9-3.3-0.8-4.7c0.1-0.7,0.2-1.5,0.9-1.9c0.4-0.2,0.9-0.3,1.4-0.1c0.7,0.2,0.9,0.9,1.3,1.4
		c0.4,0.6,1.1,1,1.6,1.3c0.3,0.8-0.2,2.7-0.8,3.5c-0.3,0.6-1.6,2.2-1.3,4.6C300.5,29.5,299.7,27.9,299.3,26.9z M306.1,34.1
		c-0.3,0.1-2.7-0.4-2.3-1.3c0,0,0.1-0.1,0.2-0.1c0.7,0.1,1.5,0.2,2.1,0.2c0.6,0,1.4-0.1,2.1-0.2c0.1,0,0.2,0.1,0.2,0.1
		C308.8,33.7,306.4,34.2,306.1,34.1z M309.4,31.7c-0.7,0.6-1.6,1-2.9,0.6c-0.3-0.2-0.1-0.9,0.1-1.1c0.6-0.8,1.5-0.5,1.8-0.9
		c0.2-0.4,0.1-0.6-0.1-0.9c-0.2-0.3-0.6-0.2-0.9-0.1c-0.5,0.1-0.9,0.3-1.2,0.7v0c0,0,0,0,0,0c0,0,0,0,0,0v0
		c-0.3-0.3-0.7-0.6-1.2-0.7c-0.3-0.1-0.7-0.2-0.9,0.1c-0.2,0.2-0.3,0.5-0.1,0.9c0.3,0.4,1.2,0.1,1.8,0.9c0.2,0.3,0.3,0.9,0.1,1.1
		c-1.3,0.4-2.2,0-2.9-0.6c-1.6-1.3,0.6-4.2,1.7-5.4c0.6-0.6,1-1.2,1.6-1.2v0c0,0,0,0,0,0c0,0,0,0,0,0v0c0.7,0,1,0.6,1.6,1.2
		C308.8,27.5,310.9,30.4,309.4,31.7z M312.8,26.9c-0.3,1-1.2,2.6-2.2,4.1c0.3-2.4-1-4-1.3-4.6c-0.6-0.9-1.1-2.8-0.8-3.5
		c0.5-0.2,1.2-0.6,1.6-1.3c0.4-0.6,0.6-1.2,1.3-1.4c0.5-0.2,1-0.1,1.4,0.1c0.6,0.4,0.8,1.2,0.9,1.9
		C313.7,23.6,313.4,25.6,312.8,26.9z M318.3,22c-0.5,0.4-1.3,0.4-1.8,1.1c-0.3,0.6-0.6,1.4-0.7,2.2c-0.2,1.4-0.1,3.3-1.1,4.5
		c-0.2-0.7,0.3-2.3,0.3-4.4c0-0.8,0.3-1.7,0.7-2.2c-0.8-0.1-0.8,0.1-0.9-0.2c-0.1-0.3,0.1-0.6,0.3-0.8c0.6-0.7,1.5-0.3,2.2-0.6
		c0.5-0.2,1.3-0.4,1.3-1.2c0-0.5-1.5-0.6-1.5-0.6c-1.2,0.1-1.1,0.8-1.9,0.9c-0.7,0.1-1-0.7-1.2-1.1c-0.3-0.7-0.7-2.2,0.7-2
		c0.7,0.1,0.9,1.2,0.3,1.8c0.5-0.1,1.2-0.7,3-0.2c0.6,0.2,1.3,0.4,1.4,1.2C319.6,21,318.8,21.6,318.3,22z"/>
</g>
<g class="wordmark">
	<path fill-rule="evenodd" clip-rule="evenodd" d="M51.3,16.2h6v3.3l2.5-3c0.6-0.8,2.2-0.9,3.7,0.3l-0.9,4.7
		c-0.9-1.2-2.1-2.1-3.2-2.1c-1,0-2.1,0.7-2.1,2.4v4.2c0,1.5,0.5,2,2,2.1v0.5h-7.9l0-0.6c1.5,0,2-0.5,2-2.1v-7.5
		c0-1.4-0.6-1.8-2.1-1.8V16.2L51.3,16.2z"/>
	<path fill-rule="evenodd" clip-rule="evenodd" d="M18.9,25.1c-1.6,1.7-3.8,3.9-7.3,4c-3.5,0.1-9.1-1.9-9-8.6
		c0.1-6.7,6.4-8.5,9.1-8.5c2.1-0.1,4.9,0.9,5.2,1c0.6,0,0.8-0.4,0.9-0.7h0.5l0.1,6l-0.6,0.2c-0.3-1.7-0.8-5.1-5.1-5.2
		c-7.4-0.1-7.4,13.6-0.2,14c1.5,0.1,3.9-0.7,5.8-2.9L18.9,25.1L18.9,25.1z"/>
	<path fill-rule="evenodd" clip-rule="evenodd" d="M45.2,16.3c4,0,7.2,2.8,7.2,6.4c0,3.5-3.2,6.4-7.2,6.4
		c-4,0-7.2-2.8-7.2-6.4C37.9,19.1,41.2,16.3,45.2,16.3L45.2,16.3z M45.1,17.3c2,0,3.5,2.4,3.5,5.3c0,2.9-1.6,5.3-3.5,5.3
		c-2,0-3.6-2.4-3.6-5.3C41.5,19.7,43.1,17.3,45.1,17.3L45.1,17.3z"/>
	<path fill-rule="evenodd" clip-rule="evenodd" d="M96.1,16.3c4,0,7.2,2.8,7.2,6.4c0,3.5-3.2,6.4-7.2,6.4
		c-4,0-7.2-2.8-7.2-6.4C89,19.1,92.2,16.3,96.1,16.3L96.1,16.3z M96.1,17.3c2,0,3.5,2.4,3.5,5.3c0,2.9-1.6,5.3-3.5,5.3
		c-2,0-3.6-2.4-3.6-5.3C92.5,19.7,94.2,17.3,96.1,17.3L96.1,17.3z"/>
	<path fill-rule="evenodd" clip-rule="evenodd" d="M37,26.2c0,1.4,0.5,1.9,1.9,2v0.5h-7.8v-0.6
		c1.5,0,1.9-0.5,1.9-2.2V14.1c-0.1-1.3-0.5-1.6-2-1.7v-0.5h6V26.2L37,26.2z"/>
	<path fill-rule="evenodd" clip-rule="evenodd" d="M69.9,22.3l0,3c0,1.3-0.6,2-1.9,2c-1.4,0-2-1.1-1.9-2.1
		c0-0.7,0.4-1.3,0.9-1.6L69.9,22.3L69.9,22.3z M63.3,20.9c0.2-3.3,3.1-4.6,5.6-4.6c2.2,0,4.8,1.5,4.8,3.5V26c0,1,0.5,1.5,1.5,1
		c-0.3,1.2-1.5,2-2.5,2c-1.1,0-2.1-0.6-2.6-1.9C68.8,28.3,67.4,29,66,29c-2.3,0.1-3.3-1.6-3.4-3c-0.1-1.5,0.8-2.7,2.6-3.2l4.2-1.2
		c1-0.3,0.8-2-0.6-2.5C66.6,18.1,64.6,19,63.3,20.9L63.3,20.9z"/>
	<path fill-rule="evenodd" clip-rule="evenodd" d="M81.9,11.9h5.8v14.4c0,0.9,0.5,1.7,1.8,2v0.5h-8.2
		c-5,0-6.8-2.8-6.8-6.3c0-2.9,2.3-6.2,5.8-6.2c1.3,0,2.6,0.3,3.6,1.3l0-3.5c0-1.6-0.5-1.6-2-1.7V11.9L81.9,11.9z M81.4,17.5
		c1.4,0,2.5,0.5,2.5,2.2v6.8c0,0.6-0.5,1.3-1.4,1.3c-2.5-0.1-4.1-2.8-4.2-5.4C78.2,20.4,79.2,17.6,81.4,17.5L81.4,17.5z"/>
	<path fill-rule="evenodd" clip-rule="evenodd" d="M25,16.3c4,0,7.2,2.9,7.2,6.4c0,3.5-3.2,6.4-7.2,6.4
		c-4,0-7.2-2.9-7.2-6.4C17.8,19.1,21,16.3,25,16.3L25,16.3z M24.9,17.3c2,0,3.5,2.4,3.5,5.3c0,2.9-1.6,5.3-3.5,5.3
		c-2,0-3.6-2.4-3.6-5.3C21.4,19.7,23,17.3,24.9,17.3L24.9,17.3z"/>
	<path d="M255.1,16.2v10c0,1.7,0.7,2,2.1,2v0.5h-7.8v-0.5c0.7,0,1.2-0.2,1.5-0.5c0.4-0.4,0.4-1.1,0.4-1.8v-6.4
		c0-0.7,0.1-1.8-0.2-2.1c-0.3-0.3-0.5-0.6-1.9-0.6v-0.5L255.1,16.2z M251,10.8c0-2.7,4.4-2.7,4.4,0C255.4,13.6,251,13.5,251,10.8"/>
	<path fill-rule="evenodd" clip-rule="evenodd" d="M227.6,16.2h6v3.3l2.5-2.9c0.6-0.8,2.2-0.9,3.7,0.3l-0.9,4.7
		c-0.9-1.2-2.1-2.1-3.2-2.1c-1,0-2.1,0.7-2.1,2.4v4.2c0,1.5,0.5,2,2,2.1v0.5h-7.9l0-0.6c1.5,0,2-0.5,2-2.1v-7.5
		c0-1.4-0.6-1.8-2.1-1.8V16.2L227.6,16.2z"/>
	<path fill-rule="evenodd" clip-rule="evenodd" d="M215.5,23c-0.1-4.4,3-6.7,7.1-6.8c3.7-0.1,5.4,2.3,5.7,5.5h-8.7
		c-0.1,2.8,1.7,5.4,3.7,5.5c1.7,0.1,3.1-0.1,5.1-2.8l0.4,0.4c-0.7,2.2-2.6,4.3-6.4,4.3C219.7,29,215.7,27.3,215.5,23L215.5,23z
		 M219.8,20.5h4.5c0.1-1.7-0.9-3.1-2.1-3.1C221.1,17.3,219.9,18.6,219.8,20.5L219.8,20.5z"/>
	<path d="M186.4,16.2v2.9h0c1.1-2,2.7-2.9,4.6-2.9c1.2,0,2.2,0.4,3,1.2c0.8,0.8,1.2,1.9,1.2,3.2v5.3
		c0,0.8,0.1,1.6,0.5,1.9c0.3,0.2,0.5,0.3,1.4,0.4v0.5h-7.3v-0.5c0.6,0,1.1-0.1,1.4-0.4c0.4-0.4,0.5-1.1,0.5-1.7v-5
		c0-0.9-0.2-1.6-0.6-2.1c-0.4-0.5-0.9-0.8-1.6-0.8c-1.2,0-2.3,0.7-3,2.1v5.6c0,0.9,0.1,1.5,0.6,2c0.3,0.3,0.6,0.3,1.2,0.4v0.5H181
		v-0.5c0.4,0,0.9-0.1,1.2-0.4c0.5-0.5,0.5-1.1,0.5-1.7v-6.7c0-1.6-0.1-1.9-0.4-2.2c-0.3-0.3-0.8-0.4-1.6-0.4v-0.5h5.2H186.4z"/>
	<path d="M202,16.2v10c0,1.7,0.7,2,2,2v0.5h-7.7v-0.5c0.7,0,1.2-0.2,1.5-0.5c0.4-0.4,0.4-1.1,0.4-1.8v-6.4
		c0-0.7,0.1-1.8-0.2-2.1c-0.3-0.3-0.5-0.6-1.9-0.6v-0.5L202,16.2z M197.9,10.8c0-2.7,4.4-2.7,4.4,0
		C202.3,13.6,197.9,13.5,197.9,10.8"/>
	<path d="M217.4,16.2v0.5c-0.6,0.1-1.1,0.3-1.6,0.7c-0.4,0.4-0.9,1.1-1.4,2.1l-4.4,9.2h-0.7l-4.6-9.4
		c-0.5-1-1-1.6-1.4-2c-0.4-0.4-1-0.6-1.7-0.6v-0.5h7.7v0.5c-0.8,0.1-1.2,0.5-1.2,1.1c0,0.2,0.1,0.5,0.2,0.8l2.8,5.5l2.2-4.4
		c0.3-0.7,0.5-1.2,0.5-1.7c0-0.8-0.5-1.3-1.5-1.3v-0.5H217.4z"/>
	<path d="M240,28.3v-3.9h0.6c1.3,2.5,2.8,3.7,4.5,3.7c0.6,0,1.1-0.2,1.6-0.5c0.4-0.3,0.7-0.7,0.7-1.2
		c0-0.5-0.2-0.9-0.6-1.3c-0.4-0.4-1.3-0.8-2.6-1.3c-1.7-0.6-2.8-1.2-3.4-1.8c-0.5-0.6-0.8-1.3-0.8-2.1c0-1,0.4-1.9,1.2-2.6
		c0.8-0.7,1.9-1,3.2-1c0,0,3.1,0.1,4.7,0.8v2.9h-0.6c-0.4-0.9-0.9-1.6-1.6-2.1c-0.7-0.5-1.4-0.8-2.3-0.8c-0.6,0-1.1,0.1-1.5,0.4
		c-0.4,0.2-0.6,0.6-0.6,0.9c0,0.4,0.2,0.7,0.5,1c0.3,0.3,1.1,0.6,2.3,1c1.8,0.6,3,1.3,3.6,2c0.6,0.7,0.9,1.5,0.9,2.5
		c0,1.1-0.5,2.1-1.4,2.9c-0.9,0.8-2,1.2-3.1,1.2C245.2,29,242.8,29.1,240,28.3"/>
	<path d="M175.9,28.7v-2.2c-1,1-1.9,1.7-2.6,2.1c-0.7,0.4-1.6,0.6-2.7,0.6c-1.7,0-3.1-0.5-4.1-1.5
		c-1-1-1.5-2.4-1.5-4.1v-8.8c0-0.8,0.1-1.5-0.3-1.9c-0.3-0.3-1-0.5-1.6-0.4l0-0.5h5.7l0,12.4c0,1,0.3,1.8,0.8,2.4
		c0.5,0.6,1.3,0.9,2.3,0.9c1.4,0,2.6-0.8,4.1-2.3V14.8c0-1.5-0.1-1.7-0.4-2c-0.3-0.3-1-0.4-1.5-0.4V12h5.5l0,13.9
		c0,1.1,0.1,1.6,0.4,1.9c0.3,0.3,0.8,0.4,1.7,0.5v0.5H175.9z"/>
	<path fill-rule="evenodd" clip-rule="evenodd" d="M147,23c-0.1-4.4,3-6.7,7.1-6.8c3.7-0.1,5.4,2.3,5.7,5.5h-8.7
		c-0.1,2.8,1.7,5.4,3.7,5.5c1.7,0.1,3.1-0.1,5.1-2.8l0.4,0.4c-0.7,2.2-2.6,4.2-6.4,4.3C151.2,29,147.2,27.3,147,23L147,23z
		 M151.3,20.5h4.5c0.1-1.7-0.9-3.1-2.1-3.1C152.6,17.3,151.4,18.6,151.3,20.5L151.3,20.5z"/>
	<path fill-rule="evenodd" clip-rule="evenodd" d="M143.9,10.4l0.5,0.2l0,5.7l3.8,0l0,1.2l-3.8,0l0,7
		c0,2.6,2,3,3.6,1.2c0-0.1,0.4,0.6,0.5,0.4c-1.2,2.4-3.4,3.5-5.8,2.5c-1.2-0.5-2.4-1.7-2.4-3.7v-7.5h-1.6l0-1.2
		C141.2,15.6,143.3,14,143.9,10.4L143.9,10.4z"/>
	<path fill-rule="evenodd" clip-rule="evenodd" d="M119.6,10.6l0,5.6c2.8-1.2,3.7-2.2,4.4-5.7l0.5,0.1l0,5.7h3.8
		l0,1.3h-3.8l0,6.7c0,2,1,3.3,3.4,2l0.4,0.8c-0.9,1.7-3,2.1-4.4,2c-2.2-0.1-3.3-1.9-3.3-4.4v-7.1l-1.4,0c-0.1-3.7-1.9-6.8-4.6-6.8
		c-1.3,0-3.5,1-3.6,3.2c0,1,0.2,1.6,1.2,2.3l5.8,4.6c1.4,1.1,3,4.1,2.1,7.3c-0.8,2.6-4.1,4.1-6.7,4.2c-2.8,0.1-5.5-1.5-6.9-4.2
		l0.7-0.4c1,1.7,3.5,3.2,5.9,2.6c2.7-0.6,3.9-4.7,1.1-7l-5-4.1c-3.4-2.8-2.3-7.4,1.4-9C111.8,9.7,115.8,9.1,119.6,10.6L119.6,10.6z"
		/>
	<path fill-rule="evenodd" clip-rule="evenodd" d="M134.7,22.3l0,3c0,1.3-0.6,2-1.8,2c-1.3,0-1.9-1.1-1.9-2.1
		c0-0.7,0.4-1.3,0.9-1.6L134.7,22.3L134.7,22.3z M128.2,20.9c0.2-3.3,3-4.6,5.4-4.6c2.2,0,4.7,1.5,4.7,3.5V26c0,1.1,0.5,1.5,1.5,1
		c-0.3,1.2-1.5,2-2.5,2c-1.1,0-2-0.6-2.5-1.9c-1.2,1.2-2.5,1.8-4,1.9c-2.3,0.1-3.3-1.7-3.3-3.1c-0.1-1.5,0.8-2.7,2.5-3.2l4.1-1.2
		c1-0.3,0.7-2-0.6-2.5C131.4,18.1,129.5,19,128.2,20.9L128.2,20.9z"/>
	<path fill-rule="evenodd" clip-rule="evenodd" d="M260.7,10.4l0.5,0.2l0,5.6l3.8,0l0,1.3l-3.8,0l0,7
		c0,2.6,2,3,3.6,1.2c0-0.1,0.4,0.6,0.5,0.4c-1.2,2.4-3.4,3.5-5.8,2.5c-1.2-0.5-2.4-1.7-2.4-3.7v-7.5h-1.6l0-1.2
		C258.2,15.8,260.2,14,260.7,10.4L260.7,10.4z"/>
	<path d="M273.6,16.2v0.6c1.1,0.2,1.6,0.7,1.6,1.6c0,0.6-0.2,1.4-0.7,2.5l-1.9,4.1l-2.8-5.6
		c-0.4-0.7-0.5-1.3-0.5-1.6c0-0.5,0.4-0.8,1.3-1v-0.6h-8.3v0.6c0.8,0.2,1.5,0.5,1.9,0.8c0.4,0.3,0.9,1,1.4,2l5,10
		c-0.6,1.3-1.2,2.3-1.8,2.9c-0.8,0.9-1.8,1.3-3,1.3c-0.6,0-1.2-0.1-1.8-0.3l-0.8,3.9c0.3,0,0.7,0.1,1.1,0.1c1.4,0,2.5-0.3,3.4-1
		c0.9-0.6,1.6-1.7,2.4-3.3l6-13.2c0.6-1.2,1-2,1.4-2.4c0.4-0.4,1-0.7,1.8-0.9v-0.6H273.6z"/>
</g>
</svg>
