<?xml version="1.0" standalone="no"?>
<!DOCTYPE svg PUBLIC "-//W3C//DTD SVG 1.1//EN" "http://www.w3.org/Graphics/SVG/1.1/DTD/svg11.dtd" >
<svg xmlns="http://www.w3.org/2000/svg">
<metadata></metadata>
<defs>
<font id="clio_c_semiboldobSBdIt" horiz-adv-x="551" >
<font-face units-per-em="1000" ascent="750" descent="-250" />
<missing-glyph horiz-adv-x="190" />
<glyph unicode="&#xfb01;" horiz-adv-x="575" d="M66 421l9 78h68l5 54q10 83 47 110.5t120 27.5q44 0 80 -4l-8 -74h-68q-20 0 -28.5 -1t-19 -6t-15 -17t-7.5 -33l-6 -57h323l-55 -499h-103l46 421h-220l-46 -421h-100l46 421h-68zM469 615q4 38 14.5 48t49.5 10t47 -9.5t4 -48.5q-4 -37 -15 -48t-49 -11q-39 0 -47.5 11 t-3.5 48z" />
<glyph unicode="&#xfb02;" horiz-adv-x="571" d="M66 421l9 78h68l5 54q10 83 47 110.5t120 27.5q219 0 255 -4l-63 -568q-1 -16 -1.5 -29t9.5 -22.5t33 -13.5l-6 -57q-29 -5 -39 -5q-54 0 -79.5 31t-16.5 114l53 476h-141q-20 0 -28.5 -1t-19 -6t-15 -17t-7.5 -33l-6 -57h106l-9 -78h-106l-46 -421h-100l46 421h-68z" />
<glyph unicode="&#xfb03;" horiz-adv-x="930" d="M66 421l9 78h68l5 54q10 83 47 110.5t120 27.5q44 0 80 -4l-8 -74h-68q-20 0 -28.5 -1t-19 -6t-15 -17t-7.5 -33l-6 -57h255l5 54q10 83 47 110.5t120 27.5q44 0 80 -4l-8 -74h-68q-20 0 -28.5 -1t-19.5 -6t-15.5 -17t-6.5 -33l-6 -57h323l-55 -499h-104l46 421h-219 l-46 -421h-100l46 421h-255l-46 -421h-100l46 421h-68zM823 615q5 38 15 48t49 10t47.5 -9.5t4.5 -48.5q-5 -37 -15.5 -48t-48.5 -11q-39 0 -47.5 11t-4.5 48z" />
<glyph unicode="&#xfb04;" horiz-adv-x="924" d="M66 421l9 78h68l5 54q10 83 47 110.5t120 27.5q44 0 80 -4l-8 -74h-68q-20 0 -28.5 -1t-19 -6t-15 -17t-7.5 -33l-6 -57h255l5 54q10 83 47 110.5t120 27.5q218 0 254 -4l-63 -568q-1 -16 -1 -29t10 -22.5t33 -13.5l-7 -57q-28 -5 -38 -5q-54 0 -79.5 31t-17.5 114 l53 476h-140q-20 0 -28.5 -1t-19.5 -6t-15.5 -17t-6.5 -33l-6 -57h106l-9 -78h-106l-46 -421h-100l46 421h-255l-46 -421h-100l46 421h-68z" />
<glyph horiz-adv-x="1000" />
<glyph horiz-adv-x="1000" />
<glyph unicode="&#xd;" horiz-adv-x="1000" />
<glyph unicode=" "  horiz-adv-x="190" />
<glyph unicode="&#x09;" horiz-adv-x="190" />
<glyph unicode="&#xa0;" horiz-adv-x="190" />
<glyph unicode="!" horiz-adv-x="220" d="M63 50q3 34 13 43.5t44 9.5q32 0 40 -9t5 -44q-5 -33 -14.5 -42.5t-42.5 -9.5q-34 0 -41.5 9.5t-3.5 42.5zM76 167l55 502h101l-56 -502h-100z" />
<glyph unicode="&#x22;" horiz-adv-x="337" d="M91 459l53 212h101l-70 -212h-84zM221 459l62 212h104l-77 -212h-89z" />
<glyph unicode="#" horiz-adv-x="524" d="M58 133l7 63h100l12 114h-100l8 68h99l15 133h75l-14 -133h72l14 133h75l-14 -133h101l-8 -68h-100l-13 -114h101l-7 -63h-101l-16 -135h-74l15 135h-72l-15 -135h-76l15 135h-99zM240 196h72l13 114h-72z" />
<glyph unicode="$" horiz-adv-x="440" d="M57 8l10 84q81 -10 163 -10q34 0 51 12.5t20 41.5q2 21 -10 37.5t-33.5 29t-48 24.5t-52 27t-46.5 34t-32 48.5t-7 66.5q8 68 49.5 105t103.5 42l10 93h84l-9 -94q99 -5 117 -9l-9 -83q-91 9 -175 9q-56 0 -62 -54q-3 -25 22 -45.5t61 -37.5t72 -38.5t59 -58.5t17 -87 q-8 -72 -52.5 -109t-111.5 -39l-10 -91h-84l10 93q-89 3 -107 9z" />
<glyph unicode="%" horiz-adv-x="638" d="M90 515q11 103 36.5 131t99.5 28q60 0 79 -32.5t9 -126.5q-10 -91 -35.5 -124t-92.5 -33q-34 0 -52 5t-32.5 21t-14.5 47t3 84zM102 0l420 667h84l-421 -667h-83zM165 497q-7 -46 -2.5 -61t30.5 -15q25 2 32 14.5t15 80.5q7 61 2 78.5t-29 17.5q-25 0 -32.5 -16 t-14.5 -80zM393 153q12 103 37.5 131t99.5 28q61 0 79.5 -32.5t7.5 -126.5q-9 -91 -34.5 -124.5t-92.5 -33.5q-27 0 -43.5 3t-31 12.5t-19 26.5t-7.5 45.5t4 70.5zM467 135q-6 -46 -1.5 -61t31.5 -15q25 2 32.5 15t14.5 80q7 61 2 78.5t-29 17.5q-26 0 -33.5 -16t-14.5 -80z " />
<glyph unicode="&#x26;" horiz-adv-x="483" d="M67 161l5 40q4 39 26.5 77.5t56.5 54.5q-32 24 -44.5 51.5t-9.5 77.5l4 42q19 162 215 162q58 0 141 -15l-8 -73q-108 11 -143 11q-51 0 -73.5 -22t-27.5 -70l-5 -34q-10 -90 76 -90h66l5 48h95l-5 -48h43l-9 -81h-43l-31 -280q-95 -20 -154 -20q-105 0 -146 39.5 t-34 129.5zM172 165q-11 -97 86 -97q22 0 55 7l24 217h-66q-42 0 -66 -20.5t-30 -69.5z" />
<glyph unicode="'" horiz-adv-x="208" d="M89 459l59 212h103l-75 -212h-87z" />
<glyph unicode="(" horiz-adv-x="244" d="M62 297q14 122 60 256t118 225l64 -57q-60 -101 -95.5 -215.5t-45.5 -208.5q-28 -250 47 -424l-74 -58q-54 92 -71 226t-3 256z" />
<glyph unicode=")" horiz-adv-x="245" d="M1 -127q113 179 139 424q25 231 -47 425l77 56q52 -91 68.5 -224.5t3.5 -256.5q-13 -122 -59.5 -255t-119.5 -225z" />
<glyph unicode="*" horiz-adv-x="410" d="M89 531l28 75l106 -43l14 128h77l-13 -128l113 42l13 -74l-117 -37l60 -102l-63 -52l-58 105l-79 -105l-52 52l78 102z" />
<glyph unicode="+" horiz-adv-x="455" d="M56 206l9 82h142l18 163h96l-18 -163h143l-9 -82h-143l-19 -169h-96l19 169h-142z" />
<glyph unicode="," horiz-adv-x="220" d="M36 -35q24 14 40 37q-19 3 -23.5 16.5t-1.5 44.5q5 40 16.5 50t52.5 10q40 0 48.5 -10t3.5 -50q-9 -87 -110 -147z" />
<glyph unicode="-" horiz-adv-x="345" d="M75 234l10 89h234l-9 -89h-235z" />
<glyph unicode="." horiz-adv-x="220" d="M50 61q5 40 16 50.5t52 10.5t50.5 -10t4.5 -51q-5 -39 -16.5 -51t-52.5 -12q-40 0 -49 11.5t-5 51.5z" />
<glyph unicode="/" horiz-adv-x="366" d="M9 -110l301 777h103l-303 -777h-101z" />
<glyph unicode="0" horiz-adv-x="479" d="M80 274q18 169 59 224.5t154 55.5q80 0 115.5 -25t43.5 -87t-7 -168q-10 -87 -22 -137.5t-36 -85.5t-60.5 -47.5t-96.5 -12.5q-114 0 -141.5 57t-8.5 226zM181 274q-11 -81 -9.5 -125t16 -58.5t52.5 -14.5q55 0 73 35.5t32 162.5q15 127 4.5 162t-66.5 35q-54 0 -71 -35 t-31 -162z" />
<glyph unicode="1" horiz-adv-x="302" d="M64 460l10 90h218l-61 -550h-104l50 461z" />
<glyph unicode="2" horiz-adv-x="411" d="M57 5l10 75q37 47 82 102.5t66.5 82t44 57t31 49.5t10.5 36q4 32 -10 46t-48 14q-24 0 -71.5 -1.5t-72.5 -1.5l9 80l131 3q44 0 72.5 -4.5t54 -18.5t35 -43.5t4.5 -74.5q-3 -31 -26 -71.5t-49 -72t-72 -86.5t-71 -87h177l-9 -84h-298z" />
<glyph unicode="3" horiz-adv-x="433" d="M29 -114l8 77q19 0 56.5 -1t55.5 -1q62 0 91.5 21t34.5 72l4 35q11 88 -71 88h-102l9 79h102q81 0 91 87l4 41q5 55 -22 71.5t-85 15.5l-112 -2l8 76l119 4q41 0 66.5 -2t55.5 -11t45.5 -25t24.5 -46.5t4 -73.5l-7 -50q-6 -48 -24.5 -74.5t-55.5 -49.5q31 -16 44 -52.5 t9 -76.5l-4 -38q-10 -95 -64 -130.5t-170 -35.5h-15q-16 0 -50 1t-50 1z" />
<glyph unicode="4" horiz-adv-x="499" d="M27 91l8 72l270 385h134l-41 -372h88l-9 -85h-88l-23 -201h-99l23 201h-263zM150 176h150l28 260z" />
<glyph unicode="5" horiz-adv-x="423" d="M40 -118l9 75h103q64 0 94 20t36 74l3 38q6 56 -10 73.5t-64 17.5h-135l40 368h294l-10 -88h-196l-22 -201h41q112 0 142 -39.5t19 -137.5l-4 -36q-11 -93 -67 -129t-174 -36q-36 0 -66.5 0.5t-32.5 0.5z" />
<glyph unicode="6" horiz-adv-x="476" d="M70 163q32 297 42 346q19 86 68.5 124t150.5 38q16 0 143 -10l-10 -84q-110 10 -143 8q-20 -2 -33 -3.5t-25 -7.5t-19 -10.5t-14 -19.5t-10 -25t-7.5 -37.5t-7 -47t-7.5 -62.5q50 10 96 10q100 0 134.5 -41t25.5 -125l-6 -46q-20 -178 -205 -178q-101 0 -141.5 44 t-31.5 127zM175 161q-6 -48 14 -66.5t63 -18.5q44 0 65 21.5t26 70.5l5 51q5 44 -8 62t-56 18q-46 0 -96 -16z" />
<glyph unicode="7" horiz-adv-x="384" d="M56 461l10 88h352l-183 -658h-101l159 570h-237z" />
<glyph unicode="8" horiz-adv-x="496" d="M65 160l4 41q6 42 29 80t59 54q-31 23 -43.5 51.5t-6.5 78.5l5 42q10 95 60 130.5t134 37.5q44 0 74.5 -6t57.5 -22.5t38 -51t5 -87.5l-5 -42q-6 -49 -24.5 -77.5t-54.5 -52.5q32 -16 47 -54.5t10 -79.5l-5 -40q-10 -91 -60 -131.5t-143 -40.5q-104 0 -148 37.5 t-33 132.5zM166 165q-6 -46 13.5 -71t61.5 -25q99 0 109 97l4 37q11 91 -74 91h-14q-86 0 -97 -92zM205 465q-11 -90 69 -90h14q80 0 90 91l4 34q6 55 -11.5 74.5t-58.5 19.5q-49 0 -72.5 -17t-30.5 -78z" />
<glyph unicode="9" horiz-adv-x="476" d="M48 -110l9 84q88 -8 143 -8q73 1 90 28.5t29 142.5q0 9 1 14t1.5 13t1.5 15q-48 -10 -96 -10q-99 0 -133.5 40.5t-25.5 125.5l5 46q20 178 206 178q100 0 141 -44t32 -127q-33 -298 -43 -346q-18 -85 -67.5 -123.5t-150.5 -38.5q-16 0 -143 10zM173 332q-5 -44 8 -62 t56 -18q46 0 96 16l13 122q6 48 -13.5 66.5t-62.5 18.5q-44 0 -65 -21.5t-26 -70.5z" />
<glyph unicode=":" horiz-adv-x="232" d="M56 61q4 40 15 50.5t52 10.5t50.5 -10t4.5 -51q-4 -39 -15.5 -51t-52.5 -12t-50 11.5t-4 51.5zM89 364q5 40 16 50.5t52 10.5t50 -10t4 -51q-4 -40 -15.5 -52t-52.5 -12t-49.5 11.5t-4.5 52.5z" />
<glyph unicode=";" horiz-adv-x="234" d="M44 -35q24 14 40 37q-19 3 -23.5 16.5t-1.5 44.5q5 40 16.5 50t52.5 10q40 0 48.5 -10t3.5 -50q-9 -87 -110 -147zM92 364q5 40 16 50.5t52 10.5t50 -10t4 -51q-4 -40 -15.5 -52t-52.5 -12t-50 12t-4 52z" />
<glyph unicode="&#x3c;" horiz-adv-x="499" d="M54 214l6 62l424 175l-11 -93l-289 -113l264 -114l-11 -94z" />
<glyph unicode="=" horiz-adv-x="481" d="M70 126l9 85h358l-9 -85h-358zM87 281l9 85h358l-9 -85h-358z" />
<glyph unicode="&#x3e;" horiz-adv-x="499" d="M58 36l11 95l288 114l-264 112l10 94l386 -176l-7 -62z" />
<glyph unicode="?" horiz-adv-x="409" d="M82 50q3 34 13 43.5t44 9.5q32 0 40 -9t5 -44q-5 -33 -14.5 -42.5t-42.5 -9.5q-34 0 -42 9.5t-3 42.5zM99 597l9 79h110q44 0 71 -2t59.5 -10.5t49.5 -25t27 -48t5 -76.5l-3 -25q-10 -91 -58.5 -130.5t-156.5 -39.5l-14 -125h-98l23 208h106q83 0 92 88l2 16 q3 27 -1 44.5t-10 27t-22.5 14t-29 5t-39.5 0.5h-7h-115z" />
<glyph unicode="@" horiz-adv-x="647" d="M78 289q9 79 20 130.5t32.5 98t55.5 72.5t87 41t127 15q153 0 202.5 -65t31.5 -223q-15 -136 -51.5 -189t-101.5 -55q-62 0 -89 46q-44 -20 -87 -20q-54 0 -72.5 35.5t-10.5 116.5q12 104 44 153t108 49q48 0 121 -18l-41 -283q9 -15 25 -15q55 0 72 170q10 79 3.5 128.5 t-44 72t-119.5 22.5q-45 0 -77.5 -6t-56.5 -22.5t-39 -36.5t-26 -56t-17.5 -73.5t-12.5 -96.5q-13 -111 26 -154.5t142 -43.5h88q-8 -47 -11 -76h-106q-134 0 -186.5 65t-36.5 218zM301 310q-6 -56 -2 -76.5t22 -20.5q33 0 66 15q5 32 15 96.5t15 96.5q-22 3 -50 3 q-31 0 -45 -26t-21 -88z" />
<glyph unicode="A" d="M2 0l263 667h147l121 -667h-104l-30 169h-225l-65 -169h-107zM206 251h177l-55 315z" />
<glyph unicode="B" horiz-adv-x="515" d="M64 0l74 668h168q41 0 69.5 -2.5t58.5 -12.5t47 -27.5t26 -49t4 -75.5l-4 -43q-6 -47 -24.5 -73.5t-54.5 -49.5q30 -15 42.5 -52t8.5 -77l-5 -40q-10 -96 -65.5 -131t-176.5 -35h-168zM176 78h70q60 0 90 21t35 72l4 36q5 47 -13.5 65t-59.5 18h-102zM210 376h102 q82 0 91 83l4 34q4 33 -1 53t-21.5 29t-33.5 11.5t-49 2.5h-69z" />
<glyph unicode="C" horiz-adv-x="507" d="M76 300q6 61 12 103t16 85t23 70t33 52t46.5 38.5t62 21.5t81.5 8q66 0 179 -17l-9 -81q-142 13 -165 13q-30 0 -51.5 -5.5t-38 -13.5t-28.5 -27.5t-20 -38t-15 -56t-11.5 -69t-11.5 -88.5q-7 -56 -7.5 -93.5t9 -62t18.5 -38t38 -19.5t50.5 -7t70.5 -1h8q17 0 51 2t51 2 l-7 -69q-82 -18 -187 -18q-39 0 -65 2.5t-51.5 10t-40.5 22t-27 37t-16.5 55.5t-4 78t6.5 104z" />
<glyph unicode="D" horiz-adv-x="566" d="M64 0l73 667l225 2q42 0 71.5 -5.5t54 -19.5t38.5 -38t22 -62t7 -90t-8 -123q-15 -137 -43 -207.5t-74.5 -97t-131.5 -26.5h-234zM177 83l125 -1q45 2 69 19.5t42 70.5t30 159q7 86 9.5 137t-10.5 78t-31.5 35t-54.5 7h-123z" />
<glyph unicode="E" horiz-adv-x="496" d="M64 0l74 668h379l-10 -88h-275l-21 -196h251l-10 -89h-251l-24 -208h275l-9 -87h-379z" />
<glyph unicode="F" horiz-adv-x="477" d="M64 0l73 667h383l-9 -86h-279l-22 -199h239l-9 -87h-239l-33 -295h-104z" />
<glyph unicode="G" horiz-adv-x="517" d="M76 300q6 61 12.5 103t16.5 85t23 70t33 52t46.5 38.5t62 21.5t81.5 8q66 0 179 -17l-9 -81q-142 13 -165 13q-30 0 -51.5 -5.5t-38 -13.5t-28.5 -27.5t-20 -38t-15 -56t-11.5 -69t-11.5 -88.5q-4 -33 -6 -60t-0.5 -48t3 -37t8.5 -28t12 -20.5t18 -13.5t21 -8t27 -4.5 t30.5 -1.5h35.5h7h31l19 172h-96l7 70h198l-33 -307q-82 -18 -188 -18q-38 0 -64.5 2.5t-51.5 10t-40 22t-27 37t-16.5 55.5t-4.5 78t6 104z" />
<glyph unicode="H" horiz-adv-x="583" d="M64 0l74 668h105l-32 -285h237l32 285h105l-74 -668h-105l32 299h-236l-33 -299h-105z" />
<glyph unicode="I" horiz-adv-x="236" d="M64 0l73 667h104l-73 -667h-104z" />
<glyph unicode="J" horiz-adv-x="301" d="M18 -5l8 76q12 -1 33.5 0t43 3t38.5 16t20 39l59 538h101l-58 -535q-10 -85 -48.5 -115.5t-120.5 -25.5z" />
<glyph unicode="K" horiz-adv-x="530" d="M64 0l74 668h103l-32 -288h72l186 288h114l-212 -323l148 -345h-114l-129 297h-74l-33 -297h-103z" />
<glyph unicode="L" horiz-adv-x="451" d="M64 0l73 667h104l-64 -580h261l-9 -87h-365z" />
<glyph unicode="M" horiz-adv-x="728" d="M64 0l74 668h127l122 -403l211 403h131l-74 -668h-100l54 494l-193 -370h-89l-107 370l-54 -494h-102z" />
<glyph unicode="N" horiz-adv-x="601" d="M64 0l74 668h122l182 -498l57 498h102l-74 -668h-129l-180 487l-53 -487h-101z" />
<glyph unicode="O" horiz-adv-x="566" d="M89 333q9 74 17 122.5t22 90t31.5 64.5t45.5 39.5t62.5 22t85.5 5.5q77 0 118 -15t62.5 -53.5t19 -105.5t-11.5 -170q-8 -75 -16 -123t-22 -89.5t-31 -64t-45 -39t-63.5 -22t-87.5 -5.5q-77 0 -118 15.5t-61.5 54.5t-19 105t11.5 168zM193 333q-14 -106 -11.5 -164.5 t24 -78.5t79.5 -20q30 0 49.5 3.5t36 15.5t25.5 28t17 49t13 69t12 98q15 109 12 168t-25 78t-81 19q-30 0 -50 -3.5t-35.5 -17t-24.5 -29t-17 -50.5t-12.5 -68.5t-11.5 -96.5z" />
<glyph unicode="P" horiz-adv-x="529" d="M64 0l73 667h226q94 0 144.5 -37.5t40.5 -128.5l-9 -79q-6 -60 -50.5 -106.5t-106.5 -56.5q-26 -4 -185 -4l-28 -255h-105zM206 337h117q23 0 40 3t34 11.5t27 26t13 44.5l9 78q5 52 -21 69.5t-74 17.5h-117z" />
<glyph unicode="Q" horiz-adv-x="560" d="M83 333q12 112 26 172.5t43.5 102.5t73.5 55.5t120 13.5q78 0 119 -15t62.5 -53.5t19 -105.5t-11.5 -170q-18 -166 -46.5 -235t-98.5 -91l64 -31l-43 -85l-198 103q-72 7 -104 40.5t-36.5 106.5t10.5 192zM186 333q-14 -106 -12 -164.5t24 -78.5t81 -20q84 0 109.5 45.5 t43.5 217.5q15 109 12 168t-25.5 78t-81.5 19q-23 0 -39 -2t-30 -9t-23.5 -14.5t-17.5 -25.5t-13 -33.5t-10.5 -47.5t-9 -58.5t-8.5 -74.5z" />
<glyph unicode="R" horiz-adv-x="549" d="M64 0l73 667h230q61 0 102.5 -13.5t66 -51.5t17.5 -101l-9 -79q-10 -81 -79 -133l16 -289h-108l-13 257q-21 -2 -163 -2l-28 -255h-105zM206 337h122q49 0 78.5 17.5t34.5 67.5l9 78q4 52 -21.5 69.5t-73.5 17.5h-121z" />
<glyph unicode="S" horiz-adv-x="484" d="M65 -1l10 87q112 -10 193 -10q41 0 62 20t25 64q5 39 -23.5 69t-71 53t-84.5 48.5t-69 68.5t-21 101q10 91 63 135.5t134 44.5q89 0 200 -9l-10 -88q-114 12 -192 12q-41 0 -62.5 -19t-25.5 -60q-4 -32 16 -58.5t52 -43.5t69.5 -40.5t69 -47t50 -64.5t12.5 -93 q-10 -90 -63.5 -134.5t-133.5 -44.5q-85 0 -200 9z" />
<glyph unicode="T" horiz-adv-x="500" d="M78 581l9 86h462l-9 -86h-177l-64 -581h-106l63 581h-178z" />
<glyph unicode="U" horiz-adv-x="589" d="M98 333l38 335h105l-38 -335q-14 -106 -11.5 -164.5t25 -78.5t81.5 -20q37 0 59 7t38 20.5t26 47.5t17 74t15 114l37 335h105l-38 -335q-8 -75 -16 -122.5t-22 -89.5t-31 -64.5t-45.5 -39t-64.5 -22t-89 -5.5q-78 0 -120 15.5t-63 54.5t-19.5 105t11.5 168z" />
<glyph unicode="V" d="M76 667h107l95 -566l225 566h104l-267 -667h-147z" />
<glyph unicode="W" horiz-adv-x="810" d="M86 667h103l54 -545l182 547h97l58 -548l174 546h103l-214 -667h-136l-55 487l-164 -487h-131z" />
<glyph unicode="X" horiz-adv-x="515" d="M12 0l221 337l-142 330h113l98 -229l151 229h111l-212 -328l147 -339h-112l-105 242l-156 -242h-114z" />
<glyph unicode="Y" horiz-adv-x="503" d="M68 668h118l92 -327l168 327h118l-246 -450l-24 -218h-106l23 218z" />
<glyph unicode="Z" horiz-adv-x="505" d="M31 0l8 80l365 501h-303l10 88h422l-10 -84l-361 -499h313l-9 -86h-435z" />
<glyph unicode="[" horiz-adv-x="269" d="M38 -137l104 945h193l-9 -80h-95l-86 -783h94l-9 -82h-192z" />
<glyph unicode="\" horiz-adv-x="367" d="M94 666h103l131 -776h-101z" />
<glyph unicode="]" horiz-adv-x="269" d="M1 -137l9 82h93l87 783h-94l9 80h194l-105 -945h-193z" />
<glyph unicode="^" horiz-adv-x="427" d="M71 389l168 287h89l103 -287h-96l-62 190l-104 -190h-98z" />
<glyph unicode="_" horiz-adv-x="519" d="M42 -58l7 58h410l-7 -58h-410z" />
<glyph unicode="`" horiz-adv-x="298" d="M129 711l72 39l66 -171l-67 -37z" />
<glyph unicode="a" horiz-adv-x="454" d="M49 155q8 80 55 108.5t129 27.5l90 -1l9 83q4 35 -9 45t-48 10q-56 0 -157 -16q-1 3 -4 39t-2 39q99 20 185 20q82 0 114 -28t23 -112l-41 -370h-87l-4 37q-86 -46 -142 -46q-131 0 -111 164zM147 151q-8 -71 33 -71q34 0 123 33l12 106q-98 0 -130.5 -11.5t-37.5 -56.5z " />
<glyph unicode="b" horiz-adv-x="463" d="M55 6l75 686h99l-22 -201q61 17 112 17q81 0 109.5 -51t14.5 -172q-9 -85 -20 -133t-34 -88t-62.5 -56t-101.5 -16q-77 0 -170 14zM162 77q19 -1 67 -1h3q21 0 36.5 4.5t26.5 18t17.5 25.5t12.5 41t8.5 49.5t7.5 65.5q11 77 1.5 110.5t-53.5 33.5q-36 0 -90 -14z" />
<glyph unicode="c" horiz-adv-x="439" d="M68 225q9 74 17 116.5t22.5 79.5t37 54t55.5 26t83 9q83 0 160 -16l-8 -77q-128 11 -150 11q-64 0 -82 -36t-32 -170q-4 -35 -4 -59t4.5 -40.5t11 -26.5t21 -14.5t29.5 -6.5t39 -2q38 0 130 9l-8 -70q-84 -21 -169 -21q-34 0 -56.5 3t-45 11.5t-32.5 24t-20 41.5t-8 64 t5 90z" />
<glyph unicode="d" horiz-adv-x="461" d="M71 256l4 30q15 123 51.5 174t116.5 51q19 0 107 -8l21 188h101l-76 -691h-79l-6 35q-80 -41 -132 -41q-72 0 -98 62t-10 200zM176 283q-13 -111 -7 -156t37 -45q38 0 101 32l34 302q-34 8 -89 8h-3q-16 0 -28 -9t-19 -21t-12.5 -34t-8 -36.5t-5.5 -40.5z" />
<glyph unicode="e" horiz-adv-x="464" d="M71 251q9 82 20 126.5t34.5 77.5t61 44.5t100.5 11.5q116 0 146 -52t12 -207l-2 -31h-33q-41 -1 -121.5 -1.5t-121.5 -0.5q-8 -96 9 -125q15 -24 88 -24q50 0 136 10l-7 -70q-105 -19 -179 -19q-106 0 -133 54t-10 206zM177 297h178q7 88 -6 112t-70 24q-16 0 -27.5 -1.5 t-21 -7t-16 -8.5t-12 -15.5t-8.5 -17.5t-6.5 -25t-5 -27t-5.5 -34z" />
<glyph unicode="f" horiz-adv-x="332" d="M66 421l9 78h68l5 54q10 83 47 110.5t120 27.5q44 0 80 -4l-8 -74h-68q-20 0 -28.5 -1t-19 -6t-15 -17t-7.5 -33l-6 -57h106l-9 -78h-106l-46 -421h-100l46 421h-68z" />
<glyph unicode="g" horiz-adv-x="504" d="M73 -173l9 82q110 -8 190 -8q42 0 63.5 17.5t25.5 58.5q3 34 -15.5 46.5t-54.5 12.5q-9 0 -34 -1t-40 -1q-66 0 -103 24.5t-29 90.5q2 31 20 55q-38 36 -27 134q10 89 49.5 127.5t138.5 39.5l258 1l-8 -69l-55 -8q10 -38 3 -91q-10 -94 -49 -130.5t-116 -36.5h-110 q-10 0 -11 -13l-2 -13q-1 -15 11.5 -21.5t38.5 -6.5q11 0 33.5 1t33.5 1q39 0 67 -4.5t55.5 -17.5t39.5 -41.5t8 -71.5q-10 -84 -62 -124.5t-132 -40.5q-58 0 -121.5 4t-74.5 4zM175 338q-7 -52 6 -71t53 -21h54q38 0 56.5 23t24.5 75t-7.5 68.5t-55.5 16.5h-45 q-45 0 -62 -17t-24 -74z" />
<glyph unicode="h" horiz-adv-x="482" d="M56 0l74 684h99l-22 -208q100 31 150 31q119 0 106 -123l-43 -384h-101l41 379q5 41 -28 41q-67 0 -133 -28l-43 -392h-100z" />
<glyph unicode="i" horiz-adv-x="219" d="M56 0l55 499h103l-55 -499h-103zM117 615q4 38 14.5 48t49.5 10t47 -9.5t4 -48.5q-4 -37 -15 -48t-49 -11t-46.5 10.5t-4.5 48.5z" />
<glyph unicode="j" horiz-adv-x="219" d="M-19 -186l6 56q33 5 45.5 22t16.5 45l62 563h101l-60 -547q-9 -82 -41 -112.5t-86 -30.5q-16 0 -44 4zM117 615q4 38 14 48t49 10t47.5 -9.5t4.5 -48.5q-4 -37 -15.5 -48t-49.5 -11t-46 10.5t-4 48.5z" />
<glyph unicode="k" horiz-adv-x="481" d="M56 0l74 683h100l-38 -354h64l145 243h107l-170 -283l129 -289h-109l-110 246h-65l-27 -246h-100z" />
<glyph unicode="l" horiz-adv-x="229" d="M69 137l61 545h101l-62 -563q-1 -16 -1 -29t10 -22.5t33 -13.5l-7 -57q-29 -5 -38 -5q-54 0 -79.5 31t-17.5 114z" />
<glyph unicode="m" horiz-adv-x="742" d="M56 0l55 499h84l6 -33q97 43 156 43q52 0 88 -43q113 43 168 43q121 0 107 -126l-42 -383h-104l42 376q3 41 -27 41q-55 0 -126 -21q0 -3 -43 -396h-101l41 379q5 39 -28 39q-54 0 -132 -30l-43 -388h-101z" />
<glyph unicode="n" horiz-adv-x="484" d="M56 0l55 499h84l5 -35q108 45 157 45q54 0 83 -31t23 -92l-42 -386h-102l42 379q5 39 -30 39q-59 0 -131 -30l-43 -388h-101z" />
<glyph unicode="o" horiz-adv-x="480" d="M70 250q9 82 21 128t36.5 77.5t62 42.5t100.5 11q121 0 151 -52t13 -207q-9 -80 -20.5 -126t-36.5 -78t-63.5 -43.5t-101.5 -11.5q-83 0 -120 22.5t-46 80.5t4 156zM170 250q-10 -74 -7.5 -114.5t19 -54t59.5 -13.5q62 0 81 32.5t31 149.5q11 76 7.5 117t-20 54.5 t-58.5 13.5q-61 0 -80 -33.5t-32 -151.5z" />
<glyph unicode="p" horiz-adv-x="461" d="M34 -190l77 691h79l5 -35q82 41 133 41q71 0 96.5 -61.5t11.5 -200.5l-4 -30q-17 -123 -53 -174t-115 -51q-16 0 -108 8l-21 -188h-101zM166 85q32 -8 89 -8h2q16 0 28 9t19 21.5t12.5 33.5t7.5 36.5t5 40.5q14 111 8.5 156t-36.5 45q-38 0 -102 -32z" />
<glyph unicode="q" horiz-adv-x="464" d="M65 216q7 68 15 109.5t22.5 80.5t37 59t58 32t85.5 12q63 0 171 -14l-76 -686h-100l22 196q-46 -13 -111 -13q-81 0 -109.5 52t-14.5 172zM168 221q-11 -70 -3.5 -105.5t43.5 -36.5q42 -4 102 13l36 328q-14 2 -72 2q-25 0 -41.5 -8.5t-26.5 -20t-17.5 -42t-11 -54 t-9.5 -76.5z" />
<glyph unicode="r" horiz-adv-x="324" d="M56 0l55 500h90l1 -36q81 38 153 46l-9 -86q-58 -5 -146 -41l-43 -383h-101z" />
<glyph unicode="s" horiz-adv-x="410" d="M58 7l9 81q72 -10 151 -10q59 0 64 48q3 25 -19.5 44t-56 34t-66.5 34t-53.5 52.5t-15.5 80.5q8 69 52 103.5t111 34.5q41 0 82.5 -2.5t62.5 -4.5l21 -3l-9 -81q-81 9 -162 9q-50 0 -54 -47q-2 -19 14 -35.5t41.5 -28t54.5 -28t53.5 -34.5t38.5 -49t10 -70 q-8 -69 -52.5 -103.5t-111.5 -34.5q-41 0 -82 2.5t-62 4.5z" />
<glyph unicode="t" horiz-adv-x="359" d="M64 424q1 8 4 35t5 41h102q2 18 6.5 60t6.5 64h99l-14 -124h103q-2 -14 -5 -41t-4 -35h-103q-4 -38 -14 -129t-15 -136q-3 -21 -3 -38q0 -34 12.5 -44.5t43.5 -10.5q29 0 50 1q0 -2 -6 -67q-34 -9 -67 -9q-75 0 -103 29.5t-28 90.5q0 9 5 76l26 237h-101z" />
<glyph unicode="u" horiz-adv-x="484" d="M65 112l43 387h102l-43 -379q-3 -40 30 -40q58 0 131 31l44 388h101l-55 -500h-85l-5 36q-104 -45 -157 -45q-54 0 -83 30.5t-23 91.5z" />
<glyph unicode="v" horiz-adv-x="452" d="M64 500h105l67 -379l151 379h103l-207 -500h-120z" />
<glyph unicode="w" horiz-adv-x="676" d="M76 500h101l29 -339l124 339h113l49 -339l106 339h99l-155 -500h-121l-50 351l-126 -351h-123z" />
<glyph unicode="x" horiz-adv-x="401" d="M18 0l157 248l-98 251h104l57 -160l92 160h104l-153 -251l101 -248h-101l-63 155l-94 -155h-106z" />
<glyph unicode="y" horiz-adv-x="453" d="M64 500h104l67 -379l151 379h104l-284 -690h-92l76 190h-27z" />
<glyph unicode="z" horiz-adv-x="404" d="M32 0l8 68l237 352h-195l9 81h316l-8 -70l-237 -348h202l-9 -83h-323z" />
<glyph unicode="{" horiz-adv-x="292" d="M43 310l6 52q40 29 56 54t20 72l20 176q8 76 43.5 110t130.5 34h39l-9 -79h-39q-37 0 -47.5 -13t-15.5 -52l-19 -176q-6 -53 -23.5 -87.5t-53.5 -64.5q54 -54 43 -152l-19 -175q-4 -40 4 -53t45 -13h39l-9 -80h-39q-49 0 -80.5 10t-45 29t-17.5 46t1 61l19 175 q5 47 -5.5 71.5t-43.5 54.5z" />
<glyph unicode="|" horiz-adv-x="190" d="M31 -199l108 973h79l-108 -973h-79z" />
<glyph unicode="}" horiz-adv-x="292" d="M0 -137l9 80h39q37 0 48 13t16 53l18 175q7 53 24.5 88t53.5 64q-54 54 -44 152l20 176q4 38 -4.5 51.5t-45.5 13.5h-39l9 79h39q95 0 122.5 -34t19.5 -110l-20 -176q-4 -46 6.5 -71t43.5 -56l-5 -51q-41 -29 -57 -54t-21 -72l-19 -175q-8 -75 -44 -110.5t-130 -35.5h-39 z" />
<glyph unicode="~" horiz-adv-x="449" d="M72 268q60 55 106 57q25 1 69.5 -14.5t69.5 -15.5q24 0 77 42l34 -59q-21 -28 -55.5 -45.5t-62.5 -17.5q-40 0 -76.5 15t-48.5 15q-30 0 -80 -43z" />
<glyph unicode="&#xa1;" horiz-adv-x="207" d="M30 -193l60 547h101l-61 -547h-100zM103 470q3 33 13 43t44 10q33 0 40.5 -10.5t3.5 -42.5q-4 -35 -13.5 -44t-42.5 -9t-41 9.5t-4 43.5z" />
<glyph unicode="&#xa2;" horiz-adv-x="463" d="M82 304q17 162 50 219.5t127 64.5l8 77h92l-9 -79q63 -6 106 -13l-9 -78q-144 11 -148 11q-65 0 -83 -35t-33 -170q-11 -98 10 -125.5t91 -27.5q16 0 38 1.5t49.5 4t43.5 3.5l-8 -70q-40 -10 -114 -18l-9 -78h-91l9 77q-39 3 -63 13.5t-42 37t-19.5 71t4.5 114.5z" />
<glyph unicode="&#xa3;" horiz-adv-x="447" d="M32 0l8 76q39 2 53 22t20 81l17 142h-54l8 67h53l7 66q12 112 48.5 160.5t117.5 52.5q59 4 153 -20l-8 -69q-91 16 -135 16q-37 0 -51.5 -34.5t-20.5 -94.5l-9 -77h167l-7 -67h-167l-17 -158q0 -3 -2.5 -19t-3.5 -22.5t-5.5 -19t-10.5 -22.5h212l-8 -80h-365z" />
<glyph unicode="&#xa4;" horiz-adv-x="499" d="M63 156l62 63q-11 58 -2.5 121.5t27.5 107.5l-49 65l68 67l61 -74q35 11 68 11q35 0 71 -11l79 79l55 -71l-68 -68q13 -39 4 -111q-7 -74 -29 -115l51 -67l-70 -64l-60 73q-33 -11 -65 -11q-33 0 -71 11l-82 -76zM220 335q-7 -62 2 -83t47 -21q26 0 40 10t21 31t12 63 q6 62 -3 83t-47 21q-39 0 -52.5 -21t-19.5 -83z" />
<glyph unicode="&#xa5;" horiz-adv-x="519" d="M94 667h104l101 -294l168 294h104l-225 -394h112l-8 -76h-334l8 76h109zM105 83l8 75h334l-8 -75h-120l-9 -83h-99l9 83h-115z" />
<glyph unicode="&#xa6;" horiz-adv-x="202" d="M32 -199l47 422h88l-46 -422h-89zM94 353l46 421h89l-47 -421h-88z" />
<glyph unicode="&#xa7;" horiz-adv-x="454" d="M46 -99l9 81q72 -10 151 -10q59 0 64 48q3 25 -19.5 44t-56 34t-66.5 34t-53.5 52.5t-15.5 80.5q6 53 34.5 86t73.5 45q-54 45 -46 117q7 69 51.5 103.5t110.5 34.5q41 0 83 -2.5t63 -4.5l21 -3l-9 -81q-82 9 -162 9q-48 0 -54 -47q-3 -22 19.5 -40.5t56 -34t66.5 -35 t54 -54.5t16 -81q-13 -106 -109 -131q56 -47 47 -117q-8 -69 -52.5 -103.5t-111.5 -34.5q-40 0 -81.5 2.5t-62.5 4.5zM163 274q-4 -28 35 -52q22 -2 70 -2q59 0 63 48q4 28 -26 50q-40 3 -87 3q-51 0 -55 -47z" />
<glyph unicode="&#xa8;" horiz-adv-x="370" d="M121 607q4 35 13 44.5t43 9.5q33 0 41 -10t4 -44q-3 -32 -13 -42.5t-43 -10.5q-34 0 -41.5 10t-3.5 43zM282 607q4 35 13 44.5t42 9.5q34 0 42 -10t4 -44q-3 -32 -13 -42.5t-44 -10.5q-33 0 -40.5 10t-3.5 43z" />
<glyph unicode="&#xa9;" horiz-adv-x="701" d="M67 328q15 144 113 242.5t236 98.5t214.5 -98t60.5 -243q-16 -142 -114.5 -239.5t-236.5 -97.5q-137 0 -213 97.5t-60 239.5zM139 328q-14 -114 45 -192t165 -78q107 0 183 78t89 192q12 116 -46.5 194.5t-165.5 78.5q-106 0 -182 -78.5t-88 -194.5zM251 309 q13 118 39 155t106 37q58 0 108 -11l-6 -52q-95 8 -100 8q-44 0 -56 -24t-22 -115q-7 -66 7 -83.5t62 -17.5q1 0 88 6l-5 -47q-58 -14 -115 -14q-28 0 -45 3t-33 12t-21.5 26.5t-9.5 46t3 70.5z" />
<glyph unicode="&#xaa;" horiz-adv-x="316" d="M86 473q6 50 33.5 66.5t79.5 16.5h48l4 45q2 15 -4.5 20.5t-23.5 5.5q-18 0 -53 -5t-40 -5q0 7 -1.5 27.5t-1.5 27.5q65 13 109 13q50 0 69.5 -18.5t13.5 -68.5l-24 -220h-60q-2 12 -4 21q-42 -26 -76 -26q-80 0 -69 100zM153 471q-4 -37 18 -37q9 0 33.5 9.5t30.5 9.5 l5 51h-23q-33 0 -47 -6.5t-17 -26.5z" />
<glyph unicode="&#xab;" horiz-adv-x="449" d="M57 249l148 211l69 -53l-111 -158l76 -157l-81 -53zM241 249l149 210l69 -52l-111 -158l77 -156l-82 -53z" />
<glyph unicode="&#xac;" horiz-adv-x="515" d="M78 200l9 84h390l-26 -240h-91l17 156h-299z" />
<glyph unicode="&#xad;" horiz-adv-x="366" d="M76 278l5 43h253l-5 -43h-253z" />
<glyph unicode="&#xae;" horiz-adv-x="436" d="M94 498q8 80 62 134t131 54q76 0 117.5 -54t33.5 -134q-8 -79 -62 -133t-130 -54q-78 0 -119 54t-33 133zM132 498q-8 -63 25 -106.5t92 -43.5q58 0 101 43.5t50 106.5t-26 106.5t-91 43.5q-60 0 -102 -43t-49 -107zM200 408l20 180h66q26 0 39.5 -10.5t11.5 -35.5 l-3 -21q-2 -21 -20 -35l5 -78h-35l-3 68h-42l-7 -68h-32zM242 502h32q27 0 27 19l3 21q1 12 -5 16t-17 4h-33z" />
<glyph unicode="&#xaf;" horiz-adv-x="356" d="M113 562l8 75h233l-8 -75h-233z" />
<glyph unicode="&#xb0;" horiz-adv-x="303" d="M92 535q6 53 41 88t87 35t78.5 -35t20.5 -88t-40 -88t-86 -35q-53 0 -79.5 35t-21.5 88zM149 535q-2 -29 10.5 -48.5t39.5 -19.5q26 0 43 19.5t20 48.5t-9.5 48t-39.5 19t-43.5 -19t-20.5 -48z" />
<glyph unicode="&#xb1;" horiz-adv-x="499" d="M48 0l8 81h393l-8 -81h-393zM79 293l9 81h148l19 165h98l-19 -165h147l-9 -81h-147l-18 -168h-98l18 168h-148z" />
<glyph unicode="&#xb2;" horiz-adv-x="371" d="M76 229l8 58q31 36 69 78.5t56.5 63.5t37 44t26 37.5t9.5 27.5q2 24 -10.5 35t-41.5 11q-20 0 -57.5 -1t-58.5 -1l7 62l106 1q38 0 62 -3.5t45.5 -14t30 -33t4.5 -57.5q-3 -30 -26.5 -64.5t-80.5 -95.5t-75 -83h151l-7 -65h-255z" />
<glyph unicode="&#xb3;" horiz-adv-x="337" d="M77 223l6 50q14 0 38 -1t36 -1q44 0 65.5 14t24.5 47l3 22q4 31 -9 43.5t-42 12.5h-74l5 52h74q59 0 64 56l3 27q4 35 -15.5 45.5t-62.5 10.5l-74 -2l5 49l80 3q37 0 59 -2.5t45 -12t32.5 -31t5.5 -56.5l-4 -32q-4 -31 -17.5 -48.5t-39.5 -32.5q23 -10 32.5 -34t6.5 -49 l-3 -25q-7 -61 -44.5 -83.5t-120.5 -22.5h-12q-11 0 -33 0.5t-34 0.5z" />
<glyph unicode="&#xb4;" horiz-adv-x="298" d="M135 579l104 171l63 -39l-109 -169z" />
<glyph unicode="&#xb5;" horiz-adv-x="478" d="M34 -189l77 687h102q-13 -120 -22.5 -202.5t-14 -126t-6.5 -57.5q-3 -32 31 -32q55 0 130 30l43 389h103l-56 -500h-90q-1 7 -1 28q-75 -33 -146 -33q-18 0 -27 1l-21 -184h-102z" />
<glyph unicode="&#xb6;" horiz-adv-x="533" d="M76 476q8 72 16.5 108t30 63.5t56 35.5t95.5 8h259l-97 -884h-75l88 797h-34l-88 -797h-87l56 504l-44 -1q-34 0 -51 0.5t-41 2.5t-34 6t-23.5 12.5t-18 20t-9 29.5t-3.5 41t4 54z" />
<glyph unicode="&#xb7;" horiz-adv-x="231" d="M84 314q4 39 15.5 50t53.5 11q40 0 49.5 -10t4.5 -51q-4 -40 -16 -52t-52 -12q-41 0 -50.5 12t-4.5 52z" />
<glyph unicode="&#xb8;" horiz-adv-x="300" d="M87 -210q4 15 10 47q1 0 22 -1.5t31 -1.5q17 0 21 4.5t6 22.5q4 20 -11 20l-57 1q20 78 29 117h66q-7 -31 -15 -58q35 0 47.5 -15t7.5 -58q-5 -49 -25.5 -67.5t-59.5 -18.5q-22 0 -72 8z" />
<glyph unicode="&#xb9;" horiz-adv-x="239" d="M85 580l8 68l149 1l-46 -419h-79l39 352z" />
<glyph unicode="&#xba;" horiz-adv-x="352" d="M115 528q12 103 37.5 131t99.5 28q61 0 79.5 -32.5t7.5 -126.5q-9 -91 -34.5 -124t-92.5 -33q-45 0 -66 10t-29.5 44t-1.5 103zM190 510q-6 -46 -1.5 -61t30.5 -15q25 2 32.5 15t13.5 80q7 61 2 78.5t-29 17.5q-25 0 -32 -16t-14 -80z" />
<glyph unicode="&#xbb;" horiz-adv-x="450" d="M46 95l110 156l-75 158l80 52l102 -210l-148 -209zM231 94l110 157l-75 158l80 53l102 -211l-148 -210z" />
<glyph unicode="&#xbc;" horiz-adv-x="461" d="M51 231l8 73h399l-8 -73h-399zM56 -125l6 53l169 243h97l-26 -230h53l-8 -66h-52l-13 -125h-67l14 125h-173zM151 -59h84l16 147zM209 714l7 67l150 1l-47 -419h-79l39 352z" />
<glyph unicode="&#xbd;" horiz-adv-x="457" d="M48 232l8 72l398 1l-8 -73h-398zM77 -250l8 58q31 36 69 78.5t56.5 63.5t37 44t26 37.5t9.5 27.5q2 24 -10.5 35t-41.5 11q-20 0 -57.5 -1t-58.5 -1l7 62l106 1q38 0 62 -3.5t46 -14t30.5 -33t4.5 -57.5q-3 -30 -27 -64.5t-80.5 -95t-75.5 -83.5h151l-7 -65h-255z M209 714l7 67l150 1l-47 -419h-79l39 352z" />
<glyph unicode="&#xbe;" horiz-adv-x="461" d="M49 233l9 72h398l-8 -72h-399zM54 -124l6 53l170 243h97l-26 -230h52l-7 -66h-53l-13 -125h-67l14 125h-173zM149 -58h84l16 147zM163 362l5 50q14 0 35.5 -1t34.5 -1q44 0 65 14t25 47l2 22q4 31 -9 43.5t-42 12.5h-74l6 52h73q59 0 64 56l3 27q4 35 -15.5 45.5 t-61.5 10.5l-70 -2l6 49l74 3q37 0 59 -2.5t45 -12t32.5 -31t5.5 -56.5l-4 -32q-4 -31 -17.5 -48.5t-39.5 -32.5q23 -10 32.5 -34t6.5 -49l-3 -25q-7 -61 -44.5 -83.5t-120.5 -22.5h-12q-11 0 -30 0.5t-31 0.5z" />
<glyph unicode="&#xbf;" horiz-adv-x="401" d="M21 -32l1 23q11 93 59 132t157 39l14 126h97l-23 -208h-106q-83 0 -92 -89l-1 -15q-2 -14 -2 -25.5t2.5 -20.5t4 -15.5t8 -11.5t9.5 -8.5t13.5 -5.5t14.5 -3t18 -1.5t18.5 -0.5h21.5h115l-8 -79h-110q-44 0 -71 2t-59.5 10.5t-49.5 25.5t-26.5 48.5t-4.5 76.5zM268 451 q4 33 14 43t43 10t40.5 -10t4.5 -43q-5 -34 -14.5 -43.5t-42.5 -9.5t-41 9.5t-4 43.5z" />
<glyph unicode="&#xc0;" d="M2 0l263 667h147l121 -667h-104l-30 169h-225l-65 -169h-107zM206 251h177l-55 315zM257 898l72 39l67 -171l-68 -37z" />
<glyph unicode="&#xc1;" d="M2 0l263 667h147l121 -667h-104l-30 169h-225l-65 -169h-107zM206 251h177l-55 315zM303 764l105 171l64 -39l-109 -169z" />
<glyph unicode="&#xc2;" d="M2 0l263 667h147l121 -667h-104l-30 169h-225l-65 -169h-107zM206 251h177l-55 315zM215 786l158 125l128 -127l-50 -58l-90 87l-114 -86z" />
<glyph unicode="&#xc3;" d="M2 0l263 667h147l121 -667h-104l-30 169h-225l-65 -169h-107zM206 251h177l-55 315zM217 764q18 31 43 51.5t50 20.5q20 0 53.5 -18t41.5 -18q16 0 43 34l42 -36q-36 -69 -90 -69q-17 0 -47.5 18t-48.5 18q-2 0 -4.5 -0.5t-5.5 -2t-5 -3t-5 -4t-5 -4.5l-5.5 -5.5t-5.5 -6 t-5.5 -6.5t-5.5 -6q-1 1 -16.5 15.5t-23.5 21.5z" />
<glyph unicode="&#xc4;" d="M2 0l263 667h147l121 -667h-104l-30 169h-225l-65 -169h-107zM206 251h177l-55 315zM215 779q4 35 13.5 44.5t43.5 9.5q33 0 41 -9.5t4 -44.5q-4 -32 -14 -42.5t-43 -10.5t-40.5 9.5t-4.5 43.5zM376 779q5 35 14 44.5t42 9.5q34 0 42 -9.5t4 -44.5q-4 -33 -14 -43 t-44 -10q-33 0 -40 9.5t-4 43.5z" />
<glyph unicode="&#xc5;" d="M2 0l263 667h147l121 -667h-104l-30 169h-225l-65 -169h-107zM206 251h177l-55 315zM280 815q3 36 27 60.5t59 24.5q36 0 55 -24.5t15 -60.5q-4 -35 -28.5 -59.5t-60.5 -24.5q-35 0 -53.5 23.5t-13.5 60.5zM326 815q-2 -16 5.5 -27t21.5 -11q15 0 25 10.5t12 27.5 q1 17 -6.5 28t-22.5 11q-13 0 -23 -11t-12 -28z" />
<glyph unicode="&#xc6;" horiz-adv-x="749" d="M1 0l264 667h507l-9 -86h-336l36 -198h255l-11 -91h-228l37 -206h195l-9 -86h-274l-30 169h-225l-65 -169h-107zM205 251h177l-54 315z" />
<glyph unicode="&#xc7;" horiz-adv-x="507" d="M76 300q10 83 17.5 131.5t21 96.5t31 72.5t46 44.5t66.5 26.5t93 6.5q66 0 179 -17l-9 -81q-142 13 -165 13q-30 0 -51.5 -4.5t-38 -11.5t-28.5 -25t-20 -36.5t-15 -55.5t-11.5 -71t-11.5 -94q-5 -43 -5.5 -75.5t3 -56.5t13 -39.5t21.5 -25.5t32 -15.5t40.5 -7t51.5 -1.5 q55 0 130 8l-8 -73q-89 -15 -166 -18q-1 -4 -3.5 -12t-3.5 -12q35 0 47.5 -15t7.5 -58q-5 -49 -25 -67.5t-59 -18.5q-24 0 -72 8q1 6 4.5 22t5.5 25q6 0 16.5 -1t19.5 -1.5t17 -0.5q17 0 21 4.5t6 22.5q2 20 -12 20l-57 1l22 84q-41 3 -68 11.5t-49 29t-30 54.5t-11 86.5 t7 126.5z" />
<glyph unicode="&#xc8;" horiz-adv-x="496" d="M64 0l74 668h379l-10 -88h-275l-21 -196h251l-10 -89h-251l-24 -208h275l-9 -87h-379zM259 895l72 39l67 -171l-67 -37z" />
<glyph unicode="&#xc9;" horiz-adv-x="496" d="M64 0l74 668h379l-10 -88h-275l-21 -196h251l-10 -89h-251l-24 -208h275l-9 -87h-379zM280 768l104 171l63 -39l-109 -169z" />
<glyph unicode="&#xca;" horiz-adv-x="496" d="M64 0l74 668h379l-10 -88h-275l-21 -196h251l-10 -89h-251l-24 -208h275l-9 -87h-379zM202 788l159 125l127 -127l-51 -58l-89 87l-114 -86z" />
<glyph unicode="&#xcb;" horiz-adv-x="496" d="M64 0l74 668h379l-10 -88h-275l-21 -196h251l-10 -89h-251l-24 -208h275l-9 -87h-379zM208 782q3 35 12.5 44.5t43.5 9.5q33 0 41 -9.5t5 -44.5q-5 -32 -15 -42.5t-43 -10.5q-34 0 -41.5 10t-2.5 43zM369 782q3 35 12.5 44.5t42.5 9.5q34 0 42 -9.5t5 -44.5 q-5 -33 -15 -43t-44 -10q-33 0 -40 9.5t-3 43.5z" />
<glyph unicode="&#xcc;" horiz-adv-x="243" d="M64 0l73 667h104l-73 -667h-104zM106 899l72 39l67 -171l-68 -37z" />
<glyph unicode="&#xcd;" horiz-adv-x="240" d="M64 0l73 667h104l-73 -667h-104zM153 766l104 171l63 -39l-109 -169z" />
<glyph unicode="&#xce;" horiz-adv-x="243" d="M59 786l159 125l128 -127l-51 -58l-90 87l-113 -86zM64 0l73 667h104l-73 -667h-104z" />
<glyph unicode="&#xcf;" horiz-adv-x="243" d="M64 0l73 667h104l-73 -667h-104zM71 779q4 35 13.5 44.5t43.5 9.5q33 0 41 -9.5t4 -44.5q-4 -32 -14 -42.5t-43 -10.5t-40.5 9.5t-4.5 43.5zM232 779q5 35 14 44.5t42 9.5q34 0 42 -9.5t4 -44.5q-4 -33 -14 -43t-44 -10q-33 0 -40 9.5t-4 43.5z" />
<glyph unicode="&#xd0;" horiz-adv-x="567" d="M50 319l10 89h40l28 259l225 2q42 0 71.5 -5.5t54 -19.5t38.5 -38t22 -62t7.5 -90t-8.5 -123q-15 -137 -43 -207.5t-74.5 -97t-131.5 -26.5h-234l35 319h-40zM168 83l125 -1q45 2 69 19.5t42 70.5t30 159q7 86 9.5 137t-10.5 78t-31.5 35t-54.5 7h-123l-20 -180h91 l-10 -89h-91z" />
<glyph unicode="&#xd1;" horiz-adv-x="601" d="M64 0l74 668h122l182 -498l57 498h102l-74 -668h-129l-180 487l-53 -487h-101zM251 760q18 31 43.5 51.5t50.5 20.5q19 0 52 -18t41 -18q17 0 43 34q5 -4 20 -16.5t24 -19.5q-40 -69 -90 -69q-17 0 -48 18t-49 18q-2 0 -4.5 -0.5t-5.5 -2t-5 -3t-5 -4t-5 -4.5l-5.5 -5.5 t-5.5 -6t-5.5 -6.5t-5.5 -6q-1 1 -16.5 15.5t-23.5 21.5z" />
<glyph unicode="&#xd2;" horiz-adv-x="566" d="M89 333q9 74 17 122.5t22 90t31.5 64.5t45.5 39.5t62.5 22t85.5 5.5q77 0 118 -15t62.5 -53.5t19 -105.5t-11.5 -170q-8 -75 -16 -123t-22 -89.5t-31 -64t-45 -39t-63.5 -22t-87.5 -5.5q-77 0 -118 15.5t-61.5 54.5t-19 105t11.5 168zM193 333q-14 -106 -12 -164.5 t24 -78.5t80 -20q30 0 49.5 3.5t36 15.5t25.5 28t17 49t13 69t12 98q15 109 12 168t-25 78t-81 19q-30 0 -50 -3.5t-35.5 -17t-24.5 -29t-17 -50.5t-12.5 -68.5t-11.5 -96.5zM282 898l72 39l66 -171l-67 -37z" />
<glyph unicode="&#xd3;" horiz-adv-x="566" d="M89 333q9 74 17 122.5t22 90t31.5 64.5t45.5 39.5t62.5 22t85.5 5.5q77 0 118 -15t62.5 -53.5t19 -105.5t-11.5 -170q-8 -75 -16 -123t-22 -89.5t-31 -64t-45 -39t-63.5 -22t-87.5 -5.5q-77 0 -118 15.5t-61.5 54.5t-19 105t11.5 168zM193 333q-14 -106 -12 -164.5 t24 -78.5t80 -20q30 0 49.5 3.5t36 15.5t25.5 28t17 49t13 69t12 98q15 109 12 168t-25 78t-81 19q-30 0 -50 -3.5t-35.5 -17t-24.5 -29t-17 -50.5t-12.5 -68.5t-11.5 -96.5zM303 762l105 171l63 -39l-108 -169z" />
<glyph unicode="&#xd4;" horiz-adv-x="566" d="M89 333q9 74 17 122.5t22 90t31.5 64.5t45.5 39.5t62.5 22t85.5 5.5q77 0 118 -15t62.5 -53.5t19 -105.5t-11.5 -170q-8 -75 -16 -123t-22 -89.5t-31 -64t-45 -39t-63.5 -22t-87.5 -5.5q-77 0 -118 15.5t-61.5 54.5t-19 105t11.5 168zM193 333q-14 -106 -12 -164.5 t24 -78.5t80 -20q30 0 49.5 3.5t36 15.5t25.5 28t17 49t13 69t12 98q15 109 12 168t-25 78t-81 19q-30 0 -50 -3.5t-35.5 -17t-24.5 -29t-17 -50.5t-12.5 -68.5t-11.5 -96.5zM228 793l158 125l128 -127l-51 -58l-90 87l-113 -86z" />
<glyph unicode="&#xd5;" horiz-adv-x="566" d="M89 333q9 74 17 122.5t22 90t31.5 64.5t45.5 39.5t62.5 22t85.5 5.5q77 0 118 -15t62.5 -53.5t19 -105.5t-11.5 -170q-8 -75 -16 -123t-22 -89.5t-31 -64t-45 -39t-63.5 -22t-87.5 -5.5q-77 0 -118 15.5t-61.5 54.5t-19 105t11.5 168zM193 333q-14 -106 -12 -164.5 t24 -78.5t80 -20q30 0 49.5 3.5t36 15.5t25.5 28t17 49t13 69t12 98q15 109 12 168t-25 78t-81 19q-30 0 -50 -3.5t-35.5 -17t-24.5 -29t-17 -50.5t-12.5 -68.5t-11.5 -96.5zM224 760q18 31 43.5 51.5t50.5 20.5q19 0 52 -18t41 -18q17 0 43 34q5 -4 20 -16.5t24 -19.5 q-40 -69 -90 -69q-18 0 -49 18t-48 18q-2 0 -4.5 -0.5t-5.5 -2t-5 -3t-5 -4t-5 -4.5l-5.5 -5.5t-5.5 -6t-5.5 -6.5t-5.5 -6q-1 1 -16.5 15.5t-23.5 21.5z" />
<glyph unicode="&#xd6;" horiz-adv-x="566" d="M89 333q9 74 17 122.5t22 90t31.5 64.5t45.5 39.5t62.5 22t85.5 5.5q77 0 118 -15t62.5 -53.5t19 -105.5t-11.5 -170q-8 -75 -16 -123t-22 -89.5t-31 -64t-45 -39t-63.5 -22t-87.5 -5.5q-77 0 -118 15.5t-61.5 54.5t-19 105t11.5 168zM193 333q-14 -106 -12 -164.5 t24 -78.5t80 -20q30 0 49.5 3.5t36 15.5t25.5 28t17 49t13 69t12 98q15 109 12 168t-25 78t-81 19q-30 0 -50 -3.5t-35.5 -17t-24.5 -29t-17 -50.5t-12.5 -68.5t-11.5 -96.5zM232 779q5 35 14 44.5t43 9.5q33 0 41 -9.5t4 -44.5q-4 -32 -14 -42.5t-43 -10.5t-40.5 9.5 t-4.5 43.5zM393 779q5 35 14 44.5t42 9.5q34 0 42 -9.5t4 -44.5q-4 -33 -14 -43t-44 -10q-33 0 -40 9.5t-4 43.5z" />
<glyph unicode="&#xd7;" horiz-adv-x="480" d="M53 97l149 147l-115 148l67 66l117 -146l147 146l54 -66l-150 -148l116 -147l-67 -66l-116 146l-149 -147z" />
<glyph unicode="&#xd8;" horiz-adv-x="566" d="M89 333q9 74 17 122.5t22 90t31.5 64.5t45.5 39.5t62.5 22t85.5 5.5q23 0 53 -2l21 50h69l-25 -63q64 -23 77 -99t-7 -230q-8 -75 -16 -123t-22 -89.5t-31 -64t-45 -39t-63.5 -22t-87.5 -5.5q-41 0 -66 4l-18 -46h-68l24 62q-56 26 -67 102t8 221zM189 115l187 481 q-20 2 -32 2q-30 0 -50 -3.5t-35.5 -17t-24.5 -29t-17 -50.5t-12.5 -68.5t-11.5 -96.5q-20 -175 -4 -218zM240 73q20 -3 45 -3q30 0 49.5 3.5t36 15.5t25.5 28t17 49t13 69t12 98q13 99 12.5 155t-16.5 80z" />
<glyph unicode="&#xd9;" horiz-adv-x="589" d="M98 333l38 335h105l-38 -335q-14 -106 -11.5 -164.5t25 -78.5t81.5 -20q37 0 59 7t38 20.5t26 47.5t17 74t15 114l37 335h105l-38 -335q-8 -75 -16 -122.5t-22 -89.5t-31 -64.5t-45.5 -39t-64.5 -22t-89 -5.5q-78 0 -120 15.5t-63 54.5t-19.5 105t11.5 168zM292 897 l71 39l66 -171l-66 -37z" />
<glyph unicode="&#xda;" horiz-adv-x="589" d="M98 333l38 335h105l-38 -335q-14 -106 -11.5 -164.5t25 -78.5t81.5 -20q37 0 59 7t38 20.5t26 47.5t17 74t15 114l37 335h105l-38 -335q-8 -75 -16 -122.5t-22 -89.5t-31 -64.5t-45.5 -39t-64.5 -22t-89 -5.5q-78 0 -120 15.5t-63 54.5t-19.5 105t11.5 168zM329 762 l105 171l63 -39l-108 -169z" />
<glyph unicode="&#xdb;" horiz-adv-x="589" d="M98 333l38 335h105l-38 -335q-14 -106 -11.5 -164.5t25 -78.5t81.5 -20q37 0 59 7t38 20.5t26 47.5t17 74t15 114l37 335h105l-38 -335q-8 -75 -16 -122.5t-22 -89.5t-31 -64.5t-45.5 -39t-64.5 -22t-89 -5.5q-78 0 -120 15.5t-63 54.5t-19.5 105t11.5 168zM238 783 l159 125l127 -127l-51 -58l-89 87l-114 -86z" />
<glyph unicode="&#xdc;" horiz-adv-x="589" d="M98 333l38 335h105l-38 -335q-14 -106 -11.5 -164.5t25 -78.5t81.5 -20q37 0 59 7t38 20.5t26 47.5t17 74t15 114l37 335h105l-38 -335q-8 -75 -16 -122.5t-22 -89.5t-31 -64.5t-45.5 -39t-64.5 -22t-89 -5.5q-78 0 -120 15.5t-63 54.5t-19.5 105t11.5 168zM247 779 q5 35 14 44.5t43 9.5q33 0 41 -10t4 -44q-3 -32 -13.5 -42.5t-43.5 -10.5t-40.5 10t-4.5 43zM409 779q4 35 13 44.5t42 9.5q34 0 42 -10t4 -44q-3 -32 -13 -42.5t-44 -10.5q-33 0 -40.5 10t-3.5 43z" />
<glyph unicode="&#xdd;" horiz-adv-x="503" d="M68 668h118l92 -327l168 327h118l-246 -450l-24 -218h-106l23 218zM273 764l104 171l64 -39l-109 -169z" />
<glyph unicode="&#xde;" horiz-adv-x="550" d="M63 0l74 667h104l-12 -112h135q94 0 143.5 -37t39.5 -130l-9 -82q-7 -60 -51 -105.5t-105 -56.5q-25 -4 -199 -4l-16 -140h-104zM193 231h133q32 0 51.5 3.5t37 21t21.5 50.5l9 81q6 47 -20 63.5t-73 16.5h-133z" />
<glyph unicode="&#xdf;" horiz-adv-x="513" d="M-10 -178l7 65q29 4 38 16t12 36l61 557q10 81 59 128.5t125 47.5q34 0 61.5 -3t58 -13.5t50 -28.5t30.5 -51t6 -77q-10 -78 -75 -153q40 -21 49.5 -63t-0.5 -93l-6 -55q-4 -39 -18 -65.5t-32 -41t-52 -22t-63.5 -9t-80.5 -1.5h-37q-6 0 -15.5 0.5t-16.5 0.5l-4 -43 q-9 -78 -39.5 -107t-81.5 -29q-13 0 -36 4zM161 84h69h38.5t30.5 1.5t28.5 5t19 10t16 17t5.5 25.5l6 53q6 49 -9.5 65t-60.5 16h-121zM193 365h122q76 67 84 130q5 49 -28 65t-90 16q-65 0 -74 -83z" />
<glyph unicode="&#xe0;" horiz-adv-x="454" d="M49 155q8 80 55 108.5t129 27.5l90 -1l9 83q4 35 -9 45t-48 10q-56 0 -157 -16q-1 3 -4 39t-2 39q99 20 185 20q82 0 114 -28t23 -112l-41 -370h-87l-4 37q-86 -46 -142 -46q-131 0 -111 164zM147 151q-8 -71 33 -71q34 0 123 33l12 106q-98 0 -130.5 -11.5t-37.5 -56.5z M208 718l71 39l67 -171l-67 -37z" />
<glyph unicode="&#xe1;" horiz-adv-x="455" d="M49 155q8 80 55 108.5t129 27.5l90 -1l9 83q4 35 -9 45t-48 10q-56 0 -157 -16q-1 3 -4 39t-2 39q99 20 185 20q82 0 114 -28t23 -112l-41 -370h-87l-4 37q-86 -46 -142 -46q-131 0 -111 164zM147 151q-8 -71 33 -71q34 0 123 33l12 106q-98 0 -130.5 -11.5t-37.5 -56.5z M228 593l104 171l64 -39l-109 -169z" />
<glyph unicode="&#xe2;" horiz-adv-x="456" d="M49 155q8 80 55 108.5t129 27.5l90 -1l9 83q4 35 -9 45t-48 10q-56 0 -157 -16q-1 3 -4 39t-2 39q99 20 185 20q82 0 114 -28t23 -112l-41 -370h-87l-4 37q-86 -46 -142 -46q-131 0 -111 164zM138 610l159 125l127 -127l-51 -58l-89 87l-114 -86zM147 151q-8 -71 33 -71 q34 0 123 33l12 106q-98 0 -130.5 -11.5t-37.5 -56.5z" />
<glyph unicode="&#xe3;" horiz-adv-x="455" d="M49 155q8 80 55 108.5t129 27.5l90 -1l9 83q4 35 -9 45t-48 10q-56 0 -157 -16q-1 3 -4 39t-2 39q99 20 185 20q82 0 114 -28t23 -112l-41 -370h-87l-4 37q-86 -46 -142 -46q-131 0 -111 164zM144 583q19 31 43.5 51.5t50.5 20.5q19 0 52.5 -18t41.5 -18q16 0 43 34 q28 -24 43 -36q-38 -69 -90 -69q-18 0 -48.5 18t-48.5 18q-2 0 -4.5 -0.5t-5.5 -2t-5 -3t-5 -4t-5 -4.5l-5.5 -5.5t-5.5 -6t-5.5 -6.5t-5.5 -6q-1 1 -16.5 15.5t-23.5 21.5zM147 151q-8 -71 33 -71q34 0 123 33l12 106q-98 0 -130.5 -11.5t-37.5 -56.5z" />
<glyph unicode="&#xe4;" horiz-adv-x="454" d="M49 155q8 80 55 108.5t129 27.5l90 -1l9 83q4 35 -9 45t-48 10q-56 0 -157 -16q-1 3 -4 39t-2 39q99 20 185 20q82 0 114 -28t23 -112l-41 -370h-87l-4 37q-86 -46 -142 -46q-131 0 -111 164zM147 151q-8 -71 33 -71q34 0 123 33l12 106q-98 0 -130.5 -11.5t-37.5 -56.5z M153 604q3 35 12.5 44.5t43.5 9.5q33 0 41 -9.5t5 -44.5q-4 -32 -14.5 -42.5t-43.5 -10.5t-40.5 9.5t-3.5 43.5zM314 604q4 35 13 44.5t42 9.5q34 0 42 -9.5t5 -44.5q-4 -32 -14 -42.5t-45 -10.5q-33 0 -40 9.5t-3 43.5z" />
<glyph unicode="&#xe5;" horiz-adv-x="455" d="M49 155q8 80 55 108.5t129 27.5l90 -1l9 83q4 35 -9 45t-48 10q-56 0 -157 -16q-1 3 -4 39t-2 39q99 20 185 20q82 0 114 -28t23 -112l-41 -370h-87l-4 37q-86 -46 -142 -46q-131 0 -111 164zM147 151q-8 -71 33 -71q34 0 123 33l12 106q-98 0 -130.5 -11.5t-37.5 -56.5z M216 637q3 36 27.5 60.5t58.5 24.5q36 0 55 -24.5t16 -60.5q-5 -36 -29.5 -60t-60.5 -24q-35 0 -53 23.5t-14 60.5zM262 637q-2 -16 5.5 -27t21.5 -11q15 0 25 10.5t12 27.5t-5.5 28t-22.5 11q-14 0 -24.5 -11.5t-11.5 -27.5z" />
<glyph unicode="&#xe6;" horiz-adv-x="720" d="M49 157q4 36 17 62t30.5 40.5t45.5 22.5t54 10t63 2h65l8 79q4 35 -9 45t-48 10q-50 0 -159 -16l-6 78q101 20 186 20t111 -30q41 31 132 31q82 0 118.5 -25.5t44 -89.5t-6.5 -173l-277 -4q-7 -96 9 -123t81 -27q39 0 144 11l-8 -70q-105 -19 -179 -19q-96 0 -128 48 q-86 -48 -173 -48q-68 0 -96 43.5t-19 122.5zM147 153q-5 -38 5 -56.5t39 -18.5q52 0 112 30l12 110h-50q-64 0 -89 -13.5t-29 -51.5zM428 297h178q8 87 -5.5 112.5t-69.5 25.5q-21 0 -35.5 -2.5t-25 -12.5t-16.5 -17t-11.5 -28.5t-7.5 -33.5t-7 -44z" />
<glyph unicode="&#xe7;" horiz-adv-x="439" d="M68 225q9 74 17 116.5t22.5 79.5t37 54t55.5 26t83 9q83 0 160 -16l-8 -77q-128 11 -150 11q-64 0 -82 -36t-32 -170q-4 -35 -4 -59t4.5 -40.5t11 -26.5t21 -15t29.5 -6.5t39 -1.5q38 0 130 9l-8 -70q-49 -13 -132 -19q-2 -4 -4.5 -13t-3.5 -13q35 0 47.5 -15t7.5 -58 q-6 -49 -26 -67.5t-59 -18.5q-22 0 -72 8q2 8 5.5 24t5.5 23q2 0 22 -1.5t30 -1.5q17 0 21.5 4.5t6.5 22.5q2 20 -13 20l-56 1l21 84q-56 3 -84.5 20.5t-40.5 68t-2 144.5z" />
<glyph unicode="&#xe8;" horiz-adv-x="464" d="M71 251q9 82 20 126.5t34.5 77.5t61 44.5t100.5 11.5q116 0 146 -52t12 -207l-2 -31h-33q-41 -1 -121.5 -1.5t-121.5 -0.5q-8 -96 9 -125q15 -24 88 -24q50 0 136 10l-7 -70q-105 -19 -179 -19q-106 0 -133 54t-10 206zM177 297h178q7 88 -6 112t-70 24q-16 0 -27.5 -1.5 t-21 -7t-16 -8.5t-12 -15.5t-8.5 -17.5t-6.5 -25t-5 -27t-5.5 -34zM220 714l72 39l66 -171l-67 -37z" />
<glyph unicode="&#xe9;" horiz-adv-x="464" d="M71 251q9 82 20 126.5t34.5 77.5t61 44.5t100.5 11.5q116 0 146 -52t12 -207l-2 -31h-33q-41 -1 -121.5 -1.5t-121.5 -0.5q-8 -96 9 -125q15 -24 88 -24q50 0 136 10l-7 -70q-105 -19 -179 -19q-106 0 -133 54t-10 206zM177 297h178q7 88 -6 112t-70 24q-16 0 -27.5 -1.5 t-21 -7t-16 -8.5t-12 -15.5t-8.5 -17.5t-6.5 -25t-5 -27t-5.5 -34zM238 583l104 171l63 -39l-108 -169z" />
<glyph unicode="&#xea;" horiz-adv-x="465" d="M71 251q9 82 20 126.5t34.5 77.5t61 44.5t100.5 11.5q116 0 146 -52t12 -207l-2 -31h-33q-41 -1 -121.5 -1.5t-121.5 -0.5q-8 -96 9 -125q15 -24 88 -24q50 0 136 10l-7 -70q-105 -19 -179 -19q-106 0 -133 54t-10 206zM156 605l158 125l128 -127l-51 -58l-90 87 l-113 -86zM177 297h178q7 88 -6 112t-70 24q-16 0 -27.5 -1.5t-21 -7t-16 -8.5t-12 -15.5t-8.5 -17.5t-6.5 -25t-5 -27t-5.5 -34z" />
<glyph unicode="&#xeb;" horiz-adv-x="464" d="M71 251q9 82 20 126.5t34.5 77.5t61 44.5t100.5 11.5q116 0 146 -52t12 -207l-2 -31h-33q-41 -1 -121.5 -1.5t-121.5 -0.5q-8 -96 9 -125q15 -24 88 -24q50 0 136 10l-7 -70q-105 -19 -179 -19q-106 0 -133 54t-10 206zM166 607q4 35 13 44.5t43 9.5q33 0 41 -10t4 -44 q-3 -32 -13 -42.5t-43 -10.5q-34 0 -41.5 10t-3.5 43zM177 297h178q7 88 -6 112t-70 24q-16 0 -27.5 -1.5t-21 -7t-16 -8.5t-12 -15.5t-8.5 -17.5t-6.5 -25t-5 -27t-5.5 -34zM327 607q4 35 13 44.5t42 9.5q34 0 42 -10t4 -44q-3 -32 -13 -42.5t-44 -10.5q-33 0 -40.5 10 t-3.5 43z" />
<glyph unicode="&#xec;" horiz-adv-x="223" d="M56 0l55 499h103l-55 -499h-103zM81 719l72 39l67 -171l-68 -37z" />
<glyph unicode="&#xed;" horiz-adv-x="223" d="M56 0l55 499h103l-55 -499h-103zM121 588l105 171l63 -39l-109 -169z" />
<glyph unicode="&#xee;" horiz-adv-x="223" d="M31 608l159 125l127 -127l-51 -58l-90 87l-113 -86zM56 0l55 499h103l-55 -499h-103z" />
<glyph unicode="&#xef;" horiz-adv-x="223" d="M43 607q5 35 14 44.5t43 9.5q33 0 41 -9.5t4 -44.5q-4 -32 -14 -42.5t-43 -10.5t-40.5 9.5t-4.5 43.5zM56 0l55 499h103l-55 -499h-103zM204 607q5 35 14 44.5t42 9.5q34 0 42 -9.5t4 -44.5q-4 -33 -14 -43t-44 -10q-33 0 -40 9.5t-4 43.5z" />
<glyph unicode="&#xf0;" horiz-adv-x="454" d="M53 187q7 67 20.5 106.5t39.5 59.5t55.5 25.5t82.5 5.5q66 0 89 -13q10 95 0 122q-56 -62 -59 -66l-47 52l51 58q-17 8 -85 31l11 92q97 -24 143 -50q9 10 27 30.5t25 28.5l47 -51l-46 -52q29 -35 30.5 -100t-16.5 -204l-5 -49q-7 -58 -15 -93.5t-20 -61t-33.5 -37 t-47.5 -16.5t-69 -5q-33 0 -55 1.5t-45 6t-35 12.5t-25 21.5t-15.5 33.5l-6 48t3.5 64zM148 196q-9 -72 5.5 -90t66.5 -18q35 0 49.5 1.5t27 15t16.5 34.5t9 68q4 32 1 51t-16.5 26.5t-24 8.5t-37.5 1q-31 0 -43.5 -1.5t-26 -11t-19 -29t-8.5 -56.5z" />
<glyph unicode="&#xf1;" horiz-adv-x="484" d="M56 0l55 499h84l5 -35q108 45 157 45q54 0 83 -31t23 -92l-42 -386h-102l42 379q5 39 -30 39q-59 0 -131 -30l-43 -388h-101zM168 583q44 72 94 72q20 0 53 -18t41 -18q15 0 44 34q20 -18 42 -36q-38 -69 -90 -69q-17 0 -47.5 18t-48.5 18q-15 0 -47 -38q-6 5 -19.5 17.5 t-21.5 19.5z" />
<glyph unicode="&#xf2;" horiz-adv-x="480" d="M70 250q9 82 21 128t36.5 77.5t62 42.5t100.5 11q121 0 151 -52t13 -207q-9 -80 -20.5 -126t-36.5 -78t-63.5 -43.5t-101.5 -11.5q-83 0 -120 22.5t-46 80.5t4 156zM170 250q-10 -74 -7.5 -114.5t19 -54t59.5 -13.5q62 0 81 32.5t31 149.5q11 76 7.5 117t-20 54.5 t-58.5 13.5q-61 0 -80 -33.5t-32 -151.5zM223 718l71 39l67 -171l-67 -37z" />
<glyph unicode="&#xf3;" horiz-adv-x="480" d="M70 250q9 82 21 128t36.5 77.5t62 42.5t100.5 11q121 0 151 -52t13 -207q-9 -80 -20.5 -126t-36.5 -78t-63.5 -43.5t-101.5 -11.5q-83 0 -120 22.5t-46 80.5t4 156zM170 250q-10 -74 -7.5 -114.5t19 -54t59.5 -13.5q62 0 81 32.5t31 149.5q11 76 7.5 117t-20 54.5 t-58.5 13.5q-61 0 -80 -33.5t-32 -151.5zM241 587l105 171l63 -39l-109 -169z" />
<glyph unicode="&#xf4;" horiz-adv-x="481" d="M71 250q9 82 21 128t36.5 77.5t62 42.5t100.5 11q121 0 151 -52t12 -207q-8 -80 -19.5 -126t-36.5 -78t-63.5 -43.5t-101.5 -11.5q-83 0 -120.5 22.5t-46 80.5t4.5 156zM160 608l159 125l127 -127l-50 -58l-90 87l-113 -86zM171 250q-10 -74 -7.5 -114.5t19 -54 t59.5 -13.5q62 0 80.5 32.5t31.5 149.5q11 76 7.5 117t-20 54.5t-58.5 13.5q-61 0 -80 -33.5t-32 -151.5z" />
<glyph unicode="&#xf5;" horiz-adv-x="480" d="M70 250q9 82 21 128t36.5 77.5t62 42.5t100.5 11q121 0 151 -52t13 -207q-9 -80 -20.5 -126t-36.5 -78t-63.5 -43.5t-101.5 -11.5q-83 0 -120 22.5t-46 80.5t4 156zM159 583q44 72 94 72q19 0 53 -18t41 -18q15 0 44 34q19 -18 42 -36q-38 -69 -90 -69q-17 0 -47.5 18 t-48.5 18q-15 0 -47 -38q-6 5 -19.5 17.5t-21.5 19.5zM170 250q-10 -74 -7.5 -114.5t19 -54t59.5 -13.5q62 0 81 32.5t31 149.5q11 76 7.5 117t-20 54.5t-58.5 13.5q-61 0 -80 -33.5t-32 -151.5z" />
<glyph unicode="&#xf6;" horiz-adv-x="480" d="M70 250q9 82 21 128t36.5 77.5t62 42.5t100.5 11q121 0 151 -52t13 -207q-9 -80 -20.5 -126t-36.5 -78t-63.5 -43.5t-101.5 -11.5q-83 0 -120 22.5t-46 80.5t4 156zM166 607q4 35 13 44.5t43 9.5q33 0 41 -10t4 -44q-3 -32 -13 -42.5t-43 -10.5q-34 0 -41.5 10t-3.5 43z M170 250q-10 -74 -7.5 -114.5t19 -54t59.5 -13.5q62 0 81 32.5t31 149.5q11 76 7.5 117t-20 54.5t-58.5 13.5q-61 0 -80 -33.5t-32 -151.5zM327 607q4 35 13 44.5t42 9.5q34 0 42 -10t4 -44q-3 -32 -13 -42.5t-44 -10.5q-33 0 -40.5 10t-3.5 43z" />
<glyph unicode="&#xf7;" horiz-adv-x="476" d="M67 205l10 101h379l-11 -101h-378zM181 82q5 43 16 53.5t51 10.5t50.5 -9t6.5 -42q-6 -54 -16.5 -66t-53.5 -12q-41 0 -50 11t-4 54zM217 423q4 42 16 53t53 11q39 0 49.5 -9.5t7.5 -42.5q-6 -53 -17 -65t-54 -12q-42 0 -51 11t-4 54z" />
<glyph unicode="&#xf8;" horiz-adv-x="480" d="M70 250q9 82 21 128t36.5 77.5t62 42.5t100.5 11q17 0 45 -2l17 45h47l-20 -53q60 -17 74 -71t1 -178q-9 -80 -20.5 -126t-36.5 -78t-63.5 -43.5t-101.5 -11.5q-26 0 -49 3l-15 -38h-45l17 45q-57 17 -71 75.5t1 173.5zM170 250q-8 -66 -8 -105t12 -56l133 345 q-8 1 -25 1q-61 0 -80 -33.5t-32 -151.5zM212 69q8 -1 29 -1q62 0 81 32.5t31 149.5q9 71 8 110t-15 56z" />
<glyph unicode="&#xf9;" horiz-adv-x="484" d="M65 112l43 387h102l-43 -379q-3 -40 30 -40q58 0 131 31l44 388h101l-55 -500h-85l-5 36q-104 -45 -157 -45q-54 0 -83 30.5t-23 91.5zM229 718l72 39l66 -171l-66 -37z" />
<glyph unicode="&#xfa;" horiz-adv-x="484" d="M65 112l43 387h102l-43 -379q-3 -40 30 -40q58 0 131 31l44 388h101l-55 -500h-85l-5 36q-104 -45 -157 -45q-54 0 -83 30.5t-23 91.5zM246 588l104 171l63 -39l-109 -169z" />
<glyph unicode="&#xfb;" horiz-adv-x="484" d="M65 112l43 387h102l-43 -379q-3 -40 30 -40q58 0 131 31l44 388h101l-55 -500h-85l-5 36q-104 -45 -157 -45q-54 0 -83 30.5t-23 91.5zM167 611l159 125l127 -127l-51 -58l-89 87l-114 -86z" />
<glyph unicode="&#xfc;" horiz-adv-x="484" d="M65 112l43 387h102l-43 -379q-3 -40 30 -40q58 0 131 31l44 388h101l-55 -500h-85l-5 36q-104 -45 -157 -45q-54 0 -83 30.5t-23 91.5zM177 607q5 35 14 44.5t43 9.5q33 0 41 -9.5t4 -44.5q-4 -32 -14 -42.5t-43 -10.5t-40.5 9.5t-4.5 43.5zM338 607q5 35 14 44.5t42 9.5 q34 0 42 -9.5t4 -44.5q-3 -32 -13 -42.5t-45 -10.5q-33 0 -40 9.5t-4 43.5z" />
<glyph unicode="&#xfd;" horiz-adv-x="453" d="M64 500h104l67 -379l151 379h104l-284 -690h-92l76 190h-27zM231 586l105 171l64 -39l-109 -169z" />
<glyph unicode="&#xfe;" horiz-adv-x="464" d="M34 -190l97 882h98l-21 -201q61 17 112 17q81 0 109.5 -51t14.5 -172q-9 -85 -20 -133t-34 -88t-62.5 -56t-101.5 -16q-32 0 -72 3l-21 -185h-99zM163 77q19 -1 66 -1h4q21 0 36.5 4.5t26.5 18t17.5 25.5t12.5 41t8.5 49.5t7.5 65.5q11 77 1.5 110.5t-53.5 33.5 q-36 0 -90 -14z" />
<glyph unicode="&#xff;" horiz-adv-x="453" d="M64 500h104l67 -379l151 379h104l-284 -690h-92l76 190h-27zM170 607q4 35 13.5 44.5t43.5 9.5q33 0 41 -9.5t4 -44.5q-4 -32 -14 -42.5t-43 -10.5t-40.5 9.5t-4.5 43.5zM331 607q5 35 14 44.5t42 9.5q34 0 42 -9.5t4 -44.5q-4 -33 -14 -43t-44 -10q-33 0 -40 9.5 t-4 43.5z" />
<glyph unicode="&#x152;" horiz-adv-x="804" d="M73 172q-1 55 10 164q7 64 14.5 107.5t20.5 83.5t31.5 64t46 43t65 26.5t88.5 7.5h470l-10 -87h-274l-21 -197h250l-10 -89h-250l-23 -210h273l-9 -85h-470q-38 1 -62 3.5t-53 12.5t-45.5 28t-28.5 50t-13 78zM186 122q16 -37 99 -37h91l55 497h-91q-38 0 -58.5 -6 t-40 -30.5t-31 -74t-20.5 -135.5q-19 -169 -4 -214z" />
<glyph unicode="&#x153;" horiz-adv-x="759" d="M70 250q9 82 21 128t36.5 77.5t62 42.5t100.5 11q105 0 140 -42q41 44 149 44q82 0 118.5 -26t44 -90t-7.5 -173l-276 -3q0 -4 -1 -11.5t-1 -11.5q-9 -79 13 -102.5t85 -23.5q50 0 137 10l-7 -70q-105 -19 -179 -19q-90 0 -121 45q-44 -45 -152 -45q-83 0 -120 22.5 t-46 80.5t4 156zM170 250q-14 -113 -2 -147.5t73 -34.5q63 0 81.5 32.5t31.5 149.5q14 117 2 151t-74 34q-61 0 -80 -33.5t-32 -151.5zM467 297h178q8 88 -5 113t-69 25q-21 0 -36 -3t-25.5 -12.5t-16.5 -17.5t-11.5 -28t-7.5 -33t-7 -44z" />
<glyph unicode="&#x178;" horiz-adv-x="503" d="M68 668h118l92 -327l168 327h118l-246 -450l-24 -218h-106l23 218zM199 779q4 35 13.5 44.5t43.5 9.5q33 0 41 -9.5t4 -44.5q-4 -32 -14 -42.5t-43 -10.5q-34 0 -41.5 10t-3.5 43zM360 779q4 35 13.5 44.5t42.5 9.5q34 0 42 -9.5t4 -44.5q-4 -33 -14 -43t-44 -10 q-33 0 -40.5 10t-3.5 43z" />
<glyph unicode="&#x2c6;" horiz-adv-x="375" d="M99 557l158 125l128 -127l-50 -58l-90 87l-114 -86z" />
<glyph unicode="&#x2dc;" horiz-adv-x="388" d="M116 583q18 31 43.5 51.5t50.5 20.5q19 0 52.5 -18t41.5 -18q16 0 43 34q28 -24 43 -36q-38 -69 -90 -69q-18 0 -49 18t-48 18q-14 0 -46 -38q-7 6 -20.5 18.5t-20.5 18.5z" />
<glyph unicode="&#x2000;" horiz-adv-x="469" />
<glyph unicode="&#x2001;" horiz-adv-x="939" />
<glyph unicode="&#x2002;" horiz-adv-x="469" />
<glyph unicode="&#x2003;" horiz-adv-x="939" />
<glyph unicode="&#x2004;" horiz-adv-x="313" />
<glyph unicode="&#x2005;" horiz-adv-x="234" />
<glyph unicode="&#x2006;" horiz-adv-x="156" />
<glyph unicode="&#x2007;" horiz-adv-x="156" />
<glyph unicode="&#x2008;" horiz-adv-x="117" />
<glyph unicode="&#x2009;" horiz-adv-x="187" />
<glyph unicode="&#x200a;" horiz-adv-x="52" />
<glyph unicode="&#x2010;" horiz-adv-x="345" d="M75 234l10 89h234l-9 -89h-235z" />
<glyph unicode="&#x2011;" horiz-adv-x="345" d="M75 234l10 89h234l-9 -89h-235z" />
<glyph unicode="&#x2012;" horiz-adv-x="345" d="M75 234l10 89h234l-9 -89h-235z" />
<glyph unicode="&#x2013;" horiz-adv-x="441" d="M75 234l10 92h329l-11 -92h-328z" />
<glyph unicode="&#x2014;" horiz-adv-x="565" d="M75 234l10 92h457l-11 -92h-456z" />
<glyph unicode="&#x2018;" horiz-adv-x="211" d="M92 496q6 49 31.5 81.5t79.5 64.5l25 -49q-27 -15 -39 -36q19 -4 23.5 -17.5t0.5 -43.5q-4 -40 -15 -50t-52 -10t-50 10.5t-4 49.5z" />
<glyph unicode="&#x2019;" horiz-adv-x="204" d="M94 492q28 15 37 36q-19 4 -23.5 18.5t0.5 42.5q4 39 15 49.5t52 10.5q40 0 49.5 -10.5t4.5 -49.5q-6 -49 -32 -81.5t-80 -64.5z" />
<glyph unicode="&#x201a;" horiz-adv-x="220" d="M37 -34q26 16 39 36q-19 4 -23 17t-2 44q5 39 16.5 49.5t52.5 10.5t49.5 -10t3.5 -50q-5 -48 -31.5 -81t-80.5 -64z" />
<glyph unicode="&#x201c;" horiz-adv-x="362" d="M93 497q5 48 31 81t79 64l25 -48q-28 -16 -38 -37q18 -4 22.5 -16.5t1.5 -43.5q-5 -40 -16 -50.5t-52 -10.5q-40 0 -49 11t-4 50zM248 497q6 49 32 81.5t79 63.5l24 -48q-26 -16 -38 -37q19 -4 23 -16.5t2 -43.5q-5 -40 -16.5 -50.5t-52.5 -10.5q-40 0 -49 10.5t-4 50.5z " />
<glyph unicode="&#x201d;" horiz-adv-x="354" d="M93 489q24 14 37 36q-13 3 -18.5 10t-6.5 19.5t1 31.5q5 39 16 49.5t52 10.5t50 -10.5t4 -49.5q-6 -49 -32 -81.5t-80 -64.5zM247 489q25 13 39 36q-19 4 -23.5 17t-1.5 44q5 39 16 49.5t52 10.5t49.5 -10.5t3.5 -49.5q-5 -49 -30.5 -81.5t-79.5 -64.5z" />
<glyph unicode="&#x201e;" horiz-adv-x="369" d="M37 -34q26 16 39 36q-19 4 -23 17t-2 44q5 39 16.5 49.5t52.5 10.5t49.5 -10t3.5 -50q-5 -48 -31.5 -81t-80.5 -64zM192 -34q26 16 39 36q-20 4 -24 17t-1 44q5 39 16.5 49.5t51.5 10.5q41 0 50 -10.5t4 -49.5q-6 -48 -32 -81t-80 -64z" />
<glyph unicode="&#x2022;" horiz-adv-x="365" d="M98 324q6 52 43.5 89t84.5 37t76 -37t23 -89q-5 -52 -42.5 -89t-84.5 -37t-76 36.5t-24 89.5z" />
<glyph unicode="&#x2026;" horiz-adv-x="615" d="M50 62q5 40 16.5 50.5t52.5 10.5t50 -10.5t5 -50.5q-5 -40 -17 -52t-53 -12q-40 0 -49 11.5t-5 52.5zM247 62q4 40 15.5 50.5t53.5 10.5q40 0 49.5 -10t4.5 -51q-5 -40 -16.5 -52t-52.5 -12t-50 12t-4 52zM438 62q5 40 17 50.5t53 10.5t50 -10.5t4 -50.5q-4 -40 -16 -52 t-53 -12t-50 11.5t-5 52.5z" />
<glyph unicode="&#x202f;" horiz-adv-x="187" />
<glyph unicode="&#x2039;" horiz-adv-x="272" d="M57 249l148 210l69 -52l-110 -158l75 -156l-81 -53z" />
<glyph unicode="&#x203a;" horiz-adv-x="272" d="M46 93l110 156l-76 158l81 52l102 -210l-149 -209z" />
<glyph unicode="&#x205f;" horiz-adv-x="234" />
<glyph unicode="&#x20ac;" horiz-adv-x="567" d="M58 228l6 53h75l2 19l5 35h-76l6 53h75q10 79 26 129.5t45.5 89t76.5 55t117 16.5q66 0 179 -17l-9 -81q-142 13 -165 13q-84 0 -116 -42.5t-49 -162.5h227l-5 -53h-229l-4 -40l-2 -14h229l-7 -53h-227q-3 -57 4.5 -89t36 -46t55 -16.5t90.5 -2.5h8q17 0 50.5 1.5 t51.5 2.5l-8 -69q-80 -18 -187 -18q-62 0 -97.5 7.5t-63 32t-36.5 72t-6 125.5h-78z" />
<glyph unicode="&#x2122;" horiz-adv-x="481" d="M119 634l4 39h153l-4 -39h-55l-19 -177h-43l19 177h-55zM274 457l24 216h49l34 -112l60 112h49l-24 -216h-42l13 126l-46 -88h-34l-25 88l-13 -126h-45z" />
<glyph unicode="&#xe000;" horiz-adv-x="500" d="M0 0v500h500v-500h-500z" />
</font>
</defs>
</svg>
