<?xml version="1.0" standalone="no"?>
<!DOCTYPE svg PUBLIC "-//W3C//DTD SVG 1.1//EN" "http://www.w3.org/Graphics/SVG/1.1/DTD/svg11.dtd" >
<svg xmlns="http://www.w3.org/2000/svg">
<metadata></metadata>
<defs>
<font id="clio_c_regularregular" horiz-adv-x="469" >
<font-face units-per-em="1000" ascent="750" descent="-250" />
<missing-glyph horiz-adv-x="190" />
<glyph unicode="&#xfb01;" horiz-adv-x="548" d="M20 436v63h71v65q0 80 31.5 107.5t107.5 27.5q43 0 82 -5v-58h-68q-26 0 -37 -1t-24 -7t-17.5 -20.5t-4.5 -40.5v-68h312v-499h-73v436h-239v-436h-70v436h-71zM393 626q0 29 7 36.5t36 7.5t36.5 -7.5t7.5 -36.5q0 -27 -8 -36t-36 -9q-29 0 -36 8.5t-7 36.5z" />
<glyph unicode="&#xfb02;" horiz-adv-x="544" d="M20 436v63h71v65q0 80 31.5 107.5t107.5 27.5q186 0 225 -5v-580q0 -18 1 -27t5.5 -21t15.5 -18t29 -9v-45q-15 -2 -25 -2q-48 0 -73.5 30t-25.5 110v504h-138q-26 0 -37 -1t-24 -7t-17.5 -20.5t-4.5 -40.5v-68h111v-63h-111v-436h-70v436h-71z" />
<glyph unicode="&#xfb03;" horiz-adv-x="880" d="M20 436v63h71v65q0 80 31.5 107.5t107.5 27.5q43 0 82 -5v-58h-68q-26 0 -37 -1t-24 -7t-17.5 -20.5t-4.5 -40.5v-68h262v65q0 80 31.5 107.5t107.5 27.5q43 0 82 -5v-58h-68q-26 0 -37 -1t-24 -7t-17.5 -20.5t-4.5 -40.5v-68h312v-499h-73v436h-239v-436h-70v436h-262 v-436h-70v436h-71zM725 626q0 29 7 36.5t36 7.5t36.5 -7.5t7.5 -36.5q0 -27 -8 -36t-36 -9q-29 0 -36 8.5t-7 36.5z" />
<glyph unicode="&#xfb04;" horiz-adv-x="873" d="M20 436v63h71v65q0 80 31.5 107.5t107.5 27.5q43 0 82 -5v-58h-68q-26 0 -37 -1t-24 -7t-17.5 -20.5t-4.5 -40.5v-68h262v65q0 80 31.5 107.5t107.5 27.5q186 0 225 -5v-580q0 -18 1 -27t5.5 -21t15.5 -18t29 -9v-45q-15 -2 -24 -2q-48 0 -73.5 30t-25.5 110v504h-139 q-26 0 -37 -1t-24 -7t-17.5 -20.5t-4.5 -40.5v-68h111v-63h-111v-436h-70v436h-262v-436h-70v436h-71z" />
<glyph horiz-adv-x="1000" />
<glyph horiz-adv-x="1000" />
<glyph unicode="&#xd;" horiz-adv-x="1000" />
<glyph unicode=" "  horiz-adv-x="190" />
<glyph unicode="&#x09;" horiz-adv-x="190" />
<glyph unicode="&#xa0;" horiz-adv-x="190" />
<glyph unicode="!" horiz-adv-x="201" d="M58 37q0 25 6 32t29 7t29.5 -7t6.5 -32q0 -23 -6.5 -30.5t-29.5 -7.5t-29 7t-6 31zM58 152v514h71v-514h-71z" />
<glyph unicode="&#x22;" horiz-adv-x="332" d="M40 478l29 204h80l-45 -204h-64zM162 478l39 204h82l-53 -204h-68z" />
<glyph unicode="#" horiz-adv-x="517" d="M43 136v51h104v132h-104v56h104v137h55v-137h97v137h54v-137h103v-56h-103v-132h103v-51h-103v-138h-54v138h-97v-138h-55v138h-104zM202 187h97v132h-97v-132z" />
<glyph unicode="$" horiz-adv-x="423" d="M25 407q0 68 38 104t100 38v86h68v-87q94 -3 109 -8v-67q-75 9 -164 9q-39 0 -56.5 -16.5t-17.5 -51.5q0 -33 27.5 -56.5t67 -40t79 -36t67 -55.5t27.5 -87q0 -69 -38 -104.5t-101 -37.5v-80h-68v81q-88 3 -109 8v68q72 -9 160 -9q41 0 59.5 15.5t18.5 51.5 q0 34 -27.5 58t-67 39.5t-78.5 34.5t-66.5 55t-27.5 88z" />
<glyph unicode="%" horiz-adv-x="620" d="M33 520q0 102 20.5 129t90.5 27q55 0 75.5 -31.5t20.5 -124.5q0 -90 -19.5 -122.5t-81.5 -32.5t-84 28t-22 127zM76 46q178 280 396 629l55 -42q-324 -515 -393 -625zM93 500q0 -55 6.5 -69.5t38.5 -14.5q15 1 20 2t12.5 5.5t8.5 16t2.5 29.5t1.5 51q0 67 -8.5 86.5 t-37.5 19.5q-31 0 -37.5 -17.5t-6.5 -88.5v-20zM360 146q0 102 21 129.5t90 27.5q56 0 76.5 -32t20.5 -125q0 -89 -20 -121.5t-82 -32.5t-84 28t-22 126zM419 127q0 -55 6.5 -70t38.5 -15q32 2 39 16t7 89q0 67 -8.5 86.5t-38.5 19.5q-31 0 -37.5 -18t-6.5 -88v-20z" />
<glyph unicode="&#x26;" horiz-adv-x="479" d="M50 158v41q0 46 20 85.5t58 51.5q-40 25 -57 51.5t-21 82.5v43q0 160 186 160q53 0 134 -14v-58q-105 11 -141 11q-57 0 -80.5 -27.5t-23.5 -78.5v-36q0 -102 105 -102h85v50h66v-50h45v-65h-45v-293q-99 -21 -155 -21q-90 0 -131 41t-45 128zM125 162q0 -110 110 -110 q28 0 80 10v241h-85q-51 0 -78 -23.5t-27 -79.5v-38z" />
<glyph unicode="'" horiz-adv-x="203" d="M39 478l37 204h81l-51 -204h-67z" />
<glyph unicode="(" horiz-adv-x="239" d="M30 299q0 127 29.5 261t88.5 219l50 -41q-50 -104 -73 -222t-23 -217q0 -261 95 -439l-49 -42q-59 87 -88.5 221t-29.5 260z" />
<glyph unicode=")" horiz-adv-x="240" d="M13 739l51 40q59 -85 88.5 -219t29.5 -261q0 -126 -29.5 -259.5t-88.5 -219.5l-50 40q96 180 96 439q0 98 -23.5 216.5t-73.5 223.5z" />
<glyph unicode="*" horiz-adv-x="406" d="M31 548l16 57l116 -45v136h56v-136l116 44l17 -56l-117 -43l74 -108l-44 -40l-73 113l-72 -113l-45 40l72 108z" />
<glyph unicode="+" horiz-adv-x="451" d="M33 215v64h147v169h66v-169h146v-64h-146v-177h-66v177h-147z" />
<glyph unicode="," horiz-adv-x="215" d="M40 -43q29 15 37 44q-20 2 -26 13t-6 39q0 33 8 42t42 9t42.5 -9t8.5 -42q0 -47 -21.5 -77t-61.5 -55z" />
<glyph unicode="-" horiz-adv-x="340" d="M49 249v62h218v-62h-218z" />
<glyph unicode="." horiz-adv-x="205" d="M44 52q0 33 8.5 42t42.5 9t43 -9t9 -42t-9 -43t-43 -10t-42.5 10t-8.5 43z" />
<glyph unicode="/" horiz-adv-x="350" d="M22 -114l218 787h73l-220 -787h-71z" />
<glyph unicode="0" horiz-adv-x="473" d="M55 274q0 171 32.5 227t141.5 56t141.5 -57t32.5 -226t-33 -226t-141 -57q-58 0 -91.5 12.5t-52.5 48.5t-24.5 85t-5.5 137zM124 274q0 -142 17.5 -181.5t87.5 -39.5q69 0 86.5 39.5t17.5 181.5q0 145 -17.5 184t-86.5 39q-70 0 -87.5 -40t-17.5 -183z" />
<glyph unicode="1" horiz-adv-x="298" d="M13 475v70l194 2v-547h-75v475h-119z" />
<glyph unicode="2" horiz-adv-x="401" d="M52 479v65l118 2q85 0 128 -26.5t43 -110.5q0 -32 -20.5 -76.5t-42.5 -76.5t-68 -95t-66 -91h192v-68h-276l2 68q34 50 74.5 107t60.5 85t39.5 59t26.5 51t7 38q0 39 -21 55.5t-66 16.5q-24 0 -68 -1.5t-63 -1.5z" />
<glyph unicode="3" horiz-adv-x="427" d="M40 -65q17 0 49.5 -1t49.5 -1q72 0 104 24t32 82v37q0 54 -25.5 77t-74.5 23h-89v63h89q100 0 100 99v43q0 29 -7 48.5t-16.5 30t-30.5 15t-36 5.5t-46 1l-99 -2v62l98 2q40 0 65 -2t56 -10.5t48.5 -24t29.5 -45.5t12 -73v-50q0 -54 -17 -80t-57 -50q37 -12 55.5 -50 t18.5 -83v-40q0 -94 -49.5 -128.5t-168.5 -34.5q-31 0 -91 2v61z" />
<glyph unicode="4" horiz-adv-x="495" d="M17 91v66l230 389h113v-386h91v-69h-91v-208h-70v208h-273zM102 160h189v324z" />
<glyph unicode="5" horiz-adv-x="415" d="M54 -67h91q75 0 107 23t32 84v39q0 63 -22.5 83.5t-81.5 20.5h-124v362h272v-72h-203v-227h56q50 0 84.5 -11t51.5 -24.5t26 -41t10 -44t1 -49.5v-41q0 -91 -50.5 -126.5t-164.5 -35.5q-20 0 -48 0.5t-37 0.5v59z" />
<glyph unicode="6" horiz-adv-x="471" d="M57 158q0 325 5 361q11 83 54.5 121t136.5 38q23 0 130 -8v-62q-69 6 -130 6q-31 -1 -50 -4t-34.5 -14.5t-22.5 -25.5t-11.5 -47.5t-5.5 -68.5t-1 -98q53 21 120 21q93 0 130 -40.5t37 -122.5v-49q0 -173 -177 -173q-181 0 -181 166zM128 156q0 -57 27.5 -79t82.5 -22 q59 0 82.5 25.5t23.5 82.5v54q0 52 -20 74.5t-77 22.5q-70 0 -119 -22v-136z" />
<glyph unicode="7" horiz-adv-x="383" d="M5 475v70h332l-111 -663h-71l100 593h-250z" />
<glyph unicode="8" horiz-adv-x="483" d="M48 156v42q0 46 21.5 86t58.5 51q-39 25 -55.5 52t-16.5 82v44q0 93 44 127.5t124 36.5q42 0 71.5 -5.5t57.5 -22t42 -50t14 -85.5v-44q0 -54 -17 -81.5t-56 -52.5q38 -11 59 -51t21 -86v-42q-4 -89 -46 -127.5t-130 -40.5q-100 0 -146 37t-46 130zM120 160 q0 -105 106 -108q117 0 117 110v38q0 103 -103 103h-14q-106 0 -106 -104v-39zM127 469q0 -101 97 -101h14q99 0 99 102v37q0 63 -23.5 84.5t-73.5 21.5q-60 0 -86.5 -19.5t-26.5 -87.5v-37z" />
<glyph unicode="9" horiz-adv-x="463" d="M29 337v48q0 173 176 173q96 0 139 -42.5t43 -123.5q0 -313 -5 -361q-9 -82 -53 -120.5t-138 -38.5q-22 0 -131 8v63q81 -7 131 -7q38 1 58.5 7.5t35.5 19t21 45.5t8 72t2 115q-52 -22 -121 -22q-92 0 -129 40.5t-37 123.5zM100 334q0 -53 20 -75t76 -22q72 0 120 21v136 q0 57 -27.5 79t-83.5 22q-59 0 -82 -25t-23 -83v-53z" />
<glyph unicode=":" horiz-adv-x="228" d="M49 52q0 33 9 42t43 9t42.5 -9t8.5 -42t-8.5 -43t-42.5 -10t-43 10t-9 43zM49 369q0 33 9 42t43 9t42.5 -9t8.5 -42q0 -34 -8.5 -44t-42.5 -10t-43 10t-9 44z" />
<glyph unicode=";" horiz-adv-x="229" d="M49 -43q28 16 36 44q-20 2 -26 13t-6 39q0 33 8.5 42t41.5 9q34 0 42.5 -9t8.5 -42q0 -47 -21.5 -77t-61.5 -55zM52 369q0 33 9 42t42 9q34 0 43 -9t9 -42q0 -34 -9 -44t-43 -10q-33 0 -42 10t-9 44z" />
<glyph unicode="&#x3c;" horiz-adv-x="494" d="M31 217v56l387 167v-73l-299 -122l298 -123v-74z" />
<glyph unicode="=" horiz-adv-x="477" d="M57 131v69h339v-69h-339zM57 292v69h339v-69h-339z" />
<glyph unicode="&#x3e;" horiz-adv-x="494" d="M54 366v74l387 -168v-56l-386 -169v75l297 123z" />
<glyph unicode="?" horiz-adv-x="405" d="M33 614v64h97q35 0 57.5 -1.5t51.5 -6t46.5 -15t34.5 -27.5t24.5 -44.5t7.5 -64.5v-25q0 -96 -44.5 -132t-159.5 -36v-129h-68v196h93q102 0 102 101v17q0 30 -6.5 50t-15 30.5t-29 15.5t-35 6t-46.5 1h-7h-103zM78 37q0 25 6 32t29 7t29.5 -7t6.5 -32q0 -24 -6 -31 t-30 -7q-23 0 -29 7t-6 31z" />
<glyph unicode="@" horiz-adv-x="642" d="M47 290q0 56 2.5 96.5t9.5 80.5t20 66.5t33.5 50.5t50 37.5t70 21t93.5 7.5q150 0 205 -64.5t55 -221.5q0 -98 -14.5 -153.5t-40 -75t-68.5 -19.5q-53 0 -84 51q-53 -24 -94 -24q-52 0 -72 38t-20 126q0 94 27 141t97 47q52 0 119 -20l-12 -279q16 -23 39 -23 q34 0 47 48.5t13 153.5q0 61 -7 97.5t-28 64.5t-60 39.5t-103 11.5q-43 0 -75 -6t-55 -16t-38 -30.5t-24 -42t-13.5 -59t-6 -72t-1.5 -90.5q0 -112 48 -154.5t158 -42.5h78l-1 -64h-97q-133 0 -192 63.5t-59 215.5zM251 315q0 -64 8.5 -87.5t32.5 -23.5q41 0 78 19 q1 35 4.5 105.5t5.5 105.5q-45 5 -63 5q-37 0 -51.5 -28.5t-14.5 -95.5z" />
<glyph unicode="A" horiz-adv-x="541" d="M5 0l197 666h114l197 -666h-73l-52 169h-257l-49 -169h-77zM151 236h216l-110 356z" />
<glyph unicode="B" horiz-adv-x="502" d="M64 0v667h156q39 0 66 -2.5t57 -12t48 -26.5t30 -47t12 -73v-44q0 -53 -16.5 -78.5t-55.5 -49.5q36 -11 54 -49.5t18 -82.5v-41q0 -93 -49 -127t-164 -34h-156zM138 61h87q71 0 103 24t32 81v37q0 53 -25.5 75t-74.5 22h-122v-239zM138 365h122q100 0 100 97v36 q0 70 -31 88.5t-104 18.5h-87v-240z" />
<glyph unicode="C" horiz-adv-x="498" d="M44 295q0 82 2.5 134t12 98.5t24.5 71.5t42.5 43.5t64.5 25t92 6.5q50 0 158 -13v-64q-134 11 -155 11q-31 0 -53.5 -2t-40.5 -11.5t-29 -17.5t-19.5 -31t-12.5 -40t-6 -56.5t-2.5 -69t-0.5 -88.5t3.5 -97.5t15.5 -65.5t24.5 -41t41.5 -21.5t54 -9t75 -1.5q45 0 105 5 v-54q-96 -16 -171 -16q-51 0 -83.5 5.5t-62 23t-45.5 51t-25 88.5t-9 136z" />
<glyph unicode="D" horiz-adv-x="557" d="M64 0v666l212 2q60 0 97.5 -13t65 -49.5t39 -103t11.5 -172.5q0 -137 -19.5 -207t-61 -96.5t-122.5 -26.5h-222zM138 67l145 -1q43 2 65 10t39 36t22 78t5 140q0 74 -4.5 122.5t-13 79t-25.5 46t-37.5 20.5t-53.5 4h-142v-535z" />
<glyph unicode="E" horiz-adv-x="478" d="M64 0v667h355v-71h-281v-220h257v-73h-257v-233h281v-70h-355z" />
<glyph unicode="F" horiz-adv-x="471" d="M64 0v666h360v-69h-286v-223h245v-70h-245v-304h-74z" />
<glyph unicode="G" horiz-adv-x="504" d="M44 295q0 82 2.5 134t12 98.5t24.5 71.5t42.5 43.5t64.5 25t92 6.5q50 0 158 -13v-64q-134 11 -155 11q-31 0 -53.5 -2t-40.5 -11.5t-29 -17.5t-19.5 -31t-12.5 -40t-6 -56.5t-2.5 -69t-0.5 -88.5q0 -99 14 -148t43 -66.5t89 -20.5q52 0 106 11v196h-98v54h170v-309 q-108 -18 -176 -18q-51 0 -83.5 5.5t-62 23t-45.5 51t-25 88.5t-9 136z" />
<glyph unicode="H" horiz-adv-x="572" d="M64 0v667h75v-292h276v292h75v-667h-75v308h-276v-308h-75z" />
<glyph unicode="I" horiz-adv-x="211" d="M56 0v666h74v-666h-74z" />
<glyph unicode="J" horiz-adv-x="261" d="M14 -8v62q32 0 46.5 1t32.5 7.5t25 21t7 39.5v540h70v-537q0 -82 -32.5 -111t-107.5 -25z" />
<glyph unicode="K" horiz-adv-x="514" d="M64 0v667h72v-295h99l158 295h83l-176 -322l185 -345h-82l-165 306h-102v-306h-72z" />
<glyph unicode="L" horiz-adv-x="439" d="M64 0v666h74v-596h268v-70h-342z" />
<glyph unicode="M" horiz-adv-x="721" d="M64 0v667h102l183 -439l183 439h105v-667h-69v564l-182 -423h-76l-175 423v-564h-71z" />
<glyph unicode="N" horiz-adv-x="589" d="M64 0v667h97l275 -564v564h72v-667h-105l-269 560v-560h-70z" />
<glyph unicode="O" horiz-adv-x="550" d="M52 333q0 75 2.5 123t11.5 89.5t23 64.5t38.5 39.5t57.5 22t81 5.5q59 0 96 -10t62 -30.5t37 -64t16.5 -97t4.5 -142.5q0 -90 -4.5 -143.5t-16.5 -96.5t-37.5 -63t-62 -29.5t-95.5 -9.5q-49 0 -82 6t-57.5 23t-38.5 40t-22.5 64.5t-11 88.5t-2.5 120zM126 333 q0 -66 1 -101.5t6 -72.5t13 -53t24.5 -30.5t39 -18.5t56.5 -4t56 3.5t39 16.5t25.5 30t14 52t7 74t1.5 104q0 79 -2.5 121.5t-9.5 79t-24 51.5t-41.5 22.5t-65.5 7.5q-26 0 -44.5 -2t-34 -10t-25 -16t-16.5 -26.5t-11 -35.5t-6 -50.5t-2.5 -62.5t-0.5 -79z" />
<glyph unicode="P" horiz-adv-x="524" d="M64 0v666h217q89 0 140 -35.5t51 -124.5v-81q0 -60 -35.5 -105.5t-92.5 -53.5q-28 -4 -205 -4v-262h-75zM139 328h138q58 0 91 19.5t33 77.5v80q0 58 -33.5 78t-90.5 20h-138v-275z" />
<glyph unicode="Q" horiz-adv-x="545" d="M47 333q0 75 2.5 123t11.5 89.5t23 64.5t38.5 39.5t57.5 22t81 5.5q59 0 96 -10t62 -30.5t37 -64t16.5 -97t4.5 -142.5q0 -179 -24 -247.5t-103 -85.5l79 -38l-25 -67l-202 100q-98 11 -126.5 80t-28.5 258zM121 333q0 -50 0.5 -79t2.5 -61.5t6 -49.5t11 -35.5t16.5 -27 t25 -16t34 -9.5t44.5 -2q34 0 56 3.5t38.5 16.5t25 30t14 52t7 74t1.5 104q0 66 -1.5 104t-6.5 74t-13.5 52.5t-25.5 30t-39 17.5t-56 4q-35 0 -57.5 -4t-39 -18.5t-24.5 -30.5t-12.5 -54t-5.5 -72.5t-1 -102.5z" />
<glyph unicode="R" horiz-adv-x="531" d="M64 0v666h217q89 0 140 -35.5t51 -124.5v-81q0 -87 -64 -135l46 -290h-76l-43 266q-26 -4 -196 -4v-262h-75zM139 328h138q58 0 91 19.5t33 77.5v80q0 58 -33.5 78t-90.5 20h-138v-275z" />
<glyph unicode="S" horiz-adv-x="471" d="M31 505q0 88 45.5 131t121.5 43q85 0 189 -8v-70q-100 10 -183 10q-51 0 -74.5 -23t-23.5 -73q0 -38 23.5 -66.5t58.5 -45.5t76 -38.5t76 -44t58.5 -63t23.5 -93.5q0 -87 -45 -130.5t-120 -43.5q-66 0 -190 8v70q100 -9 184 -9q50 0 73 23t23 75q0 32 -17.5 58 t-45.5 43.5t-61.5 34t-67 35t-61.5 41t-45.5 57.5t-17.5 79z" />
<glyph unicode="T" horiz-adv-x="490" d="M14 597v69h442v-69h-182v-597h-76v597h-184z" />
<glyph unicode="U" horiz-adv-x="576" d="M58 333v332h75v-332q0 -49 0.5 -78.5t3 -62t6.5 -50t11.5 -35.5t17.5 -26.5t25.5 -16t34.5 -9.5t46 -2q35 0 57.5 3.5t40 16.5t26.5 30t14.5 52t7 74t1.5 104v332h75v-332q0 -75 -2.5 -123t-11.5 -89.5t-23.5 -64t-40.5 -38.5t-60 -21.5t-84 -5.5q-60 0 -98.5 10.5 t-63.5 31t-37 64t-16.5 96t-4.5 140.5z" />
<glyph unicode="V" horiz-adv-x="533" d="M3 666h76l176 -592l182 592h73l-197 -666h-114z" />
<glyph unicode="W" horiz-adv-x="803" d="M13 666h73l134 -570l137 569h71l134 -569l135 570h73l-155 -666h-100l-123 524l-126 -524h-97z" />
<glyph unicode="X" horiz-adv-x="497" d="M13 0l185 337l-178 329h83l138 -257l141 257h81l-177 -327l183 -339h-80l-147 271l-145 -271h-84z" />
<glyph unicode="Y" horiz-adv-x="492" d="M-5 667h87l145 -349l148 349h87l-197 -436v-231h-76v231z" />
<glyph unicode="Z" horiz-adv-x="487" d="M31 0v71l324 526h-317v71h399v-75l-320 -524h328v-69h-414z" />
<glyph unicode="[" horiz-adv-x="254" d="M53 -142v962h167v-65h-98v-831h98v-66h-167z" />
<glyph unicode="\" horiz-adv-x="363" d="M22 672h72l219 -786h-71z" />
<glyph unicode="]" horiz-adv-x="265" d="M16 -76h98v831h-98v65h168v-962h-168v66z" />
<glyph unicode="^" horiz-adv-x="423" d="M29 403l132 280h68l131 -280h-68l-98 211l-94 -211h-71z" />
<glyph unicode="_" horiz-adv-x="508" d="M49 0h393v-41h-393v41z" />
<glyph unicode="`" horiz-adv-x="287" d="M50 703l52 31l80 -162l-47 -28z" />
<glyph unicode="a" horiz-adv-x="445" d="M31 152q0 76 41 102.5t121 29.5h108v94q0 42 -18.5 54t-62.5 12q-49 0 -150 -15q-1 2 -6 31.5t-5 32.5q93 18 173 18q77 0 109 -27.5t32 -108.5v-375h-62l-7 41q-94 -51 -155 -51q-62 0 -90 44.5t-28 117.5zM102 148q0 -42 12 -65t45 -23q18 0 42.5 7.5t60.5 23t39 16.5 v118q-125 0 -162 -12t-37 -65z" />
<glyph unicode="b" horiz-adv-x="453" d="M55 3v696h69v-209q50 18 132 18q75 0 106 -51t31 -171q0 -68 -3 -109.5t-13 -80.5t-29.5 -59.5t-51.5 -32.5t-79 -12q-76 0 -162 11zM125 62q24 -2 83 -2h7q31 0 51 9.5t30.5 22.5t15.5 47t6 59.5t1 84.5q0 88 -13.5 124t-63.5 36q-73 0 -117 -16v-365z" />
<glyph unicode="c" horiz-adv-x="428" d="M44 224q0 75 3.5 119t13.5 80.5t31 53.5t52.5 25.5t82.5 8.5q60 0 142 -14v-63q-128 10 -140 10q-21 0 -36.5 -1.5t-27.5 -8t-20 -12.5t-13.5 -22t-8 -28t-4 -39.5t-2 -49t-0.5 -62.5t2.5 -67.5t10.5 -45.5t17 -29t29 -15t37.5 -6t51.5 -1q38 0 108 8v-56 q-74 -18 -156 -18q-50 0 -78.5 7t-52 31t-33 70.5t-9.5 124.5z" />
<glyph unicode="d" horiz-adv-x="450" d="M43 257v30q3 123 31 174t101 51q43 0 130 -10v196h71v-697h-52q-2 6 -5 18.5t-5 18.5q-78 -43 -146 -43q-65 0 -95 62t-30 200zM117 285q0 -127 14 -175.5t54 -48.5q48 0 120 38v334q-9 3 -57.5 6.5t-58.5 3.5h-5q-16 0 -28 -6t-19 -19t-11.5 -25.5t-6 -34.5t-2 -35 t-0.5 -38z" />
<glyph unicode="e" horiz-adv-x="454" d="M44 251q0 81 5.5 126.5t25 78.5t54 44.5t93.5 11.5q112 0 145.5 -52t33.5 -209v-23h-12q-46 0 -137.5 -0.5t-137.5 -0.5q1 -45 2.5 -64t6 -40t13.5 -36q19 -32 111 -32q44 0 126 8v-55q-92 -17 -167 -17q-99 0 -130.5 54t-31.5 206zM115 290h216q-2 102 -21 131t-88 29 q-72 0 -91 -39q-13 -25 -16 -116v-5z" />
<glyph unicode="f" horiz-adv-x="334" d="M20 436v63h71v65q0 80 31.5 107.5t107.5 27.5q43 0 82 -5v-58h-68q-26 0 -37 -1t-24 -7t-17.5 -20.5t-4.5 -40.5v-68h111v-63h-111v-436h-70v436h-71z" />
<glyph unicode="g" horiz-adv-x="493" d="M41 343q0 90 33 127t124 38l247 1v-55q-9 -1 -28 -3.5t-28 -4.5q15 -34 15 -103q0 -91 -33 -128t-101 -37h-105q-14 0 -20 -4t-6 -18q0 -32 11 -41.5t51 -9.5q10 0 33.5 1t35.5 1q36 0 62.5 -4.5t53.5 -17t41 -40t14 -68.5q0 -85 -43.5 -124t-118.5 -39q-69 0 -185 8v68 q97 -8 179 -8q50 0 72.5 19t22.5 69q0 39 -23.5 53t-67.5 14q-12 0 -37.5 -1t-38.5 -1q-61 0 -96 23.5t-35 88.5q0 37 16 59q-45 33 -45 137zM108 343q0 -67 21.5 -85t91.5 -18h28q49 0 68.5 25.5t19.5 83.5q0 61 -18 79t-72 18h-45q-58 -4 -76 -21.5t-18 -81.5z" />
<glyph unicode="h" horiz-adv-x="472" d="M56 0v691h70v-223q107 39 168 39q106 0 106 -118v-389h-71v392q0 46 -43 46q-86 0 -159 -37v-401h-71z" />
<glyph unicode="i" horiz-adv-x="198" d="M48 626q0 29 6.5 36.5t35.5 7.5q30 0 37 -7.5t7 -36.5q0 -28 -7.5 -36.5t-36.5 -8.5t-35.5 8t-6.5 37zM54 0v499h74v-499h-74z" />
<glyph unicode="j" horiz-adv-x="208" d="M1 -151q34 6 45.5 25t11.5 51v575h72v-558q0 -80 -25.5 -109.5t-73.5 -29.5q-16 0 -30 2v44zM50 626q0 29 7 36.5t36 7.5t36.5 -7.5t7.5 -36.5q0 -27 -8 -36t-36 -9q-29 0 -36 8.5t-7 36.5z" />
<glyph unicode="k" horiz-adv-x="454" d="M56 0v690h71v-368h77l124 253h77l-138 -285l160 -290h-80l-142 255h-78v-255h-71z" />
<glyph unicode="l" horiz-adv-x="219" d="M55 132v557h73v-575q0 -24 1.5 -35.5t13 -23.5t35.5 -16v-45q-14 -2 -24 -2q-48 0 -73.5 30t-25.5 110z" />
<glyph unicode="m" horiz-adv-x="733" d="M56 0v499h59l7 -33q94 42 172 42q52 0 86 -39q95 39 179 39q108 0 108 -120v-388h-73v391q0 45 -41 45q-71 0 -153 -27v-409h-72v392q0 45 -42 45q-26 0 -73 -10t-84 -28v-399h-73z" />
<glyph unicode="n" horiz-adv-x="473" d="M56 0v500h59l6 -36q96 44 173 44q107 0 107 -119v-389h-73v392q0 45 -43 45q-83 0 -157 -37v-400h-72z" />
<glyph unicode="o" d="M43 250q0 157 34 208.5t148 51.5q115 0 149.5 -52t34.5 -208q0 -80 -6.5 -126t-26.5 -78t-55.5 -43.5t-95.5 -11.5t-95 11.5t-55 44t-26 78t-6 125.5zM116 250q0 -127 18 -162t91 -35q75 0 93.5 35t18.5 162q0 129 -19 164.5t-93 35.5q-73 0 -91 -36t-18 -164z" />
<glyph unicode="p" horiz-adv-x="450" d="M56 -198v697h52l10 -37q77 43 146 43q65 0 95 -62t30 -200v-30q-3 -123 -31 -174t-102 -51q-42 0 -129 10v-196h-71zM127 67q9 -3 57.5 -6.5t58.5 -3.5h5q16 0 28 6t19 19t11.5 25.5t6 34.5t2 35t0.5 38q0 126 -14 175t-54 49q-48 0 -120 -38v-334z" />
<glyph unicode="q" horiz-adv-x="454" d="M41 215q0 68 3 109.5t13 80.5t29.5 59.5t51.5 32t80 11.5q76 0 162 -11v-695h-71v207q-49 -18 -130 -18q-75 0 -106.5 52t-31.5 172zM116 218q0 -84 12.5 -120.5t56.5 -37.5q78 0 125 17v356q-22 4 -90 4q-26 0 -43.5 -4.5t-29 -18.5t-18 -27t-9.5 -44t-3.5 -54t-0.5 -71 z" />
<glyph unicode="r" horiz-adv-x="313" d="M56 0v500h61l5 -34q76 35 153 43v-70q-76 -8 -147 -41v-398h-72z" />
<glyph unicode="s" horiz-adv-x="400" d="M31 376q0 66 37 99.5t99 33.5q42 0 81.5 -2t57.5 -4l18 -2v-66q-68 8 -152 8q-36 0 -52 -14t-16 -46q0 -30 25.5 -51.5t61.5 -36t72.5 -32.5t62 -51.5t25.5 -81.5q0 -66 -37.5 -99.5t-99.5 -33.5q-42 0 -81 2t-57 4l-18 2v66q63 -8 148 -8q38 0 54.5 14t16.5 46 q0 31 -25.5 52.5t-61.5 36t-72 32t-61.5 51t-25.5 81.5z" />
<glyph unicode="t" horiz-adv-x="348" d="M17 441v59h105v129h70v-129h109v-59h-109v-285q0 -61 16 -84t55 -23q26 0 39 1q2 0 4.5 0.5t3.5 0.5q0 -7 0.5 -27t0.5 -27q-29 -6 -55 -6q-38 0 -63.5 10.5t-39.5 25t-21 44.5t-8.5 55t-1.5 69v246h-105z" />
<glyph unicode="u" horiz-adv-x="473" d="M53 109v389h73v-391q0 -46 43 -46q83 0 158 37v400h72v-500h-60l-6 36q-94 -43 -173 -43q-107 0 -107 118z" />
<glyph unicode="v" horiz-adv-x="441" d="M9 500h75l127 -424l126 424h75l-153 -500h-96z" />
<glyph unicode="w" horiz-adv-x="667" d="M22 500h72l81 -404l106 404h89l105 -404l82 404h72l-102 -500h-96l-106 406l-104 -406h-97z" />
<glyph unicode="x" horiz-adv-x="391" d="M18 0l128 249l-124 250h75l86 -183l87 183h73l-122 -250l126 -249h-72l-92 180l-89 -180h-76z" />
<glyph unicode="y" horiz-adv-x="442" d="M9 500h76l126 -424l127 424h74l-213 -697h-69l59 197h-26z" />
<glyph unicode="z" horiz-adv-x="387" d="M32 1v60l213 374h-208v66h294v-63l-212 -370h217v-67h-304z" />
<glyph unicode="{" horiz-adv-x="281" d="M9 315v49q38 30 52 57t14 76v182q0 74 29 107.5t118 33.5h24v-64h-24q-49 0 -61.5 -15.5t-12.5 -61.5v-182q0 -56 -15 -92t-50 -66q35 -29 50 -65.5t15 -92.5v-181q0 -46 12.5 -62t61.5 -16h24v-64h-24q-88 0 -117.5 34.5t-29.5 107.5v181q0 50 -14 76.5t-52 57.5z" />
<glyph unicode="|" horiz-adv-x="179" d="M53 -206v991h50v-991h-50z" />
<glyph unicode="}" horiz-adv-x="281" d="M15 -78h24q49 0 61.5 16t12.5 62v181q0 56 15 92.5t51 65.5q-36 30 -51 66t-15 92v182q0 46 -12.5 61.5t-61.5 15.5h-24v64h24q89 0 118 -33.5t29 -107.5v-182q0 -50 13.5 -76.5t52.5 -56.5v-49q-39 -30 -52.5 -57t-13.5 -77v-181q0 -73 -29.5 -107.5t-117.5 -34.5h-24 v64z" />
<glyph unicode="~" horiz-adv-x="438" d="M43 268q47 48 87 50q23 2 71.5 -14.5t77.5 -17.5q26 0 69 36l30 -45q-15 -24 -44 -38t-54 -15q-24 0 -43.5 4t-45.5 14.5t-32 12.5q-36 9 -86 -34q-27 42 -30 47z" />
<glyph unicode="&#xa1;" horiz-adv-x="196" d="M51 -182v550h71v-550h-71zM51 483q0 24 6 31.5t29 7.5q24 0 30 -7.5t6 -31.5q0 -25 -6.5 -32t-29.5 -7t-29 7t-6 32z" />
<glyph unicode="&#xa2;" horiz-adv-x="452" d="M49 309q0 165 26 221t121 63v79h67v-80q66 -4 110 -12v-64q-127 11 -139 11q-21 0 -36.5 -1.5t-28 -8t-20 -12t-13.5 -21.5t-8.5 -28t-4 -39.5t-2 -48.5t-0.5 -62q0 -59 6 -92.5t24 -51t41.5 -22.5t68.5 -5l117 9v-56q-44 -12 -115 -17v-79h-67v79q-54 3 -84 21.5 t-46.5 70t-16.5 146.5z" />
<glyph unicode="&#xa3;" horiz-adv-x="436" d="M32 0v61q40 2 52.5 24.5t12.5 90.5v157h-55v50h55v78q0 119 32 166t118 47q40 0 126 -18v-54q-84 14 -126 14q-46 0 -61.5 -35t-15.5 -96v-102h173v-50h-173v-190q0 -48 -16 -78h224v-65h-346z" />
<glyph unicode="&#xa4;" horiz-adv-x="489" d="M45 522l45 51l66 -70q42 15 75 15q36 0 81 -15l66 75l48 -55l-62 -68q18 -37 18 -117t-18 -119l61 -69l-49 -49l-66 70q-35 -13 -72 -13q-40 0 -79 13l-68 -72l-45 54l57 64q-17 40 -17 115q0 77 16 125zM153 338q0 -70 15.5 -93.5t65.5 -23.5t64.5 23.5t14.5 93.5 t-15 94t-64 24q-50 0 -65.5 -24t-15.5 -94z" />
<glyph unicode="&#xa5;" horiz-adv-x="517" d="M21 697h75l150 -330l154 330h75l-190 -408h122v-60h-314v60h118zM94 140v59h315v-59h-126v-140h-69v140h-120z" />
<glyph unicode="&#xa6;" horiz-adv-x="192" d="M55 -206v418h58v-418h-58zM55 366v419h58v-419h-58z" />
<glyph unicode="&#xa7;" horiz-adv-x="423" d="M31 258q0 63 34.5 96.5t91.5 36.5q-52 23 -82 55.5t-30 88.5q0 66 37.5 99.5t99.5 33.5q42 0 81 -2t57 -4l18 -2v-66q-67 8 -152 8q-35 0 -51 -14t-16 -46q0 -30 25.5 -51.5t61.5 -36t72 -32.5t61.5 -51.5t25.5 -81.5q0 -63 -34 -96.5t-91 -36.5q52 -24 81.5 -56.5 t29.5 -87.5q0 -66 -37.5 -99.5t-99.5 -33.5q-42 0 -81 2t-57 4l-18 2v66q63 -8 148 -8q38 0 54.5 14t16.5 46q0 31 -25.5 52.5t-61.5 36t-72 32t-61.5 51t-25.5 81.5zM104 265q0 -23 14 -40q39 -3 102 -3q38 0 55 14t17 46q0 20 -14 39q-54 4 -106 4q-36 0 -52 -14t-16 -46z " />
<glyph unicode="&#xa8;" horiz-adv-x="359" d="M54 598q0 29 6.5 36.5t32.5 7.5t33.5 -8t7.5 -36q0 -26 -7 -34.5t-34 -8.5q-26 0 -32.5 8t-6.5 35zM211 598q0 29 6 36.5t32 7.5q27 0 34.5 -8t7.5 -36q0 -26 -7.5 -34.5t-34.5 -8.5q-25 0 -31.5 8t-6.5 35z" />
<glyph unicode="&#xa9;" horiz-adv-x="690" d="M22 331q0 145 86 244t223 99q138 0 224.5 -99t86.5 -244q0 -143 -87 -242t-224 -99t-223 98.5t-86 242.5zM79 331q0 -122 70 -204t184 -82q115 0 185.5 82t70.5 204q0 123 -70.5 205.5t-185.5 82.5q-114 0 -184 -82.5t-70 -205.5zM212 314q0 121 21.5 157.5t102.5 36.5 q41 0 97 -10v-42q-91 7 -96 7q-53 0 -64 -26t-11 -125q0 -41 3.5 -63t17.5 -33.5t29.5 -13.5t50.5 -2q24 0 72 6v-38q-46 -12 -106 -12q-45 0 -67.5 9.5t-36 44.5t-13.5 104z" />
<glyph unicode="&#xaa;" horiz-adv-x="305" d="M34 480q0 46 24.5 62.5t71.5 16.5h59v51q0 21 -10 27.5t-33 6.5q-17 0 -48.5 -4t-37.5 -4l-9 43q58 11 102 11q46 0 65.5 -17t19.5 -64v-220h-43q-2 9 -4 23q-47 -28 -86 -28q-71 0 -71 96zM82 478q0 -47 30 -47q24 0 73 23l4 2v63h-32q-43 0 -59 -8t-16 -33z" />
<glyph unicode="&#xab;" horiz-adv-x="438" d="M30 246l118 199l54 -38l-96 -161l96 -161l-54 -39zM202 246l118 199l54 -38l-95 -161l95 -161l-54 -38z" />
<glyph unicode="&#xac;" horiz-adv-x="504" d="M57 207v68h371v-230h-62v162h-309z" />
<glyph unicode="&#xad;" horiz-adv-x="0" />
<glyph unicode="&#xae;" horiz-adv-x="425" d="M40 509q0 78 45.5 130.5t120.5 52.5t120 -52.5t45 -130.5t-45 -130.5t-120 -52.5t-120.5 52.5t-45.5 130.5zM74 509q0 -64 35.5 -106t96.5 -42q60 0 95.5 42t35.5 106q0 63 -35.5 105.5t-95.5 42.5q-61 0 -96.5 -42.5t-35.5 -105.5zM155 426v171h61q50 0 50 -43v-20 q0 -22 -16 -35l12 -73h-24l-11 66q-7 -1 -49 -1v-65h-23zM178 513h36q29 0 29 21v19q0 22 -29 22h-36v-62z" />
<glyph unicode="&#xaf;" horiz-adv-x="346" d="M51 565v57h219v-57h-219z" />
<glyph unicode="&#xb0;" horiz-adv-x="292" d="M33 548q0 48 28 80t76 32q47 0 75 -32t28 -80t-28 -79.5t-75 -31.5q-49 0 -76.5 31.5t-27.5 79.5zM75 548q0 -29 16 -50t46 -21q28 0 44.5 21t16.5 50q0 30 -16 51t-45 21q-30 0 -46 -20.5t-16 -51.5z" />
<glyph unicode="&#xb1;" horiz-adv-x="488" d="M48 0v66h375v-66h-375zM48 294v64h153v173h69v-173h153v-64h-153v-174h-69v174h-153z" />
<glyph unicode="&#xb2;" horiz-adv-x="350" d="M46 232l2 53q29 39 64 83.5t52.5 66.5t34.5 46.5t23 40t6 29.5q0 31 -18.5 43.5t-57.5 12.5h-106v49l95 1q74 0 111.5 -20.5t37.5 -86.5q0 -25 -18 -60t-37 -60t-59 -74t-57 -71h166v-53h-239z" />
<glyph unicode="&#xb3;" horiz-adv-x="319" d="M44 235v38q11 0 30 -0.5t31 -0.5q50 0 72.5 15t22.5 52v23q0 35 -17.5 48.5t-52.5 13.5h-63v41h63q70 0 70 61v28q0 18 -5 30.5t-11 19t-21 9.5t-25.5 3.5t-32.5 0.5l-61 -1v39l60 1q28 0 46 -1t39.5 -6.5t33.5 -15.5t20.5 -28.5t8.5 -45.5v-33q0 -33 -12 -49t-40 -32 q26 -7 39 -31t13 -52v-26q0 -60 -34.5 -81t-117.5 -21q-10 0 -27.5 0.5t-28.5 0.5z" />
<glyph unicode="&#xb4;" horiz-adv-x="287" d="M56 573l80 162l51 -31l-84 -159z" />
<glyph unicode="&#xb5;" horiz-adv-x="467" d="M56 -196v694h74v-394q0 -43 43 -43q79 0 157 37v400h72v-500h-61l-4 34q-90 -40 -163 -40q-23 0 -45 5v-193h-73z" />
<glyph unicode="&#xb6;" horiz-adv-x="522" d="M24 503q0 63 5.5 96.5t24 57.5t50.5 31.5t89 7.5h248v-894h-64v821h-42v-821h-66v522h-58q-63 -3 -95.5 1t-55.5 23t-29.5 54t-6.5 101z" />
<glyph unicode="&#xb7;" horiz-adv-x="220" d="M49 317q0 33 9 42t43 9t42.5 -9t8.5 -42q0 -34 -8.5 -44t-42.5 -10t-43 10t-9 44z" />
<glyph unicode="&#xb8;" horiz-adv-x="289" d="M111 -203l3 37q6 0 16 -1t18 -1.5t15 -0.5q22 0 27 6t5 29q0 13 -4.5 18.5t-20.5 5.5l-48 -1q3 19 8.5 56t8.5 55h45q-1 -11 -4 -33.5t-5 -34.5q4 0 10 0.5t9 0.5q47 0 47 -61q0 -46 -16 -63.5t-50 -17.5q-12 0 -64 6z" />
<glyph unicode="&#xb9;" horiz-adv-x="229" d="M22 601v50h129v-414h-57v364h-72z" />
<glyph unicode="&#xba;" horiz-adv-x="341" d="M59 537q0 102 20.5 129t89.5 27q56 0 76 -31.5t20 -124.5q0 -90 -19.5 -122.5t-80.5 -32.5q-43 0 -63.5 10t-31.5 43.5t-11 101.5zM118 517q0 -55 6.5 -69.5t39.5 -14.5q15 1 19.5 2t12 5.5t9 16t3 30t1.5 50.5q0 67 -8.5 86.5t-37.5 19.5q-32 0 -38.5 -17.5t-6.5 -88.5 v-20z" />
<glyph unicode="&#xbb;" horiz-adv-x="439" d="M36 89l96 161l-96 161l54 38l119 -199l-119 -199zM209 89l95 161l-95 161l54 38l119 -199l-119 -200z" />
<glyph unicode="&#xbc;" horiz-adv-x="450" d="M26 249v61h388v-61h-388zM73 -71l144 244h77v-238h56v-52h-56v-129h-49v129h-172v46zM136 748v50h129v-414h-57v364h-72zM139 -65h105v181z" />
<glyph unicode="&#xbd;" horiz-adv-x="446" d="M22 250v61h387v-61h-387zM100 124v49l95 1q74 0 111.5 -20.5t37.5 -86.5q0 -25 -18 -60t-37 -60t-59 -74t-57 -71h166v-53h-239l2 53q29 39 64 83.5t52.5 66.5t34.5 46.5t23 40t6 29.5q0 31 -18.5 43.5t-57.5 12.5h-106zM127 748v50h129v-414h-57v364h-72z" />
<glyph unicode="&#xbe;" horiz-adv-x="450" d="M24 250v60h388v-60h-388zM71 -73l144 244h77v-238h56v-52h-56v-129h-49v129h-172v46zM125 379v38q11 0 30 -0.5t31 -0.5q50 0 72.5 15t22.5 52v23q0 35 -17.5 48.5t-52.5 13.5h-63v41h63q70 0 70 61v28q0 18 -5 30.5t-11 19t-21 9.5t-25.5 3.5t-32.5 0.5l-61 -1v39l60 1 q28 0 46 -1t39.5 -6.5t33.5 -15.5t20.5 -28.5t8.5 -45.5v-33q0 -33 -12 -49t-40 -32q26 -7 39 -31t13 -52v-26q0 -60 -34.5 -81t-117.5 -21q-10 0 -27.5 0.5t-28.5 0.5zM137 -67h105v181z" />
<glyph unicode="&#xbf;" horiz-adv-x="391" d="M24 -14q0 95 44.5 131t159.5 36v130h68v-196h-93q-102 0 -102 -101v-17q0 -22 3.5 -39t8 -28t16.5 -18.5t19 -11t27 -5.5t29.5 -2h35.5l103 2v-65h-97q-42 0 -68.5 2t-59 10.5t-50.5 24.5t-31 47t-13 75v25zM226 465q0 24 6 31t31 7q23 0 29 -7t6 -31q0 -25 -6 -32 t-29 -7q-24 0 -30.5 7t-6.5 32z" />
<glyph unicode="&#xc0;" horiz-adv-x="534" d="M-1 0l196 666h115l197 -666h-73l-52 169h-257l-49 -169h-77zM145 236h216l-110 356zM157 882l52 31l80 -162l-47 -28z" />
<glyph unicode="&#xc1;" horiz-adv-x="534" d="M-1 0l196 666h115l197 -666h-73l-52 169h-257l-49 -169h-77zM145 236h216l-110 356zM208 752l80 162l51 -31l-84 -159z" />
<glyph unicode="&#xc2;" horiz-adv-x="534" d="M-1 0l196 666h115l197 -666h-73l-52 169h-257l-49 -169h-77zM118 768l132 113l130 -115l-31 -42l-99 85l-104 -84zM145 236h216l-110 356z" />
<glyph unicode="&#xc3;" horiz-adv-x="534" d="M-1 0l196 666h115l197 -666h-73l-52 169h-257l-49 -169h-77zM123 762q31 54 75 57q18 0 52 -17.5t51 -17.5q20 0 41 28q5 -4 10.5 -9t12 -11.5t10.5 -9.5q-28 -55 -74 -55q-17 0 -49.5 17.5t-50.5 17.5q-22 0 -47 -32q-5 5 -15 15.5t-16 16.5zM145 236h216l-110 356z" />
<glyph unicode="&#xc4;" horiz-adv-x="534" d="M-1 0l196 666h115l197 -666h-73l-52 169h-257l-49 -169h-77zM134 767q0 29 6.5 36.5t32.5 7.5t33.5 -8t7.5 -36q0 -26 -7 -34.5t-34 -8.5q-26 0 -32.5 8t-6.5 35zM145 236h216l-110 356zM291 767q0 29 6 36.5t32 7.5q27 0 34.5 -8t7.5 -36q0 -26 -7.5 -34.5t-34.5 -8.5 q-25 0 -31.5 8t-6.5 35z" />
<glyph unicode="&#xc5;" horiz-adv-x="536" d="M-1 0l196 666h115l197 -666h-73l-52 169h-257l-49 -169h-77zM145 236h216l-110 356zM184 797q0 32 19.5 53.5t47.5 21.5q30 0 49 -21.5t19 -53.5q0 -31 -19.5 -52.5t-48.5 -21.5t-48 21.5t-19 52.5zM220 797q0 -15 9 -26.5t22 -11.5q15 0 24.5 11.5t9.5 26.5 q0 17 -9.5 28t-24.5 11q-13 0 -22 -11t-9 -28z" />
<glyph unicode="&#xc6;" horiz-adv-x="738" d="M-2 0l196 666h481v-69h-347l67 -223h255v-71h-234l70 -236h192v-67h-245l-52 169h-257l-49 -169h-77zM144 236h216l-110 356z" />
<glyph unicode="&#xc7;" horiz-adv-x="496" d="M44 295q0 82 2.5 134t12 98.5t24.5 71.5t42.5 43.5t64.5 25t92 6.5q50 0 158 -13v-64q-134 11 -155 11q-31 0 -53.5 -2t-40.5 -11.5t-29 -17.5t-19.5 -31t-12.5 -40t-6 -56.5t-2.5 -69t-0.5 -88.5t3.5 -97.5t15.5 -65.5t24.5 -41t41.5 -21.5t54 -9t75 -1.5q45 0 105 5 v-54q-74 -12 -138 -15q-4 -31 -7 -50q4 0 10.5 0.5t9.5 0.5q47 0 47 -61q0 -46 -16.5 -63.5t-50.5 -17.5q-12 0 -64 6l4 37q3 0 21.5 -1.5t26.5 -1.5q23 0 28 6t5 29q0 13 -4.5 18.5t-20.5 5.5l-48 -1l13 92q-47 1 -78 7t-59 24.5t-43 52t-23.5 87.5t-8.5 133z" />
<glyph unicode="&#xc8;" horiz-adv-x="485" d="M64 0v667h355v-71h-281v-220h257v-73h-257v-233h281v-70h-355zM148 883l51 31l80 -162l-47 -28z" />
<glyph unicode="&#xc9;" horiz-adv-x="485" d="M64 0v667h355v-71h-281v-220h257v-73h-257v-233h281v-70h-355zM193 755l80 162l51 -31l-85 -159z" />
<glyph unicode="&#xca;" horiz-adv-x="485" d="M64 0v667h355v-71h-281v-220h257v-73h-257v-233h281v-70h-355zM97 768l132 113l130 -115l-31 -42l-99 85l-104 -84z" />
<glyph unicode="&#xcb;" horiz-adv-x="485" d="M64 0v667h355v-71h-281v-220h257v-73h-257v-233h281v-70h-355zM113 766q0 29 6.5 36.5t32.5 7.5t33.5 -8t7.5 -36q0 -26 -7 -34.5t-34 -8.5q-26 0 -32.5 8t-6.5 35zM270 766q0 28 6.5 36t32.5 8t33.5 -8t7.5 -36q0 -26 -7 -34.5t-34 -8.5q-26 0 -32.5 8t-6.5 35z" />
<glyph unicode="&#xcc;" horiz-adv-x="223" d="M2 881l51 31l80 -162l-47 -28zM67 0v666h74v-666h-74z" />
<glyph unicode="&#xcd;" horiz-adv-x="225" d="M63 756l80 162l51 -31l-84 -159zM67 0v666h74v-666h-74z" />
<glyph unicode="&#xce;" horiz-adv-x="225" d="M-29 768l132 113l130 -115l-31 -42l-99 85l-104 -84zM67 0v666h74v-666h-74z" />
<glyph unicode="&#xcf;" horiz-adv-x="227" d="M-14 798q0 29 6 36.5t32 7.5q27 0 34.5 -8t7.5 -36q0 -26 -7.5 -34.5t-34.5 -8.5q-26 0 -32 7.5t-6 35.5zM66 0v666h73v-666h-73zM142 798q0 28 6.5 36t32.5 8t33.5 -8t7.5 -36q0 -26 -7 -34.5t-34 -8.5q-26 0 -32.5 8t-6.5 35z" />
<glyph unicode="&#xd0;" horiz-adv-x="550" d="M15 320v62h42v284l212 2q60 0 97.5 -13t64.5 -49.5t38.5 -103t11.5 -172.5q0 -103 -9.5 -166t-34.5 -100.5t-61.5 -50.5t-96.5 -13h-222v320h-42zM130 67l145 -1q44 2 66 10t39 36t22 78t5 140q0 74 -4.5 122.5t-13 79t-25.5 46t-37.5 20.5t-53.5 4h-143v-220h103v-62 h-103v-253z" />
<glyph unicode="&#xd1;" horiz-adv-x="590" d="M64 0v667h97l275 -564v564h72v-667h-105l-269 560v-560h-70zM161 759q31 54 75 57q18 0 51.5 -17.5t50.5 -17.5q21 0 42 28q4 -3 10.5 -9.5t12 -11.5t10.5 -9q-28 -55 -74 -55q-17 0 -50 17.5t-51 17.5q-21 0 -46 -32q-5 5 -15 15.5t-16 16.5z" />
<glyph unicode="&#xd2;" horiz-adv-x="555" d="M53 333q0 75 2.5 123t11.5 89.5t23 64.5t38.5 39.5t57.5 22t81 5.5q59 0 96 -10t62 -30.5t37 -64t16.5 -97t4.5 -142.5q0 -90 -4.5 -143.5t-16.5 -96.5t-37.5 -63t-62 -29.5t-95.5 -9.5t-96 10.5t-61.5 31t-36.5 64t-16 96t-4 140.5zM127 333q0 -66 1 -101.5t6 -72.5 t13 -53t24.5 -30.5t39 -18.5t56.5 -4t56 3.5t39 17t25.5 30t13.5 52t6.5 73.5t1.5 104t-1 104t-6.5 74t-14 52.5t-25 30t-39 17.5t-56.5 4q-26 0 -44.5 -2t-34 -10t-25 -16t-16.5 -26.5t-11 -35.5t-6 -50.5t-2.5 -62.5t-0.5 -79zM178 883l51 31l81 -162l-47 -28z" />
<glyph unicode="&#xd3;" horiz-adv-x="555" d="M53 333q0 75 2.5 123t11.5 89.5t23 64.5t38.5 39.5t57.5 22t81 5.5q59 0 96 -10t62 -30.5t37 -64t16.5 -97t4.5 -142.5q0 -90 -4.5 -143.5t-16.5 -96.5t-37.5 -63t-62 -29.5t-95.5 -9.5t-96 10.5t-61.5 31t-36.5 64t-16 96t-4 140.5zM127 333q0 -66 1 -101.5t6 -72.5 t13 -53t24.5 -30.5t39 -18.5t56.5 -4t56 3.5t39 17t25.5 30t13.5 52t6.5 73.5t1.5 104t-1 104t-6.5 74t-14 52.5t-25 30t-39 17.5t-56.5 4q-26 0 -44.5 -2t-34 -10t-25 -16t-16.5 -26.5t-11 -35.5t-6 -50.5t-2.5 -62.5t-0.5 -79zM219 752l80 162l51 -31l-85 -159z" />
<glyph unicode="&#xd4;" horiz-adv-x="555" d="M53 333q0 75 2.5 123t11.5 89.5t23 64.5t38.5 39.5t57.5 22t81 5.5q59 0 96 -10t62 -30.5t37 -64t16.5 -97t4.5 -142.5q0 -90 -4.5 -143.5t-16.5 -96.5t-37.5 -63t-62 -29.5t-95.5 -9.5t-96 10.5t-61.5 31t-36.5 64t-16 96t-4 140.5zM127 333q0 -66 1 -101.5t6 -72.5 t13 -53t24.5 -30.5t39 -18.5t56.5 -4t56 3.5t39 17t25.5 30t13.5 52t6.5 73.5t1.5 104t-1 104t-6.5 74t-14 52.5t-25 30t-39 17.5t-56.5 4q-26 0 -44.5 -2t-34 -10t-25 -16t-16.5 -26.5t-11 -35.5t-6 -50.5t-2.5 -62.5t-0.5 -79zM137 768l132 113l130 -115l-31 -42l-99 85 l-104 -84z" />
<glyph unicode="&#xd5;" horiz-adv-x="555" d="M53 333q0 75 2.5 123t11.5 89.5t23 64.5t38.5 39.5t57.5 22t81 5.5q59 0 96 -10t62 -30.5t37 -64t16.5 -97t4.5 -142.5q0 -90 -4.5 -143.5t-16.5 -96.5t-37.5 -63t-62 -29.5t-95.5 -9.5t-96 10.5t-61.5 31t-36.5 64t-16 96t-4 140.5zM127 333q0 -66 1 -101.5t6 -72.5 t13 -53t24.5 -30.5t39 -18.5t56.5 -4t56 3.5t39 17t25.5 30t13.5 52t6.5 73.5t1.5 104t-1 104t-6.5 74t-14 52.5t-25 30t-39 17.5t-56.5 4q-26 0 -44.5 -2t-34 -10t-25 -16t-16.5 -26.5t-11 -35.5t-6 -50.5t-2.5 -62.5t-0.5 -79zM131 761q31 54 75 57q18 0 52 -17.5 t51 -17.5q22 0 41 28q5 -4 10.5 -9t12 -11.5t10.5 -9.5q-28 -55 -73 -55q-18 0 -50.5 17.5t-50.5 17.5q-22 0 -47 -32q-5 5 -15 15.5t-16 16.5z" />
<glyph unicode="&#xd6;" horiz-adv-x="555" d="M53 333q0 75 2.5 123t11.5 89.5t23 64.5t38.5 39.5t57.5 22t81 5.5q59 0 96 -10t62 -30.5t37 -64t16.5 -97t4.5 -142.5q0 -90 -4.5 -143.5t-16.5 -96.5t-37.5 -63t-62 -29.5t-95.5 -9.5t-96 10.5t-61.5 31t-36.5 64t-16 96t-4 140.5zM127 333q0 -66 1 -101.5t6 -72.5 t13 -53t24.5 -30.5t39 -18.5t56.5 -4t56 3.5t39 17t25.5 30t13.5 52t6.5 73.5t1.5 104t-1 104t-6.5 74t-14 52.5t-25 30t-39 17.5t-56.5 4q-26 0 -44.5 -2t-34 -10t-25 -16t-16.5 -26.5t-11 -35.5t-6 -50.5t-2.5 -62.5t-0.5 -79zM139 768q0 29 6 36.5t32 7.5q27 0 34.5 -8 t7.5 -36q0 -26 -7.5 -34.5t-34.5 -8.5q-26 0 -32 7.5t-6 35.5zM295 768q0 28 6.5 36t32.5 8t33.5 -8t7.5 -36q0 -26 -7 -34.5t-34 -8.5q-26 0 -32.5 8t-6.5 35z" />
<glyph unicode="&#xd7;" d="M43 92l137 152l-137 153l44 50l139 -152l137 152l45 -50l-137 -153l137 -152l-45 -50l-138 152l-138 -153z" />
<glyph unicode="&#xd8;" horiz-adv-x="555" d="M53 333q0 75 2.5 123t11.5 89.5t23 64.5t38.5 39.5t57.5 22t81 5.5q38 0 71 -5l15 51h59l-19 -66q56 -26 73 -96t17 -228q0 -90 -4.5 -143.5t-16.5 -96.5t-37.5 -63t-62 -29.5t-95.5 -9.5q-32 0 -59 3l-16 -58h-58l19 70q-62 24 -81 93.5t-19 233.5zM127 333 q0 -129 8 -183t37 -76l149 537q-20 4 -54 4q-26 0 -44.5 -2t-34 -10t-25 -16t-16.5 -26.5t-11 -35.5t-6 -50.5t-2.5 -62.5t-0.5 -79zM225 55q26 -2 42 -2q34 0 56 3.5t39 17t25.5 30t13.5 52t6.5 73.5t1.5 104q0 117 -6.5 171.5t-29.5 79.5z" />
<glyph unicode="&#xd9;" horiz-adv-x="579" d="M58 333v332h75v-332q0 -49 0.5 -78.5t3 -62t6.5 -50t11.5 -35.5t17.5 -26.5t25.5 -16t34.5 -9.5t46 -2q35 0 57.5 3.5t40 16.5t26.5 30t14.5 52t7 74t1.5 104v332h75v-332q0 -75 -2.5 -123t-11.5 -89.5t-23.5 -64t-40.5 -38.5t-60 -21.5t-84 -5.5q-60 0 -98.5 10.5 t-63.5 31t-37 64t-16.5 96t-4.5 140.5zM187 884l51 31l81 -162l-47 -28z" />
<glyph unicode="&#xda;" horiz-adv-x="579" d="M58 333v332h75v-332q0 -49 0.5 -78.5t3 -62t6.5 -50t11.5 -35.5t17.5 -26.5t25.5 -16t34.5 -9.5t46 -2q35 0 57.5 3.5t40 16.5t26.5 30t14.5 52t7 74t1.5 104v332h75v-332q0 -75 -2.5 -123t-11.5 -89.5t-23.5 -64t-40.5 -38.5t-60 -21.5t-84 -5.5q-60 0 -98.5 10.5 t-63.5 31t-37 64t-16.5 96t-4.5 140.5zM236 757l80 162l51 -31l-84 -159z" />
<glyph unicode="&#xdb;" horiz-adv-x="579" d="M58 333v332h75v-332q0 -49 0.5 -78.5t3 -62t6.5 -50t11.5 -35.5t17.5 -26.5t25.5 -16t34.5 -9.5t46 -2q35 0 57.5 3.5t40 16.5t26.5 30t14.5 52t7 74t1.5 104v332h75v-332q0 -75 -2.5 -123t-11.5 -89.5t-23.5 -64t-40.5 -38.5t-60 -21.5t-84 -5.5q-60 0 -98.5 10.5 t-63.5 31t-37 64t-16.5 96t-4.5 140.5zM152 768l132 113l130 -115l-31 -42l-99 85l-104 -84z" />
<glyph unicode="&#xdc;" horiz-adv-x="579" d="M58 333v332h75v-332q0 -49 0.5 -78.5t3 -62t6.5 -50t11.5 -35.5t17.5 -26.5t25.5 -16t34.5 -9.5t46 -2q35 0 57.5 3.5t40 16.5t26.5 30t14.5 52t7 74t1.5 104v332h75v-332q0 -75 -2.5 -123t-11.5 -89.5t-23.5 -64t-40.5 -38.5t-60 -21.5t-84 -5.5q-60 0 -98.5 10.5 t-63.5 31t-37 64t-16.5 96t-4.5 140.5zM163 767q0 29 6.5 36.5t32.5 7.5t33.5 -8t7.5 -36q0 -26 -7 -34.5t-34 -8.5q-26 0 -32.5 8t-6.5 35zM319 767q0 28 6.5 36t32.5 8q27 0 34.5 -8t7.5 -36q0 -26 -7.5 -34.5t-34.5 -8.5q-26 0 -32.5 8t-6.5 35z" />
<glyph unicode="&#xdd;" horiz-adv-x="478" d="M-5 667h87l145 -349l148 349h87l-197 -436v-231h-76v231zM190 751l80 162l51 -31l-84 -159z" />
<glyph unicode="&#xde;" horiz-adv-x="539" d="M63 0l1 666h74v-116h155q90 0 141.5 -36t51.5 -125v-80q0 -60 -36 -106t-94 -54q-27 -4 -219 -4v-145h-74zM137 214h154q57 0 89 18.5t32 76.5v79q0 30 -10 50.5t-28.5 29.5t-37.5 12.5t-45 3.5h-154v-270z" />
<glyph unicode="&#xdf;" horiz-adv-x="502" d="M9 -143q21 4 32 14.5t13 21t2 30.5v586q0 79 41.5 125.5t113.5 46.5q34 0 62 -3t59 -13.5t52 -28t35 -49.5t14 -75q0 -86 -68 -166q49 -18 63.5 -55.5t14.5 -103.5v-58q0 -37 -11 -62.5t-27.5 -39.5t-49 -21t-61.5 -8.5t-80 -1.5h-38q-6 0 -24 0.5t-25 0.5v-59 q0 -78 -25 -103.5t-76 -25.5q-7 0 -17 2v46zM127 62h89h44.5t35.5 2t32.5 6.5t20.5 13t16 22t4 32.5v55q0 60 -21 79t-77 19h-144v-229zM128 358h153q80 76 80 150q0 32 -12.5 52.5t-36.5 30t-46.5 12.5t-54.5 3q-34 0 -58.5 -23t-24.5 -77v-148z" />
<glyph unicode="&#xe0;" horiz-adv-x="445" d="M31 152q0 77 41.5 104.5t120.5 27.5h108v94q0 42 -18.5 54t-62.5 12q-49 0 -150 -15q-1 2 -6 31.5t-5 32.5q93 18 173 18q77 0 109 -27.5t32 -108.5v-375h-62l-7 41q-94 -51 -155 -51q-62 0 -90 44.5t-28 117.5zM102 148q0 -42 12 -65t45 -23q18 0 42.5 7.5t60.5 23 t39 16.5v118q-125 0 -162 -12t-37 -65zM127 708l51 31l80 -162l-47 -28z" />
<glyph unicode="&#xe1;" horiz-adv-x="445" d="M31 152q0 77 41.5 104.5t120.5 27.5h108v94q0 42 -18.5 54t-62.5 12q-49 0 -150 -15q-1 2 -6 31.5t-5 32.5q93 18 173 18q77 0 109 -27.5t32 -108.5v-375h-62l-7 41q-94 -51 -155 -51q-62 0 -90 44.5t-28 117.5zM102 148q0 -42 12 -65t45 -23q18 0 42.5 7.5t60.5 23 t39 16.5v118q-125 0 -162 -12t-37 -65zM169 577l80 162l52 -31l-85 -159z" />
<glyph unicode="&#xe2;" horiz-adv-x="446" d="M31 152q0 77 41.5 104.5t120.5 27.5h108v94q0 42 -18.5 54t-62.5 12q-49 0 -150 -15q-1 2 -6 31.5t-5 32.5q93 18 173 18q77 0 109 -27.5t32 -108.5v-375h-62l-7 41q-94 -51 -155 -51q-62 0 -90 44.5t-28 117.5zM77 601l133 113l129 -115l-30 -42l-99 85l-105 -84z M102 148q0 -42 12 -65t45 -23q18 0 42.5 7.5t60.5 23t39 16.5v118q-125 0 -162 -12t-37 -65z" />
<glyph unicode="&#xe3;" horiz-adv-x="445" d="M31 152q0 77 41.5 104.5t120.5 27.5h108v94q0 42 -18.5 54t-62.5 12q-49 0 -150 -15q-1 2 -6 31.5t-5 32.5q93 18 173 18q77 0 109 -27.5t32 -108.5v-375h-62l-7 41q-94 -51 -155 -51q-62 0 -90 44.5t-28 117.5zM76 586q31 54 74 57q18 0 52 -17.5t51 -17.5q22 0 41 28 q6 -5 17 -15t17 -15q-30 -55 -74 -55q-17 0 -50 17.5t-51 17.5q-20 0 -47 -32q-10 10 -30 32zM102 148q0 -42 12 -65t45 -23q18 0 42.5 7.5t60.5 23t39 16.5v118q-125 0 -162 -12t-37 -65z" />
<glyph unicode="&#xe4;" horiz-adv-x="445" d="M31 152q0 77 41.5 104.5t120.5 27.5h108v94q0 42 -18.5 54t-62.5 12q-49 0 -150 -15q-1 2 -6 31.5t-5 32.5q93 18 173 18q77 0 109 -27.5t32 -108.5v-375h-62l-7 41q-94 -51 -155 -51q-62 0 -90 44.5t-28 117.5zM95 598q0 29 6.5 36.5t32.5 7.5t33.5 -8t7.5 -36 q0 -26 -7 -34.5t-34 -8.5q-26 0 -32.5 8t-6.5 35zM102 148q0 -42 12 -65t45 -23q18 0 42.5 7.5t60.5 23t39 16.5v118q-125 0 -162 -12t-37 -65zM252 598q0 28 6.5 36t32.5 8t33.5 -8t7.5 -36q0 -26 -7 -34.5t-34 -8.5q-26 0 -32.5 8t-6.5 35z" />
<glyph unicode="&#xe5;" horiz-adv-x="445" d="M31 152q0 76 41 102.5t121 29.5h108v94q0 42 -18.5 54t-62.5 12q-49 0 -150 -15q-1 2 -6 31.5t-5 32.5q93 18 173 18q77 0 109 -27.5t32 -108.5v-375h-62l-7 41q-94 -51 -155 -51q-62 0 -90 44.5t-28 117.5zM102 148q0 -42 12 -65t45 -23q18 0 42.5 7.5t60.5 23t39 16.5 v118q-125 0 -162 -12t-37 -65zM147 629q0 32 19 53.5t47 21.5q30 0 49.5 -21.5t19.5 -53.5q0 -31 -19.5 -52.5t-49.5 -21.5q-28 0 -47 21.5t-19 52.5zM182 629q0 -15 9 -26.5t22 -11.5q15 0 24.5 11.5t9.5 26.5q0 17 -9.5 28t-24.5 11q-13 0 -22 -11t-9 -28z" />
<glyph unicode="&#xe6;" horiz-adv-x="709" d="M31 154q0 37 11 62.5t26.5 39t43.5 21t52 9t63 1.5h74v91q0 42 -18.5 54t-63.5 12t-150 -15q-8 31 -11 64q93 18 174 18q87 0 116 -38q35 39 133 39q59 0 93.5 -11.5t54.5 -45t26 -81t6 -131.5v-15q-47 0 -144 -0.5t-143 -0.5q1 -30 0 -54t-0.5 -42.5t5 -32t14.5 -22.5 t29 -14t50 -7h12h15h12q46 0 121 8v-55q-94 -17 -168 -17q-93 0 -127 51l-10 -6q-10 -5 -15.5 -8t-18 -9t-24 -9.5t-27 -8t-33 -7t-36.5 -3.5q-70 -6 -106 36.5t-36 126.5zM101 150q0 -46 15 -69t55 -23q69 0 130 36v133h-62q-81 0 -109.5 -15.5t-28.5 -61.5zM375 290h215 q-2 102 -21 131t-88 29q-37 0 -58 -8t-31 -28.5t-12.5 -44.5t-4.5 -68v-11z" />
<glyph unicode="&#xe7;" horiz-adv-x="428" d="M44 224q0 75 3.5 119t13.5 80.5t31 53.5t52.5 25.5t82.5 8.5q60 0 142 -14v-63q-128 10 -140 10q-21 0 -36.5 -1.5t-27.5 -8t-20 -12.5t-13.5 -22t-8 -28t-4 -39.5t-2 -49t-0.5 -62.5t2.5 -67.5t10.5 -45.5t17 -29t29 -15t37.5 -6t51.5 -1q38 0 108 8v-56 q-52 -13 -134 -17q-1 -23 -6 -49q4 0 10.5 0.5t9.5 0.5q47 0 47 -61q0 -46 -16.5 -63.5t-50.5 -17.5q-12 0 -64 6l4 37q3 0 21.5 -1.5t26.5 -1.5q23 0 28 6t5 29q0 13 -4.5 18.5t-20.5 5.5l-48 -1l13 92q-56 2 -86 18.5t-47 67t-17 146.5z" />
<glyph unicode="&#xe8;" horiz-adv-x="454" d="M44 251q0 81 5.5 126.5t25 78.5t54 44.5t93.5 11.5q112 0 145.5 -52t33.5 -209v-23h-12q-46 0 -137.5 -0.5t-137.5 -0.5q1 -45 2.5 -64t6 -40t13.5 -36q19 -32 111 -32q44 0 126 8v-55q-92 -17 -167 -17q-99 0 -130.5 54t-31.5 206zM115 290h216q-2 102 -21 131t-88 29 q-72 0 -91 -39q-13 -25 -16 -116v-5zM143 709l51 31l80 -162l-46 -28z" />
<glyph unicode="&#xe9;" horiz-adv-x="459" d="M44 251q0 81 5.5 126.5t25 78.5t54 44.5t93.5 11.5q112 0 145.5 -52t33.5 -209v-23h-12q-46 0 -137.5 -0.5t-137.5 -0.5q1 -45 2.5 -64t6 -40t13.5 -36q19 -32 111 -32q44 0 126 8v-55q-92 -17 -167 -17q-99 0 -130.5 54t-31.5 206zM115 290h216q-2 102 -21 131t-88 29 q-72 0 -91 -39q-13 -25 -16 -116v-5zM176 577l80 162l52 -31l-85 -159z" />
<glyph unicode="&#xea;" horiz-adv-x="459" d="M44 251q0 81 5.5 126.5t25 78.5t54 44.5t93.5 11.5q112 0 145.5 -52t33.5 -209v-23h-12q-46 0 -137.5 -0.5t-137.5 -0.5q1 -45 2.5 -64t6 -40t13.5 -36q19 -32 111 -32q44 0 126 8v-55q-92 -17 -167 -17q-99 0 -130.5 54t-31.5 206zM93 595l132 113l130 -115l-31 -42 l-99 85l-104 -84zM115 290h216q-2 102 -21 131t-88 29q-72 0 -91 -39q-13 -25 -16 -116v-5z" />
<glyph unicode="&#xeb;" horiz-adv-x="459" d="M44 251q0 81 5.5 126.5t25 78.5t54 44.5t93.5 11.5q112 0 145.5 -52t33.5 -209v-23h-12q-46 0 -137.5 -0.5t-137.5 -0.5q1 -45 2.5 -64t6 -40t13.5 -36q19 -32 111 -32q44 0 126 8v-55q-92 -17 -167 -17q-99 0 -130.5 54t-31.5 206zM100 597q0 29 6.5 36.5t32.5 7.5 t33.5 -8t7.5 -36q0 -26 -7 -34.5t-34 -8.5q-26 0 -32.5 8t-6.5 35zM115 290h216q-2 102 -21 131t-88 29q-72 0 -91 -39q-13 -25 -16 -116v-5zM256 597q0 28 6.5 36t32.5 8q27 0 34.5 -8t7.5 -36q0 -26 -7.5 -34.5t-34.5 -8.5q-26 0 -32.5 8t-6.5 35z" />
<glyph unicode="&#xec;" horiz-adv-x="199" d="M-3 713l52 31l80 -162l-47 -28zM51 0v499h74v-499h-74z" />
<glyph unicode="&#xed;" horiz-adv-x="193" d="M45 0v499h74v-499h-74zM48 573l80 162l51 -31l-85 -159z" />
<glyph unicode="&#xee;" horiz-adv-x="205" d="M-36 592l132 113l130 -115l-31 -42l-99 85l-104 -84zM58 0v499h73v-499h-73z" />
<glyph unicode="&#xef;" horiz-adv-x="198" d="M-34 598q0 29 6 36.5t32 7.5q27 0 34.5 -8t7.5 -36q0 -26 -7.5 -34.5t-34.5 -8.5q-26 0 -32 7.5t-6 35.5zM50 0v499h74v-499h-74zM122 598q0 28 6.5 36t32.5 8t33.5 -8t7.5 -36q0 -26 -7 -34.5t-34 -8.5q-26 0 -32.5 8t-6.5 35z" />
<glyph unicode="&#xf0;" horiz-adv-x="456" d="M32 185q0 66 8.5 105t32 58t51.5 24.5t79 5.5q74 0 113 -26q-1 15 -2.5 53.5t-3 52.5t-8 36t-17.5 38q-15 -18 -57 -72q-23 25 -34 35l53 66q-57 28 -104 36v69q86 -19 146 -52q7 8 22.5 28t23.5 30q26 -24 35 -33l-42 -54q36 -36 45 -97t9 -225v-51q0 -71 -5.5 -110.5 t-24 -63t-46.5 -30.5t-79 -7q-46 0 -73.5 3t-53.5 13.5t-39.5 30.5t-21 53.5t-7.5 83.5zM101 194q0 -45 4.5 -70.5t19 -38.5t31 -16t50.5 -3q29 0 42.5 0.5t29 5.5t20 12t10 25t6 39t0.5 58q0 23 -3 40t-6 28.5t-12.5 18.5t-15 11t-20.5 6t-22.5 2h-27.5q-25 0 -36.5 -0.5 t-27 -4t-21 -10.5t-12 -20.5t-8 -33t-1.5 -49.5z" />
<glyph unicode="&#xf1;" horiz-adv-x="475" d="M56 0v500h59l6 -36q96 44 173 44q107 0 107 -119v-389h-73v392q0 45 -43 45q-83 0 -157 -37v-400h-72zM101 586q31 54 74 57q18 0 52 -17.5t51 -17.5q22 0 41 28q6 -5 17 -15t17 -15q-28 -55 -74 -55q-17 0 -50 17.5t-51 17.5q-20 0 -47 -32q-20 22 -30 32z" />
<glyph unicode="&#xf2;" d="M43 250q0 157 34 208.5t148 51.5q115 0 149.5 -52t34.5 -208q0 -80 -6.5 -126t-26.5 -78t-55.5 -43.5t-95.5 -11.5t-95 11.5t-55 44t-26 78t-6 125.5zM116 250q0 -127 18 -162t91 -35q75 0 93.5 35t18.5 162q0 129 -19 164.5t-93 35.5q-73 0 -91 -36t-18 -164zM139 706 l51 31l80 -162l-47 -28z" />
<glyph unicode="&#xf3;" d="M43 250q0 157 34 208.5t148 51.5q115 0 149.5 -52t34.5 -208q0 -80 -6.5 -126t-26.5 -78t-55.5 -43.5t-95.5 -11.5t-95 11.5t-55 44t-26 78t-6 125.5zM116 250q0 -127 18 -162t91 -35q75 0 93.5 35t18.5 162q0 129 -19 164.5t-93 35.5q-73 0 -91 -36t-18 -164zM178 573 l80 162l52 -31l-85 -159z" />
<glyph unicode="&#xf4;" horiz-adv-x="471" d="M44 250q0 157 34 208.5t148 51.5q60 0 95.5 -11.5t55.5 -44t26 -78t6 -126.5t-6 -126.5t-26 -77.5t-55.5 -43.5t-95.5 -11.5t-95 11.5t-55 44t-26 78t-6 125.5zM97 596l132 113l130 -115l-31 -42l-99 85l-104 -84zM117 250q0 -127 18 -162t91 -35q74 0 92.5 35t18.5 162 q0 130 -18.5 165t-92.5 35q-73 0 -91 -36t-18 -164z" />
<glyph unicode="&#xf5;" d="M43 250q0 157 34 208.5t148 51.5q115 0 149.5 -52t34.5 -208q0 -80 -6.5 -126t-26.5 -78t-55.5 -43.5t-95.5 -11.5t-95 11.5t-55 44t-26 78t-6 125.5zM97 586q31 54 75 57q18 0 51.5 -17.5t50.5 -17.5q21 0 42 28q6 -5 16.5 -15t16.5 -15q-28 -55 -74 -55 q-17 0 -49.5 17.5t-50.5 17.5q-22 0 -47 -32q-6 6 -16 16.5t-15 15.5zM116 250q0 -127 18 -162t91 -35q75 0 93.5 35t18.5 162q0 129 -19 164.5t-93 35.5q-73 0 -91 -36t-18 -164z" />
<glyph unicode="&#xf6;" d="M43 250q0 157 34 208.5t148 51.5q115 0 149.5 -52t34.5 -208q0 -80 -6.5 -126t-26.5 -78t-55.5 -43.5t-95.5 -11.5t-95 11.5t-55 44t-26 78t-6 125.5zM112 598q0 29 6.5 36.5t32.5 7.5q27 0 34.5 -8t7.5 -36q0 -26 -7.5 -34.5t-34.5 -8.5q-26 0 -32.5 8t-6.5 35zM116 250 q0 -127 18 -162t91 -35q75 0 93.5 35t18.5 162q0 129 -19 164.5t-93 35.5q-73 0 -91 -36t-18 -164zM269 598q0 28 6.5 36t32.5 8t33.5 -8t7.5 -36q0 -26 -7 -34.5t-34 -8.5q-26 0 -32.5 8t-6.5 35z" />
<glyph unicode="&#xf7;" horiz-adv-x="465" d="M44 204v84h360v-84h-360zM173 82q0 33 8.5 42t42.5 9t42.5 -9t8.5 -42t-8.5 -43t-42.5 -10t-42.5 10t-8.5 43zM173 415q0 33 8.5 42t42.5 9t42.5 -9t8.5 -42t-8.5 -43t-42.5 -10t-42.5 10t-8.5 43z" />
<glyph unicode="&#xf8;" d="M43 250q0 157 34 208.5t148 51.5q16 0 42 -2l12 43h50l-14 -52q56 -17 75 -72t19 -177q0 -80 -6.5 -126t-26.5 -78t-55.5 -43.5t-95.5 -11.5q-29 0 -52 3l-16 -54h-48l18 64q-51 19 -67.5 73.5t-16.5 172.5zM116 250q0 -82 6 -121t24 -56l104 376q-3 0 -11.5 0.5 t-13.5 0.5q-73 0 -91 -36t-18 -164zM190 55q10 -2 35 -2q75 0 93.5 35t18.5 162q0 91 -8 131t-32 55z" />
<glyph unicode="&#xf9;" horiz-adv-x="473" d="M53 109v389h73v-391q0 -46 43 -46q83 0 158 37v400h72v-500h-60l-6 36q-94 -43 -173 -43q-107 0 -107 118zM139 710l52 31l80 -162l-47 -28z" />
<glyph unicode="&#xfa;" horiz-adv-x="473" d="M53 109v389h73v-391q0 -46 43 -46q83 0 158 37v400h72v-500h-60l-6 36q-94 -43 -173 -43q-107 0 -107 118zM187 578l80 162l52 -31l-85 -159z" />
<glyph unicode="&#xfb;" horiz-adv-x="473" d="M53 109v389h73v-391q0 -46 43 -46q83 0 158 37v400h72v-500h-60l-6 36q-94 -43 -173 -43q-107 0 -107 118zM99 594l132 113l130 -115l-31 -42l-99 85l-104 -84z" />
<glyph unicode="&#xfc;" horiz-adv-x="473" d="M53 109v389h73v-391q0 -46 43 -46q83 0 158 37v400h72v-500h-60l-6 36q-94 -43 -173 -43q-107 0 -107 118zM110 596q0 29 6 36.5t32 7.5q27 0 34.5 -8t7.5 -36q0 -26 -7.5 -34.5t-34.5 -8.5q-26 0 -32 7.5t-6 35.5zM266 596q0 28 6.5 36t32.5 8t33.5 -8t7.5 -36 q0 -26 -7 -34.5t-34 -8.5q-26 0 -32.5 8t-6.5 35z" />
<glyph unicode="&#xfd;" horiz-adv-x="436" d="M9 500h76l126 -424l127 424h74l-213 -697h-69l59 197h-26zM172 580l80 162l51 -31l-84 -159z" />
<glyph unicode="&#xfe;" horiz-adv-x="454" d="M56 677h69v-187q50 18 131 18q75 0 106.5 -51t31.5 -171q0 -68 -3 -109.5t-13 -80.5t-29.5 -59.5t-51.5 -32.5t-79 -12q-29 0 -93 4v-192h-68zM126 62q24 -2 83 -2h7q22 0 38 5t27.5 11.5t18.5 23t11.5 29.5t6 42t2 49.5t0.5 62.5q0 88 -13.5 124t-63.5 36 q-73 0 -117 -16v-365z" />
<glyph unicode="&#xff;" horiz-adv-x="439" d="M9 500h76l126 -424l127 424h74l-213 -697h-69l59 197h-26zM98 594q0 29 6.5 36.5t32.5 7.5t33.5 -8t7.5 -36q0 -26 -7 -34.5t-34 -8.5q-26 0 -32.5 8t-6.5 35zM255 594q0 29 6 36.5t32 7.5q27 0 34.5 -8t7.5 -36q0 -26 -7.5 -34.5t-34.5 -8.5q-25 0 -31.5 8t-6.5 35z" />
<glyph unicode="&#x152;" horiz-adv-x="793" d="M46 335q0 65 2.5 107.5t11 83t23 64.5t39 43t59.5 26.5t84 7.5h466v-70h-281v-221h257v-73h-257v-235h281v-68h-466q-47 1 -74.5 6t-59.5 20.5t-50.5 51t-26.5 91.5q-8 67 -8 166zM122 335q0 -175 25 -224q10 -20 33.5 -30t40 -11.5t44.5 -1.5h111v530h-111q-35 0 -55 -4 t-39.5 -17.5t-28.5 -42.5t-14.5 -77t-5.5 -122z" />
<glyph unicode="&#x153;" horiz-adv-x="748" d="M43 250q0 157 34 208.5t148 51.5q111 0 148 -52q35 54 144 54q114 0 147 -53t33 -216v-15l-286 -1q0 -6 -0.5 -19.5t-0.5 -20.5q0 -66 20 -100q19 -32 114 -32q42 0 125 8v-55q-93 -17 -168 -17q-93 0 -128 54q-35 -54 -148 -54q-60 0 -95 11.5t-55 44t-26 78t-6 125.5z M116 250q0 -127 18 -162t91 -35q75 0 93.5 35t18.5 162v1q0 129 -19 164t-93 35q-73 0 -91 -36t-18 -164zM411 290h216q-2 102 -21 131t-89 29q-30 0 -49.5 -7t-30.5 -16.5t-16.5 -33t-7 -43.5t-2.5 -60z" />
<glyph unicode="&#x178;" horiz-adv-x="478" d="M-5 667h87l145 -349l148 349h87l-197 -436v-231h-76v231zM108 769q0 29 6.5 36.5t32.5 7.5t33.5 -8t7.5 -36q0 -26 -7 -34.5t-34 -8.5q-26 0 -32.5 8t-6.5 35zM265 769q0 29 6 36.5t32 7.5q27 0 34.5 -8t7.5 -36q0 -26 -7.5 -34.5t-34.5 -8.5q-25 0 -31.5 8t-6.5 35z" />
<glyph unicode="&#x2c6;" horiz-adv-x="364" d="M38 568l132 113l130 -115l-31 -42l-99 85l-104 -84z" />
<glyph unicode="&#x2dc;" horiz-adv-x="377" d="M52 586q31 54 75 57q18 0 51.5 -17.5t50.5 -17.5q21 0 42 28q6 -5 16.5 -15t16.5 -15q-28 -55 -74 -55q-17 0 -49.5 17.5t-50.5 17.5q-22 0 -47 -32q-6 6 -16 16.5t-15 15.5z" />
<glyph unicode="&#x2000;" horiz-adv-x="459" />
<glyph unicode="&#x2001;" horiz-adv-x="919" />
<glyph unicode="&#x2002;" horiz-adv-x="459" />
<glyph unicode="&#x2003;" horiz-adv-x="919" />
<glyph unicode="&#x2004;" horiz-adv-x="306" />
<glyph unicode="&#x2005;" horiz-adv-x="229" />
<glyph unicode="&#x2006;" horiz-adv-x="153" />
<glyph unicode="&#x2007;" horiz-adv-x="153" />
<glyph unicode="&#x2008;" horiz-adv-x="114" />
<glyph unicode="&#x2009;" horiz-adv-x="183" />
<glyph unicode="&#x200a;" horiz-adv-x="51" />
<glyph unicode="&#x2010;" horiz-adv-x="340" d="M49 249v62h218v-62h-218z" />
<glyph unicode="&#x2011;" horiz-adv-x="340" d="M49 249v62h218v-62h-218z" />
<glyph unicode="&#x2012;" horiz-adv-x="340" d="M49 249v62h218v-62h-218z" />
<glyph unicode="&#x2013;" horiz-adv-x="430" d="M49 249v63h317v-63h-317z" />
<glyph unicode="&#x2014;" horiz-adv-x="554" d="M49 249v63h438v-63h-438z" />
<glyph unicode="&#x2018;" horiz-adv-x="201" d="M38 533q0 47 21 76t62 56l22 -36q-27 -15 -37 -43q21 -3 27 -13.5t6 -39.5q0 -33 -8.5 -41.5t-42.5 -8.5t-42 8.5t-8 41.5z" />
<glyph unicode="&#x2019;" horiz-adv-x="193" d="M40 531q26 14 36 43q-21 2 -27 13t-6 39q0 33 8.5 42t42.5 9t42.5 -9t8.5 -42q0 -47 -21 -76t-63 -56z" />
<glyph unicode="&#x201a;" horiz-adv-x="209" d="M41 -43q28 16 37 44q-21 2 -27 13t-6 39q0 33 8 42t42 9t43 -9t9 -42q0 -47 -21 -76t-63 -56z" />
<glyph unicode="&#x201c;" horiz-adv-x="351" d="M38 534q0 47 21 76t62 55l22 -36q-28 -15 -37 -43q21 -2 27 -12.5t6 -39.5q0 -34 -8 -42.5t-43 -8.5q-33 0 -41.5 9t-8.5 42zM184 534q0 46 21 75.5t61 55.5l23 -36q-30 -16 -37 -43q21 -2 27 -12.5t6 -39.5q0 -33 -8.5 -42t-42.5 -9q-33 0 -41.5 9t-8.5 42z" />
<glyph unicode="&#x201d;" horiz-adv-x="343" d="M39 529q27 15 37 43q-22 3 -28 13.5t-6 39.5q0 33 9 41.5t43 8.5t42 -8.5t8 -41.5q0 -47 -21 -76t-63 -56zM184 529q27 15 37 43q-21 3 -27 14t-6 39q0 33 8.5 41.5t41.5 8.5q34 0 43 -8.5t9 -41.5q0 -47 -21 -76t-63 -56z" />
<glyph unicode="&#x201e;" horiz-adv-x="358" d="M41 -43q28 16 37 44q-21 2 -27 13t-6 39q0 33 8 42t42 9t43 -9t9 -42q0 -47 -21 -76t-63 -56zM185 -43q28 16 37 44q-21 2 -27 13t-6 39q0 33 8 42t42 9t43 -9t9 -42q0 -47 -21 -76t-63 -56z" />
<glyph unicode="&#x2022;" horiz-adv-x="355" d="M63 323q0 49 32 84.5t76 35.5t75.5 -35.5t31.5 -84.5t-31.5 -84t-75.5 -35t-76 35t-32 84z" />
<glyph unicode="&#x2026;" horiz-adv-x="604" d="M44 53q0 33 8.5 42t41.5 9q34 0 43 -9t9 -42q0 -34 -8.5 -44t-43.5 -10q-33 0 -41.5 10t-8.5 44zM246 53q0 33 8.5 42t42.5 9t42.5 -9t8.5 -42q0 -34 -8.5 -44t-42.5 -10t-42.5 10t-8.5 44zM445 53q0 33 8.5 42t42.5 9t42.5 -9t8.5 -42q0 -34 -8.5 -44t-42.5 -10 t-42.5 10t-8.5 44z" />
<glyph unicode="&#x202f;" horiz-adv-x="183" />
<glyph unicode="&#x2039;" horiz-adv-x="261" d="M30 246l119 199l53 -38l-94 -161l94 -161l-53 -38z" />
<glyph unicode="&#x203a;" horiz-adv-x="261" d="M36 85l95 161l-95 161l54 38l119 -199l-119 -199z" />
<glyph unicode="&#x205f;" horiz-adv-x="229" />
<glyph unicode="&#x20ac;" horiz-adv-x="556" d="M26 263v46h67v34h-67v46h68q2 71 9 117t22 80.5t42.5 52.5t66 26.5t96.5 8.5q51 0 159 -13v-64q-134 11 -155 11q-102 0 -131.5 -41.5t-32.5 -177.5h244v-46h-244v-34h244v-46h-244q1 -38 3.5 -66.5t10 -51t14 -37t21.5 -24.5t27.5 -15.5t37.5 -8.5t44 -3.5t55 -0.5 q46 0 106 5v-54q-96 -16 -171 -16q-62 0 -98.5 8.5t-67 36t-44 82.5t-15.5 145h-67z" />
<glyph unicode="&#x2122;" horiz-adv-x="470" d="M49 633v38h144v-38h-52v-169h-38v169h-54zM234 464v207h41l46 -99l48 99h40v-207h-36v129l-55 -93l-46 92v-128h-38z" />
<glyph unicode="&#xe000;" horiz-adv-x="500" d="M0 0v500h500v-500h-500z" />
</font>
</defs>
</svg>
