<?xml version="1.0" standalone="no"?>
<!DOCTYPE svg PUBLIC "-//W3C//DTD SVG 1.1//EN" "http://www.w3.org/Graphics/SVG/1.1/DTD/svg11.dtd" >
<svg xmlns="http://www.w3.org/2000/svg">
<metadata></metadata>
<defs>
<font id="clio_c_ultrablackitultrablack" horiz-adv-x="600" >
<font-face units-per-em="1000" ascent="750" descent="-250" />
<missing-glyph horiz-adv-x="190" />
<glyph unicode="&#xfb01;" horiz-adv-x="656" d="M13 -179l4 64q34 7 48.5 34.5t19.5 77.5l43 405h-65l7 95h65q7 63 17.5 98t34 56t54.5 27t88 6q49 0 118 -11l-6 -84h-106q-27 0 -34.5 -13.5t-13.5 -78.5l368 2l-55 -499h-161l43 402h-201l-51 -440q-8 -75 -48.5 -112t-96.5 -37q-20 0 -72 8zM504 630q6 57 21 71.5 t74 14.5t72 -14t6 -72q-6 -55 -23 -72t-74 -17t-69.5 17t-6.5 72z" />
<glyph unicode="&#xfb02;" horiz-adv-x="668" d="M13 -178l4 64q34 7 48.5 34.5t19.5 77.5l43 405h-65l7 95h65q7 63 17.5 98t34 56t54.5 27t88 6q270 0 345 -13l-60 -543q-1 -11 -0.5 -20t10 -16t30.5 -11l-9 -81q-56 -9 -70 -9q-66 0 -98 33t-23 120l48 445h-167q-27 0 -34.5 -13.5t-13.5 -78.5h104l-8 -95h-102 l-51 -440q-8 -75 -48.5 -112t-96.5 -37q-20 0 -72 8z" />
<glyph unicode="&#xfb03;" horiz-adv-x="1017" d="M13 -185l4 64q34 7 48.5 34.5t19.5 77.5l43 405h-65l7 95h65q7 63 17.5 98t34 56t54.5 27t88 6q49 0 118 -11l-6 -84h-106q-27 0 -34.5 -13.5t-13.5 -78.5h212q7 63 18 98t34 56t54.5 27t88.5 6q49 0 118 -11l-7 -84h-106q-26 0 -33.5 -13.5t-13.5 -78.5l379 -1l-55 -490 h-161l43 389l1 7h-214l-50 -440q-9 -75 -49.5 -112t-95.5 -37q-21 0 -72 8l4 64q34 7 48.5 35t19.5 77l42 405h-211l-51 -440q-8 -75 -48.5 -112t-96.5 -37q-20 0 -72 8zM880 630q6 57 21.5 71.5t74.5 14.5q58 0 71 -14t6 -72q-6 -55 -23 -72t-73 -17q-58 0 -70.5 17 t-6.5 72z" />
<glyph unicode="&#xfb04;" horiz-adv-x="1021" d="M13 -185l4 64q34 7 48.5 34.5t19.5 77.5l43 405h-65l7 95h65q7 63 17.5 98t34 56t54.5 27t88 6q49 0 118 -11l-6 -84h-106q-27 0 -34.5 -13.5t-13.5 -78.5h212q7 63 18 98t34 56t54.5 27t88.5 6q236 0 339 -10l-60 -539q-1 -4 -1 -12q0 -14 8.5 -22.5t32.5 -12.5l-9 -81 q-56 -9 -70 -9q-59 0 -90.5 25.5t-31.5 92.5q0 22 2 35l46 424l2 14h-163q-26 0 -33.5 -13.5t-13.5 -78.5h103l-7 -95h-103l-50 -440q-9 -75 -49.5 -112t-95.5 -37q-21 0 -72 8l4 64q34 7 48.5 35t19.5 77l42 405h-211l-51 -440q-8 -75 -48.5 -112t-96.5 -37q-20 0 -72 8z " />
<glyph horiz-adv-x="1000" />
<glyph horiz-adv-x="1000" />
<glyph unicode="&#xd;" horiz-adv-x="1000" />
<glyph unicode=" "  horiz-adv-x="190" />
<glyph unicode="&#x09;" horiz-adv-x="190" />
<glyph unicode="&#xa0;" horiz-adv-x="190" />
<glyph unicode="!" horiz-adv-x="281" d="M67 80q7 53 22 67.5t70 14.5q56 0 69 -14t7 -68q-5 -53 -21.5 -68.5t-72.5 -15.5q-55 0 -67 15.5t-7 68.5zM86 205l54 464h159l-54 -464h-159z" />
<glyph unicode="&#x22;" horiz-adv-x="400" d="M86 419l57 230h142l-74 -230h-125zM247 419l67 230h145l-83 -230h-129z" />
<glyph unicode="#" horiz-adv-x="534" d="M57 125l10 89h94l8 76h-94l10 96h95l13 125h117l-13 -125h22l13 125h116l-13 -125h95l-11 -96h-95l-8 -76h95l-10 -89h-95l-15 -127h-116l15 127h-22l-14 -127h-117l14 127h-94zM278 214h22l8 76h-22z" />
<glyph unicode="$" horiz-adv-x="467" d="M50 12l13 113q98 -9 168 -9q38 0 42 27q1 12 -14.5 25t-40 25t-52.5 30.5t-51.5 39t-37 54.5t-9.5 74q7 68 47.5 107.5t104.5 48.5l12 106h122l-12 -105l121 -12l-11 -112q-75 7 -177 9q-17 1 -27.5 -7t-2.5 -25q5 -10 30 -25t54.5 -33t58.5 -42.5t46 -62.5t12 -83 q-7 -66 -48.5 -105.5t-105.5 -49.5l-11 -102h-122l12 102z" />
<glyph unicode="%" horiz-adv-x="705" d="M89 507q6 55 15 86.5t28.5 49t43.5 22.5t68 5q71 0 93.5 -33t11.5 -130q-10 -94 -39.5 -129.5t-107.5 -35.5q-52 0 -76.5 10.5t-34.5 46.5t-2 108zM124 0l420 667h98l-421 -667h-97zM198 491q-5 -35 -2.5 -46.5t17.5 -11.5q7 0 10 1.5t6.5 8.5t6 22t5.5 43q3 25 3.5 39 t-1 22.5t-5 11.5t-10.5 3q-13 0 -18 -14t-10 -62zM427 167q12 106 41.5 134.5t113.5 28.5q71 0 93.5 -33t12.5 -130q-11 -94 -40 -129t-106 -35q-52 0 -77 10.5t-35.5 46t-2.5 107.5zM537 151q-5 -35 -2.5 -46.5t18.5 -11.5q12 1 16.5 11.5t10.5 63.5q5 47 2.5 61.5 t-16.5 14.5q-12 0 -17 -13.5t-10 -62.5z" />
<glyph unicode="&#x26;" horiz-adv-x="514" d="M69 178q10 81 72 151q-49 44 -41 117l4 42q20 169 232 169q58 0 166 -17l-12 -104q-85 12 -164 12q-30 0 -42.5 -16t-17.5 -53l-3 -32q-8 -64 39 -64h29l5 44h154l-5 -44h40l-13 -113h-40l-28 -254q-122 -32 -178 -32q-111 0 -159 47t-38 147zM233 173q-5 -46 9 -63.5 t43 -17.5l14 3l20 175h-29q-23 0 -36 -14.5t-17 -49.5z" />
<glyph unicode="'" horiz-adv-x="228" d="M85 419l59 230h142l-75 -230h-126z" />
<glyph unicode="(" horiz-adv-x="297" d="M61 293q13 115 63 249t132 234l99 -87q-57 -96 -90 -202t-44 -194q-23 -237 47 -396l-115 -88q-60 105 -82 238.5t-10 245.5z" />
<glyph unicode=")" horiz-adv-x="297" d="M4 -103q106 170 130 396q25 212 -45 397l121 86q57 -102 77.5 -235t7.5 -248q-12 -114 -61.5 -246.5t-131.5 -235.5z" />
<glyph unicode="*" horiz-adv-x="439" d="M85 496l39 111l96 -40l12 112h119l-13 -112l101 39l18 -110l-106 -28l51 -92l-91 -77l-48 91l-70 -93l-79 79l70 90z" />
<glyph unicode="+" horiz-adv-x="490" d="M54 190l13 116h135l16 149h155l-16 -149h136l-12 -116h-136l-17 -157h-156l17 157h-135z" />
<glyph unicode="," horiz-adv-x="239" d="M36 -38q20 14 40 42q-16 8 -19.5 28.5t1.5 50.5q5 53 20 66.5t70 13.5q53 0 64 -13.5t6 -66.5q-11 -106 -144 -184z" />
<glyph unicode="-" horiz-adv-x="364" d="M72 206l15 141h271l-15 -141h-271z" />
<glyph unicode="." horiz-adv-x="240" d="M52 81q6 53 21 67t71 14q55 0 67.5 -13.5t6.5 -67.5q-5 -53 -21 -69t-71 -16t-67 15.5t-7 69.5z" />
<glyph unicode="/" horiz-adv-x="408" d="M10 -102l294 757h162l-296 -757h-160z" />
<glyph unicode="0" horiz-adv-x="519" d="M85 273q18 169 62 223.5t172 54.5q88 0 127.5 -24.5t48.5 -86.5t-5 -167q-10 -87 -22 -137t-38.5 -85t-66.5 -47.5t-107 -12.5q-89 0 -128.5 25t-48.5 87.5t6 169.5zM242 273q-6 -59 -8 -89.5t1 -52t11 -27.5t25 -6q31 0 42.5 31t23.5 144q7 60 9 91t-1 51.5t-11 26 t-25 5.5q-32 0 -43.5 -31t-23.5 -143z" />
<glyph unicode="1" horiz-adv-x="346" d="M65 418l10 123l265 -1l-58 -540h-162l48 418h-103z" />
<glyph unicode="2" horiz-adv-x="454" d="M58 4l12 87q37 48 84 106t70 87t41.5 58.5t20.5 48.5q4 36 -23 36q-25 0 -80 -0.5t-86 -0.5l12 109l156 4q47 1 80 -4t60 -20.5t38 -46.5t6 -78q-4 -38 -28.5 -76t-78 -100t-78.5 -94h151l-13 -116h-344z" />
<glyph unicode="3" horiz-adv-x="466" d="M29 -114l11 109q22 0 68.5 -1t69.5 -1q39 0 58.5 15t23.5 52l4 31q7 64 -36 64h-127l11 111h127q43 0 51 61l4 46q4 31 -17.5 42.5t-50.5 11.5l-138 -2l12 109l158 3q41 0 68 -2.5t56 -12t45 -27t24 -49t3 -75.5l-5 -46q-6 -67 -62 -112q42 -56 37 -121l-5 -36 q-10 -97 -65 -134.5t-174 -37.5h-37q-15 0 -56 1t-58 1z" />
<glyph unicode="4" horiz-adv-x="567" d="M25 78l10 86l262 375h227l-39 -344h81l-13 -117h-81l-20 -185h-159l21 185h-289zM213 195h112l27 204z" />
<glyph unicode="5" horiz-adv-x="463" d="M42 -115l13 107h129q46 0 63.5 14t21.5 56l4 34q4 39 -5 52t-35 13h-158l42 378h339l-13 -118h-182l-16 -149q97 -1 119 -6q54 -13 66 -67q8 -37 1 -101l-5 -49q-11 -92 -73.5 -128.5t-186.5 -36.5z" />
<glyph unicode="6" horiz-adv-x="521" d="M77 168q37 320 40 320q18 88 72 128t166 40q82 0 165 -12l-12 -112q-69 6 -166 6q-42 -1 -53 -23t-20 -104q-1 -6 -1.5 -10t-1 -10.5t-1.5 -11.5q48 8 55 8q112 0 151 -41.5t29 -128.5l-4 -42q-22 -186 -229 -186q-108 0 -153.5 46.5t-36.5 132.5zM242 166 q-4 -34 6 -47.5t32 -13.5q14 0 23 5.5t14.5 18.5t7.5 21.5t4.5 28.5t3.5 26q5 33 0 56t-25 23q-23 0 -53 -6z" />
<glyph unicode="7" horiz-adv-x="422" d="M52 418l12 119h393l-177 -646h-162l148 527h-214z" />
<glyph unicode="8" horiz-adv-x="524" d="M66 166l3 36q9 75 71 124q-46 46 -37 117l3 37q11 99 67.5 135.5t152.5 38.5q38 0 66 -3.5t55.5 -14t44 -29t24.5 -50.5t3 -76l-4 -37q-8 -69 -63 -117q52 -49 43 -124l-4 -36q-18 -177 -225 -177q-115 0 -163.5 39t-36.5 137zM229 167q-8 -63 36 -63h12q43 0 51 64l3 32 q4 40 -5 53.5t-32 13.5h-12q-22 0 -33.5 -16t-16.5 -52zM259 445q-7 -63 36 -63h13q43 0 50 64l4 32q4 39 -5 52.5t-32 13.5h-13q-42 0 -49 -67z" />
<glyph unicode="9" horiz-adv-x="504" d="M44 -116l13 112q69 -6 165 -6q42 0 53.5 22t19.5 97q2 26 4 40q-51 -8 -55 -8q-112 0 -151 41.5t-29 128.5l4 42q20 186 229 186q109 0 154 -46.5t36 -132.5q-37 -320 -41 -320q-17 -88 -70.5 -128t-165.5 -40q-84 0 -166 12zM235 355q-8 -43 -6 -77t27 -34q22 0 54 6 l12 112q8 61 -39 61q-22 0 -33 -16t-15 -52z" />
<glyph unicode=":" horiz-adv-x="268" d="M58 81q6 53 21 67t70 14t67.5 -13.5t6.5 -67.5q-6 -53 -21 -69t-71 -16q-55 0 -67 15.5t-6 69.5zM88 356q6 53 21 67t71 14q55 0 67.5 -14t6.5 -67q-5 -54 -21 -70t-71 -16t-67 15.5t-7 70.5z" />
<glyph unicode=";" horiz-adv-x="273" d="M44 -38q20 14 40 42q-16 8 -19.5 28.5t1.5 50.5q5 53 20 66.5t70 13.5q53 0 64 -13.5t6 -66.5q-11 -106 -144 -184zM94 356q7 53 22 67t70 14t67.5 -14t6.5 -67q-5 -54 -20.5 -70t-71.5 -16q-55 0 -67 16t-7 70z" />
<glyph unicode="&#x3c;" horiz-adv-x="521" d="M53 208l8 74l460 191l-15 -133l-244 -95l222 -96l-14 -132z" />
<glyph unicode="=" horiz-adv-x="509" d="M69 116l13 117h398l-13 -117h-398zM85 261l13 115h398l-13 -115h-398z" />
<glyph unicode="&#x3e;" horiz-adv-x="525" d="M56 16l15 133l241 96l-221 94l15 134l418 -192l-8 -74z" />
<glyph unicode="?" horiz-adv-x="461" d="M81 78q5 52 20.5 66.5t68.5 14.5t65.5 -14t6.5 -67q-5 -51 -21 -66.5t-69 -15.5t-64.5 15t-6.5 67zM97 573l12 109h135q47 0 75.5 -2t64 -11t54 -26t29 -49.5t5.5 -79.5l-2 -23q-21 -176 -204 -176l-12 -115h-156l25 230h131q43 0 50 62l2 16q3 24 0 38t-15 19.5 t-21.5 6.5t-33.5 1h-139z" />
<glyph unicode="@" horiz-adv-x="649" d="M80 288q9 78 19.5 129t32.5 97.5t56 72t87 40.5t128 15q158 0 208.5 -65.5t32.5 -224.5q-14 -134 -54 -187t-111 -53q-30 0 -54.5 17t-34.5 42q-36 -32 -80 -34q-51 -2 -72 37t-11 121q11 103 41.5 150t110.5 47q42 0 123 -16l-35 -264q-3 -15 4 -23t16 -8q24 0 38 41 t19 91q11 88 6.5 141.5t-39 76.5t-113.5 23q-51 0 -85.5 -9.5t-57.5 -27t-37.5 -53.5t-22.5 -77.5t-16 -110.5q-11 -104 26 -145t131 -41h94q-2 -15 -5.5 -44.5t-4.5 -44.5h-113q-136 0 -189.5 67t-37.5 220zM319 308q-9 -71 -2 -85q12 -23 65 3l27 182q-18 2 -39 2 q-23 0 -34 -22.5t-17 -79.5z" />
<glyph unicode="A" d="M1 0l241 667h246l101 -667h-158l-25 177h-186l-58 -177h-161zM267 302h121l-34 246z" />
<glyph unicode="B" horiz-adv-x="555" d="M64 0l74 668h191q45 0 76 -2.5t64.5 -13t52 -28.5t28.5 -51.5t5 -79.5l-4 -43q-8 -66 -63 -111q20 -26 29.5 -61t7.5 -64l-5 -40q-11 -100 -71.5 -137t-192.5 -37h-192zM239 110h32q40 0 60.5 16t24.5 55l4 34q3 32 -7 43.5t-31 11.5h-65zM271 398h65q45 0 50 55l4 32 q5 46 -11 59t-59 13h-31z" />
<glyph unicode="C" horiz-adv-x="547" d="M77 303q9 77 17.5 128t23.5 96.5t34.5 72t49.5 46t69 27t93 7.5q113 3 212 -12l-12 -103q-139 8 -205 3q-56 -5 -71 -42t-30 -181q-3 -30 -5 -46l-3 -25q-4 -54 -4 -87.5t13.5 -52t31 -24.5t48.5 -6q91 0 174 7l-10 -96q-110 -23 -193 -23q-37 0 -63.5 2t-53 7.5 t-44.5 15.5t-34 26t-25 39.5t-14.5 55t-5 72.5t6.5 93z" />
<glyph unicode="D" horiz-adv-x="606" d="M64 0l74 671l247 -2q39 0 68 -4t54.5 -13t42 -26t29 -42t17 -61t3.5 -83t-7 -109q-15 -136 -45.5 -207t-82 -97.5t-143.5 -26.5h-257zM242 115l79 -1q56 1 71.5 38.5t29.5 171.5q1 5 1 7q14 100 10 151t-16.5 64.5t-45.5 13.5h-80z" />
<glyph unicode="E" horiz-adv-x="535" d="M64 0l74 668h424l-14 -120h-260l-16 -148h238l-13 -121h-239l-18 -160h260l-12 -119h-424z" />
<glyph unicode="F" horiz-adv-x="519" d="M64 0l73 667h428l-12 -118h-263l-17 -151h225l-13 -119h-225l-31 -279h-165z" />
<glyph unicode="G" horiz-adv-x="553" d="M78 302q9 77 17.5 128t23.5 96.5t34.5 72t49.5 46t69 27t93 7.5q113 3 212 -12l-12 -105q-60 5 -205 5q-54 0 -70 -43t-34 -207q-1 -12 -2 -19l-3 -25q-4 -54 -3.5 -87.5t13.5 -52t30.5 -24.5t48.5 -6h18l15 130h-80l12 104h242l-35 -321q-86 -25 -202 -25q-37 0 -63.5 2 t-53 7.5t-44 15.5t-34 26t-25 39.5t-14 55t-5 72.5t6.5 93z" />
<glyph unicode="H" horiz-adv-x="620" d="M64 0l74 668h166l-30 -269h157l31 269h166l-74 -668h-166l30 283h-157l-31 -283h-166z" />
<glyph unicode="I" horiz-adv-x="292" d="M64 0l73 667h165l-73 -667h-165z" />
<glyph unicode="J" horiz-adv-x="337" d="M23 -9l12 107q55 0 83.5 8.5t31.5 37.5l59 524h160l-59 -527q-10 -92 -54.5 -124.5t-138.5 -28.5z" />
<glyph unicode="K" horiz-adv-x="591" d="M64 0l74 668h164l-30 -272h20l175 272h177l-212 -323l146 -345h-175l-121 281h-23l-30 -281h-165z" />
<glyph unicode="L" horiz-adv-x="497" d="M64 0l73 667h165l-60 -548h247l-13 -119h-412z" />
<glyph unicode="M" horiz-adv-x="826" d="M64 0l74 668h205l98 -336l175 336h217l-73 -668h-158l49 443l-174 -345h-120l-91 343l-48 -441h-154z" />
<glyph unicode="N" horiz-adv-x="670" d="M66 0l73 668h194l144 -406l44 406h158l-74 -668h-177l-169 445l-48 -445h-145z" />
<glyph unicode="O" horiz-adv-x="603" d="M89 333q9 75 17.5 123t23 89.5t33 64.5t49 39.5t68.5 22t94 5.5q113 0 160.5 -28t59 -104.5t-7.5 -211.5q-10 -90 -21 -143.5t-30 -96.5t-50 -63t-75 -30t-112 -10q-111 0 -158.5 28.5t-58.5 105t8 209.5zM252 333q-6 -53 -8.5 -82.5t-3 -59.5t3 -43.5t12 -25t21.5 -15 t33 -3.5q60 0 78.5 39.5t35.5 189.5q6 54 8.5 85t2.5 61t-3.5 43.5t-13 24.5t-22.5 14t-34 3q-58 0 -75.5 -40t-34.5 -191z" />
<glyph unicode="P" horiz-adv-x="571" d="M64 0l73 667h245q106 0 162.5 -38.5t45.5 -135.5l-8 -75q-8 -68 -58.5 -114.5t-120.5 -58.5q-21 -4 -147 -4l-26 -241h-166zM269 357h77q32 0 50.5 12t22.5 49l8 74q5 38 -11 50.5t-47 12.5h-77z" />
<glyph unicode="Q" horiz-adv-x="598" d="M83 333q8 75 16.5 123t23.5 89.5t33.5 64.5t49 39.5t69.5 22t95 5.5q112 0 159.5 -28t58.5 -104.5t-8 -211.5q-15 -140 -37.5 -209t-70.5 -101l38 -19l-60 -121l-212 109q-84 7 -121 40t-43.5 106.5t9.5 194.5zM246 333q-6 -54 -8.5 -83t-3 -59.5t3 -43.5t12 -25t22 -15 t34.5 -3q59 0 77 39t35 190q4 41 6.5 66t4 52t1 41t-3.5 29t-8.5 21.5t-14 12.5t-19.5 7.5t-27 1.5q-60 0 -77 -40t-34 -191z" />
<glyph unicode="R" horiz-adv-x="586" d="M64 0l73 667h247q105 0 161.5 -38.5t46.5 -135.5l-8 -75q-7 -72 -75 -129l17 -289h-169l-11 241h-90l-26 -241h-166zM269 357h77q31 0 49.5 12t22.5 49l9 74q5 38 -11.5 50.5t-46.5 12.5h-77z" />
<glyph unicode="S" horiz-adv-x="535" d="M64 1l12 115q140 -8 217 -8q41 0 47 58q3 26 -24 51.5t-67 50.5t-80 54t-65 73t-19 97q11 95 70.5 141.5t151.5 46.5q119 0 223 -9l-13 -116q-147 8 -216 8q-43 0 -47 -47q-2 -19 25.5 -42t67.5 -49t79 -58t63.5 -81t18.5 -107q-11 -94 -71.5 -141.5t-150.5 -47.5 q-53 0 -222 11z" />
<glyph unicode="T" horiz-adv-x="544" d="M75 549l12 118h503l-12 -118h-169l-60 -549h-167l60 549h-167z" />
<glyph unicode="U" horiz-adv-x="625" d="M94 333l37 336h166l-38 -336q-6 -53 -8.5 -82.5t-3 -59.5t3 -43.5t12.5 -25t22 -15t34 -3.5q60 0 78.5 39.5t35.5 189.5l38 336h163q0 -9 -18 -169.5t-18 -166.5q-8 -75 -16.5 -123t-23.5 -89.5t-33.5 -64t-50 -39t-71 -22t-97.5 -5.5q-113 0 -161 28.5t-59 105t8 209.5z " />
<glyph unicode="V" horiz-adv-x="601" d="M76 667h161l77 -548l192 548h163l-235 -667h-265z" />
<glyph unicode="W" horiz-adv-x="855" d="M85 0l13 667h158l-19 -547l172 547h185l21 -547l119 547h159l-148 -667h-280l-5 403l-115 -403h-260z" />
<glyph unicode="X" horiz-adv-x="564" d="M12 0l221 337l-142 330h174l74 -171l114 171h174l-214 -328l149 -339h-175l-81 186l-119 -186h-175z" />
<glyph unicode="Y" horiz-adv-x="555" d="M68 668h179l65 -279l131 279h179l-248 -476l-20 -192h-168l21 192z" />
<glyph unicode="Z" horiz-adv-x="551" d="M31 0l9 96l332 453h-275l14 120h465l-12 -100l-325 -451h283l-13 -118h-478z" />
<glyph unicode="[" horiz-adv-x="319" d="M39 -127l100 911h245l-12 -110h-88l-75 -687h87l-13 -114h-244z" />
<glyph unicode="\" horiz-adv-x="403" d="M94 654h162l126 -756h-160z" />
<glyph unicode="]" horiz-adv-x="314" d="M2 -127l12 114h87l75 687h-86l13 110h245l-101 -911h-245z" />
<glyph unicode="^" horiz-adv-x="461" d="M68 361l174 303h138l104 -303h-152l-39 146l-71 -146h-154z" />
<glyph unicode="_" horiz-adv-x="541" d="M39 -92l10 92h446l-11 -92h-445z" />
<glyph unicode="`" horiz-adv-x="318" d="M130 723l106 57l77 -191l-103 -57z" />
<glyph unicode="a" horiz-adv-x="486" d="M54 165q0 50 6 117q12 119 55.5 172.5t132.5 53.5q32 0 102 -10.5t132 -28.5l-48 -472h-124l-1 49q-18 -24 -50.5 -39.5t-66.5 -15.5q-42 0 -70.5 13.5t-42.5 39.5t-19.5 54.5t-5.5 66.5zM208 169q0 -36 6.5 -53.5t20 -17.5t27.5 7.5t36 25.5l33 279q-41 6 -62 3 q-42 -6 -56 -149q-5 -75 -5 -95z" />
<glyph unicode="b" horiz-adv-x="495" d="M56 10l74 668h157l-22 -192q120 45 176.5 -7.5t40.5 -195.5q-7 -68 -15 -109t-23.5 -80t-40 -59t-62.5 -31.5t-94 -11.5q-70 0 -191 18zM224 105h32q32 0 44 36t22 133q8 62 4.5 85t-27.5 23q-16 0 -45 -10z" />
<glyph unicode="c" horiz-adv-x="478" d="M68 227q8 70 16 112t22.5 78.5t37 54.5t55.5 28t82 10q116 -5 201 -20l-11 -107q-163 13 -173 13q-35 0 -46 -30t-23 -142q-8 -71 7 -95t54 -24q51 0 155 9l-10 -96q-105 -27 -192 -27q-28 0 -48.5 1.5t-41 5.5t-33.5 12t-25 20t-18.5 29.5t-10.5 41.5t-3 55t5 71z" />
<glyph unicode="d" horiz-adv-x="490" d="M71 256l3 26q16 145 83.5 198.5t172.5 1.5l22 195h158l-74 -677h-134l-2 41q-8 -13 -34.5 -30t-63.5 -17q-84 0 -115.5 62t-15.5 200zM234 279q-13 -119 -5.5 -138.5t63.5 -2.5l27 242q-18 6 -36 6q-13 0 -22.5 -9.5t-14.5 -28t-7.5 -32.5t-4.5 -37z" />
<glyph unicode="e" horiz-adv-x="490" d="M59 148q0 44 7 103q16 155 60.5 208t173.5 53q107 0 148.5 -34.5t41.5 -119.5q0 -18 -1 -31t-9.5 -37.5t-23.5 -40t-47 -28t-77 -12.5l-121 -1q-2 -17 -2 -48q0 -26 4 -42t13.5 -22.5t17 -8t22.5 -1.5q86 0 171 12l-6 -87q-89 -20 -198 -20q-96 0 -135 36t-39 121z M222 302h103q4 0 7 1t5 3l4 4t3 5.5t1.5 6t0.5 7.5v7.5v7.5v7q0 41 -11.5 54.5t-40.5 13.5q-37 0 -50.5 -25t-21.5 -92z" />
<glyph unicode="f" horiz-adv-x="382" d="M13 -185l4 64q34 7 48.5 34.5t19.5 77.5l43 405h-65l7 95h65q7 63 17.5 98t34 56t54.5 27t88 6q49 0 118 -11l-6 -84h-106q-27 0 -34.5 -13.5t-13.5 -78.5h104l-8 -95h-102l-51 -440q-8 -75 -48.5 -112t-96.5 -37q-20 0 -72 8z" />
<glyph unicode="g" horiz-adv-x="475" d="M58 -161q0 3 13.5 47t14.5 46q96 -20 152 -20q14 0 23.5 8t15 25.5t7.5 29t4.5 36.5t3.5 29h-5h-33.5t-32 1t-34 3.5t-30.5 7t-30 11.5t-23.5 18t-20 25t-11.5 33.5t-5 43.5q0 138 36 234q25 63 69 81t141 18q72 0 171 -19l-55 -536q-16 -146 -186 -146q-90 0 -185 24z M215 195q0 -39 13.5 -50.5t49.5 -11.5q7 0 13 1h6l34 285q-41 5 -60 -2.5t-30 -32.5q-12 -27 -19 -85t-7 -104z" />
<glyph unicode="h" horiz-adv-x="514" d="M56 0l74 670h158l-21 -189q49 26 106 27q142 0 127 -134l-40 -374h-159l38 355q2 18 -5 27.5t-20.5 9t-27.5 -5t-30 -12.5l-41 -374h-159z" />
<glyph unicode="i" horiz-adv-x="273" d="M54 0l55 499h161l-55 -499h-161zM119 630q6 57 21 71.5t74 14.5t72 -14t6 -72q-7 -56 -23.5 -72.5t-73.5 -16.5t-69.5 17t-6.5 72z" />
<glyph unicode="j" horiz-adv-x="268" d="M-17 -168l9 80q30 5 40.5 17t13.5 32l59 539h161l-58 -525q-10 -88 -48 -119.5t-104 -31.5q-16 0 -73 8zM115 630q6 57 21 71.5t74 14.5q58 0 71.5 -14t6.5 -72q-6 -55 -23.5 -72t-73.5 -17q-57 0 -69.5 17t-6.5 72z" />
<glyph unicode="k" horiz-adv-x="557" d="M56 0l74 669h157l-36 -326h40l131 225h164l-168 -283l128 -285h-166l-103 230h-39l-25 -230h-157z" />
<glyph unicode="l" horiz-adv-x="281" d="M70 145l59 523h161l-61 -539q-1 -14 0 -20.5t10.5 -14.5t30.5 -12l-9 -81q-57 -9 -70 -9q-66 0 -98 33t-23 120z" />
<glyph unicode="m" horiz-adv-x="752" d="M56 0l55 499h135l8 -37q1 1 9.5 6.5t12 7t12.5 7t14.5 8t15.5 6t17.5 5.5t17.5 3.5t19 1.5q50 0 99 -47q5 2 35 17.5t53 22.5t50 7q144 0 130 -132l-42 -375h-161l38 350q2 19 -3 29t-15 10t-23 -3.5t-27 -8.5q-5 -2 -7 -3q-6 -63 -19.5 -191.5t-19.5 -182.5h-161l38 357 q2 16 -5 23t-19.5 5t-24.5 -5.5t-24 -8.5q-5 -2 -7 -3l-40 -368h-161z" />
<glyph unicode="n" horiz-adv-x="514" d="M56 0l55 499h135l10 -35q1 1 14 9t21 12.5t22.5 11t29 9.5t29.5 3q60 0 98.5 -31.5t30.5 -97.5l-41 -380h-160l38 356q2 18 -5.5 25.5t-21 5.5t-27 -7t-27.5 -13l-40 -367h-161z" />
<glyph unicode="o" horiz-adv-x="509" d="M72 250q9 82 21 128t39 77.5t68 42.5t110 11q91 0 132.5 -22.5t52 -80t-3.5 -156.5q-8 -80 -20.5 -126t-39 -78t-68.5 -43.5t-111 -11.5q-91 0 -132 22.5t-51.5 80.5t3.5 156zM229 250q-11 -94 -5.5 -123t41.5 -29t48.5 27.5t23.5 124.5q11 98 4.5 126.5t-43.5 28.5 q-36 0 -46.5 -27t-22.5 -128z" />
<glyph unicode="p" horiz-adv-x="492" d="M36 -175l75 677h133l3 -41q3 6 14 16t34 20.5t49 10.5q84 0 115 -62t16 -200l-3 -26q-16 -145 -83.5 -198.5t-172.5 -1.5l-22 -195h-158zM227 122q18 -6 37 -6q13 0 22 9t14 28t7 32t5 38q13 119 5 138t-63 3z" />
<glyph unicode="q" horiz-adv-x="495" d="M66 220q7 68 15 109t23.5 80t40 59t62.5 31.5t94 11.5q70 0 191 -18l-74 -668h-157l22 192q-120 -45 -176.5 7.5t-40.5 195.5zM226 229q-9 -62 -5.5 -85t27.5 -23q17 0 46 10l29 267h-32q-17 0 -27.5 -9t-18 -34.5t-11 -50t-8.5 -75.5z" />
<glyph unicode="r" horiz-adv-x="372" d="M56 0l55 500h140l6 -40q2 1 14.5 9t21 12t25 11t38.5 12t48 8l-13 -116q-18 -1 -39 -7t-34 -11.5t-34.5 -15t-27.5 -11.5l-39 -351h-161z" />
<glyph unicode="s" horiz-adv-x="449" d="M55 11l12 104q91 -8 158 -8q36 0 40 25q1 13 -20 27t-51.5 30t-61 37t-49 56t-13.5 79q8 74 58 111t128 37q40 0 86.5 -3.5t73.5 -7.5l27 -3l-11 -103q-71 6 -166 8q-17 1 -26.5 -6.5t-2.5 -23.5q5 -9 28.5 -23t51.5 -30.5t55.5 -39t43.5 -57.5t11 -77q-7 -72 -58.5 -109 t-127.5 -37q-39 0 -85.5 3.5t-73.5 7.5z" />
<glyph unicode="t" horiz-adv-x="396" d="M59 392q11 83 14 108h93q2 18 7 57t7 57h157l-13 -114h96q-2 -19 -6.5 -54.5t-5.5 -53.5h-97l-25 -225q-4 -43 11.5 -56t56.5 -13q5 0 15 0.5t16 0.5q-2 -16 -5 -48.5t-5 -48.5q-49 -11 -84 -11q-94 0 -129 30.5t-35 95.5q0 26 3 56l24 219h-95z" />
<glyph unicode="u" horiz-adv-x="514" d="M66 119l42 380h160l-39 -353q-2 -18 5.5 -25.5t21.5 -5.5t27.5 7t26.5 13l41 364h161l-55 -499h-135l-11 35q-1 -1 -14 -9t-21 -12.5t-22.5 -11t-29 -9.5t-29.5 -3q-60 0 -98.5 31.5t-30.5 97.5z" />
<glyph unicode="v" horiz-adv-x="497" d="M64 500h165l29 -389l116 389h163l-164 -500h-254z" />
<glyph unicode="w" horiz-adv-x="699" d="M74 500h155l-3 -366l117 366h112l40 -364l73 364h156l-115 -500h-209l-30 239l-81 -239h-205z" />
<glyph unicode="x" horiz-adv-x="461" d="M18 0l162 248l-104 251h164l41 -112l58 112h165l-157 -251l106 -248h-161l-43 103l-65 -103h-166z" />
<glyph unicode="y" horiz-adv-x="504" d="M72 500h161l12 -391l154 391h160l-238 -579q-45 -110 -146 -110q-53 0 -100 39l31 70q3 -1 11 -4t10 -4t6.5 -2.5t5.5 -1.5q16 -4 22 3q6 6 44 79l5 10h-102z" />
<glyph unicode="z" horiz-adv-x="429" d="M32 0l9 84l207 304h-170l13 113h359l-10 -86l-207 -302h177l-11 -113h-367z" />
<glyph unicode="{" horiz-adv-x="338" d="M41 300l7 58q37 26 52.5 49t19.5 63l18 164q8 79 48 114.5t147 35.5h69l-12 -109h-70q-9 0 -13.5 -5t-5.5 -11.5t-3 -24.5l-18 -164q-9 -82 -67 -142q45 -53 36 -138l-18 -163q-3 -25 -1 -33.5t15 -8.5h69l-13 -112h-69q-106 0 -138 38t-23 116l18 163q4 40 -6 62t-42 48 z" />
<glyph unicode="|" horiz-adv-x="237" d="M32 -183l104 937h138l-103 -937h-139z" />
<glyph unicode="}" horiz-adv-x="353" d="M1 -127l12 112h70q13 0 17 8t6 34l18 163q9 86 67 140q-45 61 -36 140l18 164q3 22 0.5 31.5t-15.5 9.5h-69l13 109h69q108 0 140 -35.5t23 -114.5l-18 -164q-4 -41 5.5 -63.5t39.5 -49.5l-6 -55q-36 -27 -50.5 -49.5t-19.5 -62.5l-18 -163q-9 -79 -49.5 -116.5 t-147.5 -37.5h-69z" />
<glyph unicode="~" horiz-adv-x="478" d="M72 268q77 69 130 69q30 0 68 -8t50 -8q22 0 52 11.5t48 29.5l48 -84q-27 -39 -73 -59.5t-82 -20.5q-25 0 -55 14.5t-45 14.5q-40 0 -91 -50z" />
<glyph unicode="&#xa1;" horiz-adv-x="261" d="M27 -217l60 543h159l-61 -543h-158zM100 442q5 52 20.5 67.5t68.5 15.5q52 0 64.5 -16t7.5 -67q-6 -53 -21.5 -66t-68.5 -13t-64.5 13.5t-6.5 65.5z" />
<glyph unicode="&#xa2;" horiz-adv-x="493" d="M81 296q7 63 14.5 103t20 75.5t31 55.5t45 32t65.5 16l9 75h139l-9 -79q26 -2 98 -15l-12 -108q-138 13 -171 13q-35 0 -46 -29.5t-24 -141.5q-8 -75 9.5 -97t63.5 -22q51 0 143 9l-11 -96q-67 -17 -107 -22l-8 -74h-138l8 71q-52 6 -80 26.5t-39 70.5t-1 137z" />
<glyph unicode="&#xa3;" horiz-adv-x="481" d="M32 0l12 106q36 2 49 17.5t18 61.5l12 112h-49l11 99h49l5 42q13 120 56.5 169.5t145.5 49.5q86 0 160 -22l-10 -91q0 1 -26 2.5t-57.5 3.5t-43.5 2q-37 0 -46.5 -14.5t-15.5 -72.5l-8 -69h156l-11 -99h-156l-15 -138q-4 -34 -8 -47h188l-12 -112h-404z" />
<glyph unicode="&#xa4;" horiz-adv-x="528" d="M64 164l58 59q-9 34 -1 100q5 62 26 109l-48 61l102 101l65 -82q53 9 105 0l90 87l79 -105l-64 -64q10 -37 4 -103q-8 -67 -26 -103l47 -63l-100 -96l-64 77q-69 -4 -106 2l-92 -86zM276 327q-5 -43 -2 -59.5t17 -16.5t20.5 16t11.5 60q2 25 3 39t-0.5 24t-5.5 13.5 t-12 3.5q-14 0 -20.5 -16.5t-11.5 -63.5z" />
<glyph unicode="&#xa5;" horiz-adv-x="560" d="M94 668h162l77 -220l126 220h162l-211 -364h97l-12 -108h-377l12 108h92zM105 68l12 107h377l-12 -107h-112l-7 -68h-158l7 68h-107z" />
<glyph unicode="&#xa6;" horiz-adv-x="249" d="M34 -183l47 426h148l-47 -426h-148zM91 327l47 427h147l-47 -427h-147z" />
<glyph unicode="&#xa7;" horiz-adv-x="492" d="M42 -101l12 104q92 -8 158 -8q36 0 40 25q1 13 -20 27t-51.5 30t-60.5 37t-48.5 56t-13.5 79q10 94 90 130q-29 40 -23 96q8 74 58 111t127 37q40 0 87 -3.5t74 -7.5l27 -3l-11 -103q-71 6 -166 8q-17 1 -26.5 -6.5t-2.5 -23.5q4 -9 28 -23t52 -30.5t55.5 -39t43.5 -57.5 t11 -77q-10 -92 -91 -128q30 -43 24 -98q-8 -72 -59 -109t-127 -37q-40 0 -86.5 3.5t-73.5 7.5zM224 258q7 -13 53 -37h3q37 0 39 25q1 10 -9.5 19.5t-33.5 21.5q-4 0 -11.5 0.5t-10.5 0.5q-17 1 -27 -6.5t-3 -23.5z" />
<glyph unicode="&#xa8;" horiz-adv-x="408" d="M122 625q6 47 19 59.5t61 12.5q47 0 58.5 -12.5t6.5 -59.5q-5 -45 -19.5 -59t-61.5 -14t-58 13.5t-6 59.5zM291 625q5 47 18 59.5t61 12.5t59.5 -12.5t6.5 -59.5q-5 -46 -19 -59.5t-63 -13.5q-47 0 -57.5 13.5t-5.5 59.5z" />
<glyph unicode="&#xa9;" horiz-adv-x="706" d="M72 325q16 143 114 240t238 97t217.5 -97t62.5 -240q-15 -140 -115 -237t-240 -97q-139 0 -215.5 96.5t-61.5 237.5zM169 325q-11 -104 43.5 -175.5t148.5 -71.5q96 0 167.5 71.5t82.5 175.5q11 105 -44 177t-151 72q-94 0 -165 -72t-82 -177zM255 309q12 108 37 145 t100 37q74 -3 129 -12l-7 -69q-98 7 -111 7q-22 0 -29.5 -19.5t-15.5 -90.5q-5 -46 5 -61.5t35 -15.5q38 0 100 6l-7 -62q-66 -17 -123 -17q-30 0 -48 3t-35 11.5t-22.5 25t-10 44.5t2.5 68z" />
<glyph unicode="&#xaa;" horiz-adv-x="327" d="M85 463q10 89 99 89q18 0 27 -1l29 -3l4 38q1 9 -1 11.5t-9 2.5q-40 0 -103 -7q0 13 -0.5 35t-0.5 35q70 13 117 13q57 0 79 -19t16 -74l-24 -222h-86l-5 21q-26 -24 -61 -24q-94 0 -81 105zM183 464q-2 -24 11 -24q18 0 35 7l4 35h-10q-39 0 -40 -18z" />
<glyph unicode="&#xab;" horiz-adv-x="524" d="M58 257l163 233l107 -83l-105 -150l72 -149l-125 -83zM267 257l163 230l108 -80l-104 -150l72 -148l-126 -81z" />
<glyph unicode="&#xac;" horiz-adv-x="544" d="M76 184l13 116h426l-28 -258h-149l16 142h-278z" />
<glyph unicode="&#xad;" horiz-adv-x="652" d="M180 214l13 118h274l-13 -118h-274z" />
<glyph unicode="&#xae;" horiz-adv-x="443" d="M93 483q8 82 65 138t138 56q80 0 124 -56t35 -138q-8 -82 -65 -137.5t-137 -55.5q-81 0 -125 55t-35 138zM138 482q-7 -63 28.5 -107.5t90.5 -44.5t101.5 44.5t53.5 107.5q7 62 -29.5 107t-91.5 45q-56 0 -101 -44.5t-52 -107.5zM196 381l22 195h76q30 0 46.5 -11.5 t13.5 -40.5l-3 -21q-2 -17 -21 -38l5 -84h-49l-4 71h-29l-8 -71h-49zM256 487h27q18 0 20 16l3 21q1 10 -3 13.5t-14 3.5h-26z" />
<glyph unicode="&#xaf;" horiz-adv-x="371" d="M112 558l12 109h259l-11 -109h-260z" />
<glyph unicode="&#xb0;" horiz-adv-x="332" d="M89 507q7 62 48.5 104.5t101.5 42.5q61 0 93 -42.5t25 -104.5q-7 -63 -48 -105t-102 -42t-93 42t-25 105zM177 507q-5 -60 39 -60q22 0 36.5 16.5t17.5 43.5q7 59 -41 59q-45 0 -52 -59z" />
<glyph unicode="&#xb1;" horiz-adv-x="527" d="M48 0l11 113h431l-11 -113h-431zM82 313l12 115h139l16 149h158l-16 -149h135l-13 -115h-135l-17 -156h-158l17 156h-138z" />
<glyph unicode="&#xb2;" horiz-adv-x="407" d="M76 225l9 67q26 31 58 67t51 57t37 43t26.5 37t9.5 27q3 27 -20 27q-22 0 -69 -0.5t-73 -0.5l9 84l134 3q83 3 125 -21t35 -93q-4 -29 -25 -59t-66 -76.5t-66 -72.5h129l-10 -89h-294z" />
<glyph unicode="&#xb3;" horiz-adv-x="391" d="M76 212l7 69q16 0 49.5 0.5t51.5 0.5q54 0 60 44l2 21q4 42 -28 42h-92l8 74h92q32 0 37 40l3 30q3 20 -13.5 28t-37.5 8l-101 1l8 70l116 1q37 0 61 -3t47 -13t32 -33.5t5 -59.5l-3 -31q-5 -44 -45 -73q32 -39 28 -80l-3 -24q-7 -64 -46.5 -88.5t-127.5 -24.5h-28 q-11 0 -40 0.5t-42 0.5z" />
<glyph unicode="&#xb4;" horiz-adv-x="318" d="M136 589l119 191l93 -57l-121 -191z" />
<glyph unicode="&#xb5;" horiz-adv-x="507" d="M36 -175l75 674h160l-40 -371q-1 -6 2.5 -8t9.5 -2q9 0 71 16l41 366h160l-56 -501h-135q0 1 -1.5 8t-3.5 15.5t-2 9.5q-2 -6 -41 -23t-61 -18l-18 -166h-161z" />
<glyph unicode="&#xb6;" horiz-adv-x="554" d="M75 462q8 72 17 109t32 64.5t59.5 35.5t102.5 8h278l-95 -860h-98l83 747h-17l-82 -747h-128l52 469q-5 1 -15 1q-35 0 -55 0.5t-44 3t-36 7t-25.5 13t-19 21t-9.5 31t-3.5 42t3.5 55.5z" />
<glyph unicode="&#xb7;" horiz-adv-x="260" d="M83 308q6 53 22.5 68t70.5 15t66.5 -14.5t6.5 -68.5q-5 -52 -21.5 -68t-70.5 -16q-53 0 -66 16t-8 68z" />
<glyph unicode="&#xb8;" horiz-adv-x="328" d="M85 -221l17 64l60 -5q13 0 15 16q-6 11 -17 13l-50 4l29 129h100l-17 -72q34 -7 44 -24t7 -44q-6 -50 -31 -70t-70 -20q-26 0 -87 9z" />
<glyph unicode="&#xb9;" horiz-adv-x="268" d="M81 541l11 104h188l-48 -429h-120l36 325h-67z" />
<glyph unicode="&#xba;" horiz-adv-x="379" d="M112 512q12 106 41 134.5t113 28.5q71 0 94 -33t12 -130q-10 -94 -39.5 -129.5t-106.5 -35.5q-52 0 -77 10.5t-35 46.5t-2 108zM220 496q-4 -35 -1.5 -46.5t18.5 -11.5q12 0 16.5 11.5t10.5 63.5q3 25 3.5 39t-1 22.5t-5 11.5t-10.5 3q-13 0 -18.5 -14.5t-10.5 -61.5z " />
<glyph unicode="&#xbb;" horiz-adv-x="534" d="M48 107l105 148l-73 150l127 80l112 -230l-162 -229zM258 106l106 149l-73 150l126 83l111 -233l-163 -232z" />
<glyph unicode="&#xbc;" horiz-adv-x="477" d="M49 204l10 99h422l-10 -99h-422zM50 -130l8 65l167 243h160l-23 -216h45l-10 -92h-45l-14 -119h-100l13 119h-201zM195 -38h70l12 121zM202 656l11 104h188l-47 -429h-121l36 325h-67z" />
<glyph unicode="&#xbd;" horiz-adv-x="474" d="M44 199l11 98l422 1l-11 -99h-422zM76 -255l8 67q25 30 58 68t51.5 59t37 44.5t27 39t9.5 27.5q3 27 -20 27q-22 0 -69 -0.5t-73 -0.5l9 84l134 3q83 3 125 -21t35 -93q-4 -29 -23.5 -59t-69 -83t-65.5 -73h129l-10 -89h-293zM184 652l10 104h188l-47 -429h-121l36 325 h-66z" />
<glyph unicode="&#xbe;" horiz-adv-x="480" d="M47 205l11 98h422l-11 -98h-422zM50 -130l8 65l167 243h160l-23 -216h45l-10 -92h-45l-14 -119h-100l13 119h-201zM156 337l7 69q16 0 49.5 0.5t51.5 0.5q54 0 60 44l2 21q5 42 -27 42h-92l8 74h92q32 0 37 40l2 30q3 20 -13 28t-37 8l-101 1l7 70l117 1q37 0 61 -3 t47 -13t31.5 -33.5t4.5 -59.5l-3 -31q-5 -44 -45 -73q31 -37 29 -80l-3 -24q-7 -64 -46.5 -88.5t-127.5 -24.5h-28q-11 0 -40.5 0.5t-42.5 0.5zM195 -38h70l12 121z" />
<glyph unicode="&#xbf;" horiz-adv-x="435" d="M22 -20l2 23q19 177 202 177l12 116h156l-25 -230h-130q-43 0 -50 -63l-2 -15q-1 -10 -1.5 -18.5t1.5 -14.5t2.5 -11t5 -8.5t5.5 -6t8.5 -4t9 -2t12 -1t12.5 -0.5h14h140l-12 -109h-135q-47 0 -75.5 2t-64 11t-53.5 26t-28.5 49.5t-5.5 78.5zM250 423q6 51 22.5 67 t69.5 16t64 -15.5t5 -67.5q-5 -52 -20 -66.5t-68 -14.5t-65.5 14t-7.5 67z" />
<glyph unicode="&#xc0;" d="M1 0l241 667h246l101 -667h-158l-25 177h-186l-58 -177h-161zM267 302h121l-34 246zM279 923l106 57l77 -191l-104 -57z" />
<glyph unicode="&#xc1;" d="M1 0l241 667h246l101 -667h-158l-25 177h-186l-58 -177h-161zM267 302h121l-34 246zM292 789l119 191l94 -57l-123 -191z" />
<glyph unicode="&#xc2;" d="M1 0l241 667h246l101 -667h-158l-25 177h-186l-58 -177h-161zM217 825l184 149l151 -151l-80 -90l-89 93l-116 -92zM267 302h121l-34 246z" />
<glyph unicode="&#xc3;" d="M1 0l241 667h246l101 -667h-158l-25 177h-186l-58 -177h-161zM218 769q52 103 118 103q21 0 49.5 -18.5t35.5 -18.5q8 0 24 14.5t27 32.5l58 -55q-39 -81 -111 -90q-20 -2 -55.5 15.5t-36.5 17.5q-12 0 -42 -50q-14 9 -38 27.5t-29 21.5zM267 302h121l-34 246z" />
<glyph unicode="&#xc4;" d="M1 0l241 667h246l101 -667h-158l-25 177h-186l-58 -177h-161zM222 801q5 47 18.5 59.5t61.5 12.5q46 0 58 -12.5t7 -59.5q-5 -45 -19.5 -59t-61.5 -14q-48 0 -58.5 13.5t-5.5 59.5zM267 302h121l-34 246zM391 801q5 47 18 59.5t61 12.5t59 -12.5t6 -59.5 q-5 -46 -18.5 -59.5t-62.5 -13.5q-47 0 -57.5 13.5t-5.5 59.5z" />
<glyph unicode="&#xc5;" d="M1 0l241 667h246l101 -667h-158l-25 177h-186l-58 -177h-161zM267 302h121l-34 246zM285 829q6 45 35 74t76 29q48 0 70.5 -29t16.5 -74q-5 -46 -33.5 -75t-76.5 -29t-70.5 28t-17.5 76zM355 829q-5 -38 26 -38q29 0 34 38q5 37 -26 37t-34 -37z" />
<glyph unicode="&#xc6;" horiz-adv-x="779" d="M-2 0l235 667h568l-13 -118h-270l20 -150h212l-13 -121h-183l22 -162h169l-12 -115l-303 -1l-25 171h-185l-59 -171h-163zM266 302h121l-34 246z" />
<glyph unicode="&#xc7;" horiz-adv-x="543" d="M78 312q9 77 17.5 128t23.5 96.5t34.5 72t49.5 46t69 27t93 7.5q113 3 212 -12l-12 -105q-60 5 -205 5q-54 0 -70 -43t-34 -207q-1 -12 -2 -19l-3 -25q-4 -54 -3.5 -87.5t13.5 -52t30.5 -24.5t48.5 -6q90 0 174 7l-10 -96q-83 -17 -142 -21l-6 -22q34 -7 44.5 -24 t7.5 -44q-6 -50 -31 -70t-70 -20q-27 0 -87 9l17 64l59 -5q14 0 15 16v1v5t-4 4.5t-12 2.5l-51 4l17 78q-39 2 -66.5 8t-52 19.5t-38 35.5t-24 56t-9 81t6.5 110z" />
<glyph unicode="&#xc8;" horiz-adv-x="535" d="M64 0l74 668h424l-14 -120h-260l-16 -148h238l-13 -121h-239l-18 -160h260l-12 -119h-424zM265 923l106 57l76 -191l-103 -57z" />
<glyph unicode="&#xc9;" horiz-adv-x="535" d="M64 0l74 668h424l-14 -120h-260l-16 -148h238l-13 -121h-239l-18 -160h260l-12 -119h-424zM272 789l119 191l94 -57l-122 -191z" />
<glyph unicode="&#xca;" horiz-adv-x="535" d="M64 0l74 668h424l-14 -120h-260l-16 -148h238l-13 -121h-239l-18 -160h260l-12 -119h-424zM202 822l186 149l149 -151l-79 -90l-88 93l-117 -92z" />
<glyph unicode="&#xcb;" horiz-adv-x="535" d="M64 0l74 668h424l-14 -120h-260l-16 -148h238l-13 -121h-239l-18 -160h260l-12 -119h-424zM205 801q5 46 18.5 59t61.5 13q46 0 58 -12.5t7 -59.5q-5 -45 -19.5 -59t-61.5 -14q-48 0 -58.5 13.5t-5.5 59.5zM373 801q5 47 18.5 59.5t61.5 12.5t59 -12.5t6 -59.5 q-5 -46 -19 -59.5t-63 -13.5q-47 0 -57.5 13.5t-5.5 59.5z" />
<glyph unicode="&#xcc;" horiz-adv-x="292" d="M64 0l73 667h165l-73 -667h-165zM109 923l106 57l77 -191l-104 -57z" />
<glyph unicode="&#xcd;" horiz-adv-x="292" d="M64 0l73 667h165l-73 -667h-165zM173 789l119 191l94 -57l-122 -191z" />
<glyph unicode="&#xce;" horiz-adv-x="288" d="M58 0l73 667h166l-73 -667h-166zM64 825l184 149l151 -151l-80 -90l-89 93l-116 -92z" />
<glyph unicode="&#xcf;" horiz-adv-x="290" d="M60 0l73 667h166l-73 -667h-166zM74 800q5 47 18 59.5t62 12.5q46 0 58 -12.5t7 -59.5q-6 -46 -20 -59.5t-61 -13.5q-48 0 -58.5 13.5t-5.5 59.5zM242 800q5 47 18 59.5t61 12.5t59.5 -12.5t6.5 -59.5q-5 -46 -19 -59.5t-63 -13.5q-47 0 -57.5 13.5t-5.5 59.5z" />
<glyph unicode="&#xd0;" horiz-adv-x="596" d="M45 271l14 130h36l30 270l248 -2q39 0 67.5 -4t54.5 -13t42.5 -26t28.5 -42t17 -61t4.5 -83t-7.5 -109q-11 -103 -29.5 -166.5t-51.5 -100.5t-77 -50.5t-113 -13.5h-258l30 271h-36zM229 115l80 -1q56 1 71 39.5t30 177.5q14 100 10.5 151t-16 64.5t-46.5 13.5h-80 l-17 -159h69l-14 -130h-69z" />
<glyph unicode="&#xd1;" horiz-adv-x="670" d="M66 0l73 668h194l144 -406l44 406h158l-74 -668h-177l-169 445l-48 -445h-145zM251 768q53 103 117 103q21 0 50 -18.5t36 -18.5q8 0 24 14.5t27 32.5l58 -55q-39 -81 -110 -90q-21 -2 -56 15.5t-37 17.5q-13 0 -41 -50q-13 9 -36 25.5t-32 23.5z" />
<glyph unicode="&#xd2;" horiz-adv-x="603" d="M89 333q9 75 17.5 123t23 89.5t33 64.5t49 39.5t68.5 22t94 5.5q113 0 160.5 -28t59 -104.5t-7.5 -211.5q-10 -90 -21 -143.5t-30 -96.5t-50 -63t-75 -30t-112 -10q-111 0 -158.5 28.5t-58.5 105t8 209.5zM252 333q-6 -53 -8.5 -82.5t-3 -59.5t3 -43.5t12 -25t21.5 -15 t33 -3.5q60 0 78.5 39.5t35.5 189.5q6 54 8.5 85t2.5 61t-3.5 43.5t-13 24.5t-22.5 14t-34 3q-58 0 -75.5 -40t-34.5 -191zM304 923l106 57l77 -191l-104 -57z" />
<glyph unicode="&#xd3;" horiz-adv-x="603" d="M89 333q9 75 17.5 123t23 89.5t33 64.5t49 39.5t68.5 22t94 5.5q113 0 160.5 -28t59 -104.5t-7.5 -211.5q-10 -90 -21 -143.5t-30 -96.5t-50 -63t-75 -30t-112 -10q-111 0 -158.5 28.5t-58.5 105t8 209.5zM252 333q-6 -53 -8.5 -82.5t-3 -59.5t3 -43.5t12 -25t21.5 -15 t33 -3.5q60 0 78.5 39.5t35.5 189.5q6 54 8.5 85t2.5 61t-3.5 43.5t-13 24.5t-22.5 14t-34 3q-58 0 -75.5 -40t-34.5 -191zM289 789l120 191l93 -57l-122 -191z" />
<glyph unicode="&#xd4;" horiz-adv-x="603" d="M89 333q9 75 17.5 123t23 89.5t33 64.5t49 39.5t68.5 22t94 5.5q113 0 160.5 -28t59 -104.5t-7.5 -211.5q-10 -90 -21 -143.5t-30 -96.5t-50 -63t-75 -30t-112 -10q-111 0 -158.5 28.5t-58.5 105t8 209.5zM225 818l184 149l151 -151l-79 -90l-90 93l-116 -92zM252 333 q-6 -53 -8.5 -82.5t-3 -59.5t3 -43.5t12 -25t21.5 -15t33 -3.5q60 0 78.5 39.5t35.5 189.5q6 54 8.5 85t2.5 61t-3.5 43.5t-13 24.5t-22.5 14t-34 3q-58 0 -75.5 -40t-34.5 -191z" />
<glyph unicode="&#xd5;" horiz-adv-x="603" d="M89 333q9 75 17.5 123t23 89.5t33 64.5t49 39.5t68.5 22t94 5.5q113 0 160.5 -28t59 -104.5t-7.5 -211.5q-10 -90 -21 -143.5t-30 -96.5t-50 -63t-75 -30t-112 -10q-111 0 -158.5 28.5t-58.5 105t8 209.5zM226 771q53 103 118 103q21 0 49.5 -18.5t35.5 -18.5 q8 0 24 14.5t27 32.5l58 -55q-39 -81 -111 -90q-20 -2 -55 15.5t-37 17.5q-12 0 -42 -50q-14 9 -38 27.5t-29 21.5zM252 333q-6 -53 -8.5 -82.5t-3 -59.5t3 -43.5t12 -25t21.5 -15t33 -3.5q60 0 78.5 39.5t35.5 189.5q6 54 8.5 85t2.5 61t-3.5 43.5t-13 24.5t-22.5 14t-34 3 q-58 0 -75.5 -40t-34.5 -191z" />
<glyph unicode="&#xd6;" horiz-adv-x="603" d="M89 333q9 75 17.5 123t23 89.5t33 64.5t49 39.5t68.5 22t94 5.5q113 0 160.5 -28t59 -104.5t-7.5 -211.5q-10 -90 -21 -143.5t-30 -96.5t-50 -63t-75 -30t-112 -10q-111 0 -158.5 28.5t-58.5 105t8 209.5zM233 803q5 47 18.5 59.5t61.5 12.5q47 0 58.5 -13t6.5 -59 q-5 -45 -19.5 -59t-61.5 -14q-48 0 -58.5 13.5t-5.5 59.5zM252 333q-6 -53 -8.5 -82.5t-3 -59.5t3 -43.5t12 -25t21.5 -15t33 -3.5q60 0 78.5 39.5t35.5 189.5q6 54 8.5 85t2.5 61t-3.5 43.5t-13 24.5t-22.5 14t-34 3q-58 0 -75.5 -40t-34.5 -191zM401 803q6 47 19 59.5 t61 12.5t59 -12.5t6 -59.5q-5 -46 -19 -59.5t-63 -13.5q-47 0 -57.5 13.5t-5.5 59.5z" />
<glyph unicode="&#xd7;" horiz-adv-x="517" d="M55 109l136 135l-106 138l102 100l107 -136l138 136l78 -100l-137 -138l107 -135l-100 -100l-109 134l-139 -135z" />
<glyph unicode="&#xd8;" horiz-adv-x="603" d="M89 333q9 75 17.5 123t23 89.5t33 64.5t49 39.5t68.5 22t94 5.5q36 0 65 -3l16 41h54l-19 -49q80 -20 99 -96t-3 -237q-10 -90 -21 -143.5t-30 -96.5t-50 -63t-75 -30t-112 -10q-45 0 -70 4l-15 -36h-52l17 44q-75 21 -92.5 98t3.5 233zM241 164l154 396q-12 4 -33 4 q-58 0 -75.5 -40t-34.5 -191q-14 -129 -11 -169zM273 109q12 -5 37 -5q60 0 78.5 39.5t35.5 189.5q17 142 8 184z" />
<glyph unicode="&#xd9;" horiz-adv-x="623" d="M94 333l37 336h166l-38 -336q-6 -53 -8.5 -82.5t-3 -59.5t3 -43.5t12.5 -25t22 -15t34 -3.5q60 0 78.5 39.5t35.5 189.5l38 336h163q0 -9 -18 -169.5t-18 -166.5q-8 -75 -16.5 -123t-23.5 -89.5t-33.5 -64t-50 -39t-71 -22t-97.5 -5.5q-113 0 -161 28.5t-59 105t8 209.5z M300 923l106 57l76 -191l-103 -57z" />
<glyph unicode="&#xda;" horiz-adv-x="623" d="M94 333l37 336h166l-38 -336q-6 -53 -8.5 -82.5t-3 -59.5t3 -43.5t12.5 -25t22 -15t34 -3.5q60 0 78.5 39.5t35.5 189.5l38 336h163q0 -9 -18 -169.5t-18 -166.5q-8 -75 -16.5 -123t-23.5 -89.5t-33.5 -64t-50 -39t-71 -22t-97.5 -5.5q-113 0 -161 28.5t-59 105t8 209.5z M300 789l119 191l94 -57l-122 -191z" />
<glyph unicode="&#xdb;" horiz-adv-x="623" d="M94 333l37 336h166l-38 -336q-6 -53 -8.5 -82.5t-3 -59.5t3 -43.5t12.5 -25t22 -15t34 -3.5q60 0 78.5 39.5t35.5 189.5l38 336h163q0 -9 -18 -169.5t-18 -166.5q-8 -75 -16.5 -123t-23.5 -89.5t-33.5 -64t-50 -39t-71 -22t-97.5 -5.5q-113 0 -161 28.5t-59 105t8 209.5z M236 820l184 149l151 -151l-80 -90l-89 93l-116 -92z" />
<glyph unicode="&#xdc;" horiz-adv-x="623" d="M94 333l37 336h166l-38 -336q-6 -53 -8.5 -82.5t-3 -59.5t3 -43.5t12.5 -25t22 -15t34 -3.5q60 0 78.5 39.5t35.5 189.5l38 336h163q0 -9 -18 -169.5t-18 -166.5q-8 -75 -16.5 -123t-23.5 -89.5t-33.5 -64t-50 -39t-71 -22t-97.5 -5.5q-113 0 -161 28.5t-59 105t8 209.5z M239 801q5 47 18.5 59.5t61.5 12.5q47 0 58.5 -12.5t6.5 -59.5q-5 -45 -19.5 -59t-61.5 -14t-58 13.5t-6 59.5zM408 801q5 47 18 59.5t61 12.5t59.5 -12.5t6.5 -59.5q-5 -46 -19 -59.5t-63 -13.5q-47 0 -57.5 13.5t-5.5 59.5z" />
<glyph unicode="&#xdd;" horiz-adv-x="560" d="M68 668h179l65 -279l131 279h179l-248 -476l-20 -192h-168l21 192zM278 789l120 191l93 -57l-122 -191z" />
<glyph unicode="&#xde;" horiz-adv-x="588" d="M63 0l75 669h164l-11 -106h93q105 0 160.5 -39t44.5 -138l-9 -78q-7 -72 -56.5 -115t-122.5 -57q-20 -4 -159 -4l-14 -132h-165zM256 258h91q21 0 33.5 2.5t24 14t13.5 33.5l9 77q3 33 -13 44t-46 11h-92z" />
<glyph unicode="&#xdf;" horiz-adv-x="541" d="M-9 -165l9 76q19 3 29.5 10t13 13.5t4.5 18.5l58 531q9 83 65.5 131.5t143.5 48.5q38 0 68.5 -3t64.5 -14t55.5 -29.5t33.5 -52t7 -78.5q-6 -60 -71 -144h-2q40 -26 47.5 -59t1.5 -92l-5 -51q-4 -34 -14 -59t-29 -40.5t-38.5 -25t-53.5 -14t-61.5 -5.5t-74.5 -1h-32 l-2 -28q-10 -82 -47.5 -112t-103.5 -30q-18 0 -67 9zM223 103h33h6q25 0 36 1t25.5 5t21 13.5t8.5 26.5l5 49q4 41 -3.5 54t-30.5 13h-83zM254 371h73q47 47 55 112q2 26 -15 42.5t-40 16.5t-40 -15.5t-21 -45.5z" />
<glyph unicode="&#xe0;" horiz-adv-x="488" d="M54 165q0 50 6 117q12 119 55.5 172.5t132.5 53.5q32 0 102 -10.5t132 -28.5l-48 -472h-124l-1 49q-18 -24 -50.5 -39.5t-66.5 -15.5q-42 0 -70.5 13.5t-42.5 39.5t-19.5 54.5t-5.5 66.5zM206 742l106 57l77 -191l-104 -57zM208 169q0 -36 6.5 -53.5t20 -17.5t27.5 7.5 t36 25.5l33 279q-41 6 -62 3q-42 -6 -56 -149q-5 -75 -5 -95z" />
<glyph unicode="&#xe1;" horiz-adv-x="488" d="M54 165q0 50 6 117q12 119 55.5 172.5t132.5 53.5q32 0 102 -10.5t132 -28.5l-48 -472h-124l-1 49q-18 -24 -50.5 -39.5t-66.5 -15.5q-42 0 -70.5 13.5t-42.5 39.5t-19.5 54.5t-5.5 66.5zM208 169q0 -36 6.5 -53.5t20 -17.5t27.5 7.5t36 25.5l33 279q-41 6 -62 3 q-42 -6 -56 -149q-5 -75 -5 -95zM224 602l120 191l93 -57l-122 -191z" />
<glyph unicode="&#xe2;" horiz-adv-x="488" d="M54 165q0 50 6 117q12 119 55.5 172.5t132.5 53.5q32 0 102 -10.5t132 -28.5l-48 -472h-124l-1 49q-18 -24 -50.5 -39.5t-66.5 -15.5q-42 0 -70.5 13.5t-42.5 39.5t-19.5 54.5t-5.5 66.5zM141 639l185 149l150 -151l-79 -90l-89 93l-116 -92zM208 169q0 -36 6.5 -53.5 t20 -17.5t27.5 7.5t36 25.5l33 279q-41 6 -62 3q-42 -6 -56 -149q-5 -75 -5 -95z" />
<glyph unicode="&#xe3;" horiz-adv-x="488" d="M54 165q0 50 6 117q12 119 55.5 172.5t132.5 53.5q32 0 102 -10.5t132 -28.5l-48 -472h-124l-1 49q-18 -24 -50.5 -39.5t-66.5 -15.5q-42 0 -70.5 13.5t-42.5 39.5t-19.5 54.5t-5.5 66.5zM149 585q53 103 118 103q21 0 50 -18.5t36 -18.5q10 0 55 43l54 -51 q-41 -81 -111 -90q-20 -2 -55.5 15.5t-37.5 17.5q-17 0 -40 -41q-12 8 -34.5 20t-34.5 20zM208 169q0 -36 6.5 -53.5t20 -17.5t27.5 7.5t36 25.5l33 279q-41 6 -62 3q-42 -6 -56 -149q-5 -75 -5 -95z" />
<glyph unicode="&#xe4;" horiz-adv-x="488" d="M54 165q0 50 6 117q12 119 55.5 172.5t132.5 53.5q32 0 102 -10.5t132 -28.5l-48 -472h-124l-1 49q-18 -24 -50.5 -39.5t-66.5 -15.5q-42 0 -70.5 13.5t-42.5 39.5t-19.5 54.5t-5.5 66.5zM157 625q5 47 18.5 59.5t61.5 12.5q47 0 58.5 -13t5.5 -59q-5 -45 -19.5 -59 t-61.5 -14t-57.5 13.5t-5.5 59.5zM208 169q0 -36 6.5 -53.5t20 -17.5t27.5 7.5t36 25.5l33 279q-41 6 -62 3q-42 -6 -56 -149q-5 -75 -5 -95zM325 625q5 47 18 59.5t61 12.5t59.5 -12.5t6.5 -59.5q-5 -46 -19 -59.5t-63 -13.5q-47 0 -57.5 13.5t-5.5 59.5z" />
<glyph unicode="&#xe5;" horiz-adv-x="488" d="M54 165q0 50 6 117q12 119 55.5 172.5t132.5 53.5q32 0 102 -10.5t132 -28.5l-48 -472h-124l-1 49q-18 -24 -50.5 -39.5t-66.5 -15.5q-42 0 -70.5 13.5t-42.5 39.5t-19.5 54.5t-5.5 66.5zM208 169q0 -36 6.5 -53.5t20 -17.5t27.5 7.5t36 25.5l33 279q-41 6 -62 3 q-42 -6 -56 -149q-5 -75 -5 -95zM215 652q5 45 34 74t76 29q48 0 70.5 -29t17.5 -74q-6 -46 -34.5 -75t-76.5 -29t-70 28t-17 76zM284 652q-3 -38 26 -38q30 0 35 38q3 37 -27 37q-29 0 -34 -37z" />
<glyph unicode="&#xe6;" horiz-adv-x="742" d="M38 165q0 50 6 117q12 120 55.5 173t132.5 53q59 0 166 -23q47 27 140 27q107 0 149 -34.5t42 -119.5q0 -18 -1 -31t-9.5 -37.5t-23.5 -40t-47 -28t-77 -12.5l-122 -1q-2 -17 -2 -48q0 -26 4 -42t13.5 -22.5t17.5 -8t23 -1.5q85 0 171 12l-6 -87q-90 -20 -198 -20 q-115 0 -151 53q-77 -53 -146 -53q-41 0 -69.5 13.5t-42.5 39.5t-19.5 54.5t-5.5 66.5zM192 169q0 -36 6.5 -53.5t20 -17.5t27.5 7.5t36 25.5l33 279q-41 6 -62 3q-42 -6 -56 -149q-5 -75 -5 -95zM461 302h102q5 0 9 1.5t6 5t3.5 6t2 8.5t0.5 9v10v9q0 41 -11 54.5t-40 13.5 q-37 0 -50.5 -25t-21.5 -92z" />
<glyph unicode="&#xe7;" horiz-adv-x="478" d="M68 227q8 70 16 112t22.5 78.5t37 54.5t55.5 28t82 10q116 -5 201 -20l-11 -107q-163 13 -173 13q-35 0 -46 -30t-23 -142q-8 -71 7 -95t54 -24q51 0 155 9l-10 -96q-63 -17 -143 -24l-4 -14q34 -7 44 -24t7 -44q-6 -50 -31 -70t-70 -20q-26 0 -86 9l16 64l60 -5 q13 0 15 16v1v5t-4 4.5t-12 2.5l-52 4l16 70q-80 6 -108.5 54t-14.5 180z" />
<glyph unicode="&#xe8;" horiz-adv-x="488" d="M59 148q0 44 7 103q16 155 60.5 208t173.5 53q107 0 148.5 -34.5t41.5 -119.5q0 -18 -1 -31t-9.5 -37.5t-23.5 -40t-47 -28t-77 -12.5l-121 -1q-2 -17 -2 -48q0 -26 4 -42t13.5 -22.5t17 -8t22.5 -1.5q86 0 171 12l-6 -87q-89 -20 -198 -20q-96 0 -135 36t-39 121z M222 302h103q4 0 7 1t5 3l4 4t3 5.5t1.5 6t0.5 7.5v7.5v7.5v7q0 41 -11.5 54.5t-40.5 13.5q-37 0 -50.5 -25t-21.5 -92zM224 740l106 57l78 -191l-104 -57z" />
<glyph unicode="&#xe9;" horiz-adv-x="489" d="M59 148q0 44 7 103q16 155 60.5 208t173.5 53q107 0 148.5 -34.5t41.5 -119.5q0 -18 -1 -31t-9.5 -37.5t-23.5 -40t-47 -28t-77 -12.5l-121 -1q-2 -17 -2 -48q0 -26 4 -42t13.5 -22.5t17 -8t22.5 -1.5q86 0 171 12l-6 -87q-89 -20 -198 -20q-96 0 -135 36t-39 121z M222 302h103q4 0 7 1t5 3l4 4t3 5.5t1.5 6t0.5 7.5v7.5v7.5v7q0 41 -11.5 54.5t-40.5 13.5q-37 0 -50.5 -25t-21.5 -92zM227 608l119 191l94 -57l-122 -191z" />
<glyph unicode="&#xea;" horiz-adv-x="489" d="M59 148q0 44 7 103q16 155 60.5 208t173.5 53q107 0 148.5 -34.5t41.5 -119.5q0 -18 -1 -31t-9.5 -37.5t-23.5 -40t-47 -28t-77 -12.5l-121 -1q-2 -17 -2 -48q0 -26 4 -42t13.5 -22.5t17 -8t22.5 -1.5q86 0 171 12l-6 -87q-89 -20 -198 -20q-96 0 -135 36t-39 121z M157 642l186 149l149 -151l-79 -90l-89 93l-116 -92zM222 302h103q4 0 7 1t5 3l4 4t3 5.5t1.5 6t0.5 7.5v7.5v7.5v7q0 41 -11.5 54.5t-40.5 13.5q-37 0 -50.5 -25t-21.5 -92z" />
<glyph unicode="&#xeb;" horiz-adv-x="489" d="M59 148q0 44 7 103q16 155 60.5 208t173.5 53q107 0 148.5 -34.5t41.5 -119.5q0 -18 -1 -31t-9.5 -37.5t-23.5 -40t-47 -28t-77 -12.5l-121 -1q-2 -17 -2 -48q0 -26 4 -42t13.5 -22.5t17 -8t22.5 -1.5q86 0 171 12l-6 -87q-89 -20 -198 -20q-96 0 -135 36t-39 121z M154 625q5 47 18.5 59.5t61.5 12.5q47 0 58.5 -13t6.5 -59t-19.5 -59.5t-61.5 -13.5q-48 0 -58.5 13.5t-5.5 59.5zM222 302h103q4 0 7 1t5 3l4 4t3 5.5t1.5 6t0.5 7.5v7.5v7.5v7q0 41 -11.5 54.5t-40.5 13.5q-37 0 -50.5 -25t-21.5 -92zM322 625q5 47 18.5 59.5t60.5 12.5 q48 0 59.5 -12.5t6.5 -59.5q-5 -46 -19 -59.5t-63 -13.5q-47 0 -57.5 13.5t-5.5 59.5z" />
<glyph unicode="&#xec;" horiz-adv-x="271" d="M54 0l55 499h161l-55 -499h-161zM85 743l107 57l76 -191l-103 -57z" />
<glyph unicode="&#xed;" horiz-adv-x="271" d="M54 0l55 499h161l-55 -499h-161zM126 607l119 191l93 -57l-121 -191z" />
<glyph unicode="&#xee;" horiz-adv-x="268" d="M34 641l185 149l150 -151l-79 -90l-89 93l-116 -92zM54 0l55 499h161l-55 -499h-161z" />
<glyph unicode="&#xef;" horiz-adv-x="271" d="M45 625q5 47 18.5 59.5t61.5 12.5q47 0 58.5 -13t6.5 -59q-5 -45 -19.5 -59t-61.5 -14q-48 0 -58.5 13.5t-5.5 59.5zM54 0l55 499h161l-55 -499h-161zM213 625q5 47 18.5 59.5t60.5 12.5q48 0 59.5 -12.5t6.5 -59.5q-5 -46 -19 -59.5t-63 -13.5q-47 0 -57.5 13.5 t-5.5 59.5z" />
<glyph unicode="&#xf0;" horiz-adv-x="507" d="M52 202q6 49 14 83.5t22.5 58.5t30.5 38.5t43 22t53.5 10t68.5 2.5h9q39 0 57 -3q8 33 -1 64q-5 -6 -11.5 -12.5l-11.5 -11.5t-10 -11l-69 71l45 48q-36 16 -90 30l15 117q132 -33 165 -50q11 12 33 38t27 31l69 -70l-48 -54q30 -42 33.5 -115t-12.5 -208l-5 -51 q-7 -62 -16.5 -100.5t-24 -66t-39.5 -40.5t-56.5 -18t-82.5 -5q-30 0 -51 1t-43.5 3.5t-37 7t-29 12t-23 18.5t-15.5 26t-9.5 34.5t-2.5 44t3 55.5zM202 212q-8 -67 2 -83.5t49 -16.5q25 0 35.5 1.5t20 14t13 32t7.5 63.5q2 15 2.5 27t-2 20.5t-3.5 14.5t-7 9.5t-7.5 5 t-11 2.5t-11.5 1h-14q-41 0 -54 -13.5t-19 -77.5z" />
<glyph unicode="&#xf1;" horiz-adv-x="514" d="M56 0l55 499h135l10 -35q1 1 14 9t21 12.5t22.5 11t29 9.5t29.5 3q60 0 98.5 -31.5t30.5 -97.5l-41 -380h-160l38 356q2 18 -5.5 25.5t-21 5.5t-27 -7t-27.5 -13l-40 -367h-161zM179 585q53 103 118 103q21 0 50 -18.5t35 -18.5q12 0 55 43l54 -51q-39 -81 -110 -90 q-21 -2 -56 15.5t-37 17.5q-16 0 -41 -41q-11 8 -34 20t-34 20z" />
<glyph unicode="&#xf2;" horiz-adv-x="508" d="M70 250q9 82 21.5 128t39.5 77.5t68 42.5t109 11q92 0 133 -22.5t52 -80t-3 -156.5q-9 -80 -21 -126t-39 -78t-69 -43.5t-111 -11.5q-91 0 -132 22.5t-51 80.5t3 156zM228 250q-12 -94 -6.5 -123t41.5 -29t48.5 27.5t23.5 124.5q11 98 4.5 126.5t-43.5 28.5 q-35 0 -46 -27.5t-22 -127.5zM233 739l106 57l78 -191l-104 -57z" />
<glyph unicode="&#xf3;" horiz-adv-x="508" d="M70 250q9 82 21.5 128t39.5 77.5t68 42.5t109 11q92 0 133 -22.5t52 -80t-3 -156.5q-9 -80 -21 -126t-39 -78t-69 -43.5t-111 -11.5q-91 0 -132 22.5t-51 80.5t3 156zM225 605l119 191l93 -57l-121 -191zM228 250q-12 -94 -6.5 -123t41.5 -29t48.5 27.5t23.5 124.5 q11 98 4.5 126.5t-43.5 28.5q-35 0 -46 -27.5t-22 -127.5z" />
<glyph unicode="&#xf4;" horiz-adv-x="508" d="M71 250q9 82 21.5 128t39 77.5t67.5 42.5t110 11q91 0 132.5 -22.5t52 -80t-3.5 -156.5q-8 -80 -20.5 -126t-39 -78t-68.5 -43.5t-111 -11.5q-91 0 -132 22.5t-51.5 80.5t3.5 156zM162 637l184 149l150 -151l-79 -90l-89 93l-116 -92zM229 250q-12 -94 -6.5 -123 t41.5 -29t48.5 27.5t23.5 124.5q11 98 4.5 126.5t-43.5 28.5q-36 0 -46.5 -27t-21.5 -128z" />
<glyph unicode="&#xf5;" horiz-adv-x="508" d="M70 250q9 82 21.5 128t39.5 77.5t68 42.5t109 11q92 0 133 -22.5t52 -80t-3 -156.5q-9 -80 -21 -126t-39 -78t-69 -43.5t-111 -11.5q-91 0 -132 22.5t-51 80.5t3 156zM154 585q53 103 118 103q21 0 49.5 -18.5t35.5 -18.5q10 0 55 43l54 -51q-39 -81 -111 -90 q-20 -2 -55 15.5t-37 17.5q-16 0 -41 -41q-11 8 -34 20t-34 20zM228 250q-12 -94 -6.5 -123t41.5 -29t48.5 27.5t23.5 124.5q11 98 4.5 126.5t-43.5 28.5q-35 0 -46 -27.5t-22 -127.5z" />
<glyph unicode="&#xf6;" horiz-adv-x="508" d="M70 250q9 82 21.5 128t39.5 77.5t68 42.5t109 11q92 0 133 -22.5t52 -80t-3 -156.5q-9 -80 -21 -126t-39 -78t-69 -43.5t-111 -11.5q-91 0 -132 22.5t-51 80.5t3 156zM158 625q6 47 19 59.5t61 12.5q47 0 58.5 -12.5t6.5 -59.5q-5 -45 -19.5 -59t-61.5 -14t-58 13.5 t-6 59.5zM228 250q-12 -94 -6.5 -123t41.5 -29t48.5 27.5t23.5 124.5q11 98 4.5 126.5t-43.5 28.5q-35 0 -46 -27.5t-22 -127.5zM327 625q5 47 18 59.5t61 12.5t59.5 -12.5t6.5 -59.5q-5 -46 -19 -59.5t-63 -13.5q-47 0 -57.5 13.5t-5.5 59.5z" />
<glyph unicode="&#xf7;" horiz-adv-x="501" d="M65 192l15 135h417l-16 -135h-416zM183 84q5 53 20.5 67.5t70.5 14.5q53 0 66 -13.5t7 -65.5q-6 -57 -21.5 -71.5t-69.5 -14.5q-55 0 -67 16t-6 67zM220 439q7 53 22.5 67.5t70.5 14.5q52 0 65.5 -14t8.5 -66q-7 -57 -22.5 -72t-69.5 -15q-56 0 -68.5 16.5t-6.5 68.5z " />
<glyph unicode="&#xf8;" horiz-adv-x="508" d="M70 250q9 82 21.5 128t39.5 77.5t68 42.5t109 11q30 0 55 -3l16 43h38l-19 -48q71 -15 88.5 -69.5t3.5 -181.5q-9 -80 -21 -126t-39 -78t-69 -43.5t-111 -11.5q-20 0 -50 2l-16 -41h-36l17 46q-73 14 -91 68.5t-4 183.5zM220 139l101 262q-8 4 -25 4q-35 0 -46 -27.5 t-22 -127.5q-10 -88 -8 -111zM241 100q6 -2 22 -2q36 0 48.5 27.5t23.5 124.5q9 88 7 108z" />
<glyph unicode="&#xf9;" horiz-adv-x="512" d="M66 119l42 380h160l-39 -353q-2 -18 5.5 -25.5t21.5 -5.5t27.5 7t26.5 13l41 364h161l-55 -499h-135l-11 35q-1 -1 -14 -9t-21 -12.5t-22.5 -11t-29 -9.5t-29.5 -3q-60 0 -98.5 31.5t-30.5 97.5zM232 739l106 57l78 -191l-104 -57z" />
<glyph unicode="&#xfa;" horiz-adv-x="513" d="M66 119l42 380h160l-39 -353q-2 -18 5.5 -25.5t21.5 -5.5t27.5 7t26.5 13l41 364h161l-55 -499h-135l-11 35q-1 -1 -14 -9t-21 -12.5t-22.5 -11t-29 -9.5t-29.5 -3q-60 0 -98.5 31.5t-30.5 97.5zM232 605l119 191l94 -57l-122 -191z" />
<glyph unicode="&#xfb;" horiz-adv-x="513" d="M66 119l42 380h160l-39 -353q-2 -18 5.5 -25.5t21.5 -5.5t27.5 7t26.5 13l41 364h161l-55 -499h-135l-11 35q-1 -1 -14 -9t-21 -12.5t-22.5 -11t-29 -9.5t-29.5 -3q-60 0 -98.5 31.5t-30.5 97.5zM164 637l184 149l150 -151l-80 -90l-88 93l-116 -92z" />
<glyph unicode="&#xfc;" horiz-adv-x="513" d="M66 119l42 380h160l-39 -353q-2 -18 5.5 -25.5t21.5 -5.5t27.5 7t26.5 13l41 364h161l-55 -499h-135l-11 35q-1 -1 -14 -9t-21 -12.5t-22.5 -11t-29 -9.5t-29.5 -3q-60 0 -98.5 31.5t-30.5 97.5zM169 625q5 47 18.5 59.5t61.5 12.5q47 0 58.5 -13t6.5 -59 q-5 -45 -19.5 -59t-61.5 -14q-48 0 -58.5 13.5t-5.5 59.5zM337 625q6 47 19 59.5t61 12.5t59.5 -12.5t5.5 -59.5q-5 -46 -19 -59.5t-63 -13.5q-47 0 -57.5 13.5t-5.5 59.5z" />
<glyph unicode="&#xfd;" horiz-adv-x="504" d="M72 500h161l12 -391l154 391h160l-238 -579q-45 -110 -146 -110q-53 0 -100 39l31 70q3 -1 11 -4t10 -4t6.5 -2.5t5.5 -1.5q16 -4 22 3q6 6 44 79l5 10h-102zM224 607l119 191l93 -57l-121 -191z" />
<glyph unicode="&#xfe;" horiz-adv-x="493" d="M36 -174l94 852h158l-22 -192q120 45 176.5 -7.5t40.5 -195.5q-9 -86 -20 -133t-36 -87t-68 -55.5t-112 -15.5q-21 0 -34 1l-19 -167h-158zM225 105h35q30 1 41.5 37t21.5 132q8 62 4.5 85t-27.5 23q-18 0 -45 -10z" />
<glyph unicode="&#xff;" horiz-adv-x="504" d="M72 500h161l12 -391l154 391h160l-238 -579q-45 -110 -146 -110q-53 0 -100 39l31 70q3 -1 11 -4t10 -4t6.5 -2.5t5.5 -1.5q16 -4 22 3q6 6 44 79l5 10h-102zM166 625q5 47 18.5 59.5t61.5 12.5q47 0 58.5 -13t5.5 -59q-5 -45 -19.5 -59t-61.5 -14t-57.5 13.5t-5.5 59.5z M334 625q5 47 18 59.5t61 12.5t59.5 -12.5t6.5 -59.5q-5 -46 -19 -59.5t-63 -13.5q-47 0 -57.5 13.5t-5.5 59.5z" />
<glyph unicode="&#x152;" horiz-adv-x="821" d="M74 180q-3 50 9 156q7 64 15 107.5t21.5 83.5t33 64t49 43t70 26.5t95.5 7.5h479l-14 -119h-259l-16 -149h238l-14 -121h-237l-18 -162h259l-13 -117h-479q-40 1 -67 4t-58 14t-49.5 29.5t-31 52t-13.5 80.5zM243 144q10 -27 64 -27h55l47 433h-54q-34 0 -50.5 -11.5 t-30.5 -58t-25 -144.5q-17 -159 -6 -192z" />
<glyph unicode="&#x153;" horiz-adv-x="777" d="M67 250q9 82 21.5 128t39.5 77.5t68 42.5t109 11q91 0 133 -23q49 26 141 26q107 0 148.5 -34.5t41.5 -119.5q0 -18 -1 -31t-9.5 -37.5t-23.5 -40t-47 -28t-77 -12.5l-121 -1q-2 -17 -2 -48q0 -26 4 -42t13.5 -22.5t17 -8t22.5 -1.5q86 0 171 12l-6 -87q-89 -20 -198 -20 q-81 0 -121 25q-50 -25 -144 -25q-91 0 -131.5 22.5t-51 80.5t2.5 156zM225 250q-4 -35 -6 -55t-2 -39.5t2 -28.5t7 -17t13 -10t21 -2q37 0 49.5 28t22.5 124q4 36 5.5 57t1.5 40.5t-2 29t-8 17t-14.5 9.5t-21.5 2q-35 0 -46 -27.5t-22 -127.5zM501 302h103q4 0 7 1t5 3l4 4 t3 5.5t1.5 6t0.5 7.5v7.5v7.5v7q0 41 -11.5 54.5t-40.5 13.5q-37 0 -50.5 -25t-21.5 -92z" />
<glyph unicode="&#x178;" horiz-adv-x="553" d="M68 668h179l65 -279l131 279h179l-248 -476l-20 -192h-168l21 192zM204 802q5 47 18.5 59.5t61.5 12.5q47 0 58.5 -13t6.5 -59q-5 -45 -19.5 -59t-61.5 -14q-48 0 -58.5 13.5t-5.5 59.5zM373 802q5 47 18 59.5t61 12.5q49 0 60 -12.5t5 -59.5q-5 -46 -18.5 -59.5 t-62.5 -13.5q-47 0 -57.5 13.5t-5.5 59.5z" />
<glyph unicode="&#x2c6;" horiz-adv-x="410" d="M96 535l185 149l150 -151l-79 -90l-89 93l-116 -92z" />
<glyph unicode="&#x2dc;" horiz-adv-x="417" d="M116 579q53 103 117 103q22 0 50.5 -18.5t35.5 -18.5q10 0 28 12.5t28 28.5l53 -49q-39 -81 -110 -90h-6q-20 0 -52.5 16.5t-34.5 16.5q-8 0 -22.5 -14t-24.5 -31q-12 8 -31 22t-31 22z" />
<glyph unicode="&#x2000;" horiz-adv-x="490" />
<glyph unicode="&#x2001;" horiz-adv-x="980" />
<glyph unicode="&#x2002;" horiz-adv-x="490" />
<glyph unicode="&#x2003;" horiz-adv-x="980" />
<glyph unicode="&#x2004;" horiz-adv-x="326" />
<glyph unicode="&#x2005;" horiz-adv-x="245" />
<glyph unicode="&#x2006;" horiz-adv-x="163" />
<glyph unicode="&#x2007;" horiz-adv-x="163" />
<glyph unicode="&#x2008;" horiz-adv-x="122" />
<glyph unicode="&#x2009;" horiz-adv-x="196" />
<glyph unicode="&#x200a;" horiz-adv-x="54" />
<glyph unicode="&#x2010;" horiz-adv-x="364" d="M72 206l15 141h271l-15 -141h-271z" />
<glyph unicode="&#x2011;" horiz-adv-x="364" d="M72 206l15 141h271l-15 -141h-271z" />
<glyph unicode="&#x2012;" horiz-adv-x="364" d="M72 206l15 141h271l-15 -141h-271z" />
<glyph unicode="&#x2013;" horiz-adv-x="463" d="M72 206l16 148h352l-16 -148h-352z" />
<glyph unicode="&#x2014;" horiz-adv-x="594" d="M72 206l16 148h494l-16 -148h-494z" />
<glyph unicode="&#x2018;" horiz-adv-x="244" d="M85 425q11 106 143 184l38 -63q-28 -20 -40 -42q15 -8 19 -28.5t0 -50.5q-6 -53 -20.5 -66.5t-69.5 -13.5q-54 0 -65.5 14t-4.5 66z" />
<glyph unicode="&#x2019;" horiz-adv-x="242" d="M84 401q26 19 39 42q-25 12 -18 79q5 53 20 66.5t69 13.5t65.5 -14t5.5 -66q-11 -106 -144 -184z" />
<glyph unicode="&#x201a;" horiz-adv-x="256" d="M37 -38q25 18 39 42q-25 12 -18 79q6 53 21 66.5t69 13.5t65 -13.5t6 -66.5q-13 -107 -144 -184z" />
<glyph unicode="&#x201c;" horiz-adv-x="413" d="M85 425q11 106 143 184l38 -63q-28 -20 -40 -42q15 -8 19 -28.5t0 -50.5q-6 -53 -20.5 -66.5t-69.5 -13.5q-54 0 -65.5 14t-4.5 66zM261 425q11 106 143 184l39 -63q-22 -15 -41 -42q27 -13 19 -79q-6 -53 -20.5 -66.5t-69.5 -13.5q-54 0 -65 13.5t-5 66.5z" />
<glyph unicode="&#x201d;" horiz-adv-x="415" d="M82 396q25 18 39 42q-15 8 -18.5 28.5t0.5 50.5q7 53 21.5 66.5t68.5 13.5t65 -13.5t6 -66.5q-13 -107 -144 -184zM258 396q20 14 40 42q-26 13 -18 79q6 53 20.5 66.5t69.5 13.5q54 0 64.5 -13.5t5.5 -66.5q-11 -106 -144 -184z" />
<glyph unicode="&#x201e;" horiz-adv-x="427" d="M37 -38q25 18 39 42q-25 12 -18 79q6 53 21 66.5t69 13.5t65 -13.5t6 -66.5q-13 -107 -144 -184zM211 -38q26 19 39 42q-25 12 -18 79q5 53 20 66.5t70 13.5q54 0 65 -13.5t5 -66.5q-11 -106 -144 -184z" />
<glyph unicode="&#x2022;" horiz-adv-x="403" d="M105 324q7 58 47.5 99t92.5 41t84.5 -41t25.5 -99q-6 -57 -47.5 -97.5t-93.5 -40.5q-51 0 -83 40.5t-26 97.5z" />
<glyph unicode="&#x2026;" horiz-adv-x="632" d="M52 80q6 54 21.5 68.5t69.5 14.5q55 0 67.5 -14.5t6.5 -68.5q-5 -53 -21 -68.5t-72 -15.5q-54 0 -65.5 15.5t-6.5 68.5zM233 80q6 54 21.5 68.5t72.5 14.5q54 0 66.5 -14.5t6.5 -68.5q-6 -52 -22 -68t-70 -16q-56 0 -68 15.5t-7 68.5zM417 80q6 54 21 68.5t70 14.5 t67.5 -14.5t6.5 -68.5q-5 -52 -21 -68t-71 -16t-67 15.5t-6 68.5z" />
<glyph unicode="&#x202f;" horiz-adv-x="196" />
<glyph unicode="&#x2039;" horiz-adv-x="301" d="M58 257l162 230l109 -80l-105 -150l73 -148l-127 -81z" />
<glyph unicode="&#x203a;" horiz-adv-x="321" d="M48 109l105 148l-73 150l127 80l112 -230l-162 -229z" />
<glyph unicode="&#x205f;" horiz-adv-x="245" />
<glyph unicode="&#x20ac;" horiz-adv-x="596" d="M58 244l9 75h72l3 37h-72l8 75h75q25 141 82 195t189 54q112 3 211 -12l-11 -103q-139 8 -206 3q-46 -4 -63.5 -31t-27.5 -106h190l-9 -75h-189l-4 -37h190l-9 -75h-190q-6 -85 15 -112.5t78 -27.5q90 0 173 7l-10 -96q-110 -23 -193 -23q-55 0 -90.5 4.5t-68 19.5 t-49.5 42.5t-25.5 73.5t-5.5 112h-72z" />
<glyph unicode="&#x2122;" horiz-adv-x="509" d="M118 627l6 49h159l-7 -49h-53l-19 -173h-52l19 173h-53zM281 454l25 222h57l28 -104l56 104h55l-25 -222h-50l12 105l-36 -68h-39l-19 68l-12 -105h-52z" />
<glyph unicode="&#xe000;" horiz-adv-x="500" d="M0 0v500h500v-500h-500z" />
</font>
</defs>
</svg>
