<?xml version="1.0" standalone="no"?>
<!DOCTYPE svg PUBLIC "-//W3C//DTD SVG 1.1//EN" "http://www.w3.org/Graphics/SVG/1.1/DTD/svg11.dtd" >
<svg xmlns="http://www.w3.org/2000/svg">
<metadata></metadata>
<defs>
<font id="clio_c_lightlight" horiz-adv-x="460" >
<font-face units-per-em="1000" ascent="750" descent="-250" />
<missing-glyph horiz-adv-x="190" />
<glyph unicode="&#xfb01;" horiz-adv-x="554" d="M20 444v55h73v71q0 79 30.5 106t103.5 27q40 0 75 -4v-52h-62q-24 0 -33.5 -0.5t-24.5 -4t-20 -11t-9.5 -22t-4.5 -36.5v-74h322v-499h-60v444h-262v-444h-55v444h-73zM403 631q0 24 5.5 30.5t29.5 6.5q25 0 31 -6t6 -31q0 -23 -6.5 -30t-30.5 -7q-23 0 -29 7t-6 30z" />
<glyph unicode="&#xfb02;" horiz-adv-x="538" d="M20 444v55h73v71q0 79 30.5 106t103.5 27q183 0 218 -4v-587q0 -20 1 -29.5t5.5 -22t15.5 -19t29 -9.5v-39q-7 -1 -16 -1q-45 0 -69 29.5t-24 108.5v517h-147q-24 0 -33.5 -0.5t-24.5 -4t-20 -11t-9.5 -22t-4.5 -36.5v-74h113v-55h-113v-444h-55v444h-73z" />
<glyph unicode="&#xfb03;" horiz-adv-x="825" d="M20 444v55h73v71q0 79 30.5 106t103.5 27q40 0 75 -4v-52h-62q-24 0 -33.5 -0.5t-24.5 -4t-20 -11t-9.5 -22t-4.5 -36.5v-74h265v71q0 79 30.5 106t103.5 27q41 0 76 -4v-52h-62q-24 0 -34 -0.5t-24.5 -4t-19.5 -11t-9.5 -22t-4.5 -36.5v-74h287v-499h-59v444h-228v-444 h-56v444h-265v-444h-55v444h-73zM690 631q0 24 5.5 30.5t29.5 6.5q25 0 31 -6t6 -31q0 -23 -6.5 -30t-30.5 -7q-23 0 -29 7t-6 30z" />
<glyph unicode="&#xfb04;" horiz-adv-x="841" d="M20 444v55h73v71q0 79 30.5 106t103.5 27q40 0 75 -4v-52h-62q-24 0 -33.5 -0.5t-24.5 -4t-20 -11t-9.5 -22t-4.5 -36.5v-74h265v71q0 79 30.5 106t103.5 27q172 0 207 -4v-587q0 -20 1 -29.5t5.5 -22t15.5 -19t29 -9.5v-39q-8 -1 -17 -1q-45 0 -68.5 29.5t-23.5 108.5 v517h-135q-24 0 -34 -0.5t-24.5 -4t-19.5 -11t-9.5 -22t-4.5 -36.5v-74h112v-55h-112v-444h-56v444h-265v-444h-55v444h-73z" />
<glyph horiz-adv-x="1000" />
<glyph horiz-adv-x="1000" />
<glyph unicode="&#xd;" horiz-adv-x="1000" />
<glyph unicode=" "  horiz-adv-x="190" />
<glyph unicode="&#x09;" horiz-adv-x="190" />
<glyph unicode="&#xa0;" horiz-adv-x="190" />
<glyph unicode="!" horiz-adv-x="192" d="M58 30q0 21 4.5 26.5t22.5 5.5q19 0 24 -5.5t5 -26.5q0 -19 -5 -25t-24 -6q-18 0 -22.5 5.5t-4.5 25.5zM58 145v521h56v-521h-56z" />
<glyph unicode="&#x22;" horiz-adv-x="323" d="M40 488l28 199h71l-45 -199h-54zM157 488l38 199h71l-51 -199h-58z" />
<glyph unicode="#" horiz-adv-x="510" d="M43 138v45h105v141h-105v49h105v139h45v-139h109v139h44v-139h105v-49h-105v-141h105v-45h-105v-140h-44v140h-109v-140h-45v140h-105zM193 183h109v141h-109v-141z" />
<glyph unicode="$" horiz-adv-x="410" d="M28 416q0 71 39.5 106t104.5 35v76h57v-77q28 -1 53 -2.5t37.5 -2.5t13.5 -1v-59q-68 7 -158 7q-45 0 -65.5 -17.5t-20.5 -57.5q0 -37 28.5 -62t69 -41.5t80.5 -35t68.5 -53.5t28.5 -87q0 -69 -37 -104t-98 -37v-75h-57v76q-20 0 -38.5 1t-31 1.5t-22.5 1.5l-15 1.5 t-6 0.5v60q67 -9 158 -9q45 0 65 18.5t20 57.5q0 32 -20.5 55.5t-50.5 36t-66 29t-66 33t-50.5 49t-20.5 76.5z" />
<glyph unicode="%" horiz-adv-x="558" d="M33 522q0 70 9.5 102t30 42.5t66.5 10.5q53 0 72.5 -31.5t19.5 -123.5q0 -89 -18.5 -121t-77.5 -32q-41 0 -61 10t-30.5 43t-10.5 100zM59 0l348 667h52l-347 -667h-53zM84 502q0 -58 7 -73.5t42 -15.5q20 1 26.5 2.5t14 12.5t8.5 31t1 63q0 70 -9.5 90.5t-41.5 20.5 q-34 0 -41 -18.5t-7 -92.5v-20zM299 143q0 70 9.5 102t30 42.5t66.5 10.5q53 0 73 -31.5t20 -123.5q0 -88 -19.5 -120.5t-78.5 -32.5q-40 0 -60 10t-30.5 43t-10.5 100zM349 123q0 -33 0.5 -45.5t5.5 -25t15 -15.5t29 -3q20 1 26.5 2.5t13.5 12.5t8 31t1 63q0 71 -9 91 t-41 20q-35 0 -42 -18.5t-7 -92.5v-20z" />
<glyph unicode="&#x26;" horiz-adv-x="470" d="M50 156v42q0 49 20.5 89.5t60.5 49.5q-42 25 -59.5 52t-21.5 85v44q0 123 100 151q73 18 209 -6v-50q-151 17 -189 5q-59 -21 -59 -107v-37q0 -108 115 -108h93v51h52v-51h46v-58h-46v-299q-180 -38 -249 -4q-66 31 -72 151zM111 160q0 -75 42 -100q22 -13 54.5 -15 t53.5 0.5t58 9.5v253h-93q-57 0 -86 -24.5t-29 -84.5v-39z" />
<glyph unicode="'" horiz-adv-x="194" d="M39 488l37 199h72l-52 -199h-57z" />
<glyph unicode="(" horiz-adv-x="230" d="M30 300q0 129 28.5 263t85.5 216l40 -33q-50 -105 -73.5 -225.5t-23.5 -220.5q0 -264 97 -446l-40 -34q-57 83 -85.5 217t-28.5 263z" />
<glyph unicode=")" horiz-adv-x="231" d="M13 747l41 33q57 -83 85.5 -217t28.5 -263t-28.5 -262.5t-85.5 -216.5l-40 33q97 182 97 446q0 100 -23.5 220.5t-74.5 226.5z" />
<glyph unicode="*" horiz-adv-x="397" d="M31 556l14 48l120 -45v140h45v-140l119 45l15 -48l-120 -45l77 -112l-37 -33l-77 116l-74 -116l-37 33l73 112z" />
<glyph unicode="+" horiz-adv-x="442" d="M33 219v56h149v172h50v-172h149v-56h-149v-180h-50v180h-149z" />
<glyph unicode="," horiz-adv-x="206" d="M40 -47q30 16 38 47q-22 1 -28 11t-6 37q0 30 8 38t38 8t38 -8t8 -38q0 -46 -20.5 -73.5t-57.5 -51.5z" />
<glyph unicode="-" horiz-adv-x="331" d="M49 256v49h209v-49h-209z" />
<glyph unicode="." horiz-adv-x="196" d="M44 47q0 30 8 38t38 8t38 -8t8 -38t-8 -39t-38 -9t-38 9t-8 39z" />
<glyph unicode="/" horiz-adv-x="341" d="M22 -116l220 792h58l-222 -792h-56z" />
<glyph unicode="0" horiz-adv-x="466" d="M62 274q0 172 31.5 228t137.5 56q107 0 139 -57t32 -227q0 -169 -32 -226t-139 -57q-45 0 -74 9t-48.5 27t-29.5 53.5t-13.5 79.5t-3.5 114zM120 274q0 -145 18.5 -185.5t92.5 -40.5q75 0 94 40.5t19 185.5q0 148 -19 188.5t-94 40.5q-74 0 -92.5 -41.5t-18.5 -187.5z " />
<glyph unicode="1" horiz-adv-x="289" d="M13 482v64l181 1v-547h-60v482h-121z" />
<glyph unicode="2" horiz-adv-x="418" d="M59 484v58q56 2 128 2q67 0 104 -28.5t37 -103.5q0 -33 -13.5 -71t-49 -93t-57 -85.5t-76.5 -103.5h221v-56h-292v54q128 182 168 251t40 105q0 39 -20 56t-66 17z" />
<glyph unicode="3" horiz-adv-x="410" d="M41 -75l94 -2q77 0 112 25.5t35 86.5v38q0 58 -28.5 82t-82.5 24h-82v56h82q111 0 111 105v44q0 23 -4 40t-8.5 28.5t-18 19t-20.5 11t-28.5 5.5t-30.5 2h-37l-94 -3v54l89 3q41 0 65.5 -1.5t56 -10t48.5 -24t29 -45t12 -72.5v-51q-3 -57 -20 -83t-58 -50q39 -9 58.5 -48 t19.5 -87v-41q0 -93 -48.5 -127t-162.5 -34l-89 2v53z" />
<glyph unicode="4" horiz-adv-x="486" d="M17 91v62l232 392h101v-393h93v-61h-93v-212h-55v212h-278zM86 152h209v356z" />
<glyph unicode="5" horiz-adv-x="406" d="M54 -77h85q80 0 115 24t35 89v40q0 67 -25 88.5t-89 21.5h-119v360h262v-64h-207v-240h64q41 0 71.5 -6.5t48.5 -20.5t28.5 -26.5t15 -34.5t5 -33.5t0.5 -35.5v-10v-44q0 -90 -50 -125t-161 -35q-14 0 -40 0.5t-39 0.5v51z" />
<glyph unicode="6" horiz-adv-x="462" d="M49 155q0 317 5 360q9 87 49.5 122t134.5 35q30 0 123 -7v-56q-100 5 -123 5q-34 -1 -53.5 -3.5t-36 -15t-23.5 -26.5t-12 -49t-6 -71t-1 -103q53 24 128 24q88 0 123 -39.5t35 -120.5v-48q0 -170 -169 -170q-174 0 -174 163zM106 153q0 -58 29.5 -81t87.5 -23 q62 0 88 26.5t26 84.5v53q0 55 -22 77.5t-83 22.5q-74 0 -126 -22v-138z" />
<glyph unicode="7" horiz-adv-x="364" d="M4 482v64h322l-112 -666h-57l101 602h-254z" />
<glyph unicode="8" horiz-adv-x="492" d="M57 152v42q0 48 24.5 88.5t65.5 49.5q-44 26 -62.5 53.5t-18.5 84.5v44q0 90 43 124t122 36q42 0 71 -5.5t56.5 -21.5t41.5 -49t14 -83v-44q0 -57 -19 -84.5t-63 -53.5q41 -8 65 -49.5t24 -88.5v-42q-5 -84 -47.5 -123t-126.5 -41q-98 0 -144 36t-46 127zM112 156 q0 -56 31.5 -85t89.5 -31q132 0 132 117v39q0 111 -118 111h-14q-121 0 -121 -112v-39zM121 470q0 -109 110 -109h15q112 0 112 110v37q0 68 -26.5 91t-84.5 23q-67 0 -96.5 -21t-29.5 -94v-37z" />
<glyph unicode="9" horiz-adv-x="454" d="M35 329v49q0 169 169 169q92 0 133 -41.5t41 -120.5q0 -320 -5 -363q-9 -86 -49.5 -121t-134.5 -35q-29 0 -122 7v54q70 -7 122 -7q26 1 43 2.5t32.5 8t24 13t16 24t11 33.5t5.5 48.5t2.5 63t0.5 82.5q-45 -25 -131 -25q-88 0 -123 39t-35 120zM88 326q0 -56 22.5 -79.5 t84.5 -23.5q80 0 129 23v141q0 60 -30 83.5t-90 23.5q-63 0 -89.5 -27.5t-26.5 -86.5v-54z" />
<glyph unicode=":" horiz-adv-x="219" d="M49 47q0 30 8 38t38 8q31 0 38.5 -8t7.5 -38t-7.5 -39t-38.5 -9q-30 0 -38 9t-8 39zM49 371q0 30 8 38t38 8q31 0 38.5 -8t7.5 -38t-7.5 -39t-38.5 -9q-30 0 -38 9t-8 39z" />
<glyph unicode=";" horiz-adv-x="220" d="M49 -47q29 16 37 47q-22 1 -28 11t-6 37q0 30 8 38t38 8q31 0 38.5 -8t7.5 -38q0 -46 -20 -73.5t-57 -51.5zM52 371q0 30 8 38t38 8q31 0 38.5 -8t7.5 -38t-8 -39t-38 -9t-38 9t-8 39z" />
<glyph unicode="&#x3c;" horiz-adv-x="485" d="M31 218v53l378 164v-64l-309 -126l308 -127v-65z" />
<glyph unicode="=" horiz-adv-x="468" d="M57 133v62h329v-62h-329zM57 297v62h329v-62h-329z" />
<glyph unicode="&#x3e;" horiz-adv-x="485" d="M54 370v65l378 -165v-53l-377 -165v66l308 127z" />
<glyph unicode="?" horiz-adv-x="396" d="M33 622v56h91q42 0 67.5 -2t57.5 -10.5t50 -24.5t30.5 -46.5t12.5 -74.5v-25q0 -88 -39.5 -127t-135.5 -39h-32v-132h-53v190l85 1q56 1 84.5 25.5t28.5 81.5v17q0 23 -3.5 40.5t-8.5 29.5t-16.5 19.5t-20 12t-27.5 6t-30.5 2t-36.5 0.5h-7h-97zM79 30q0 21 5 26.5 t23 5.5t23.5 -5.5t5.5 -26.5q0 -19 -5 -25t-24 -6q-18 0 -23 6t-5 25z" />
<glyph unicode="@" horiz-adv-x="634" d="M47 291q0 80 5 131.5t21.5 99.5t47 74t80.5 41t123 15q79 0 129 -16t78 -54.5t38.5 -91.5t10.5 -137q0 -127 -28 -183q-29 -53 -87 -53q-54 0 -85 54q-55 -26 -97 -26q-49 0 -69.5 37.5t-20.5 122.5q0 95 27 143t95 48q52 0 118 -20l-14 -278q19 -28 44 -28 q22 0 34.5 12.5t21 56.5t8.5 125q0 69 -6 107.5t-27 69.5t-62 43t-109 12q-39 0 -69.5 -4t-53.5 -14t-39 -22t-27 -34.5t-17.5 -43.5t-9.5 -57t-4 -68t-1 -82q0 -114 49.5 -157t164.5 -43h79l-6 -58h-94q-132 0 -190 62.5t-58 215.5zM242 311q0 -62 10.5 -87t37.5 -25 q42 0 83 21l11 220q-44 6 -69 6h-1q-41 0 -56.5 -31.5t-15.5 -103.5z" />
<glyph unicode="A" horiz-adv-x="531" d="M5 0l198 666h98l199 -666h-57l-55 174h-268l-53 -174h-62zM138 233h231l-116 392z" />
<glyph unicode="B" horiz-adv-x="492" d="M64 0v667h150q48 0 80 -5t64 -20t48 -48.5t16 -85.5v-44q0 -55 -17 -80.5t-59 -50.5q70 -17 76 -133v-41q0 -92 -47.5 -125.5t-160.5 -33.5h-150zM122 53h98q76 0 110 25t34 86v37q0 57 -27.5 80.5t-81.5 23.5h-133v-252zM122 360h133q109 0 109 104v36q0 39 -9 62.5 t-30.5 34t-43.5 13.5t-61 3h-98v-253z" />
<glyph unicode="C" horiz-adv-x="488" d="M44 298q0 62 1.5 104.5t6 84t11.5 67t20 49t30 36.5t42.5 23t56 13t72.5 3q51 0 139 -11v-57q-126 10 -139 10q-27 0 -48 -1.5t-39 -7t-30.5 -10.5t-23 -19t-17 -24t-11 -34t-7 -41t-4 -52.5t-1.5 -61.5v-75q0 -60 3.5 -100t15 -68.5t24.5 -43t41.5 -23t55 -10t76.5 -1.5 q59 0 104 5v-49q-81 -13 -159 -13q-50 0 -81.5 5.5t-60.5 23t-44.5 51.5t-24.5 89.5t-9 137.5z" />
<glyph unicode="D" horiz-adv-x="548" d="M64 0v665l206 3q59 1 95.5 -12.5t63 -50.5t37.5 -103.5t11 -171.5q0 -137 -19 -207t-59.5 -96.5t-118.5 -26.5h-216zM121 59l156 -1q32 2 50.5 5.5t37 14t26.5 27t15.5 47.5t9.5 73t2 105q0 95 -6.5 150t-25 84.5t-43.5 38t-69 8.5l-153 -2v-550z" />
<glyph unicode="E" horiz-adv-x="469" d="M64 0v667h344v-63h-286v-232h261v-65h-261v-245h286v-62h-344z" />
<glyph unicode="F" horiz-adv-x="462" d="M64 0v666h348v-61h-290v-235h250v-62h-250v-308h-58z" />
<glyph unicode="G" horiz-adv-x="495" d="M44 298q0 62 1.5 104.5t6 84t11.5 67t20 49t30 36.5t42.5 22.5t56 13t72.5 3.5q51 0 139 -11v-57q-126 10 -139 10q-27 0 -48 -1.5t-39 -7t-30.5 -10.5t-23 -19t-17 -24t-11 -34t-7 -41t-4 -52.5t-1.5 -61.5v-75q0 -91 10 -140t35 -73q55 -52 232 -27v208h-100v45h156 v-298q-92 -18 -188 -18q-57 1 -91.5 12t-62 42.5t-39 92.5t-11.5 160z" />
<glyph unicode="H" horiz-adv-x="560" d="M64 0v667h59v-296h296v296h60v-667h-60v312h-296v-312h-59z" />
<glyph unicode="I" horiz-adv-x="206" d="M64 0v666h58v-666h-58z" />
<glyph unicode="J" horiz-adv-x="247" d="M13 -7v53q8 0 22 -0.5t21 -0.5q36 0 54.5 15t18.5 60v546h55v-543q0 -73 -25.5 -103.5t-82.5 -30.5q-17 0 -26 1z" />
<glyph unicode="K" horiz-adv-x="505" d="M64 0v667h57v-299h112l160 299h67l-176 -322l186 -345h-67l-167 310h-115v-310h-57z" />
<glyph unicode="L" horiz-adv-x="430" d="M64 0v666h59v-604h271v-62h-330z" />
<glyph unicode="M" horiz-adv-x="712" d="M64 0v667h90l192 -457l190 457h93v-667h-54v599l-197 -450h-68l-189 450v-599h-57z" />
<glyph unicode="N" horiz-adv-x="580" d="M64 0v667h84l289 -598v598h60v-667h-92l-284 597v-597h-57z" />
<glyph unicode="O" horiz-adv-x="541" d="M52 333q0 75 2.5 123t11 89.5t22 64.5t37.5 39.5t56 22t79 5.5q48 0 80.5 -6t57 -22.5t38 -39.5t22 -64.5t11 -89.5t2.5 -122q0 -75 -2.5 -123t-11 -89.5t-22.5 -64t-38.5 -38.5t-56.5 -21.5t-80 -5.5q-47 0 -79.5 6t-56.5 23t-37.5 40t-21.5 64.5t-10.5 88.5t-2.5 120z M111 333q0 -51 0.5 -81t3 -63.5t6.5 -51t11.5 -36.5t18 -27.5t26.5 -16.5t36 -10t47 -2q37 0 60 3.5t41.5 17t27.5 31t14.5 54t7 75.5t1.5 107q0 67 -1.5 106.5t-7 76.5t-15 54.5t-27 31t-41 17.5t-60.5 4q-32 0 -53.5 -4t-38.5 -11t-27 -25t-16.5 -35t-9 -53.5t-3.5 -69.5 t-1 -92z" />
<glyph unicode="P" horiz-adv-x="517" d="M64 0v666h211q87 0 137 -35.5t50 -122.5v-82q0 -60 -34 -104.5t-90 -51.5q-29 -4 -215 -4v-266h-59zM123 323h149q40 0 66.5 6t47 30t20.5 67v81q0 62 -36.5 83t-97.5 21h-149v-288z" />
<glyph unicode="Q" horiz-adv-x="536" d="M47 333q0 75 2.5 123t11 89.5t22 64.5t37.5 39.5t56 22t79 5.5q57 0 93.5 -10t60.5 -30.5t35.5 -64t16 -97t4.5 -142.5q0 -186 -25.5 -254.5t-110.5 -82.5l87 -41l-23 -58l-198 98q-94 12 -121 80.5t-27 257.5zM105 333q0 -58 1 -91t3.5 -69t9.5 -53.5t17 -35t27 -24.5 t38.5 -11t53.5 -4q36 0 59.5 3.5t41.5 17t27 31t15 53.5t7.5 76t1.5 107t-1.5 106.5t-7 76.5t-15 54.5t-27 31t-41 17.5t-60.5 4t-61 -4t-41.5 -19t-26.5 -31.5t-14 -55t-6 -75t-1 -105.5z" />
<glyph unicode="R" horiz-adv-x="524" d="M64 0v666h212q87 0 137 -35.5t50 -122.5v-82q0 -87 -66 -136l47 -290h-62l-43 270q-29 -4 -216 -4v-266h-59zM123 323h150q40 0 66.5 6t47 30t20.5 67v81q-3 62 -38 83t-96 21h-150v-288z" />
<glyph unicode="S" horiz-adv-x="462" d="M31 507q0 87 43.5 129.5t117.5 42.5q103 0 183 -8v-61q-92 9 -177 9q-57 0 -82 -25t-25 -79q0 -48 33 -81t80 -53.5t94 -44t80 -67t33 -107.5q0 -86 -43.5 -129t-115.5 -43q-101 0 -185 8v61q94 -8 179 -8q55 0 80.5 25t25.5 79q0 29 -10.5 52t-35.5 41.5t-43 28.5 t-54 27q-36 18 -61.5 33t-55.5 40t-45.5 58t-15.5 72z" />
<glyph unicode="T" horiz-adv-x="481" d="M14 605v61h432v-61h-185v-605h-60v605h-187z" />
<glyph unicode="U" horiz-adv-x="567" d="M63 333v336h60v-336q0 -51 0.5 -81t3 -63.5t6.5 -51t12 -36.5t18.5 -27.5t27 -16.5t36.5 -10t48 -2q37 0 61 3.5t42.5 17t28 31t15.5 53.5t7.5 76t1.5 107v336h60v-336q0 -90 -4.5 -143.5t-16.5 -96.5t-37.5 -63t-62 -29.5t-95.5 -9.5q-58 0 -95 10.5t-61 31t-36 64 t-16 96t-4 140.5z" />
<glyph unicode="V" horiz-adv-x="524" d="M3 666h61l184 -606l192 606h58l-199 -666h-98z" />
<glyph unicode="W" horiz-adv-x="794" d="M13 666h59l142 -583l146 583h58l143 -583l143 583h59l-163 -666h-82l-129 546l-133 -546h-81z" />
<glyph unicode="X" horiz-adv-x="488" d="M13 0l185 337l-177 329h67l146 -271l148 271h65l-175 -327l182 -339h-65l-154 285l-153 -285h-69z" />
<glyph unicode="Y" horiz-adv-x="466" d="M-5 667h72l153 -361l156 361h71l-197 -429v-238h-60v238z" />
<glyph unicode="Z" horiz-adv-x="478" d="M31 0v67l332 538h-325v63h389v-71l-328 -536h336v-61h-404z" />
<glyph unicode="[" horiz-adv-x="245" d="M53 -144v970h155v-58h-100v-854h100v-58h-155z" />
<glyph unicode="\" horiz-adv-x="354" d="M22 675h57l221 -791h-57z" />
<glyph unicode="]" horiz-adv-x="256" d="M16 -86h100v854h-100v58h155v-970h-155v58z" />
<glyph unicode="^" horiz-adv-x="414" d="M29 410l130 276h58l129 -276h-54l-104 222l-102 -222h-57z" />
<glyph unicode="_" horiz-adv-x="499" d="M49 -10h384v-33h-384v33z" />
<glyph unicode="`" horiz-adv-x="278" d="M50 712l43 26l77 -157l-38 -23z" />
<glyph unicode="a" horiz-adv-x="436" d="M31 150q0 76 39 101.5t117 28.5h119v100q0 45 -21 58.5t-71 13.5q-39 0 -146 -14q-1 1 -5 27t-4 29q90 17 169 17q73 0 104.5 -27.5t31.5 -106.5v-377h-51l-6 44q-100 -54 -164 -54q-112 0 -112 160zM86 146q0 -45 13.5 -70t51.5 -25q20 0 48 9t65 24.5t42 17.5v127h-68 q-89 0 -120.5 -16.5t-31.5 -66.5z" />
<glyph unicode="b" horiz-adv-x="444" d="M55 2v701h55v-215q49 20 141 20q72 0 102 -50.5t30 -170.5q0 -68 -3 -110t-13 -81t-28.5 -59.5t-50 -32.5t-77.5 -12q-70 0 -156 10zM111 54q26 -3 90 -3h9q19 0 34 3t26 7t19.5 14.5t14.5 19t9.5 26.5t6 30.5t3.5 38.5t1 43.5v51.5q0 44 -2 69.5t-9.5 51t-23.5 36.5 t-42 11q-91 0 -136 -18v-381z" />
<glyph unicode="c" horiz-adv-x="419" d="M44 224q0 76 3.5 120t13.5 80.5t31.5 53t53 25t82.5 8.5q62 0 131 -13v-56q-120 10 -134 10q-23 0 -40 -1.5t-30 -8.5t-21.5 -13t-14.5 -23t-9 -29t-5 -41.5t-2 -50v-64.5q0 -50 5 -81t13 -50t28.5 -27.5t41.5 -11t62 -2.5q29 -1 111 8v-49q-65 -17 -152 -17 q-48 0 -75.5 7t-50.5 31t-32.5 71t-9.5 124z" />
<glyph unicode="d" horiz-adv-x="441" d="M43 257v31q3 123 30 173.5t97 50.5q47 0 140 -10v200h56v-701h-38l-10 39q-78 -45 -155 -45q-63 0 -91.5 62t-28.5 200zM103 286q0 -132 16 -184t60 -52q53 0 131 42v349q-49 12 -129 12h-6q-13 0 -24 -3.5t-18 -12t-12.5 -16.5t-9 -23t-5 -24.5t-2.5 -29t-1 -28.5v-30z " />
<glyph unicode="e" horiz-adv-x="445" d="M44 251q0 81 5.5 126.5t24.5 78.5t52.5 44.5t91.5 11.5q110 0 142.5 -51.5t32.5 -209.5v-19h-2l-291 -1q1 -50 2 -67t5.5 -40.5t13.5 -40.5q19 -36 123 -36q46 0 120 8v-48q-94 -16 -162 -16q-96 0 -127 54t-31 206zM101 286h236q-3 109 -23.5 140.5t-95.5 31.5 q-34 0 -55.5 -7t-33.5 -17.5t-18 -33.5t-7.5 -45t-2.5 -62v-7z" />
<glyph unicode="f" horiz-adv-x="300" d="M20 444v55h73v71q0 79 30.5 106t103.5 27q17 0 55 -2v-54h-42q-24 0 -33.5 -0.5t-24.5 -4t-20 -11t-9.5 -22t-4.5 -36.5v-74h113v-55h-113v-444h-55v444h-73z" />
<glyph unicode="g" horiz-adv-x="484" d="M41 337q0 90 34 129.5t126 39.5h249v-53l-54 -8q13 -33 13 -108q0 -95 -33 -132t-104 -37h-120q-9 0 -13.5 -1t-9.5 -6t-5 -16v-16q0 -7 1 -12t3.5 -8.5t4.5 -6t7.5 -4.5t8.5 -2.5t11 -1t12 -0.5h15h16q8 0 39 1t44.5 0t40 -4t40 -11.5t29.5 -23t23 -38.5t8 -56 q0 -85 -41 -124.5t-126 -39.5q-51 1 -106 5.5t-61 4.5v58q93 -9 171 -11q114 0 109 109q-1 22 -8.5 37t-17 22.5t-29 10.5t-31.5 3.5t-37.5 -0.5t-36.5 -1q-23 0 -33.5 0.5t-30 2.5t-28.5 6t-21.5 12.5t-18 21t-9 31t-2.5 43.5q2 30 15 46q-25 21 -34.5 52.5t-9.5 85.5z M97 337q0 -30 2 -49.5t11.5 -33t17.5 -20t32.5 -10t42 -4t59.5 -0.5q54 0 76 28.5t22 95.5q0 68 -20.5 88.5t-79.5 20.5h-58q-63 0 -84 -21t-21 -95z" />
<glyph unicode="h" horiz-adv-x="463" d="M56 0v695h55v-231q115 43 180 43q100 0 100 -116v-391h-57v398q0 49 -49 49q-94 0 -173 -41v-406h-56z" />
<glyph unicode="i" horiz-adv-x="184" d="M48 631q0 25 5.5 31t29.5 6q25 0 31 -6t6 -31q0 -23 -6.5 -30t-30.5 -7t-29.5 6.5t-5.5 30.5zM54 0v499h59v-499h-59z" />
<glyph unicode="j" horiz-adv-x="199" d="M1 -161q34 6 45.5 25.5t11.5 54.5v581h59v-563q0 -79 -24 -108.5t-69 -29.5q-16 0 -23 1v39zM51 631q0 24 5.5 30.5t29.5 6.5q25 0 31 -6t6 -31q0 -23 -6.5 -30t-30.5 -7q-23 0 -29 7t-6 30z" />
<glyph unicode="k" horiz-adv-x="448" d="M56 0v693h56v-374h85l125 257h63l-138 -285l162 -291h-66l-145 259h-86v-259h-56z" />
<glyph unicode="l" horiz-adv-x="210" d="M55 130v563h58v-581q0 -20 1 -29.5t5.5 -22t15.5 -19t29 -9.5v-39q-7 -1 -16 -1q-45 0 -69 29.5t-24 108.5z" />
<glyph unicode="m" horiz-adv-x="724" d="M56 0v499h46l7 -33q92 42 181 42q53 0 83 -38q88 38 187 38q101 0 101 -118v-390h-58v398q0 47 -46 47q-81 0 -167 -30l1 -415h-59v398q0 49 -46 49q-28 0 -79.5 -11t-93.5 -31v-405h-57z" />
<glyph unicode="n" horiz-adv-x="464" d="M56 0v500h47l5 -36q96 44 183 44q101 0 101 -117v-391h-58v398q0 49 -49 49q-93 0 -172 -41v-406h-57z" />
<glyph unicode="o" d="M43 250q0 157 33 208.5t144 51.5q113 0 146.5 -52t33.5 -208q0 -155 -33.5 -207t-146.5 -52q-47 0 -77.5 8.5t-51 24.5t-30.5 49t-14 73t-4 104zM102 250q0 -132 19.5 -168.5t98.5 -36.5q81 0 101 36.5t20 168.5q0 135 -20.5 171.5t-100.5 36.5q-79 0 -98.5 -37.5 t-19.5 -170.5z" />
<glyph unicode="p" horiz-adv-x="441" d="M56 -201v701h38l10 -39q77 45 155 45q63 0 91.5 -62t28.5 -200v-31q-3 -123 -30 -173.5t-97 -50.5q-47 0 -140 10v-200h-56zM112 60q49 -12 129 -12h6q13 0 24 3.5t18 12t12.5 16.5t9 23t5 24.5t2.5 29t1 28.5v30q0 133 -16 184.5t-60 51.5q-53 0 -131 -42v-349z" />
<glyph unicode="q" horiz-adv-x="445" d="M41 215q0 68 3 110t13 80.5t28.5 59t50 32t77.5 11.5q72 0 158 -10v-699h-57v212q-52 -21 -139 -21q-73 0 -103.5 52.5t-30.5 172.5zM103 217q0 -34 1 -55t5 -45t12 -36.5t22.5 -21t35.5 -8.5q91 0 136 18v371q-26 5 -100 5q-24 0 -41.5 -5t-29.5 -11.5t-20 -23.5 t-12 -30t-6 -43.5t-2.5 -50.5t-0.5 -64z" />
<glyph unicode="r" horiz-adv-x="304" d="M56 0v500h47l6 -33q76 35 155 41v-62q-82 -8 -151 -40v-406h-57z" />
<glyph unicode="s" horiz-adv-x="391" d="M31 378q0 65 36 98t95 33q42 0 80 -1.5t54 -3.5l17 -2v-58q-59 7 -147 7q-40 0 -58 -16t-18 -51q0 -34 26 -56.5t63 -37t73.5 -31.5t62.5 -50t26 -81q0 -65 -36 -98t-95 -33q-43 0 -81 1.5t-55 3.5l-16 2v58q60 -7 147 -7q41 0 59 16t18 51q0 34 -26 56.5t-63 37 t-73.5 31t-62.5 49.5t-26 82z" />
<glyph unicode="t" horiz-adv-x="339" d="M17 447v53h106v131h56v-131h111v-53h-111v-292q0 -62 17 -87.5t57 -25.5q21 0 47 6q0 -6 0.5 -24t0.5 -24q-40 -9 -53 -9q-74 0 -99.5 41t-25.5 125v290h-106z" />
<glyph unicode="u" horiz-adv-x="464" d="M53 107v391h59v-398q0 -49 48 -49q93 0 172 41v406h58v-500h-47l-6 36q-93 -43 -182 -43q-102 0 -102 116z" />
<glyph unicode="v" horiz-adv-x="432" d="M9 500h60l136 -447l136 447h59l-153 -500h-84z" />
<glyph unicode="w" horiz-adv-x="658" d="M22 500h58l88 -436l115 436h77l115 -436l89 436h58l-102 -500h-84l-115 434l-111 -434h-86z" />
<glyph unicode="x" horiz-adv-x="382" d="M18 0l126 249l-122 250h60l91 -195l94 195h58l-121 -250l125 -249h-57l-99 193l-95 -193h-60z" />
<glyph unicode="y" horiz-adv-x="433" d="M9 500h60l136 -447l136 447h59l-216 -701h-56l60 201h-25z" />
<glyph unicode="z" horiz-adv-x="378" d="M32 1v56l219 386h-214v58h283v-59l-218 -382h223v-59h-293z" />
<glyph unicode="{" horiz-adv-x="272" d="M9 317v48q39 31 53 58t14 79v185q0 73 28 106t114 33h16v-57h-16q-55 0 -69.5 -16.5t-14.5 -65.5v-185q0 -59 -15 -95.5t-52 -65.5q37 -30 52 -66.5t15 -94.5v-185q0 -49 14.5 -66t69.5 -17h16v-56h-16q-85 0 -113.5 33.5t-28.5 105.5v185q0 52 -14 79t-53 58z" />
<glyph unicode="|" horiz-adv-x="170" d="M53 -210v1000h35v-1000h-35z" />
<glyph unicode="}" horiz-adv-x="272" d="M15 -88h16q55 0 69.5 17t14.5 66v185q0 58 15.5 94.5t52.5 66.5q-37 29 -52.5 65.5t-15.5 95.5v185q0 49 -14.5 65.5t-69.5 16.5h-16v57h16q86 0 114.5 -33t28.5 -106v-185q0 -52 13.5 -79t52.5 -58v-48q-39 -31 -52.5 -58t-13.5 -79v-185q0 -72 -29 -105.5t-114 -33.5 h-16v56z" />
<glyph unicode="~" horiz-adv-x="429" d="M43 268q44 44 81 47q22 1 70.5 -15.5t81.5 -17.5q29 0 68 32l24 -37q-15 -22 -41 -34.5t-52 -14.5q-13 0 -25.5 1.5t-26 5.5t-21 6.5t-24 9.5t-21.5 9q-41 12 -90 -30z" />
<glyph unicode="&#xa1;" horiz-adv-x="187" d="M51 -176v551h57v-551h-57zM51 490q0 19 5 25t23 6q19 0 24 -6t5 -25q0 -21 -5.5 -26.5t-23.5 -5.5t-23 5.5t-5 26.5z" />
<glyph unicode="&#xa2;" horiz-adv-x="443" d="M49 311q0 167 26 222t121 62v80h55v-80q72 -4 113 -12v-56q-120 10 -135 10q-27 0 -45 -3.5t-31.5 -8.5t-22 -20t-13.5 -27.5t-7 -42.5t-2.5 -54t-0.5 -73q0 -63 6 -97.5t25.5 -53.5t44.5 -23.5t74 -4.5q17 1 55 4t56 4v-49q-38 -10 -117 -16v-80h-55v80q-81 3 -114 51 t-33 188z" />
<glyph unicode="&#xa3;" horiz-adv-x="427" d="M32 0v53q41 2 53.5 25.5t12.5 96.5v164h-56v42h56v84q0 104 22 152t81 58q56 8 162 -15v-46q-69 13 -120 13q-30 0 -49 -13.5t-27 -39t-9.5 -50t-0.5 -60.5v-83h175v-42h-175v-172q0 -79 -18 -110h229v-57h-336z" />
<glyph unicode="&#xa4;" horiz-adv-x="480" d="M45 527l38 42l64 -68q42 17 79 17q42 0 85 -17l64 73l41 -46l-62 -69q17 -37 17 -119q0 -85 -18 -122l62 -70l-42 -41l-64 69q-39 -15 -77 -15q-40 0 -83 15l-65 -70l-38 45l57 65q-17 42 -17 117q0 77 17 128zM139 340q0 -75 16.5 -99.5t73.5 -24.5q56 0 72.5 25 t16.5 99t-17 99t-72 25q-57 0 -73.5 -25t-16.5 -99z" />
<glyph unicode="&#xa5;" horiz-adv-x="508" d="M21 666h61l157 -349l162 349h62l-193 -415h125v-52h-303v52h122zM94 78v51h303v-51h-127v-78h-55v78h-121z" />
<glyph unicode="&#xa6;" horiz-adv-x="183" d="M55 207h44v-417h-44v417zM55 373v417h44v-417h-44z" />
<glyph unicode="&#xa7;" horiz-adv-x="439" d="M27 283q0 63 34.5 96t90.5 35q-81 45 -81 127q0 65 36 98t95 33q43 0 81 -2t55 -4l16 -1v-58q-60 7 -147 7q-41 0 -59 -16t-18 -51q0 -34 26 -56.5t63 -37t74 -31.5t63 -50t26 -81q0 -64 -34.5 -96.5t-91.5 -34.5q81 -45 81 -127q0 -65 -36 -98t-95 -33q-42 0 -80 2 t-54 4l-17 1v58q59 -7 147 -7q40 0 58 16t18 51q0 34 -26 56.5t-63 37t-73.5 31t-62.5 49.5t-26 82zM86 289q0 -41 38 -67q50 -4 122 -4q40 0 58 16t18 51q0 40 -39 66q-63 5 -120 5q-41 0 -59 -16t-18 -51z" />
<glyph unicode="&#xa8;" horiz-adv-x="350" d="M54 593q0 26 5.5 33t27.5 7q23 0 29.5 -7t6.5 -33q0 -23 -6 -30t-30 -7q-22 0 -27.5 7t-5.5 30zM209 593q0 26 5 33t28 7t29.5 -7t6.5 -33q0 -22 -6 -29.5t-30 -7.5q-22 0 -27.5 6.5t-5.5 30.5z" />
<glyph unicode="&#xa9;" horiz-adv-x="681" d="M31 332q0 146 85.5 245t221.5 99q137 0 223 -99t86 -245q0 -144 -86 -243t-223 -99q-136 0 -221.5 99t-85.5 243zM77 332q0 -126 71 -210t190 -84t190.5 84t71.5 210q0 127 -71.5 211.5t-190.5 84.5q-118 0 -189.5 -84.5t-71.5 -211.5zM220 314q0 123 21.5 159.5 t104.5 36.5q46 0 90 -8v-39q-82 7 -92 7q-59 0 -72 -28t-13 -131q0 -43 4 -66t18.5 -35t31 -14.5t51.5 -2.5q8 0 75 5v-34q-46 -11 -103 -11q-44 0 -66.5 9.5t-36 45t-13.5 106.5z" />
<glyph unicode="&#xaa;" horiz-adv-x="296" d="M34 483q0 45 23.5 61t68.5 16h65v55q0 23 -11.5 30.5t-38.5 7.5q-18 0 -48.5 -4t-34.5 -4q-8 35 -8 37q53 11 99 11q43 0 61.5 -16.5t18.5 -62.5v-219h-34l-3 23q-54 -29 -91 -29q-67 0 -67 94zM71 481q0 -52 34 -52q26 0 83 27q1 1 3 1v69h-36q-48 0 -66 -8.5t-18 -36.5 z" />
<glyph unicode="&#xab;" horiz-adv-x="429" d="M30 244l115 194l43 -31l-96 -163l96 -163l-43 -31zM195 244l116 194l44 -31l-98 -163l98 -163l-44 -31z" />
<glyph unicode="&#xac;" horiz-adv-x="495" d="M57 211v60h362v-225h-46v165h-316z" />
<glyph unicode="&#xad;" horiz-adv-x="375" d="M43 264v35h280v-35h-280z" />
<glyph unicode="&#xae;" horiz-adv-x="416" d="M40 514q0 77 44.5 129t117.5 52q74 0 118 -52t44 -129t-44 -129t-118 -52q-73 0 -117.5 52t-44.5 129zM71 514q0 -63 34.5 -105t96.5 -42t96.5 41.5t34.5 105.5t-34.5 106t-96.5 42q-61 0 -96 -42t-35 -106zM155 435v166h57q48 0 48 -41v-20q0 -23 -16 -34l12 -71h-20 l-10 65q-7 -1 -53 -1v-64h-18zM173 518h38q31 0 31 22v19q-1 23 -31 23h-38v-64z" />
<glyph unicode="&#xaf;" horiz-adv-x="337" d="M51 566v49h213v-49h-213z" />
<glyph unicode="&#xb0;" horiz-adv-x="283" d="M33 555q0 46 26.5 76t72.5 30q45 0 71.5 -30t26.5 -76t-26.5 -75.5t-71.5 -29.5q-47 0 -73 29.5t-26 75.5zM67 555q0 -30 17 -51.5t48 -21.5q30 0 47 21.5t17 51.5q0 31 -16.5 52.5t-47.5 21.5t-48 -21.5t-17 -52.5z" />
<glyph unicode="&#xb1;" horiz-adv-x="479" d="M48 0v58h365v-58h-365zM48 295v55h155v177h54v-177h156v-55h-156v-177h-54v177h-155z" />
<glyph unicode="&#xb2;" horiz-adv-x="355" d="M33 229v42q112 143 146.5 197t34.5 83q0 30 -17.5 43.5t-57.5 13.5l-93 -1v45q34 2 97 2q59 0 91 -22.5t32 -81.5q0 -34 -28 -84.5t-55.5 -85t-87.5 -107.5h192v-44h-254z" />
<glyph unicode="&#xb3;" horiz-adv-x="310" d="M41 229v38h63q53 0 76 15t23 51v25q0 36 -19 50.5t-56 14.5h-59v38h59q75 0 75 65v28q0 19 -5.5 32t-11 19.5t-22 9t-25.5 3t-35 0.5h-63v36l59 2q29 0 46 -1t39 -6t34 -15t20.5 -29t8.5 -47v-32q-2 -36 -13.5 -53.5t-36.5 -30.5q25 -8 37.5 -32t12.5 -52v-27 q0 -59 -34.5 -82t-113.5 -21z" />
<glyph unicode="&#xb4;" horiz-adv-x="278" d="M56 580l77 157l42 -26l-81 -154z" />
<glyph unicode="&#xb5;" horiz-adv-x="458" d="M56 -200v698h58v-398q0 -49 49 -49q93 0 172 41v406h57v-500h-46l-6 36q-93 -43 -183 -43q-21 0 -44 7v-198h-57z" />
<glyph unicode="&#xb6;" horiz-adv-x="513" d="M24 486q0 71 4.5 107t22 63t49.5 35t90 8h244v-900h-59v834h-47v-834h-55v531q-26 -9 -66 -9q-41 0 -62.5 1t-46 6t-35.5 15t-21.5 29t-14 46.5t-3.5 67.5z" />
<glyph unicode="&#xb7;" horiz-adv-x="211" d="M49 318q0 30 8 38t38 8q31 0 38.5 -8t7.5 -38t-7.5 -39t-38.5 -9q-30 0 -38 9t-8 39z" />
<glyph unicode="&#xb8;" horiz-adv-x="280" d="M111 -199l2 31q34 -2 46 -2q25 0 30.5 6.5t5.5 32.5t-11 26q-25 0 -63 -2l18 107h35l-11 -72q5 0 13 0.5t12 0.5q11 0 16 -1q28 -6 28 -61q0 -40 -15.5 -56t-46.5 -16q-13 0 -59 6z" />
<glyph unicode="&#xb9;" horiz-adv-x="220" d="M22 618v34h120v-411h-47v377h-73z" />
<glyph unicode="&#xba;" horiz-adv-x="332" d="M59 541q0 70 9.5 102t30 42.5t67.5 10.5q53 0 72 -31.5t19 -123.5q0 -89 -18.5 -121t-77.5 -32q-41 0 -61 10t-30.5 43t-10.5 100zM110 521q0 -58 7 -73.5t42 -15.5q20 1 26.5 2.5t14 12.5t8.5 31t1 63q0 71 -9 91t-42 20q-34 0 -41 -18.5t-7 -92.5v-20z" />
<glyph unicode="&#xbb;" horiz-adv-x="430" d="M36 86l97 163l-97 163l43 31l116 -194l-116 -194zM202 86l97 163l-97 163l44 31l116 -194l-116 -194z" />
<glyph unicode="&#xbc;" horiz-adv-x="441" d="M26 240v54h382v-54h-382zM74 -76l144 244h68v-241h58v-46h-58v-131h-41v131h-171v43zM128 -73h117v197zM130 746v34h120v-411h-47v377h-73z" />
<glyph unicode="&#xbd;" horiz-adv-x="437" d="M22 239v53l382 1v-54h-382zM94 -204q111 142 145.5 196.5t34.5 83.5q0 30 -17 43.5t-57 13.5l-94 -1v45q34 2 97 2q60 0 92 -22.5t32 -81.5q0 -26 -11.5 -55.5t-44 -74t-49 -65.5t-66.5 -82h191v-44h-253v42zM122 745v34h121v-411h-47v377h-74z" />
<glyph unicode="&#xbe;" horiz-adv-x="441" d="M24 242v53l382 1v-53zM72 -75l144 244h68v-241h58v-46h-58v-131h-41v131h-171v43zM126 -72h117v197zM128 360v38h57q53 0 76 15t23 51v25q0 36 -19 50.5t-56 14.5h-59v38h59q75 0 75 65v28q0 19 -5.5 32t-11 19.5t-22 9t-25.5 3t-35 0.5h-57v36l53 2q29 0 46 -1t39 -6 t34 -15t20.5 -29t8.5 -47v-32q-2 -36 -13.5 -53.5t-36.5 -30.5q25 -8 37.5 -32t12.5 -52v-27q0 -59 -34.5 -82t-113.5 -21z" />
<glyph unicode="&#xbf;" horiz-adv-x="382" d="M24 -17q5 90 42.5 128t132.5 38h32v132h54v-190h-1v-1h-85q-113 0 -113 -107v-17q0 -17 1 -30.5t6 -24t7.5 -19t12 -14t13 -9.5t18 -6.5t19 -4t23.5 -2t23.5 -0.5h27.5h96v-56h-91q-42 0 -67.5 2t-57.5 10.5t-50 24.5t-30.5 46.5t-12.5 74.5v25zM230 472q0 19 5 25t24 6 q18 0 23 -6t5 -25q0 -21 -5 -26.5t-23 -5.5t-23.5 5.5t-5.5 26.5z" />
<glyph unicode="&#xc0;" horiz-adv-x="542" d="M5 0l198 666h98l199 -666h-57l-55 174h-268l-53 -174h-62zM138 233h231l-116 392zM160 876l42 26l78 -157l-38 -23z" />
<glyph unicode="&#xc1;" horiz-adv-x="542" d="M5 0l198 666h98l199 -666h-57l-55 174h-268l-53 -174h-62zM138 233h231l-116 392zM216 738l77 157l43 -26l-82 -154z" />
<glyph unicode="&#xc2;" horiz-adv-x="542" d="M5 0l198 666h98l199 -666h-57l-55 174h-268l-53 -174h-62zM121 759l127 108l124 -110l-25 -34l-99 84l-104 -82zM138 233h231l-116 392z" />
<glyph unicode="&#xc3;" horiz-adv-x="542" d="M5 0l198 666h98l199 -666h-57l-55 174h-268l-53 -174h-62zM125 758q30 50 74 50q16 0 53.5 -17.5t46.5 -17.5q24 0 43 25l26 -26q-26 -49 -69 -49q-20 0 -52 16q-36 19 -50 19q-22 0 -49 -29zM138 233h231l-116 392z" />
<glyph unicode="&#xc4;" horiz-adv-x="542" d="M5 0l198 666h98l199 -666h-57l-55 174h-268l-53 -174h-62zM135 759q0 26 5.5 33t27.5 7q23 0 29.5 -7t6.5 -33q0 -23 -6 -30t-30 -7q-22 0 -27.5 7t-5.5 30zM138 233h231l-116 392zM290 759q0 26 5 33t28 7t29.5 -7t6.5 -33q0 -22 -6 -29.5t-30 -7.5q-22 0 -27.5 6.5 t-5.5 30.5z" />
<glyph unicode="&#xc5;" horiz-adv-x="542" d="M5 0l198 666h98l199 -666h-57l-55 174h-268l-53 -174h-62zM138 233h231l-116 392zM183 792q0 29 18 49.5t44 20.5t44.5 -20.5t18.5 -49.5t-18.5 -49t-44.5 -20t-44 20.5t-18 48.5zM212 792q0 -15 10 -26.5t23 -11.5q14 0 24 11.5t10 26.5q0 16 -10 27.5t-24 11.5 q-13 0 -23 -11.5t-10 -27.5z" />
<glyph unicode="&#xc6;" horiz-adv-x="737" d="M-2 0l198 666h478v-61h-362l69 -230h269v-67h-250l72 -239h209v-69h-245l-55 174h-269l-53 -174h-61zM130 233h232l-118 393z" />
<glyph unicode="&#xc7;" horiz-adv-x="487" d="M44 298q0 62 1.5 104.5t6 84t11.5 67t20 49t30 36.5t42.5 22.5t56 13t72.5 3.5q51 0 139 -11v-57q-126 10 -139 10q-27 0 -48 -1.5t-39 -7t-30.5 -10.5t-23 -19t-17 -24t-11 -34t-7 -41t-4 -52.5t-1.5 -61.5v-75q0 -60 3.5 -100t15 -68.5t24.5 -43t41.5 -23t55 -10 t76.5 -1.5q59 0 104 5v-49q-73 -11 -144 -13l-9 -59q5 0 13 0.5t12 0.5q11 0 16 -1q28 -6 28 -61q0 -40 -15.5 -56t-46.5 -16q-13 0 -59 6l2 31q34 -2 46 -2q25 0 30.5 6.5t5.5 32.5t-11 26q-26 0 -62 -2l14 94q-56 2 -89.5 13t-60.5 43t-38 92.5t-11 158.5z" />
<glyph unicode="&#xc8;" horiz-adv-x="476" d="M64 0v667h344v-63h-286v-232h261v-65h-261v-245h286v-62h-344zM151 878l42 26l78 -157l-38 -23z" />
<glyph unicode="&#xc9;" horiz-adv-x="476" d="M64 0v667h344v-63h-286v-232h261v-65h-261v-245h286v-62h-344zM203 746l78 157l42 -26l-82 -154z" />
<glyph unicode="&#xca;" horiz-adv-x="476" d="M64 0v667h344v-63h-286v-232h261v-65h-261v-245h286v-62h-344zM112 758l127 108l124 -110l-25 -34l-99 84l-104 -82z" />
<glyph unicode="&#xcb;" horiz-adv-x="476" d="M64 0v667h344v-63h-286v-232h261v-65h-261v-245h286v-62h-344zM118 759q0 26 5.5 33t27.5 7q23 0 29.5 -7t6.5 -33q0 -22 -6 -29.5t-30 -7.5q-22 0 -27.5 7t-5.5 30zM273 759q0 26 5 33t28 7t29.5 -7t6.5 -33q0 -22 -6 -29.5t-30 -7.5q-22 0 -27.5 6.5t-5.5 30.5z" />
<glyph unicode="&#xcc;" horiz-adv-x="211" d="M0 878l42 26l78 -157l-38 -23zM64 0v666h58v-666h-58z" />
<glyph unicode="&#xcd;" horiz-adv-x="216" d="M63 746l77 157l43 -26l-82 -154zM64 0v666h58v-666h-58z" />
<glyph unicode="&#xce;" horiz-adv-x="216" d="M-29 758l127 108l123 -110l-24 -34l-99 84l-104 -82zM64 0v666h58v-666h-58z" />
<glyph unicode="&#xcf;" horiz-adv-x="218" d="M-14 759q0 26 5 33t28 7t29.5 -7t6.5 -33q0 -22 -6 -29.5t-30 -7.5q-22 0 -27.5 6.5t-5.5 30.5zM64 0v666h58v-666h-58zM140 759q0 26 5.5 33t28.5 7t29.5 -7t6.5 -33q0 -22 -6 -29.5t-30 -7.5q-23 0 -28.5 7t-5.5 30z" />
<glyph unicode="&#xd0;" horiz-adv-x="541" d="M15 335v49h43v281l207 3q78 1 120.5 -24.5t64.5 -100t22 -213.5q0 -137 -19 -207t-59.5 -96.5t-119.5 -26.5h-216v335h-43zM116 59l156 -1q39 3 59.5 8.5t39 19.5t26 44.5t11.5 77t4 122.5q0 125 -14 185t-42.5 78.5t-87.5 17.5l-152 -2v-225h108v-49h-108v-276z" />
<glyph unicode="&#xd1;" horiz-adv-x="581" d="M64 0v667h84l289 -598v598h60v-667h-92l-284 597v-597h-57zM156 757q13 21 33 35.5t40 14.5q16 0 53.5 -17.5t46.5 -17.5q23 0 44 25l26 -26q-28 -49 -70 -49q-20 0 -51 16q-38 19 -50 19q-23 0 -49 -29z" />
<glyph unicode="&#xd2;" horiz-adv-x="546" d="M53 333q0 75 2.5 123t11 89.5t22 64.5t37.5 39.5t56 22t79 5.5q48 0 80.5 -6t57 -22.5t38 -39.5t22 -64.5t11 -89.5t2.5 -122q0 -75 -2.5 -123t-11 -89.5t-22.5 -64t-38.5 -38.5t-56.5 -21.5t-80 -5.5q-47 0 -79.5 6t-56.5 23t-37.5 40t-21.5 64.5t-10.5 88.5t-2.5 120z M112 333q0 -51 0.5 -81t3 -63.5t6.5 -51t11.5 -36.5t18 -27.5t26.5 -16.5t36 -10t47 -2q36 0 59.5 3.5t41.5 17t27 31t15 53.5t7.5 76t1.5 107t-1.5 106.5t-7 76.5t-15 54.5t-27 31t-41 17.5t-60.5 4q-32 0 -53.5 -4t-38.5 -11t-27 -25t-16.5 -35t-9 -53.5t-3.5 -69.5 t-1 -92zM175 878l42 26l77 -157l-38 -23z" />
<glyph unicode="&#xd3;" horiz-adv-x="546" d="M53 333q0 75 2.5 123t11 89.5t22 64.5t37.5 39.5t56 22t79 5.5q48 0 80.5 -6t57 -22.5t38 -39.5t22 -64.5t11 -89.5t2.5 -122q0 -75 -2.5 -123t-11 -89.5t-22.5 -64t-38.5 -38.5t-56.5 -21.5t-80 -5.5q-47 0 -79.5 6t-56.5 23t-37.5 40t-21.5 64.5t-10.5 88.5t-2.5 120z M112 333q0 -51 0.5 -81t3 -63.5t6.5 -51t11.5 -36.5t18 -27.5t26.5 -16.5t36 -10t47 -2q36 0 59.5 3.5t41.5 17t27 31t15 53.5t7.5 76t1.5 107t-1.5 106.5t-7 76.5t-15 54.5t-27 31t-41 17.5t-60.5 4q-32 0 -53.5 -4t-38.5 -11t-27 -25t-16.5 -35t-9 -53.5t-3.5 -69.5 t-1 -92zM220 746l78 157l42 -26l-82 -154z" />
<glyph unicode="&#xd4;" horiz-adv-x="546" d="M53 333q0 75 2.5 123t11 89.5t22 64.5t37.5 39.5t56 22t79 5.5q48 0 80.5 -6t57 -22.5t38 -39.5t22 -64.5t11 -89.5t2.5 -122q0 -75 -2.5 -123t-11 -89.5t-22.5 -64t-38.5 -38.5t-56.5 -21.5t-80 -5.5q-47 0 -79.5 6t-56.5 23t-37.5 40t-21.5 64.5t-10.5 88.5t-2.5 120z M112 333q0 -51 0.5 -81t3 -63.5t6.5 -51t11.5 -36.5t18 -27.5t26.5 -16.5t36 -10t47 -2q36 0 59.5 3.5t41.5 17t27 31t15 53.5t7.5 76t1.5 107t-1.5 106.5t-7 76.5t-15 54.5t-27 31t-41 17.5t-60.5 4q-32 0 -53.5 -4t-38.5 -11t-27 -25t-16.5 -35t-9 -53.5t-3.5 -69.5 t-1 -92zM139 758l126 108l124 -110l-25 -34l-99 84l-104 -82z" />
<glyph unicode="&#xd5;" horiz-adv-x="546" d="M53 333q0 75 2.5 123t11 89.5t22 64.5t37.5 39.5t56 22t79 5.5q48 0 80.5 -6t57 -22.5t38 -39.5t22 -64.5t11 -89.5t2.5 -122q0 -75 -2.5 -123t-11 -89.5t-22.5 -64t-38.5 -38.5t-56.5 -21.5t-80 -5.5q-47 0 -79.5 6t-56.5 23t-37.5 40t-21.5 64.5t-10.5 88.5t-2.5 120z M112 333q0 -51 0.5 -81t3 -63.5t6.5 -51t11.5 -36.5t18 -27.5t26.5 -16.5t36 -10t47 -2q36 0 59.5 3.5t41.5 17t27 31t15 53.5t7.5 76t1.5 107t-1.5 106.5t-7 76.5t-15 54.5t-27 31t-41 17.5t-60.5 4q-32 0 -53.5 -4t-38.5 -11t-27 -25t-16.5 -35t-9 -53.5t-3.5 -69.5 t-1 -92zM143 755q30 50 74 50q15 0 53 -17.5t47 -17.5q24 0 43 25l26 -26q-26 -49 -69 -49q-20 0 -52 16q-36 19 -50 19q-22 0 -49 -29z" />
<glyph unicode="&#xd6;" horiz-adv-x="546" d="M53 333q0 75 2.5 123t11 89.5t22 64.5t37.5 39.5t56 22t79 5.5q48 0 80.5 -6t57 -22.5t38 -39.5t22 -64.5t11 -89.5t2.5 -122q0 -75 -2.5 -123t-11 -89.5t-22.5 -64t-38.5 -38.5t-56.5 -21.5t-80 -5.5q-47 0 -79.5 6t-56.5 23t-37.5 40t-21.5 64.5t-10.5 88.5t-2.5 120z M112 333q0 -51 0.5 -81t3 -63.5t6.5 -51t11.5 -36.5t18 -27.5t26.5 -16.5t36 -10t47 -2q36 0 59.5 3.5t41.5 17t27 31t15 53.5t7.5 76t1.5 107t-1.5 106.5t-7 76.5t-15 54.5t-27 31t-41 17.5t-60.5 4q-32 0 -53.5 -4t-38.5 -11t-27 -25t-16.5 -35t-9 -53.5t-3.5 -69.5 t-1 -92zM151 760q0 26 5.5 33t27.5 7q23 0 29.5 -7t6.5 -33q0 -23 -6 -30t-30 -7q-22 0 -27.5 7t-5.5 30zM306 760q0 26 5.5 33t27.5 7q23 0 29.5 -7t6.5 -33q0 -23 -6 -30t-30 -7q-22 0 -27.5 7t-5.5 30z" />
<glyph unicode="&#xd7;" d="M43 89l140 155l-140 156l37 41l140 -155l140 155l38 -41l-140 -156l140 -155l-38 -42l-140 155l-140 -155z" />
<glyph unicode="&#xd8;" horiz-adv-x="546" d="M53 333q0 75 2.5 123t11 89.5t22 64.5t37.5 39.5t56 22t79 5.5q39 0 64 -4l14 52h49l-18 -63q62 -22 82 -93t20 -236q0 -75 -2.5 -123t-11 -89.5t-22.5 -64t-38.5 -38.5t-56.5 -21.5t-80 -5.5q-44 0 -77 6l-18 -64h-47l21 78q-53 26 -70 96t-17 226zM112 333 q0 -132 7.5 -186.5t37.5 -77.5l153 551q-22 3 -49 3q-32 0 -53.5 -4t-38.5 -11t-27 -25t-16.5 -35t-9 -53.5t-3.5 -69.5t-1 -92zM199 50q21 -5 62 -5q36 0 59.5 3.5t41.5 17t27 31t15 53.5t7.5 76t1.5 107q0 139 -10.5 196t-47.5 78z" />
<glyph unicode="&#xd9;" horiz-adv-x="570" d="M63 333v336h60v-336q0 -51 0.5 -81t3 -63.5t6.5 -51t12 -36.5t18.5 -27.5t27 -16.5t36.5 -10t48 -2q37 0 61 3.5t42.5 17t28 31t15.5 53.5t7.5 76t1.5 107v336h60v-336q0 -90 -4.5 -143.5t-16.5 -96.5t-37.5 -63t-62 -29.5t-95.5 -9.5q-58 0 -95 10.5t-61 31t-36 64 t-16 96t-4 140.5zM193 878l43 26l77 -157l-38 -23z" />
<glyph unicode="&#xda;" horiz-adv-x="570" d="M63 333v336h60v-336q0 -51 0.5 -81t3 -63.5t6.5 -51t12 -36.5t18.5 -27.5t27 -16.5t36.5 -10t48 -2q37 0 61 3.5t42.5 17t28 31t15.5 53.5t7.5 76t1.5 107v336h60v-336q0 -90 -4.5 -143.5t-16.5 -96.5t-37.5 -63t-62 -29.5t-95.5 -9.5q-58 0 -95 10.5t-61 31t-36 64 t-16 96t-4 140.5zM226 746l77 157l43 -26l-82 -154z" />
<glyph unicode="&#xdb;" horiz-adv-x="570" d="M63 333v336h60v-336q0 -51 0.5 -81t3 -63.5t6.5 -51t12 -36.5t18.5 -27.5t27 -16.5t36.5 -10t48 -2q37 0 61 3.5t42.5 17t28 31t15.5 53.5t7.5 76t1.5 107v336h60v-336q0 -90 -4.5 -143.5t-16.5 -96.5t-37.5 -63t-62 -29.5t-95.5 -9.5q-58 0 -95 10.5t-61 31t-36 64 t-16 96t-4 140.5zM155 758l127 108l123 -110l-24 -34l-99 84l-105 -82z" />
<glyph unicode="&#xdc;" horiz-adv-x="570" d="M63 333v336h60v-336q0 -51 0.5 -81t3 -63.5t6.5 -51t12 -36.5t18.5 -27.5t27 -16.5t36.5 -10t48 -2q37 0 61 3.5t42.5 17t28 31t15.5 53.5t7.5 76t1.5 107v336h60v-336q0 -90 -4.5 -143.5t-16.5 -96.5t-37.5 -63t-62 -29.5t-95.5 -9.5q-58 0 -95 10.5t-61 31t-36 64 t-16 96t-4 140.5zM168 759q0 26 5.5 33t28.5 7t29.5 -7t6.5 -33q0 -22 -6 -29.5t-30 -7.5q-23 0 -28.5 7t-5.5 30zM323 759q0 26 5.5 33t27.5 7q23 0 29.5 -7t6.5 -33q0 -23 -6 -30t-30 -7q-22 0 -27.5 7t-5.5 30z" />
<glyph unicode="&#xdd;" horiz-adv-x="469" d="M-5 667h72l153 -361l156 361h71l-197 -429v-238h-60v238zM193 746l77 157l42 -26l-82 -154z" />
<glyph unicode="&#xde;" horiz-adv-x="530" d="M63 0l1 664h62v-120h147q90 0 141 -34t51 -119v-84q0 -58 -35.5 -101t-92.5 -51q-34 -5 -212 -5v-150h-62zM125 201h145q31 0 51 3t41 13t31.5 32.5t10.5 57.5v83q0 35 -10.5 57.5t-32 32.5t-41.5 13t-50 3h-145v-295z" />
<glyph unicode="&#xdf;" horiz-adv-x="493" d="M9 -177q30 7 40 27.5t10 55.5v617q0 77 41.5 122.5t113.5 45.5q35 0 63 -3t59.5 -13t53 -27.5t35.5 -48.5t14 -73q0 -84 -82 -181q59 -23 76.5 -60.5t17.5 -100.5v-55q0 -35 -11 -59.5t-29 -39t-49.5 -22t-64 -10t-80.5 -2.5h-67q-2 0 -8.5 0.5t-10.5 0.5h-14v-75 q0 -72 -23 -98t-67 -26q-11 0 -18 1v24zM117 50h102q36 0 49.5 0.5t39.5 2.5t36 8t23 16t17.5 26.5t4.5 40.5v38q0 72 -24.5 94.5t-87.5 22.5h-160v-249zM118 351h173q90 84 90 171q0 38 -14 63t-40.5 36.5t-52 15t-60.5 3.5q-40 0 -68 -27.5t-28 -92.5v-169z" />
<glyph unicode="&#xe0;" horiz-adv-x="436" d="M31 150q0 76 39 101.5t117 28.5h119v100q0 45 -21 58.5t-71 13.5q-39 0 -146 -14q-1 1 -5 27t-4 29q90 17 169 17q73 0 104.5 -27.5t31.5 -106.5v-377h-51l-6 44q-100 -54 -164 -54q-112 0 -112 160zM86 146q0 -45 13.5 -70t51.5 -25q20 0 48 9t65 24.5t42 17.5v127h-68 q-89 0 -120.5 -16.5t-31.5 -66.5zM129 712l42 26l77 -157l-37 -23z" />
<glyph unicode="&#xe1;" horiz-adv-x="436" d="M31 150q0 76 39 101.5t117 28.5h119v100q0 45 -21 58.5t-71 13.5q-39 0 -146 -14q-1 1 -5 27t-4 29q90 17 169 17q73 0 104.5 -27.5t31.5 -106.5v-377h-51l-6 44q-100 -54 -164 -54q-112 0 -112 160zM86 146q0 -45 13.5 -70t51.5 -25q20 0 48 9t65 24.5t42 17.5v127h-68 q-89 0 -120.5 -16.5t-31.5 -66.5zM174 577l77 157l42 -26l-82 -154z" />
<glyph unicode="&#xe2;" horiz-adv-x="437" d="M31 150q0 76 39 101.5t117 28.5h119v100q0 45 -21 58.5t-71 13.5q-39 0 -146 -14q-1 1 -5 27t-4 29q90 17 169 17q73 0 104.5 -27.5t31.5 -106.5v-377h-51l-6 44q-100 -54 -164 -54q-112 0 -112 160zM71 592l127 108l123 -110l-24 -34l-99 84l-104 -82zM86 146 q0 -45 13.5 -70t51.5 -25q20 0 48 9t65 24.5t42 17.5v127h-68q-89 0 -120.5 -16.5t-31.5 -66.5z" />
<glyph unicode="&#xe3;" horiz-adv-x="436" d="M31 150q0 76 39 101.5t117 28.5h119v100q0 45 -21 58.5t-71 13.5q-39 0 -146 -14q-1 1 -5 27t-4 29q90 17 169 17q73 0 104.5 -27.5t31.5 -106.5v-377h-51l-6 44q-100 -54 -164 -54q-112 0 -112 160zM82 587q30 50 74 50q15 0 52.5 -17.5t47.5 -17.5q22 0 43 25l26 -26 q-26 -49 -69 -49q-20 0 -52 16q-38 19 -50 19q-22 0 -49 -29zM86 146q0 -45 13.5 -70t51.5 -25q20 0 48 9t65 24.5t42 17.5v127h-68q-89 0 -120.5 -16.5t-31.5 -66.5z" />
<glyph unicode="&#xe4;" horiz-adv-x="436" d="M31 150q0 76 39 101.5t117 28.5h119v100q0 45 -21 58.5t-71 13.5q-39 0 -146 -14q-1 1 -5 27t-4 29q90 17 169 17q73 0 104.5 -27.5t31.5 -106.5v-377h-51l-6 44q-100 -54 -164 -54q-112 0 -112 160zM86 146q0 -45 13.5 -70t51.5 -25q20 0 48 9t65 24.5t42 17.5v127h-68 q-89 0 -120.5 -16.5t-31.5 -66.5zM95 593q0 26 5.5 33t28.5 7t29.5 -7t6.5 -33q0 -22 -6 -29.5t-30 -7.5q-23 0 -28.5 7t-5.5 30zM250 593q0 26 5.5 33t27.5 7q23 0 29.5 -7t6.5 -33q0 -23 -6 -30t-30 -7q-22 0 -27.5 7t-5.5 30z" />
<glyph unicode="&#xe5;" horiz-adv-x="436" d="M31 150q0 76 39 101.5t117 28.5h119v100q0 45 -21 58.5t-71 13.5q-39 0 -146 -14q-1 1 -5 27t-4 29q90 17 169 17q73 0 104.5 -27.5t31.5 -106.5v-377h-51l-6 44q-100 -54 -164 -54q-112 0 -112 160zM86 146q0 -45 13.5 -70t51.5 -25q20 0 48 9t65 24.5t42 17.5v127h-68 q-89 0 -120.5 -16.5t-31.5 -66.5zM153 626q0 29 18 49.5t44 20.5t44.5 -20.5t18.5 -49.5t-18.5 -49t-44.5 -20t-44 20.5t-18 48.5zM183 626q0 -15 9.5 -26.5t22.5 -11.5q14 0 24 11.5t10 26.5q0 16 -10 27.5t-24 11.5q-13 0 -22.5 -11.5t-9.5 -27.5z" />
<glyph unicode="&#xe6;" horiz-adv-x="700" d="M31 153q0 76 39 101.5t117 28.5h119v97q0 45 -21 58.5t-71 13.5q-39 0 -146 -14q-1 1 -5 27t-4 29q90 17 169 17q89 0 117 -42q35 43 135 43q110 0 142.5 -51.5t32.5 -209.5v-19l-291 -1q1 -50 2 -67t5.5 -40.5t13.5 -40.5q20 -36 121 -36q47 0 119 8v-48 q-92 -16 -162 -16q-92 0 -126 52q-73 -46 -165 -52q-69 -7 -105 35t-36 127zM86 149q0 -50 16.5 -75.5t62.5 -25.5q33 0 74 11.5t67 27.5v145h-68q-89 0 -120.5 -16.5t-31.5 -66.5zM365 286h233q-2 109 -22.5 140.5t-95.5 31.5q-41 0 -63.5 -6.5t-33.5 -33t-13 -43.5t-4 -73 q-1 -10 -1 -16z" />
<glyph unicode="&#xe7;" horiz-adv-x="419" d="M44 224q0 76 3.5 120t13.5 80.5t31.5 53t53 25t82.5 8.5q62 0 131 -13v-56q-120 10 -134 10q-23 0 -40 -1.5t-30 -8.5t-21.5 -13t-14.5 -23t-9 -29t-5 -41.5t-2 -50v-64.5q0 -50 5 -81t13 -50t28.5 -27.5t41.5 -11t62 -2.5q29 -1 111 8v-49q-61 -15 -144 -17l-9 -59 q5 0 13.5 0.5t12.5 0.5q10 0 16 -1q28 -6 28 -61q0 -40 -16 -56t-46 -16q-12 0 -60 6l3 31q32 -2 46 -2q25 0 30.5 6.5t5.5 32.5t-12 26q-24 0 -62 -2l15 95q-52 2 -80.5 19.5t-44.5 68t-16 144.5z" />
<glyph unicode="&#xe8;" horiz-adv-x="445" d="M44 251q0 81 5.5 126.5t24.5 78.5t52.5 44.5t91.5 11.5q110 0 142.5 -51.5t32.5 -209.5v-19h-2l-291 -1q1 -50 2 -67t5.5 -40.5t13.5 -40.5q19 -36 123 -36q46 0 120 8v-48q-94 -16 -162 -16q-96 0 -127 54t-31 206zM101 286h236q-3 109 -23.5 140.5t-95.5 31.5 q-34 0 -55.5 -7t-33.5 -17.5t-18 -33.5t-7.5 -45t-2.5 -62v-7zM137 712l42 26l77 -157l-37 -23z" />
<glyph unicode="&#xe9;" horiz-adv-x="445" d="M44 251q0 81 5.5 126.5t24.5 78.5t52.5 44.5t91.5 11.5q110 0 142.5 -51.5t32.5 -209.5v-19h-2l-291 -1q1 -50 2 -67t5.5 -40.5t13.5 -40.5q19 -36 123 -36q46 0 120 8v-48q-94 -16 -162 -16q-96 0 -127 54t-31 206zM101 286h236q-3 109 -23.5 140.5t-95.5 31.5 q-34 0 -55.5 -7t-33.5 -17.5t-18 -33.5t-7.5 -45t-2.5 -62v-7zM179 580l77 157l43 -26l-82 -154z" />
<glyph unicode="&#xea;" horiz-adv-x="445" d="M44 251q0 81 5.5 126.5t24.5 78.5t52.5 44.5t91.5 11.5q110 0 142.5 -51.5t32.5 -209.5v-19h-2l-291 -1q1 -50 2 -67t5.5 -40.5t13.5 -40.5q19 -36 123 -36q46 0 120 8v-48q-94 -16 -162 -16q-96 0 -127 54t-31 206zM86 592l127 108l124 -110l-25 -34l-99 84l-104 -82z M101 286h236q-3 109 -23.5 140.5t-95.5 31.5q-34 0 -55.5 -7t-33.5 -17.5t-18 -33.5t-7.5 -45t-2.5 -62v-7z" />
<glyph unicode="&#xeb;" horiz-adv-x="445" d="M44 251q0 81 5.5 126.5t24.5 78.5t52.5 44.5t91.5 11.5q110 0 142.5 -51.5t32.5 -209.5v-19h-2l-291 -1q1 -50 2 -67t5.5 -40.5t13.5 -40.5q19 -36 123 -36q46 0 120 8v-48q-94 -16 -162 -16q-96 0 -127 54t-31 206zM101 286h236q-3 109 -23.5 140.5t-95.5 31.5 q-34 0 -55.5 -7t-33.5 -17.5t-18 -33.5t-7.5 -45t-2.5 -62v-7zM103 593q0 26 5.5 33t28.5 7t29.5 -7t6.5 -33q0 -22 -6 -29.5t-30 -7.5q-23 0 -28.5 7t-5.5 30zM258 593q0 26 5.5 33t28.5 7t29.5 -7t6.5 -33q0 -22 -6 -29.5t-30 -7.5q-23 0 -28.5 7t-5.5 30z" />
<glyph unicode="&#xec;" horiz-adv-x="196" d="M-3 712l43 26l77 -157l-38 -23zM62 0v499h59v-499h-59z" />
<glyph unicode="&#xed;" horiz-adv-x="189" d="M45 580l77 157l43 -26l-82 -154zM54 0v499h59v-499h-59z" />
<glyph unicode="&#xee;" horiz-adv-x="196" d="M-36 592l127 108l123 -110l-24 -34l-99 84l-105 -82zM60 0v499h60v-499h-60z" />
<glyph unicode="&#xef;" horiz-adv-x="189" d="M-31 593q0 26 5.5 33t28.5 7t29.5 -7t6.5 -33q0 -22 -6 -29.5t-30 -7.5q-23 0 -28.5 7t-5.5 30zM52 0v499h60v-499h-60zM124 593q0 26 5.5 33t27.5 7q23 0 29.5 -7t6.5 -33q0 -23 -6 -30t-30 -7q-22 0 -27.5 7t-5.5 30z" />
<glyph unicode="&#xf0;" horiz-adv-x="449" d="M32 183q0 65 8.5 103.5t32 58t51 25t78.5 5.5q31 0 45.5 -0.5t39.5 -8.5t40 -25q-1 17 -2 60.5t-3 62t-10 46t-23 47.5h-1l-84 -92l-29 32l76 83q-16 18 -104 39l1 54q86 -22 140 -52l78 86l28 -32l-71 -79q40 -41 49.5 -103t9.5 -228v-53q0 -71 -5.5 -110t-24 -62.5 t-46 -30.5t-78.5 -7q-58 0 -90 5t-59 23.5t-37 55t-10 97.5zM90 193q0 -50 5 -78.5t20.5 -43t34 -18t55.5 -3.5q32 0 47.5 0.5t32 6.5t22 13.5t11 28t6 43t0.5 64.5q0 35 -6 58.5t-13.5 35.5t-26.5 18t-31 6.5t-41 0.5q-33 0 -47.5 -1.5t-31.5 -7.5t-23 -20.5t-10 -38.5 t-4 -64z" />
<glyph unicode="&#xf1;" horiz-adv-x="466" d="M56 0v500h47l5 -36q96 44 183 44q101 0 101 -117v-391h-58v398q0 49 -49 49q-93 0 -172 -41v-406h-57zM103 587q13 21 33 35.5t40 14.5q16 0 53.5 -17.5t46.5 -17.5q24 0 43 25l27 -26q-28 -49 -70 -49q-20 0 -51 16q-38 19 -50 19q-23 0 -49 -29z" />
<glyph unicode="&#xf2;" d="M43 250q0 157 33 208.5t144 51.5q113 0 146.5 -52t33.5 -208q0 -155 -33.5 -207t-146.5 -52q-47 0 -77.5 8.5t-51 24.5t-30.5 49t-14 73t-4 104zM102 250q0 -132 19.5 -168.5t98.5 -36.5q81 0 101 36.5t20 168.5q0 135 -20.5 171.5t-100.5 36.5q-79 0 -98.5 -37.5 t-19.5 -170.5zM135 712l42 26l78 -157l-38 -23z" />
<glyph unicode="&#xf3;" d="M43 250q0 157 33 208.5t144 51.5q113 0 146.5 -52t33.5 -208q0 -155 -33.5 -207t-146.5 -52q-47 0 -77.5 8.5t-51 24.5t-30.5 49t-14 73t-4 104zM102 250q0 -132 19.5 -168.5t98.5 -36.5q81 0 101 36.5t20 168.5q0 135 -20.5 171.5t-100.5 36.5q-79 0 -98.5 -37.5 t-19.5 -170.5zM187 580l78 157l42 -26l-82 -154z" />
<glyph unicode="&#xf4;" horiz-adv-x="462" d="M44 250q0 157 33 208.5t144 51.5q59 0 93.5 -11.5t54 -44t25.5 -78t6 -126.5q0 -156 -33.5 -207.5t-145.5 -51.5t-144.5 51.5t-32.5 207.5zM96 592l127 108l123 -110l-24 -34l-99 84l-104 -82zM103 250q0 -133 19.5 -169t98.5 -36q81 0 101 36.5t20 168.5 q0 135 -20.5 171.5t-100.5 36.5q-79 0 -98.5 -37t-19.5 -171z" />
<glyph unicode="&#xf5;" d="M43 250q0 157 33 208.5t144 51.5q113 0 146.5 -52t33.5 -208q0 -155 -33.5 -207t-146.5 -52q-47 0 -77.5 8.5t-51 24.5t-30.5 49t-14 73t-4 104zM92 587q30 50 74 50q15 0 52.5 -17.5t46.5 -17.5q23 0 44 25l26 -26q-28 -49 -70 -49q-19 0 -51 16q-38 19 -50 19 q-23 0 -49 -29zM102 250q0 -132 19.5 -168.5t98.5 -36.5q81 0 101 36.5t20 168.5q0 135 -20.5 171.5t-100.5 36.5q-79 0 -98.5 -37.5t-19.5 -170.5z" />
<glyph unicode="&#xf6;" d="M43 250q0 157 33 208.5t144 51.5q113 0 146.5 -52t33.5 -208q0 -155 -33.5 -207t-146.5 -52q-47 0 -77.5 8.5t-51 24.5t-30.5 49t-14 73t-4 104zM102 250q0 -132 19.5 -168.5t98.5 -36.5q81 0 101 36.5t20 168.5q0 135 -20.5 171.5t-100.5 36.5q-79 0 -98.5 -37.5 t-19.5 -170.5zM102 593q0 26 5 33t28 7t29.5 -7t6.5 -33q0 -22 -6 -29.5t-30 -7.5q-22 0 -27.5 6.5t-5.5 30.5zM256 593q0 26 5.5 33t28.5 7t29.5 -7t6.5 -33q0 -22 -6 -29.5t-30 -7.5q-23 0 -28.5 7t-5.5 30z" />
<glyph unicode="&#xf7;" horiz-adv-x="456" d="M44 206v76h350v-76h-350zM170 73q0 30 8 38t38 8t38 -8t8 -38t-8 -39t-38 -9t-38 9t-8 39zM170 413q0 30 8 38t38 8t38 -8t8 -38t-8 -39t-38 -9t-38 9t-8 39z" />
<glyph unicode="&#xf8;" d="M43 250q0 157 33 208.5t144 51.5q18 0 44 -2l13 47h44l-15 -55q56 -17 75 -72t19 -178q0 -155 -33.5 -207t-146.5 -52q-33 0 -54 4l-13 -46h-43l15 55q-49 19 -65.5 73.5t-16.5 172.5zM102 250q0 -93 7 -133.5t31 -56.5l110 397q-9 1 -30 1q-79 0 -98.5 -37.5 t-19.5 -170.5zM180 47q12 -2 40 -2q81 0 101 36.5t20 168.5q0 101 -9 142.5t-40 55.5z" />
<glyph unicode="&#xf9;" horiz-adv-x="464" d="M53 107v391h59v-398q0 -49 48 -49q93 0 172 41v406h58v-500h-47l-6 36q-93 -43 -182 -43q-102 0 -102 116zM138 712l42 26l77 -157l-37 -23z" />
<glyph unicode="&#xfa;" horiz-adv-x="464" d="M53 107v391h59v-398q0 -49 48 -49q93 0 172 41v406h58v-500h-47l-6 36q-93 -43 -182 -43q-102 0 -102 116zM193 580l78 157l42 -26l-82 -154z" />
<glyph unicode="&#xfb;" horiz-adv-x="464" d="M53 107v391h59v-398q0 -49 48 -49q93 0 172 41v406h58v-500h-47l-6 36q-93 -43 -182 -43q-102 0 -102 116zM106 592l127 108l123 -110l-24 -34l-99 84l-104 -82z" />
<glyph unicode="&#xfc;" horiz-adv-x="464" d="M53 107v391h59v-398q0 -49 48 -49q93 0 172 41v406h58v-500h-47l-6 36q-93 -43 -182 -43q-102 0 -102 116zM115 593q0 26 5.5 33t27.5 7q23 0 29.5 -7t6.5 -33q0 -23 -6 -30t-30 -7q-22 0 -27.5 7t-5.5 30zM270 593q0 26 5.5 33t27.5 7q23 0 29.5 -7t6.5 -33 q0 -23 -6 -30t-30 -7q-22 0 -27.5 7t-5.5 30z" />
<glyph unicode="&#xfd;" horiz-adv-x="427" d="M9 500h60l136 -447l136 447h59l-216 -701h-56l60 201h-25zM170 580l77 157l43 -26l-82 -154z" />
<glyph unicode="&#xfe;" horiz-adv-x="445" d="M56 -206v890h52v-197q67 22 143 22q75 0 106.5 -51t31.5 -170q0 -69 -3 -111t-13 -81.5t-29.5 -60t-52 -32.5t-80.5 -12q-44 0 -101 6v-203h-54zM110 44q34 -4 93 -4h6q21 0 37.5 3t28.5 12t20.5 17t14 27t8.5 33t4 43t1.5 49t0.5 60q0 103 -17 140t-80 37 q-57 0 -117 -21v-396z" />
<glyph unicode="&#xff;" horiz-adv-x="430" d="M9 500h60l136 -447l136 447h59l-216 -701h-56l60 201h-25zM106 593q0 26 5.5 33t27.5 7q23 0 29.5 -7t6.5 -33q0 -23 -6 -30t-30 -7q-22 0 -27.5 7t-5.5 30zM261 593q0 26 5.5 33t27.5 7q23 0 29.5 -7t6.5 -33q0 -23 -6 -30t-30 -7q-22 0 -27.5 7t-5.5 30z" />
<glyph unicode="&#x152;" horiz-adv-x="784" d="M46 335q0 78 4 126.5t16.5 92t36 66t62 35t95.5 12.5h464v-62h-285v-233h261v-65h-261v-247h285v-60h-464q-46 1 -72.5 5.5t-58 20t-49.5 50.5t-26 91q-8 69 -8 168zM108 335q0 -180 25 -229q11 -21 36.5 -32t43.5 -12.5t48 -1.5h120v546h-120q-38 0 -59.5 -4 t-42.5 -18.5t-30.5 -44t-15 -79t-5.5 -125.5z" />
<glyph unicode="&#x153;" horiz-adv-x="739" d="M43 250q0 157 33 208.5t144 51.5q115 0 149 -56q33 58 146 58q110 0 142.5 -51.5t32.5 -209.5v-19l-290 -1q0 -8 -0.5 -28.5t-0.5 -32t1.5 -29t6 -31.5t11.5 -27q18 -36 123 -36q46 0 120 8v-48q-94 -16 -162 -16q-97 0 -129 58q-18 -32 -53.5 -45t-96.5 -13 q-47 0 -77.5 8.5t-51 24.5t-30.5 49t-14 73t-4 104zM102 250q0 -132 19.5 -168.5t98.5 -36.5q81 0 101 36.5t20 168.5v1q0 134 -20.5 170.5t-100.5 36.5q-79 0 -98.5 -37.5t-19.5 -170.5zM400 286h234q-3 109 -23.5 140.5t-95.5 31.5q-39 0 -62 -7.5t-34 -28.5t-14.5 -43.5 t-4.5 -66.5v-26z" />
<glyph unicode="&#x178;" horiz-adv-x="469" d="M-5 667h72l153 -361l156 361h71l-197 -429v-238h-60v238zM121 759q0 26 5.5 33t28.5 7t29.5 -7t6.5 -33q0 -22 -6 -29.5t-30 -7.5q-23 0 -28.5 7t-5.5 30zM276 759q0 26 5.5 33t28.5 7t29.5 -7t6.5 -33q0 -22 -6 -29.5t-30 -7.5q-23 0 -28.5 7t-5.5 30z" />
<glyph unicode="&#x2c6;" horiz-adv-x="355" d="M38 592l127 108l123 -110l-24 -34l-99 84l-105 -82z" />
<glyph unicode="&#x2dc;" horiz-adv-x="368" d="M52 587q30 50 74 50q16 0 53 -17.5t47 -17.5q24 0 43 25l26 -26q-26 -49 -69 -49q-20 0 -51 16q-38 19 -51 19q-22 0 -48 -29z" />
<glyph unicode="&#x2000;" horiz-adv-x="452" />
<glyph unicode="&#x2001;" horiz-adv-x="904" />
<glyph unicode="&#x2002;" horiz-adv-x="452" />
<glyph unicode="&#x2003;" horiz-adv-x="904" />
<glyph unicode="&#x2004;" horiz-adv-x="301" />
<glyph unicode="&#x2005;" horiz-adv-x="226" />
<glyph unicode="&#x2006;" horiz-adv-x="150" />
<glyph unicode="&#x2007;" horiz-adv-x="150" />
<glyph unicode="&#x2008;" horiz-adv-x="113" />
<glyph unicode="&#x2009;" horiz-adv-x="180" />
<glyph unicode="&#x200a;" horiz-adv-x="50" />
<glyph unicode="&#x2010;" horiz-adv-x="331" d="M49 256v49h209v-49h-209z" />
<glyph unicode="&#x2011;" horiz-adv-x="331" d="M49 256v49h209v-49h-209z" />
<glyph unicode="&#x2012;" horiz-adv-x="331" d="M49 256v49h209v-49h-209z" />
<glyph unicode="&#x2013;" horiz-adv-x="421" d="M49 256v49h312v-49h-312z" />
<glyph unicode="&#x2014;" horiz-adv-x="545" d="M49 256v49h429v-49h-429z" />
<glyph unicode="&#x2018;" horiz-adv-x="192" d="M38 600q0 46 20 73.5t57 51.5l18 -30q-28 -15 -38 -47q22 -1 28.5 -11t6.5 -37q0 -30 -8 -38t-38 -8q-31 0 -38.5 8t-7.5 38z" />
<glyph unicode="&#x2019;" horiz-adv-x="184" d="M40 588q29 16 37 47q-22 1 -28 11t-6 37q0 30 8 38t38 8q31 0 38.5 -8t7.5 -38q0 -46 -20 -73.5t-57 -51.5z" />
<glyph unicode="&#x201a;" horiz-adv-x="200" d="M41 -47q30 16 38 47q-22 1 -28 11t-6 37q0 30 7.5 38t38.5 8q30 0 38 -8t8 -38q0 -46 -20.5 -73.5t-57.5 -51.5z" />
<glyph unicode="&#x201c;" horiz-adv-x="342" d="M38 602q0 46 20 73.5t57 51.5l18 -30q-28 -15 -38 -47q22 -1 28.5 -11t6.5 -37q0 -30 -8 -38t-38 -8q-31 0 -38.5 8t-7.5 38zM178 602q0 46 20.5 73.5t57.5 51.5l18 -30q-30 -16 -38 -47q22 -1 28 -11t6 -37q0 -30 -8 -38t-38 -8t-38 8t-8 38z" />
<glyph unicode="&#x201d;" horiz-adv-x="334" d="M39 588q29 15 37 47q-22 1 -28 11t-6 37q0 30 8 38t38 8q31 0 38.5 -8t7.5 -38q0 -46 -20 -73.5t-57 -51.5zM179 588q28 15 38 47q-22 1 -28 10.5t-6 37.5q0 30 7.5 38t38.5 8q30 0 37.5 -8t7.5 -38q0 -46 -20 -74t-57 -51z" />
<glyph unicode="&#x201e;" horiz-adv-x="349" d="M41 -47q30 16 38 47q-22 1 -28 11t-6 37q0 30 7.5 38t38.5 8q30 0 38 -8t8 -38q0 -46 -20.5 -73.5t-57.5 -51.5zM180 -47q28 15 38 47q-22 1 -28 10.5t-6 37.5q0 30 7.5 38t37.5 8q31 0 38.5 -8t7.5 -38q0 -46 -20 -73.5t-57 -51.5z" />
<glyph unicode="&#x2022;" horiz-adv-x="346" d="M63 323q0 48 30.5 82t73.5 34t74 -34t31 -82t-31 -82t-74 -34t-73.5 34t-30.5 82z" />
<glyph unicode="&#x2026;" horiz-adv-x="595" d="M44 48q0 30 8 38t38 8t38 -8t8 -38t-8 -39t-38 -9t-38 9t-8 39zM249 48q0 30 8 38t38 8q31 0 38.5 -8t7.5 -38t-8 -39t-38 -9t-38 9t-8 39zM451 48q0 30 7.5 38t38.5 8q30 0 38 -8t8 -38t-8 -39t-38 -9q-31 0 -38.5 9t-7.5 39z" />
<glyph unicode="&#x202f;" horiz-adv-x="180" />
<glyph unicode="&#x2039;" horiz-adv-x="252" d="M30 244l116 194l43 -31l-96 -163l96 -163l-43 -31z" />
<glyph unicode="&#x203a;" horiz-adv-x="252" d="M36 81l96 163l-96 163l43 31l116 -194l-116 -194z" />
<glyph unicode="&#x205f;" horiz-adv-x="226" />
<glyph unicode="&#x20ac;" horiz-adv-x="547" d="M36 253v38h78v66h-78v38h79q5 171 51.5 227t188.5 56q50 0 138 -11v-57q-124 10 -138 10q-113 0 -145.5 -43t-34.5 -182h239v-38h-240v-66h240v-38h-240q1 -50 5.5 -83.5t17 -56.5t26 -36t41 -19.5t53 -8t72.5 -1.5q59 0 104 5v-49q-81 -13 -159 -13q-59 0 -94 8t-65 35 t-43.5 80t-16.5 139h-79z" />
<glyph unicode="&#x2122;" horiz-adv-x="461" d="M49 634v38h143v-38h-53v-169h-36v169h-54zM234 465v207h40l45 -98l49 98h39v-207h-34l-1 132q-2 -4 -26.5 -48.5t-26.5 -46.5l-49 94v-131h-36z" />
<glyph unicode="&#xe000;" horiz-adv-x="500" d="M0 0v500h500v-500h-500z" />
</font>
</defs>
</svg>
