<?xml version="1.0" standalone="no"?>
<!DOCTYPE svg PUBLIC "-//W3C//DTD SVG 1.1//EN" "http://www.w3.org/Graphics/SVG/1.1/DTD/svg11.dtd" >
<svg xmlns="http://www.w3.org/2000/svg">
<metadata></metadata>
<defs>
<font id="clio_c_heavyitheavy" horiz-adv-x="490" >
<font-face units-per-em="1000" ascent="750" descent="-250" />
<missing-glyph horiz-adv-x="190" />
<glyph unicode="&#xfb01;" horiz-adv-x="598" d="M12 -183l3 58q56 10 65 67q2 12 4.5 42.5t14.5 143t31 286.5h-67l7 85h67q13 121 47 156t136 35q47 0 107 -9l-6 -76h-94q-37 0 -47 -16t-16 -90h341l-55 -499h-132l46 414h-208l-51 -456q-16 -147 -134 -147q-19 0 -59 6zM478 604q5 47 18 59.5t62 12.5q48 0 58.5 -11.5 t5.5 -60.5q-5 -46 -19 -60t-61 -14q-48 0 -59 14t-5 60z" />
<glyph unicode="&#xfb02;" horiz-adv-x="596" d="M12 -183l3 58q56 10 65 67q2 12 4.5 42.5t14.5 143t31 286.5h-67l7 85h67q13 121 47 156t136 35q205 0 287 -14v-1l-60 -551q-1 -13 -1 -24t10 -19.5t32 -12.5l-8 -69q-43 -7 -54 -7q-60 0 -89 32t-19 117l49 450l2 14h-142q-37 0 -47 -16t-16 -90h105l-7 -85h-106 l-51 -456q-16 -147 -134 -147q-19 0 -59 6z" />
<glyph unicode="&#xfb03;" horiz-adv-x="957" d="M12 -183l3 58q56 10 65 67q2 12 4.5 42.5t14.5 143t31 286.5h-67l7 85h67q13 121 47 156t136 35q47 0 107 -9l-6 -76h-94q-37 0 -47 -16t-16 -90h252q13 121 47 156t136 35q47 0 107 -9l-6 -76h-94q-37 0 -47 -16t-16 -90h341l-56 -499h-132l45 414h-206l-51 -456 q-17 -147 -134 -147q-19 0 -59 6l3 58q56 10 65 67q2 11 4.5 42t13.5 143t31 287h-252l-51 -456q-16 -147 -134 -147q-19 0 -59 6zM856 604q5 47 18 59.5t62 12.5q48 0 58.5 -11.5t5.5 -60.5q-5 -46 -19 -60t-61 -14q-48 0 -59 14t-5 60z" />
<glyph unicode="&#xfb04;" horiz-adv-x="964" d="M12 -183l3 58q56 10 65 67q2 12 4.5 42.5t14.5 143t31 286.5h-67l7 85h67q13 121 47 156t136 35q47 0 107 -9l-6 -76h-94q-37 0 -47 -16t-16 -90h252q13 121 47 156t136 35q195 0 255 -9l-1 -3l33 -2l-61 -552q-1 -13 -1 -24t10 -19.5t32 -12.5l-8 -69q-43 -7 -54 -7 q-60 0 -89 32t-19 117l52 464h-142q-37 0 -47 -16t-16 -90h105l-7 -85h-106l-51 -456q-17 -147 -134 -147q-19 0 -59 6l3 58q56 10 65 67q2 11 4.5 42t13.5 143t31 287h-252l-51 -456q-16 -147 -134 -147q-19 0 -59 6z" />
<glyph horiz-adv-x="1000" />
<glyph horiz-adv-x="1000" />
<glyph unicode="&#xd;" horiz-adv-x="1000" />
<glyph unicode=" "  horiz-adv-x="190" />
<glyph unicode="&#x09;" horiz-adv-x="190" />
<glyph unicode="&#xa0;" horiz-adv-x="190" />
<glyph unicode="!" horiz-adv-x="237" d="M66 64q5 43 17.5 55t55.5 12t53 -11.5t5 -55.5q-4 -42 -17 -54.5t-56 -12.5t-53 12t-5 55zM79 181l54 486h130l-54 -486h-130z" />
<glyph unicode="&#x22;" horiz-adv-x="347" d="M88 439l56 221h121l-72 -221h-105zM227 439l65 221h125l-81 -221h-109z" />
<glyph unicode="#" horiz-adv-x="510" d="M57 129l9 76h97l10 95h-97l9 82h97l14 129h96l-14 -129h47l14 129h96l-15 -129h98l-9 -82h-98l-10 -95h98l-9 -76h-98l-14 -131h-95l14 131h-47l-14 -131h-97l15 131h-97zM259 205h47l10 95h-47z" />
<glyph unicode="$" horiz-adv-x="428" d="M52 9l11 102q89 -11 157 -11q50 0 54 40q2 18 -13.5 35t-40 29t-52.5 30.5t-52 38.5t-37.5 53.5t-8.5 75.5q8 71 48.5 109t103.5 44l9 82h104l-9 -83q24 -1 48 -3.5t37.5 -4.5t14.5 -2l-11 -102q-102 12 -177 12q-32 0 -36 -40q-2 -17 20 -34.5t54.5 -35.5t64.5 -41.5 t52 -63t15 -88.5q-7 -67 -46 -105t-98 -47l-9 -84h-104l9 84q-87 5 -108 10z" />
<glyph unicode="%" horiz-adv-x="668" d="M89 511q8 72 23.5 106t41.5 44.5t81 10.5q65 0 86 -33t10 -128q-9 -92 -37 -126.5t-100 -34.5q-49 0 -71.5 10.5t-31.5 45t-2 105.5zM112 0l421 667h92l-420 -667h-93zM181 494q-6 -40 -2.5 -53.5t24.5 -13.5q11 1 15 2t9 9.5t7 24.5t6 49q6 54 2.5 70t-22.5 16t-25 -15 t-12 -71zM410 160q9 73 24 106.5t41 44t81 10.5q66 0 86.5 -32.5t9.5 -128.5q-9 -92 -36.5 -126.5t-99.5 -34.5q-49 0 -71.5 10t-32 45t-2.5 106zM502 143q-6 -41 -2 -54t25 -13q14 1 18.5 4.5t9 21t9.5 59.5q6 54 2.5 70t-22.5 16t-25.5 -15t-12.5 -71z" />
<glyph unicode="&#x26;" horiz-adv-x="492" d="M68 164l4 39q4 33 25 69.5t51 58.5q-28 22 -39 50t-9 73l4 40q19 166 220 166q55 0 157 -17l-9 -89q-136 13 -161 13q-37 0 -53 -19t-21 -60l-4 -33q-8 -77 58 -77h46l6 46h125l-5 -46h41l-11 -97h-41l-30 -267q-118 -23 -175 -23q-105 0 -145.5 41t-33.5 132zM202 169 q-6 -49 11.5 -67t53.5 -18q19 0 38 4l22 193h-47q-33 0 -51.5 -17.5t-22.5 -59.5z" />
<glyph unicode="'" horiz-adv-x="210" d="M86 439l61 221h122l-76 -221h-107z" />
<glyph unicode="(" horiz-adv-x="261" d="M62 295q13 118 61 252t125 230l81 -72q-58 -99 -92.5 -209.5t-43.5 -200.5q-28 -239 45 -410l-94 -73q-56 98 -75.5 232.5t-6.5 250.5z" />
<glyph unicode=")" horiz-adv-x="256" d="M2 -115q108 172 136 410q23 226 -47 411l99 71q55 -96 73.5 -229.5t5.5 -252.5q-13 -118 -61 -251t-125 -230z" />
<glyph unicode="*" horiz-adv-x="412" d="M87 515l34 92l100 -41l14 119h98l-14 -119l108 40l16 -91l-112 -32l55 -96l-76 -64l-54 97l-74 -98l-66 65l75 95z" />
<glyph unicode="+" horiz-adv-x="457" d="M55 198l11 99h138l17 156h126l-17 -156h140l-11 -99h-140l-18 -163h-126l18 163h-138z" />
<glyph unicode="," horiz-adv-x="221" d="M37 -27q19 12 37 30q-17 6 -21 21t-1 49q5 46 18 58t61 12q47 0 57 -12t5 -58q-11 -96 -122 -161z" />
<glyph unicode="-" horiz-adv-x="346" d="M74 220l12 115h253l-12 -115h-253z" />
<glyph unicode="." horiz-adv-x="222" d="M51 71q5 46 18.5 58.5t61.5 12.5t58.5 -12t5.5 -59q-5 -46 -18.5 -60t-61.5 -14t-58.5 13.5t-5.5 60.5z" />
<glyph unicode="/" horiz-adv-x="379" d="M9 -106l299 767h132l-301 -767h-130z" />
<glyph unicode="0" horiz-adv-x="480" d="M85 273q18 170 59.5 225t163.5 55q83 0 120.5 -25t46.5 -87t-5 -168q-19 -169 -61.5 -225.5t-162.5 -56.5q-85 0 -122.5 25t-45.5 87.5t7 169.5zM211 273q-10 -78 -9 -120.5t13 -56.5t43 -14q45 0 59.5 34t28.5 157q5 45 7 71.5t2.5 50.5t-2.5 35.5t-10 20.5t-16.5 11.5 t-25.5 2.5q-45 0 -60.5 -34.5t-29.5 -157.5z" />
<glyph unicode="1" horiz-adv-x="311" d="M58 441l10 102h248l-60 -543h-133l46 442z" />
<glyph unicode="2" horiz-adv-x="422" d="M61 5l11 81q34 45 74 95t63 78t44.5 57t31.5 49t12 36q6 48 -40 48q-24 0 -75.5 -1.5t-79.5 -1.5l10 95l144 4q94 0 139.5 -29t36.5 -116q-3 -29 -25 -67.5t-44.5 -66.5t-68 -82t-65.5 -79h165l-11 -100h-322z" />
<glyph unicode="3" horiz-adv-x="431" d="M29 -114l10 93l125 -2q49 -1 74 17.5t29 62.5l5 33q8 76 -54 76h-115l11 95h115q61 0 70 74l4 40q5 44 -20 59.5t-67 14.5l-126 -2l11 93l138 3q41 0 67.5 -2t56 -11.5t45 -26t24 -47.5t3.5 -75l-6 -48q-7 -74 -71 -118q26 -21 37.5 -56.5t7.5 -68.5l-4 -37 q-11 -96 -65.5 -132.5t-171.5 -36.5z" />
<glyph unicode="4" horiz-adv-x="524" d="M26 84l9 79l266 380h180l-40 -358h85l-11 -101h-85l-21 -193h-129l21 193h-275zM182 185h131l27 233z" />
<glyph unicode="5" horiz-adv-x="429" d="M40 -116l10 91h116q53 0 78 17.5t30 64.5l4 36q5 47 -8 62.5t-50 15.5h-146l41 373h317l-11 -103h-189l-20 -175h26q32 0 54.5 -1.5t43.5 -6.5t32.5 -13.5t22.5 -22.5t13.5 -33.5t5 -46t-3.5 -60.5l-4 -30q-10 -95 -69 -132t-182 -37q-36 0 -61.5 0.5t-37 0.5h-12.5z" />
<glyph unicode="6" d="M67 165q32 289 42 334q18 87 69.5 125.5t158.5 38.5q41 0 153 -11l-10 -97q-71 6 -155 6q-51 -2 -68 -36.5t-30 -151.5q38 11 74 11q106 0 142.5 -41t27.5 -127l-5 -44q-20 -182 -218 -182q-105 0 -147.5 45t-33.5 130zM202 163q-4 -41 10.5 -57t46.5 -16q34 0 49.5 18.5 t20.5 61.5l6 49q4 37 -5.5 51.5t-40.5 14.5q-32 0 -74 -11z" />
<glyph unicode="7" horiz-adv-x="396" d="M54 443l11 100h372l-180 -652h-131l154 552h-226z" />
<glyph unicode="8" d="M66 163l3 38q5 37 26 73t53 56q-52 44 -44 123l5 39q10 97 63 133t142 38q46 0 77.5 -6t59.5 -23t39.5 -52t5.5 -89l-5 -39q-8 -77 -70 -123q59 -42 50 -129l-4 -38q-10 -91 -62.5 -132.5t-149.5 -41.5q-109 0 -155 38t-34 135zM193 167q-5 -40 10.5 -61.5t47.5 -21.5 q80 0 89 84l4 35q8 77 -57 77h-14q-69 0 -77 -78zM230 453q-8 -76 53 -76h13q61 0 69 77l4 33q6 47 -7 63.5t-43 16.5q-40 0 -59.5 -14.5t-25.5 -66.5z" />
<glyph unicode="9" horiz-adv-x="475" d="M54 -114l11 97q71 -6 155 -6q51 2 68 36.5t30 151.5q-39 -11 -75 -11q-106 0 -142.5 41t-26.5 127l4 44q22 182 218 182q105 0 148 -45.5t33 -129.5q-33 -298 -41 -334q-18 -87 -69.5 -125.5t-158.5 -38.5q-42 0 -154 11zM210 319q-5 -37 4.5 -51.5t41.5 -14.5 q31 0 73 11l13 111q4 41 -10 57t-47 16q-34 0 -49.5 -18.5t-20.5 -61.5z" />
<glyph unicode=":" horiz-adv-x="234" d="M57 71q5 47 18 59t62 12q48 0 58.5 -12t5.5 -59q-6 -46 -19 -60t-61 -14t-58.5 13.5t-5.5 60.5zM89 360q5 46 18 58.5t61 12.5t59 -12t6 -59q-6 -47 -19.5 -61t-61.5 -14t-58 13.5t-5 61.5z" />
<glyph unicode=";" horiz-adv-x="236" d="M45 -27q24 15 37 30q-17 6 -21 21.5t-1 48.5q5 46 18 58t61 12q47 0 57 -12t5 -58q-11 -96 -122 -161zM91 360q5 46 18 58.5t61 12.5t59 -12t6 -59t-19 -61t-62 -14t-58 13.5t-5 61.5z" />
<glyph unicode="&#x3c;" horiz-adv-x="500" d="M53 211l8 68l441 183l-12 -113l-267 -104l243 -105l-12 -113z" />
<glyph unicode="=" horiz-adv-x="483" d="M69 121l12 101h378l-12 -101h-378zM86 271l11 100h378l-11 -100h-378z" />
<glyph unicode="&#x3e;" horiz-adv-x="507" d="M58 26l12 114l265 105l-243 103l12 114l403 -184l-8 -68z" />
<glyph unicode="?" horiz-adv-x="419" d="M81 64q5 43 17.5 55t56.5 12q42 0 52.5 -11.5t4.5 -55.5q-4 -42 -17 -54.5t-56 -12.5t-52.5 12t-5.5 55zM99 584l10 94h122q45 0 73 -2t62.5 -11t52 -25.5t28 -48.5t5.5 -78l-3 -24q-10 -88 -58.5 -130.5t-150.5 -42.5l-13 -120h-127l24 219h118q64 0 71 75l2 16 q1 12 1.5 21.5t-1.5 17t-3 13.5t-7 10t-8 7t-11 4.5t-11.5 2.5t-15 1.5t-15.5 0.5h-18h-127z" />
<glyph unicode="@" horiz-adv-x="636" d="M80 288q9 78 19.5 129t32.5 97.5t56 72t87 40.5t128 15q158 0 208.5 -65.5t32.5 -224.5q-14 -134 -54 -187t-111 -53q-30 0 -54.5 17t-34.5 42q-36 -32 -80 -34q-51 -2 -72 37t-11 121q11 103 41.5 150t110.5 47q42 0 123 -16l-35 -264q-3 -15 4 -23t16 -8q24 0 38 41 t19 91q11 88 6.5 141.5t-39 76.5t-113.5 23q-51 0 -85.5 -9.5t-57.5 -27t-37.5 -53.5t-22.5 -77.5t-16 -110.5q-11 -104 26 -145t131 -41h94l-10 -89h-113q-136 0 -189.5 67t-37.5 220zM319 308q-9 -71 -2 -85q12 -23 65 3l27 182q-18 2 -39 2q-23 0 -34 -22.5t-17 -79.5z " />
<glyph unicode="A" horiz-adv-x="557" d="M-1 0l247 667h199l106 -667h-128l-27 166h-206l-60 -166h-131zM230 276h148l-45 266z" />
<glyph unicode="B" horiz-adv-x="523" d="M64 0l74 668h180q54 0 89.5 -5t70 -21.5t48.5 -52.5t8 -92l-6 -43q-12 -76 -70 -117q24 -21 35.5 -57.5t7.5 -69.5l-4 -40q-11 -98 -69 -134t-184 -36h-180zM208 94h50q50 0 75 18.5t31 63.5l3 35q4 39 -10 54t-45 15h-83zM240 387h84q64 0 70 69l5 33q6 55 -14.5 69.5 t-73.5 14.5h-50z" />
<glyph unicode="C" horiz-adv-x="517" d="M76 299q11 95 21.5 151.5t29 105t47 72t71 36t105.5 12.5q104 0 214 -15l-10 -88q-103 8 -185 8q-36 0 -59 -8.5t-39.5 -25t-27 -53.5t-17.5 -80t-15 -119q-10 -89 3.5 -136.5t44.5 -62.5t90 -15q75 0 151 7l-8 -76q-121 -21 -204 -21q-33 0 -58 2.5t-51.5 10t-43 21.5 t-33.5 37t-22 55.5t-9 77.5t5 104z" />
<glyph unicode="D" horiz-adv-x="576" d="M64 0l74 669h235q53 0 87.5 -8t63 -29.5t39 -59t15 -97.5t-7.5 -144q-15 -137 -44.5 -207.5t-78.5 -97t-137 -26.5h-246zM210 99l105 -1q48 -1 77 49t44 184q9 83 10.5 130t-8 73t-25.5 33t-47 7h-104z" />
<glyph unicode="E" horiz-adv-x="506" d="M64 0l74 668h401l-12 -104h-267l-19 -172h245l-12 -105h-245l-20 -184h267l-11 -103h-401z" />
<glyph unicode="F" horiz-adv-x="487" d="M64 0l73 667h406l-11 -102h-271l-20 -175h232l-10 -103h-233l-31 -287h-135z" />
<glyph unicode="G" horiz-adv-x="526" d="M76 299q11 95 21.5 151.5t29 105t47 72t71 36t105.5 12.5q104 0 214 -15l-10 -88q-103 8 -185 8q-36 0 -59 -8.5t-39.5 -25t-27 -53.5t-17.5 -80t-15 -119q-13 -115 11 -162.5t88 -49.5q36 0 57 2l17 159h-93l10 87h225l-35 -319q-121 -23 -217 -21q-31 0 -55 3.5 t-48.5 11.5t-40 22.5t-31 37.5t-20.5 55t-8.5 76.5t5.5 101.5z" />
<glyph unicode="H" horiz-adv-x="593" d="M64 0l74 668h136l-31 -277h197l31 277h136l-74 -668h-136l31 291h-197l-31 -291h-136z" />
<glyph unicode="I" horiz-adv-x="254" d="M64 0l73 667h135l-73 -667h-135z" />
<glyph unicode="J" horiz-adv-x="300" d="M17 -10l10 88q55 0 82 10t30 42l60 539h130l-59 -536q-10 -82 -53.5 -117.5t-127.5 -29.5z" />
<glyph unicode="K" horiz-adv-x="544" d="M64 0l74 668h134l-32 -280h46l181 280h146l-213 -323l147 -345h-144l-125 289h-49l-31 -289h-134z" />
<glyph unicode="L" horiz-adv-x="461" d="M64 0l73 667h135l-62 -564h253l-10 -103h-389z" />
<glyph unicode="M" horiz-adv-x="730" d="M64 0l74 668h152l110 -366l189 366h156l-74 -668h-130l47 424l-159 -317h-102l-85 317l-47 -424h-131z" />
<glyph unicode="N" horiz-adv-x="607" d="M64 0l74 668h148l155 -430l48 430h134l-74 -668h-156l-153 413l-45 -413h-131z" />
<glyph unicode="O" horiz-adv-x="571" d="M89 333q10 90 21.5 144t29.5 97t47.5 63t71 30t105.5 10q54 0 90 -6t62 -22.5t38.5 -39.5t17 -65t1.5 -89.5t-10 -121.5q-8 -75 -16 -123t-22 -89.5t-32 -64t-47.5 -39t-66.5 -22t-92 -5.5q-80 0 -123.5 15.5t-65.5 54.5t-20.5 105t11.5 168zM222 333 q-13 -99 -11.5 -153.5t20 -73.5t67.5 -19q72 0 94 43t39 203q14 102 12 157t-21 73t-69 18q-71 0 -91.5 -43t-39.5 -205z" />
<glyph unicode="P" horiz-adv-x="554" d="M64 0l73 667h253q99 0 153 -38t44 -132l-9 -77q-10 -83 -52.5 -119.5t-116.5 -48.5q-23 -4 -182 -4l-27 -248h-136zM238 347h114q40 0 64 14.5t29 58.5l9 76q5 45 -16 60t-61 15h-114z" />
<glyph unicode="Q" horiz-adv-x="564" d="M83 333q8 75 16.5 123t22.5 89.5t32 64.5t47.5 39.5t66.5 22t90 5.5q82 0 125 -15t65.5 -53.5t20.5 -105.5t-12 -170q-17 -153 -42 -222t-84 -96l50 -25l-50 -103l-205 106q-79 7 -113.5 40.5t-39.5 106.5t10 193zM216 333q-13 -99 -12 -153.5t19.5 -73.5t68.5 -19 q72 0 93.5 42t39.5 204q14 102 12 157t-21 73t-69 18q-72 0 -92.5 -43t-38.5 -205z" />
<glyph unicode="R" horiz-adv-x="573" d="M64 0l73 667h254q100 0 154 -38t44 -132l-9 -77q-9 -77 -77 -131l16 -289h-139l-13 249q-15 -1 -140 -1l-27 -248h-136zM238 347h115q40 0 63.5 14.5t28.5 58.5l9 76q5 45 -16 60t-60 15h-115z" />
<glyph unicode="S" horiz-adv-x="494" d="M65 0l11 104q126 -12 205 -12q30 0 46.5 17t20.5 54q3 29 -16 54t-50.5 43t-67.5 41t-67 47t-49 62.5t-13 85.5q11 93 67 138.5t143 45.5q104 0 212 -9l-12 -106q-131 14 -204 14q-61 0 -68 -63q-3 -26 16.5 -49.5t51 -41t67.5 -42t66.5 -50.5t48 -67.5t12.5 -91.5 q-10 -92 -67 -138t-143 -46q-68 0 -210 10z" />
<glyph unicode="T" horiz-adv-x="510" d="M76 565l11 102h483l-11 -102h-173l-62 -565h-137l62 565h-173z" />
<glyph unicode="U" horiz-adv-x="593" d="M90 334l37 335h138l-36 -335q-14 -99 -12.5 -154t20.5 -74t71 -19q32 0 51.5 6.5t34 19.5t23.5 44.5t15 69.5t14 107l37 335h138l-37 -335q-8 -75 -16.5 -123t-23 -90t-33 -64.5t-49.5 -39t-69.5 -22t-95.5 -5.5q-111 0 -158 28.5t-57.5 105t8.5 210.5z" />
<glyph unicode="V" horiz-adv-x="561" d="M76 667h130l80 -539l204 539h128l-246 -667h-200z" />
<glyph unicode="W" horiz-adv-x="814" d="M86 667h132l39 -519l157 519h123l50 -521l153 521h130l-199 -667h-172l-49 444l-140 -444h-165z" />
<glyph unicode="X" horiz-adv-x="525" d="M12 0l221 337l-142 330h144l86 -200l132 200h143l-214 -328l148 -339h-143l-93 214l-137 -214h-145z" />
<glyph unicode="Y" horiz-adv-x="528" d="M68 668h149l78 -303l150 303h148l-247 -463l-22 -205h-137l23 205z" />
<glyph unicode="Z" horiz-adv-x="515" d="M31 0l9 88l348 477h-289l12 104h443l-10 -92l-343 -475h298l-11 -102h-457z" />
<glyph unicode="[" horiz-adv-x="275" d="M38 -132l102 928h219l-10 -95h-91l-82 -735h91l-11 -98h-218z" />
<glyph unicode="\" horiz-adv-x="373" d="M94 660h133l128 -766h-131z" />
<glyph unicode="]" horiz-adv-x="275" d="M1 -132l11 98h90l82 735h-90l9 95h220l-103 -928h-219z" />
<glyph unicode="^" horiz-adv-x="429" d="M70 375l172 295h110l106 -295h-124l-51 168l-87 -168h-126z" />
<glyph unicode="_" horiz-adv-x="521" d="M40 -75l9 75h428l-9 -75h-428z" />
<glyph unicode="`" horiz-adv-x="300" d="M128 706l89 48l72 -181l-86 -47z" />
<glyph unicode="a" horiz-adv-x="465" d="M52 163q0 52 6 119q13 120 54 173t124 53q35 0 101.5 -9.5t123.5 -25.5l-49 -476h-98l-8 35q-65 -41 -129 -41q-71 0 -98 46.5t-27 125.5zM184 111q3 -24 12.5 -30t29.5 -1q19 5 75 32l34 306q-46 7 -79 5q-33 -1 -49.5 -53.5t-20.5 -105.5q-6 -105 -2 -153z" />
<glyph unicode="b" horiz-adv-x="468" d="M55 8l75 677h128l-21 -191q70 15 91 15q87 0 118 -52t17 -173q-8 -68 -15.5 -109t-23 -80.5t-39 -59t-60 -31.5t-89.5 -12q-74 0 -181 16zM193 93h52q45 0 60 38t27 146q9 73 2.5 103t-36.5 30q-20 0 -71 -12z" />
<glyph unicode="c" horiz-adv-x="456" d="M68 226q8 72 16.5 114.5t22.5 79t36.5 54t55.5 27t83 9.5q5 0 32 -1.5t72.5 -6t76.5 -10.5l-10 -92q-144 12 -161 12q-50 0 -64 -32.5t-28 -156.5q-10 -84 8 -109t73 -25q44 0 143 9l-10 -83q-93 -24 -180 -24q-31 0 -52.5 2t-42 8t-33.5 16.5t-23.5 28t-15 42.5t-4.5 59 t5 79z" />
<glyph unicode="d" horiz-adv-x="471" d="M71 256l3 28q16 124 55 175t125 51q32 0 87 -13l20 187h129l-74 -684h-106l-4 39q-1 -1 -10 -6.5t-11 -6.5t-10.5 -6t-11.5 -6t-10.5 -5t-11.5 -5t-11 -3.5t-12.5 -3t-12.5 -1.5t-14 -1q-78 0 -107 61.5t-13 199.5zM205 281q-11 -98 -9 -138t24 -40q39 0 80 20l30 277 q-28 5 -65 5q-47 0 -60 -124z" />
<glyph unicode="e" horiz-adv-x="472" d="M59 146q0 38 8 105q9 81 20.5 126.5t36.5 78.5t64 44.5t104 11.5q101 0 140.5 -34t39.5 -118v-19q0 -11 -1 -21t-9 -30.5t-22 -35t-44 -26.5t-72 -13l-138 -2q-2 -24 -2 -65q0 -25 5.5 -40.5t17 -22t22 -8t28.5 -1.5q65 0 161 13l-7 -77q-99 -21 -188 -21 q-91 0 -127.5 35t-36.5 120zM197 298h132q23 0 23 43v12q0 45 -14.5 60.5t-51.5 15.5q-47 0 -62.5 -27t-26.5 -104z" />
<glyph unicode="f" horiz-adv-x="353" d="M12 -183l3 58q56 10 65 67q2 12 4.5 42.5t14.5 143t31 286.5h-67l7 85h67q13 121 47 156t136 35q47 0 107 -9l-6 -76h-94q-37 0 -47 -16t-16 -90h105l-7 -85h-106l-51 -456q-16 -147 -134 -147q-19 0 -59 6z" />
<glyph unicode="g" horiz-adv-x="446" d="M56 -167q0 3 11.5 42t12.5 41q94 -18 146 -18q20 0 32.5 8.5t19 25.5t10 40.5t6.5 54.5q1 9 1 14q-3 0 -9.5 -0.5t-10.5 -0.5h-32t-31 1t-33 3.5t-29 7t-28.5 11.5t-22.5 17.5t-19 24.5t-11 33.5t-5 42.5q0 8 2 30t2 30q12 122 33 178q10 26 23 43.5t28.5 28t40 16t48 7 t61.5 1.5q32 0 161 -16l-56 -545q-14 -143 -176 -143q-84 0 -175 22zM187 193q0 -43 17 -55.5t62 -12.5q6 0 16.5 0.5t18.5 0.5q10 89 35 302q-10 1 -23 1q-45 0 -65 -7t-31 -32q-14 -31 -22 -90.5t-8 -106.5z" />
<glyph unicode="h" horiz-adv-x="494" d="M56 0l74 677h129l-21 -196q94 26 127 26q130 0 116 -128l-41 -379h-130l40 367q4 35 -19 35q-55 0 -103 -16l-43 -386h-129z" />
<glyph unicode="i" horiz-adv-x="239" d="M56 0l55 499h132l-55 -499h-132zM118 624q5 48 18 60t62 12q48 0 58.5 -11.5t5.5 -60.5q-5 -46 -19 -60t-61 -14q-48 0 -58.5 13.5t-5.5 60.5z" />
<glyph unicode="j" horiz-adv-x="234" d="M-18 -177l7 68q32 5 43.5 19.5t14.5 38.5l61 551h131l-59 -536q-10 -85 -45 -116t-95 -31q-16 0 -58 6zM116 626q5 48 18 60t61 12q49 0 59.5 -11.5t5.5 -60.5q-5 -46 -19.5 -60t-61.5 -14q-48 0 -58 13.5t-5 60.5z" />
<glyph unicode="k" horiz-adv-x="507" d="M56 0l74 676h129l-38 -340h53l137 234h135l-167 -283l128 -287h-138l-106 238h-52l-27 -238h-128z" />
<glyph unicode="l" horiz-adv-x="254" d="M70 141l59 534h131l-60 -551q-1 -13 -1 -24t9.5 -19.5t31.5 -12.5l-8 -69q-42 -7 -54 -7q-60 0 -88.5 32t-19.5 117z" />
<glyph unicode="m" horiz-adv-x="742" d="M56 0l55 499h109l7 -42q2 1 14.5 9.5t18.5 12t20.5 10.5t25.5 10.5t26.5 6.5t31.5 3q31 0 50.5 -12t42.5 -36q84 48 154 48q132 0 118 -130l-41 -379h-133l40 361q5 38 -19 38q-29 0 -95 -16l-41 -383h-131l39 366q5 33 -19 33q-39 0 -100 -21l-42 -378h-131z" />
<glyph unicode="n" horiz-adv-x="494" d="M56 0l55 499h109l8 -42q2 1 20.5 11.5t27.5 15t26 12t32 10.5t30 3q57 0 91 -31t27 -95l-41 -383h-131l39 366q5 33 -21 33q-39 0 -99 -20l-42 -379h-131z" />
<glyph unicode="o" horiz-adv-x="492" d="M72 250q9 81 21 127.5t38 78t65 42.5t105 11q87 0 126.5 -22.5t49.5 -80t-4 -156.5q-8 -80 -20 -126t-37.5 -78t-66 -43.5t-106.5 -11.5q-88 0 -127 22.5t-48.5 80.5t4.5 156zM201 250q-14 -104 -5 -135.5t58 -31.5t64.5 30t27.5 137q13 107 3.5 138.5t-58.5 31.5 q-48 0 -63 -30.5t-27 -139.5z" />
<glyph unicode="p" horiz-adv-x="472" d="M35 -181l76 684h106l3 -39q1 1 10.5 6.5t11 6.5t10 6t11.5 6t10.5 5t11.5 5t11.5 3.5t13 3t12.5 1.5t14 1q78 0 106.5 -61.5t12.5 -199.5l-3 -28q-16 -124 -54.5 -175t-124.5 -51q-33 0 -88 13l-20 -187h-130zM196 103q29 -5 65 -5q47 0 60 124q12 98 9.5 138t-24.5 40 q-39 0 -79 -20z" />
<glyph unicode="q" horiz-adv-x="475" d="M65 217q7 68 15 109.5t23.5 80.5t39 59t60 31.5t89.5 11.5q73 0 180 -16l-74 -677h-128l21 191q-68 -15 -91 -15q-87 0 -118 52t-17 173zM196 224q-9 -74 -2.5 -103.5t36.5 -29.5q18 0 71 12l34 305h-52q-16 0 -28 -4t-20.5 -16t-13.5 -23t-10 -37t-7.5 -45t-7.5 -59z " />
<glyph unicode="r" horiz-adv-x="340" d="M56 0l55 500h118v-44q1 0 24 13t34.5 18t38 13t54.5 11l-11 -101q-17 -1 -38 -7.5t-35.5 -12t-37.5 -16t-31 -13.5l-40 -361h-131z" />
<glyph unicode="s" horiz-adv-x="427" d="M57 9l10 96q81 -11 154 -11q48 0 52 35q2 19 -19.5 35.5t-53.5 32t-63.5 35.5t-51.5 54.5t-15 79.5q9 71 56 107t119 36q40 0 84.5 -3t68.5 -6l24 -3l-11 -97q-98 11 -173 11q-31 0 -35 -34q-2 -15 20.5 -30t54.5 -31.5t63.5 -38t51.5 -57.5t15 -81q-8 -70 -56.5 -106 t-119.5 -36q-40 0 -83.5 3t-67.5 6z" />
<glyph unicode="t" horiz-adv-x="364" d="M62 408q2 15 5.5 45.5t5.5 46.5h97q9 70 14 119h127l-12 -119h100q-1 -3 -12 -92h-99l-30 -286q0 -27 8.5 -33.5t33.5 -6.5q23 0 62 7q-3 -18 -7 -81q0 -2 -0.5 -4t-0.5 -3q-44 -10 -77 -10q-83 0 -115 30.5t-32 93.5q0 22 29 293h-97z" />
<glyph unicode="u" horiz-adv-x="492" d="M67 116l41 383h131l-40 -366q-5 -33 21 -33q29 0 100 23l42 376h131l-55 -499h-110l-8 35q-8 -4 -31.5 -14.5t-36.5 -15.5t-32.5 -10t-35.5 -5q-57 0 -90.5 31t-26.5 95z" />
<glyph unicode="v" horiz-adv-x="468" d="M64 500h135l54 -334l128 334h133l-207 -500h-144z" />
<glyph unicode="w" horiz-adv-x="685" d="M74 500h129l15 -338l105 338h136l31 -338l90 338h129l-150 -500h-150l-40 295l-104 -295h-151z" />
<glyph unicode="x" horiz-adv-x="422" d="M18 0l159 248l-101 251h135l48 -136l76 136h134l-155 -251l104 -248h-132l-53 129l-79 -129h-136z" />
<glyph unicode="y" horiz-adv-x="463" d="M58 -157l27 58l36 -10q5 -1 10.5 1t11.5 8.5t11 13t11 18.5l10.5 21t12 23.5t11.5 23.5h-29l-94 500h132l57 -301l122 301h127l-240 -585q-20 -51 -54.5 -78t-72.5 -27q-48 0 -89 33z" />
<glyph unicode="z" horiz-adv-x="408" d="M32 0l8 76l223 328h-183l11 97h337l-9 -78l-221 -325h190l-11 -98h-345z" />
<glyph unicode="{" horiz-adv-x="301" d="M42 305l7 55q38 28 53.5 52t19.5 67l19 170q9 77 46.5 112t138.5 35h54l-10 -94h-54q-25 0 -32.5 -11t-10.5 -42l-19 -170q-10 -90 -72 -147q51 -54 39 -145l-18 -169q-3 -33 1.5 -43.5t29.5 -10.5h54l-11 -96h-54q-100 0 -130 36.5t-21 113.5l18 169q5 43 -5 66.5 t-43 51.5z" />
<glyph unicode="|" horiz-adv-x="203" d="M31 -191l106 955h109l-106 -955h-109z" />
<glyph unicode="}" horiz-adv-x="311" d="M0 -132l11 96h54q25 0 32.5 10.5t11.5 43.5l18 169q10 91 72 146q-49 57 -40 146l19 170q4 31 -1 42t-30 11h-54l10 94h54q53 0 86 -10t48 -28.5t19.5 -46t-0.5 -62.5l-19 -170q-5 -43 5 -67t42 -53l-6 -53q-38 -28 -53.5 -51.5t-20.5 -67.5l-18 -169q-9 -77 -47 -113.5 t-139 -36.5h-54z" />
<glyph unicode="~" horiz-adv-x="460" d="M72 268q70 63 120 63q26 0 69 -13.5t62 -13.5q27 0 82 49l43 -75q-23 -33 -61 -52t-69 -19q-47 0 -82.5 14t-41.5 14q-23 0 -80 -52q-25 53 -42 85z" />
<glyph unicode="&#xa1;" horiz-adv-x="218" d="M28 -205l60 545h130l-61 -545h-129zM101 456q5 42 18 55t56 13q42 0 52 -13t5 -55q-4 -44 -17 -55t-56 -11t-53 11.5t-5 54.5z" />
<glyph unicode="&#xa2;" horiz-adv-x="475" d="M81 300q17 158 50.5 216.5t126.5 66.5l8 76h116l-9 -79q45 -4 102 -14l-10 -93q-143 12 -160 12q-50 0 -65 -32.5t-28 -155.5q-9 -84 9 -110t72 -26q31 0 143 9l-9 -83q-55 -14 -110 -20l-9 -76h-115l8 74q-78 7 -106 55.5t-14 179.5z" />
<glyph unicode="&#xa3;" horiz-adv-x="458" d="M32 0l10 91q38 2 51 20t19 71l14 127h-51l10 83h51l5 54q13 118 55 167t138 49q74 0 148 -20l-9 -84q-81 14 -146 14q-40 0 -52 -107l-8 -73h161l-10 -83h-161l-16 -148q-4 -43 -14 -65h200l-10 -96h-385z" />
<glyph unicode="&#xa4;" horiz-adv-x="510" d="M63 160l61 61q-11 37 -3 105q7 66 27 114l-48 63l85 84l63 -78q27 7 60 7q35 0 62 -7l84 83l67 -88l-66 -66q11 -37 4 -107q-8 -72 -27 -109l49 -65l-84 -80l-63 75q-33 -7 -56 -7q-31 0 -65 8l-87 -81zM247 331q-4 -34 -2.5 -54t9.5 -28t26 -8q26 0 36.5 18.5t15.5 71.5 q7 53 0.5 72.5t-32.5 19.5t-36 -18.5t-17 -73.5z" />
<glyph unicode="&#xa5;" horiz-adv-x="530" d="M97 672h133l89 -257l147 257h133l-217 -379h104l-11 -92h-355l10 92h101zM110 91l10 91h355l-10 -91h-116l-12 -91h-129l12 91h-110z" />
<glyph unicode="&#xa6;" horiz-adv-x="213" d="M33 -191l47 424h118l-47 -424h-118zM92 340l47 424h117l-46 -424h-118z" />
<glyph unicode="&#xa7;" horiz-adv-x="471" d="M46 -107l11 96q82 -11 154 -11q48 0 52 35q2 19 -19.5 35.5t-53.5 32t-63.5 35.5t-51.5 54.5t-15 79.5q12 101 102 132q-39 42 -32 105q7 71 54.5 107t119.5 36q40 0 84.5 -3t68.5 -6l24 -3l-11 -97q-97 11 -173 11q-31 0 -34 -34q-2 -15 20 -30t54 -31.5t63.5 -38 t51 -57.5t14.5 -81q-10 -99 -102 -131q40 -45 33 -106q-8 -70 -56 -106t-119 -36q-40 0 -84 3t-68 6zM193 261q-1 -12 10 -22t34 -23q15 -1 44 -1q47 0 51 35q3 22 -29 42q-37 3 -75 3q-32 0 -35 -34z" />
<glyph unicode="&#xa8;" horiz-adv-x="381" d="M121 616q5 41 16.5 52t52.5 11q40 0 49.5 -11.5t5.5 -51.5q-5 -39 -17.5 -51t-52.5 -12t-49 11.5t-5 51.5zM286 616q5 41 16.5 52t51.5 11q41 0 50.5 -11t4.5 -52q-4 -39 -16 -51t-54 -12q-40 0 -48.5 11.5t-4.5 51.5z" />
<glyph unicode="&#xa9;" horiz-adv-x="692" d="M73 326q15 143 113 240.5t237 97.5q140 0 217 -97.5t62 -240.5q-16 -141 -115 -238t-239 -97q-139 0 -215 97t-60 238zM160 326q-12 -107 43.5 -181t153.5 -74q100 0 173 74t86 181q11 109 -45.5 183t-156.5 74q-98 0 -170.5 -74.5t-83.5 -182.5zM253 312q5 48 10.5 76.5 t15 53t24.5 36t37 18t56 6.5q60 0 121 -12l-7 -61q-102 8 -108 8q-34 0 -43 -22t-18 -105q-6 -57 6 -73.5t49 -16.5q38 0 94 6l-6 -56q-64 -16 -120 -16q-30 0 -48 3t-34.5 12t-22 26.5t-9.5 46t3 70.5z" />
<glyph unicode="&#xaa;" horiz-adv-x="309" d="M85 466q11 88 98 88q16 0 24 -1l35 -4l5 42q1 11 -3 14.5t-14 3.5q-42 0 -100 -7l-1 64q68 13 114 13q55 0 76.5 -19t15.5 -72l-25 -221h-77l-4 22q-33 -27 -66 -27q-89 0 -78 104zM175 465q-3 -28 9 -28q5 0 47 14l5 38h-15q-45 0 -46 -24z" />
<glyph unicode="&#xab;" horiz-adv-x="475" d="M58 253l155 222l88 -68l-108 -154l74 -153l-103 -68zM255 253l155 220l89 -66l-108 -154l74 -152l-103 -67z" />
<glyph unicode="&#xac;" horiz-adv-x="526" d="M77 192l11 100h408l-27 -249h-120l16 149h-288z" />
<glyph unicode="&#xad;" horiz-adv-x="377" d="M72 241l12 107h296l-12 -107h-296z" />
<glyph unicode="&#xae;" horiz-adv-x="425" d="M93 488q8 81 64 136.5t135 55.5t122.5 -55.5t34.5 -136.5t-64.5 -136t-134.5 -55t-122.5 55t-34.5 136zM135 487q-7 -63 28 -107t92 -44q56 0 101 44t52 107t-28 107.5t-92 44.5t-101 -44.5t-52 -107.5zM197 390l22 190h73q28 0 43.5 -11.5t12.5 -38.5l-2 -21 q-3 -21 -22 -37l5 -82h-44l-3 70h-34l-8 -70h-43zM252 492h28q21 0 23 17l3 21q1 11 -4.5 14.5t-15.5 3.5h-28z" />
<glyph unicode="&#xaf;" horiz-adv-x="353" d="M112 560l11 92h246l-11 -92h-246z" />
<glyph unicode="&#xb0;" horiz-adv-x="314" d="M90 521q7 57 45.5 96t93.5 39q57 0 86 -39t22 -96q-6 -58 -43.5 -96.5t-93.5 -38.5q-57 0 -86.5 38.5t-23.5 96.5zM163 521q-3 -27 8.5 -45.5t36.5 -18.5q24 0 39.5 18t17.5 46q4 28 -7.5 45.5t-36.5 17.5t-40 -17.5t-18 -45.5z" />
<glyph unicode="&#xb1;" horiz-adv-x="509" d="M48 0l10 97h412l-10 -97h-412zM79 292l11 98h143l18 157h128l-18 -157h141l-11 -98h-141l-18 -162h-128l18 162h-143z" />
<glyph unicode="&#xb2;" horiz-adv-x="383" d="M79 227l9 64q34 42 76.5 90t63 71t36.5 46.5t18 39.5q2 20 -6.5 29t-29.5 9q-22 0 -66 -1.5t-69 -1.5l8 75l125 3q40 0 66 -4t49.5 -15.5t33 -35t5.5 -59.5q-2 -23 -21 -53t-38 -52.5t-57.5 -64t-56.5 -62.5h144l-9 -78h-281z" />
<glyph unicode="&#xb3;" horiz-adv-x="339" d="M71 214l6 61l83 -1q36 -1 54 11t22 41l2 22q5 50 -40 50h-84l7 63h84q46 0 51 48l2 26q3 29 -14.5 39t-49.5 10l-82 -2l7 62l92 2q38 0 60.5 -3t46 -13t32.5 -32.5t5 -58.5l-3 -31q-6 -47 -52 -78q40 -27 34 -82l-3 -24q-7 -63 -46 -87t-125 -24z" />
<glyph unicode="&#xb4;" horiz-adv-x="300" d="M134 573l112 181l78 -48l-115 -180z" />
<glyph unicode="&#xb5;" horiz-adv-x="487" d="M35 -182l76 680h131q-41 -372 -41 -378q-3 -21 21 -21q31 0 100 23l42 377h132l-56 -500h-119q0 2 -0.5 11t-0.5 13q-61 -26 -134 -30l-20 -175h-131z" />
<glyph unicode="&#xb6;" horiz-adv-x="536" d="M76 469q8 72 17 108.5t31 64t57.5 35.5t99.5 8h268l-96 -872h-87l85 772h-25l-85 -772h-107l53 486h-31q-34 0 -52.5 0.5t-42 3t-34.5 6.5t-24.5 12.5t-18 20.5t-9 30.5t-3.5 41.5t4 55z" />
<glyph unicode="&#xb7;" horiz-adv-x="242" d="M84 311q5 46 19 59t62 13q47 0 58 -12.5t6 -59.5q-6 -46 -20 -60t-61 -14t-58.5 14t-5.5 60z" />
<glyph unicode="&#xb8;" horiz-adv-x="310" d="M86 -217l16 62l55 -8q14 -2 18 6q1 1 3 9t1 12q-1 3 -5 5t-12 3.5t-15 2t-19 2t-18 2.5l29 121h88l-18 -67q38 -3 49.5 -25t-0.5 -65q-9 -38 -30.5 -53.5t-59.5 -15.5q-26 0 -82 9z" />
<glyph unicode="&#xb9;" horiz-adv-x="245" d="M81 567l9 78l171 2l-47 -424h-100l35 344h-68z" />
<glyph unicode="&#xba;" horiz-adv-x="355" d="M113 520q9 73 24 106.5t41 44t81 10.5q66 0 86.5 -32.5t9.5 -128.5q-9 -93 -36 -127t-99 -34q-29 0 -47 3t-34 12.5t-21 27t-8.5 47t3.5 71.5zM205 503q-5 -41 -1.5 -54t24.5 -13q14 1 18.5 4.5t9 21t9.5 59.5q6 54 2.5 70t-22.5 16t-25.5 -15t-12.5 -71z" />
<glyph unicode="&#xbb;" horiz-adv-x="472" d="M47 101l108 152l-75 154l104 66l108 -220l-156 -219zM245 100l108 153l-75 154l104 68l107 -222l-157 -221z" />
<glyph unicode="&#xbc;" horiz-adv-x="459" d="M50 224l10 86h411l-10 -86h-411zM53 -124l7 59l169 243h115l-25 -223h49l-9 -79h-49l-13 -122h-84l14 122h-174zM174 -45h61l12 113zM207 698l9 78l171 2l-47 -424h-100l35 344h-68z" />
<glyph unicode="&#xbd;" horiz-adv-x="456" d="M47 220l9 85l410 1l-9 -86h-410zM76 -250l9 64q29 35 63.5 74t54 61.5t38 45t27 38t9.5 28.5q2 20 -6 29t-29 9t-66 -1.5t-70 -1.5l8 75l126 3q40 0 66.5 -4t49.5 -15.5t32.5 -35t5.5 -59.5q-2 -23 -21 -53t-38 -52t-58.5 -64.5t-56.5 -62.5h144l-8 -78h-280zM190 698 l9 78l171 2l-47 -424h-100l35 344h-68z" />
<glyph unicode="&#xbe;" horiz-adv-x="467" d="M49 221l9 85h410l-9 -85h-410zM51 -125l7 59l169 243h115l-24 -223h48l-9 -79h-48l-14 -122h-84l14 122h-174zM167 347l8 61l81 -1q37 -1 55 11t21 41l3 22q4 50 -40 50h-84l7 63h83q46 0 51 48l3 26q3 29 -14.5 39t-48.5 10l-84 -2l7 62l92 2q38 0 61 -3t46.5 -13 t32.5 -32.5t5 -58.5l-4 -31q-5 -47 -51 -78q40 -28 34 -82l-3 -24q-7 -63 -46.5 -87t-125.5 -24zM172 -46h61l13 113z" />
<glyph unicode="&#xbf;" horiz-adv-x="410" d="M21 -26l2 23q10 90 58.5 132t149.5 42l14 121h126l-25 -219h-117q-62 0 -71 -76l-1 -15q-3 -30 0.5 -46.5t19 -23.5t27 -8t42.5 -1h127l-10 -94h-123q-45 0 -73 2t-61.5 11t-51 25.5t-28 48.5t-5.5 78zM259 437q5 42 18 55t57 13q43 0 52.5 -13t4.5 -55q-5 -43 -17 -55 t-55 -12t-54 11.5t-6 55.5z" />
<glyph unicode="&#xc0;" horiz-adv-x="558" d="M-1 0l247 667h199l106 -667h-128l-27 166h-206l-60 -166h-131zM230 276h148l-45 266zM268 907l89 48l72 -181l-85 -47z" />
<glyph unicode="&#xc1;" horiz-adv-x="558" d="M-1 0l247 667h199l106 -667h-128l-27 166h-206l-60 -166h-131zM230 276h148l-45 266zM297 776l112 181l78 -48l-115 -180z" />
<glyph unicode="&#xc2;" horiz-adv-x="558" d="M-1 0l247 667h199l106 -667h-128l-27 166h-206l-60 -166h-131zM211 803l171 137l139 -139l-65 -74l-89 90l-115 -89zM230 276h148l-45 266z" />
<glyph unicode="&#xc3;" horiz-adv-x="558" d="M-1 0l247 667h199l106 -667h-128l-27 166h-206l-60 -166h-131zM216 772q49 87 109 87q20 0 49.5 -18.5t36.5 -18.5q15 0 42 40q9 -7 28 -21.5t28 -22.5q-41 -81 -100 -81q-24 0 -54.5 18t-40.5 18q-13 0 -44 -44q-6 5 -24.5 20t-29.5 23zM230 276h148l-45 266z" />
<glyph unicode="&#xc4;" horiz-adv-x="558" d="M-1 0l247 667h199l106 -667h-128l-27 166h-206l-60 -166h-131zM212 789q5 41 16.5 52t52.5 11q40 0 49.5 -11.5t5.5 -51.5q-5 -39 -17 -51t-52 -12q-41 0 -50 11.5t-5 51.5zM230 276h148l-45 266zM377 789q5 41 16.5 52t51.5 11q41 0 50.5 -11.5t4.5 -51.5 q-4 -39 -15.5 -51t-53.5 -12q-40 0 -49 11.5t-5 51.5z" />
<glyph unicode="&#xc5;" horiz-adv-x="558" d="M-1 0l247 667h199l106 -667h-128l-27 166h-206l-60 -166h-131zM230 276h148l-45 266zM277 822q5 40 31.5 67t67.5 27q42 0 62.5 -27t15.5 -67q-4 -41 -30.5 -67.5t-68.5 -26.5q-41 0 -61.5 26t-16.5 68zM335 822q-3 -38 27 -38q32 0 35 38q5 38 -27 38q-14 0 -24 -10.5 t-11 -27.5z" />
<glyph unicode="&#xc6;" horiz-adv-x="755" d="M-2 0l247 667h541l-11 -102h-314l28 -177h244l-10 -102h-218l28 -184h191l-11 -101l-291 -1l-27 166h-206l-60 -166h-131zM229 276h148l-45 266z" />
<glyph unicode="&#xc7;" horiz-adv-x="517" d="M76 299q11 95 21.5 151.5t29 105t47 72t71 36t105.5 12.5q104 0 214 -15l-10 -88q-103 8 -185 8q-36 0 -59 -8.5t-39.5 -25t-27 -53.5t-17.5 -80t-15 -119q-10 -89 3.5 -136.5t44.5 -62.5t90 -15q75 0 151 7l-8 -76q-65 -12 -151 -19l-5 -19q38 -3 49.5 -25t-0.5 -65 q-9 -38 -30.5 -53.5t-59.5 -15.5q-27 0 -82 9l16 62l56 -8q15 -2 16 6q2 1 4 9t1 12q-1 3 -5 5t-12 3.5t-15 2t-19 2t-18 2.5l17 72q-33 2 -58 7.5t-49.5 18.5t-38.5 35t-25.5 55.5t-11 80.5t4.5 110z" />
<glyph unicode="&#xc8;" horiz-adv-x="507" d="M64 0l74 668h401l-12 -104h-267l-19 -172h245l-12 -105h-245l-20 -184h267l-11 -103h-401zM257 906l89 48l72 -181l-85 -47z" />
<glyph unicode="&#xc9;" horiz-adv-x="507" d="M64 0l74 668h401l-12 -104h-267l-19 -172h245l-12 -105h-245l-20 -184h267l-11 -103h-401zM286 773l113 181l78 -48l-115 -180z" />
<glyph unicode="&#xca;" horiz-adv-x="507" d="M64 0l74 668h401l-12 -104h-267l-19 -172h245l-12 -105h-245l-20 -184h267l-11 -103h-401zM202 802l172 137l139 -139l-65 -74l-89 90l-115 -89z" />
<glyph unicode="&#xcb;" horiz-adv-x="507" d="M64 0l74 668h401l-12 -104h-267l-19 -172h245l-12 -105h-245l-20 -184h267l-11 -103h-401zM204 790q5 41 16.5 52t52.5 11q40 0 49.5 -11.5t5.5 -51.5q-5 -39 -17 -51t-52 -12q-41 0 -50 11.5t-5 51.5zM369 790q5 41 16 52t51 11q41 0 51 -11.5t5 -51.5q-4 -39 -15.5 -51 t-53.5 -12q-40 0 -49 11.5t-5 51.5z" />
<glyph unicode="&#xcc;" horiz-adv-x="254" d="M64 0l73 667h135l-73 -667h-135zM107 906l89 48l71 -181l-84 -47z" />
<glyph unicode="&#xcd;" horiz-adv-x="254" d="M64 0l73 667h135l-73 -667h-135zM157 773l113 181l78 -48l-115 -180z" />
<glyph unicode="&#xce;" horiz-adv-x="254" d="M61 805l172 137l139 -139l-65 -74l-89 90l-115 -89zM64 0l73 667h135l-73 -667h-135z" />
<glyph unicode="&#xcf;" horiz-adv-x="254" d="M64 0l73 667h135l-73 -667h-135zM72 787q5 41 16.5 52t51.5 11t50 -11.5t5 -51.5q-4 -39 -16.5 -51t-52.5 -12t-49 11.5t-5 51.5zM237 787q5 41 16 52t51 11q41 0 51 -11t5 -52q-4 -39 -16.5 -51t-53.5 -12q-40 0 -49 11.5t-4 51.5z" />
<glyph unicode="&#xd0;" horiz-adv-x="567" d="M48 300l12 115h34l28 254h236q44 0 75 -5.5t57 -19.5t41 -37.5t23.5 -61.5t8 -90.5t-8.5 -123.5q-11 -103 -28.5 -166.5t-49.5 -100.5t-74 -50.5t-108 -13.5h-245l32 300h-33zM194 99l106 -1q48 -1 77 49t43 184q10 83 11 130t-8 73t-25 33t-47 7h-104l-18 -159h84 l-12 -115h-85z" />
<glyph unicode="&#xd1;" horiz-adv-x="606" d="M64 0l74 668h148l155 -430l48 430h134l-74 -668h-156l-153 413l-45 -413h-131zM255 761q48 87 109 87q20 0 49.5 -18.5t36.5 -18.5q14 0 41 40q32 -25 57 -44q-42 -81 -101 -81q-23 0 -53.5 18t-40.5 18q-15 0 -44 -44q-11 8 -29.5 23t-24.5 20z" />
<glyph unicode="&#xd2;" horiz-adv-x="576" d="M89 333q10 90 21.5 144t29.5 97t47.5 63t71 30t105.5 10q54 0 90 -6t62 -22.5t38.5 -39.5t17 -65t2 -89.5t-10.5 -121.5q-8 -75 -16 -123t-22 -89.5t-32 -64t-47.5 -39t-66.5 -22t-92 -5.5q-80 0 -123.5 15.5t-65.5 54.5t-20.5 105t11.5 168zM222 333 q-13 -99 -11.5 -153.5t20 -73.5t67.5 -19q72 0 94 43t39 203q14 102 12 157t-21 73t-69 18q-71 0 -91.5 -43t-39.5 -205zM290 906l89 48l71 -181l-85 -47z" />
<glyph unicode="&#xd3;" horiz-adv-x="577" d="M89 333q10 90 21.5 144t29.5 97t47.5 63t71 30t105.5 10q54 0 90 -6t62 -22.5t38.5 -39.5t17 -65t2 -89.5t-10.5 -121.5q-8 -75 -16 -123t-22 -89.5t-32 -64t-47.5 -39t-66.5 -22t-92 -5.5q-80 0 -123.5 15.5t-65.5 54.5t-20.5 105t11.5 168zM222 333 q-13 -99 -11.5 -153.5t20 -73.5t67.5 -19q72 0 94 43t39 203q14 102 12 157t-21 73t-69 18q-71 0 -91.5 -43t-39.5 -205zM296 773l113 181l78 -48l-115 -180z" />
<glyph unicode="&#xd4;" horiz-adv-x="577" d="M89 333q10 90 21.5 144t29.5 97t47.5 63t71 30t105.5 10q54 0 90 -6t62 -22.5t38.5 -39.5t17 -65t2 -89.5t-10.5 -121.5q-8 -75 -16 -123t-22 -89.5t-32 -64t-47.5 -39t-66.5 -22t-92 -5.5q-80 0 -123.5 15.5t-65.5 54.5t-20.5 105t11.5 168zM222 333 q-13 -99 -11.5 -153.5t20 -73.5t67.5 -19q72 0 94 43t39 203q14 102 12 157t-21 73t-69 18q-71 0 -91.5 -43t-39.5 -205zM228 807l171 137l138 -139l-65 -74l-89 90l-115 -89z" />
<glyph unicode="&#xd5;" horiz-adv-x="577" d="M89 333q10 90 21.5 144t29.5 97t47.5 63t71 30t105.5 10q54 0 90 -6t62 -22.5t38.5 -39.5t17 -65t2 -89.5t-10.5 -121.5q-8 -75 -16 -123t-22 -89.5t-32 -64t-47.5 -39t-66.5 -22t-92 -5.5q-80 0 -123.5 15.5t-65.5 54.5t-20.5 105t11.5 168zM222 333 q-13 -99 -11.5 -153.5t20 -73.5t67.5 -19q72 0 94 43t39 203q14 102 12 157t-21 73t-69 18q-71 0 -91.5 -43t-39.5 -205zM232 767q48 87 108 87q20 0 50 -18.5t37 -18.5q15 0 42 40l56 -44q-42 -81 -101 -81q-23 0 -53.5 18t-40.5 18q-11 0 -45 -44z" />
<glyph unicode="&#xd6;" horiz-adv-x="577" d="M89 333q10 90 21.5 144t29.5 97t47.5 63t71 30t105.5 10q54 0 90 -6t62 -22.5t38.5 -39.5t17 -65t2 -89.5t-10.5 -121.5q-8 -75 -16 -123t-22 -89.5t-32 -64t-47.5 -39t-66.5 -22t-92 -5.5q-80 0 -123.5 15.5t-65.5 54.5t-20.5 105t11.5 168zM222 333 q-13 -99 -11.5 -153.5t20 -73.5t67.5 -19q72 0 94 43t39 203q14 102 12 157t-21 73t-69 18q-71 0 -91.5 -43t-39.5 -205zM234 790q5 41 16.5 52t51.5 11t50 -11.5t5 -51.5q-4 -39 -16 -51t-52 -12q-41 0 -50 11.5t-5 51.5zM399 790q5 41 16 52t51 11q41 0 51 -11t5 -52 q-4 -39 -16 -51t-53 -12q-40 0 -49.5 12t-4.5 51z" />
<glyph unicode="&#xd7;" d="M54 103l142 141l-110 143l84 83l113 -141l142 141l66 -83l-144 -143l112 -141l-84 -83l-112 140l-143 -141z" />
<glyph unicode="&#xd8;" horiz-adv-x="577" d="M89 333q10 90 21.5 144t29.5 97t47.5 63t71 30t105.5 10q34 0 60 -3l19 47h67l-23 -59q67 -23 82 -99t-6 -230q-8 -75 -16 -123t-22 -89.5t-32 -64t-47.5 -39t-66.5 -22t-92 -5.5q-34 0 -61 3l-15 -39h-66l20 51q-67 23 -81.5 99.5t5.5 228.5zM215 135l172 443 q-15 3 -34 3q-71 0 -91.5 -43t-39.5 -205q-17 -156 -7 -198zM264 90q14 -3 34 -3q72 0 94 43t39 203q19 161 6 202z" />
<glyph unicode="&#xd9;" horiz-adv-x="593" d="M90 334l37 335h138l-36 -335q-14 -99 -12.5 -154t20.5 -74t71 -19q32 0 51.5 6.5t34 19.5t23.5 44.5t15 69.5t14 107l37 335h138l-37 -335q-8 -75 -16.5 -123t-23 -90t-33 -64.5t-49.5 -39t-69.5 -22t-95.5 -5.5q-111 0 -158 28.5t-57.5 105t8.5 210.5zM298 906l89 48 l71 -181l-85 -47z" />
<glyph unicode="&#xda;" horiz-adv-x="594" d="M90 334l37 335h138l-36 -335q-14 -99 -12.5 -154t20.5 -74t71 -19q32 0 51.5 6.5t34 19.5t23.5 44.5t15 69.5t14 107l37 335h138l-37 -335q-8 -75 -16.5 -123t-23 -90t-33 -64.5t-49.5 -39t-69.5 -22t-95.5 -5.5q-111 0 -158 28.5t-57.5 105t8.5 210.5zM310 773l113 181 l78 -48l-115 -180z" />
<glyph unicode="&#xdb;" horiz-adv-x="594" d="M90 334l37 335h138l-36 -335q-14 -99 -12.5 -154t20.5 -74t71 -19q32 0 51.5 6.5t34 19.5t23.5 44.5t15 69.5t14 107l37 335h138l-37 -335q-8 -75 -16.5 -123t-23 -90t-33 -64.5t-49.5 -39t-69.5 -22t-95.5 -5.5q-111 0 -158 28.5t-57.5 105t8.5 210.5zM242 799l171 137 l139 -139l-65 -74l-89 90l-115 -89z" />
<glyph unicode="&#xdc;" horiz-adv-x="594" d="M90 334l37 335h138l-36 -335q-14 -99 -12.5 -154t20.5 -74t71 -19q32 0 51.5 6.5t34 19.5t23.5 44.5t15 69.5t14 107l37 335h138l-37 -335q-8 -75 -16.5 -123t-23 -90t-33 -64.5t-49.5 -39t-69.5 -22t-95.5 -5.5q-111 0 -158 28.5t-57.5 105t8.5 210.5zM253 788 q5 41 16 52t52 11q40 0 49.5 -11.5t5.5 -51.5q-4 -39 -16 -51t-52 -12q-41 0 -50.5 11.5t-4.5 51.5zM418 788q5 41 16 52t51 11q41 0 51 -11t5 -52q-5 -39 -16.5 -51t-52.5 -12q-40 0 -49.5 12t-4.5 51z" />
<glyph unicode="&#xdd;" horiz-adv-x="535" d="M68 668h149l78 -303l150 303h148l-247 -463l-22 -205h-137l23 205zM270 773l112 181l79 -48l-115 -180z" />
<glyph unicode="&#xde;" horiz-adv-x="561" d="M63 0l75 669h137l-12 -108h110q99 0 151 -38.5t42 -136.5l-9 -78q-7 -62 -55 -110.5t-113 -59.5q-23 -4 -174 -4l-14 -134h-138zM228 252h108q18 0 30 1.5t25.5 7t20.5 17t9 30.5l9 77q4 36 -16 48.5t-57 12.5h-108z" />
<glyph unicode="&#xdf;" horiz-adv-x="524" d="M-9 -168l8 76q20 3 30.5 10t13 13.5t3.5 19.5l59 535q10 83 63 131t135 48q36 0 65 -3t61.5 -14t53.5 -29t32.5 -51.5t6.5 -78.5q-8 -68 -70 -145q38 -24 46.5 -63.5t-0.5 -88.5l-6 -52q-4 -34 -13.5 -58.5t-28 -40t-37 -25t-51 -14t-59 -5.5t-71.5 -1h-44l-4 -30 q-8 -81 -42.5 -111t-94.5 -30q-17 0 -56 7zM200 100h45h7q38 0 54.5 1.5t31.5 12.5t17 34l6 50q4 42 -6.5 55.5t-41.5 13.5h-95zM230 370h93q55 48 61 115q2 22 -4.5 36.5t-22 21t-30.5 8.5t-36 2q-41 0 -48 -70z" />
<glyph unicode="&#xe0;" horiz-adv-x="466" d="M52 163q0 52 6 119q13 120 54 173t124 53q35 0 101.5 -9.5t123.5 -25.5l-49 -476h-98l-8 35q-65 -41 -129 -41q-71 0 -98 46.5t-27 125.5zM184 111q3 -24 12.5 -30t29.5 -1q19 5 75 32l34 306q-46 7 -79 5q-33 -1 -49.5 -53.5t-20.5 -105.5q-6 -105 -2 -153zM210 733 l88 48l72 -181l-86 -47z" />
<glyph unicode="&#xe1;" horiz-adv-x="466" d="M52 163q0 52 6 119q13 120 54 173t124 53q35 0 101.5 -9.5t123.5 -25.5l-49 -476h-98l-8 35q-65 -41 -129 -41q-71 0 -98 46.5t-27 125.5zM184 111q3 -24 12.5 -30t29.5 -1q19 5 75 32l34 306q-46 7 -79 5q-33 -1 -49.5 -53.5t-20.5 -105.5q-6 -105 -2 -153zM223 597 l112 181l78 -48l-115 -180z" />
<glyph unicode="&#xe2;" horiz-adv-x="467" d="M52 163q0 52 6 119q13 120 54 173t124 53q35 0 101.5 -9.5t123.5 -25.5l-49 -476h-98l-8 35q-65 -41 -129 -41q-71 0 -98 46.5t-27 125.5zM141 625l172 137l139 -139l-65 -74l-89 90l-115 -89zM184 111q3 -24 12.5 -30t29.5 -1q19 5 75 32l34 306q-46 7 -79 5 q-33 -1 -49.5 -53.5t-20.5 -105.5q-6 -105 -2 -153z" />
<glyph unicode="&#xe3;" horiz-adv-x="466" d="M52 163q0 52 6 119q13 120 54 173t124 53q35 0 101.5 -9.5t123.5 -25.5l-49 -476h-98l-8 35q-65 -41 -129 -41q-71 0 -98 46.5t-27 125.5zM149 585q49 87 109 87q20 0 50 -18.5t37 -18.5q16 0 41 40q25 -19 57 -44q-42 -81 -101 -81q-23 0 -53.5 18t-41.5 18 q-2 0 -4 -0.5t-4.5 -2.5t-4.5 -3.5t-5 -5t-5 -5.5t-5.5 -6.5t-5 -6.5t-5 -7t-5.5 -7q-6 5 -24.5 20t-29.5 23zM184 111q3 -24 12.5 -30t29.5 -1q19 5 75 32l34 306q-46 7 -79 5q-33 -1 -49.5 -53.5t-20.5 -105.5q-6 -105 -2 -153z" />
<glyph unicode="&#xe4;" horiz-adv-x="466" d="M52 163q0 52 6 119q13 120 54 173t124 53q35 0 101.5 -9.5t123.5 -25.5l-49 -476h-98l-8 35q-65 -41 -129 -41q-71 0 -98 46.5t-27 125.5zM153 616q5 41 16.5 52t51.5 11t50 -11.5t5 -51.5q-4 -39 -16.5 -51t-52.5 -12t-49 11.5t-5 51.5zM184 111q3 -24 12.5 -30t29.5 -1 q19 5 75 32l34 306q-46 7 -79 5q-33 -1 -49.5 -53.5t-20.5 -105.5q-6 -105 -2 -153zM318 616q5 41 16 52t51 11q41 0 51 -11t5 -52q-4 -39 -16.5 -51t-53.5 -12q-40 0 -49 11.5t-4 51.5z" />
<glyph unicode="&#xe5;" horiz-adv-x="466" d="M52 163q0 52 6 119q13 120 54 173t124 53q35 0 101.5 -9.5t123.5 -25.5l-49 -476h-98l-8 35q-65 -41 -129 -41q-71 0 -98 46.5t-27 125.5zM184 111q3 -24 12.5 -30t29.5 -1q19 5 75 32l34 306q-46 7 -79 5q-33 -1 -49.5 -53.5t-20.5 -105.5q-6 -105 -2 -153zM218 646 q4 40 30.5 67t67.5 27t62 -26.5t17 -67.5q-5 -41 -31.5 -67.5t-68.5 -26.5t-62 26t-15 68zM275 646q-3 -38 26 -38q15 0 24.5 10.5t11.5 27.5t-5.5 27.5t-21.5 10.5q-30 0 -35 -38z" />
<glyph unicode="&#xe6;" horiz-adv-x="731" d="M40 163q0 54 7 119q12 119 53 172.5t124 53.5q70 0 179 -24q45 28 137 28q101 0 141 -34t40 -118v-19q0 -11 -1 -21t-9 -30.5t-22.5 -35t-44.5 -26.5t-72 -13l-137 -2q-3 -24 -3 -65q0 -25 5.5 -40.5t17.5 -22t22 -8t29 -1.5q64 0 160 13l-6 -77q-100 -21 -188 -21 q-107 0 -142 51q-118 -51 -164 -51q-72 0 -99 46.5t-27 125.5zM173 111q2 -24 11.5 -30t29.5 -1q21 6 76 32l33 306q-46 7 -79 5q-33 -1 -50 -54t-19 -105q-8 -99 -2 -153zM445 298h133q22 0 22 43v12q0 45 -14 60.5t-51 15.5q-48 0 -63.5 -27t-26.5 -104z" />
<glyph unicode="&#xe7;" horiz-adv-x="450" d="M68 226q8 72 16.5 114.5t22.5 79t36.5 54t55.5 27t83 9.5q5 0 32 -1.5t72.5 -6t76.5 -10.5l-10 -92q-144 12 -161 12q-50 0 -64 -32.5t-28 -156.5q-10 -84 8 -109t73 -25q44 0 143 9l-10 -83q-60 -15 -135 -22l-5 -21q38 -3 49.5 -25t-0.5 -65q-9 -38 -30.5 -53.5 t-59.5 -15.5q-27 0 -82 9l15 62l56 -8q14 -2 17 6q2 1 4 9t1 12q-1 3 -5 5t-12.5 3.5t-15 2t-19 2t-18.5 2.5l18 75q-55 4 -83 22.5t-39.5 68.5t-1.5 142z" />
<glyph unicode="&#xe8;" horiz-adv-x="471" d="M59 146q0 38 8 105q9 81 20.5 126.5t36.5 78.5t64 44.5t104 11.5q101 0 140.5 -34t39.5 -118v-19q0 -11 -1 -21t-9 -30.5t-22 -35t-44 -26.5t-72 -13l-138 -2q-2 -24 -2 -65q0 -25 5.5 -40.5t17 -22t22 -8t28.5 -1.5q65 0 161 13l-7 -77q-99 -21 -188 -21 q-91 0 -127.5 35t-36.5 120zM197 298h132q23 0 23 43v12q0 45 -14.5 60.5t-51.5 15.5q-47 0 -62.5 -27t-26.5 -104zM222 733l88 48l72 -181l-85 -47z" />
<glyph unicode="&#xe9;" horiz-adv-x="471" d="M59 146q0 38 8 105q9 81 20.5 126.5t36.5 78.5t64 44.5t104 11.5q101 0 140.5 -34t39.5 -118v-19q0 -11 -1 -21t-9 -30.5t-22 -35t-44 -26.5t-72 -13l-138 -2q-2 -24 -2 -65q0 -25 5.5 -40.5t17 -22t22 -8t28.5 -1.5q65 0 161 13l-7 -77q-99 -21 -188 -21 q-91 0 -127.5 35t-36.5 120zM197 298h132q23 0 23 43v12q0 45 -14.5 60.5t-51.5 15.5q-47 0 -62.5 -27t-26.5 -104zM232 598l112 181l78 -48l-115 -180z" />
<glyph unicode="&#xea;" horiz-adv-x="471" d="M59 146q0 38 8 105q9 81 20.5 126.5t36.5 78.5t64 44.5t104 11.5q101 0 140.5 -34t39.5 -118v-19q0 -11 -1 -21t-9 -30.5t-22 -35t-44 -26.5t-72 -13l-138 -2q-2 -24 -2 -65q0 -25 5.5 -40.5t17 -22t22 -8t28.5 -1.5q65 0 161 13l-7 -77q-99 -21 -188 -21 q-91 0 -127.5 35t-36.5 120zM153 625l172 137l138 -139l-64 -74l-89 90l-116 -89zM197 298h132q23 0 23 43v12q0 45 -14.5 60.5t-51.5 15.5q-47 0 -62.5 -27t-26.5 -104z" />
<glyph unicode="&#xeb;" horiz-adv-x="471" d="M59 146q0 38 8 105q9 81 20.5 126.5t36.5 78.5t64 44.5t104 11.5q101 0 140.5 -34t39.5 -118v-19q0 -11 -1 -21t-9 -30.5t-22 -35t-44 -26.5t-72 -13l-138 -2q-2 -24 -2 -65q0 -25 5.5 -40.5t17 -22t22 -8t28.5 -1.5q65 0 161 13l-7 -77q-99 -21 -188 -21 q-91 0 -127.5 35t-36.5 120zM166 616q5 41 16.5 52t52.5 11q40 0 49.5 -11.5t5.5 -51.5q-5 -39 -17.5 -51t-52.5 -12t-49 11.5t-5 51.5zM197 298h132q23 0 23 43v12q0 45 -14.5 60.5t-51.5 15.5q-47 0 -62.5 -27t-26.5 -104zM331 616q5 41 16.5 52t51.5 11q41 0 50.5 -11 t4.5 -52q-4 -39 -16 -51t-54 -12q-40 0 -48.5 11.5t-4.5 51.5z" />
<glyph unicode="&#xec;" horiz-adv-x="239" d="M56 0l55 499h132l-55 -499h-132zM84 732l89 48l72 -181l-86 -47z" />
<glyph unicode="&#xed;" horiz-adv-x="239" d="M56 0l55 499h132l-55 -499h-132zM122 598l112 181l78 -48l-115 -180z" />
<glyph unicode="&#xee;" horiz-adv-x="239" d="M32 623l172 137l139 -139l-65 -74l-89 90l-115 -89zM56 0l55 499h132l-55 -499h-132z" />
<glyph unicode="&#xef;" horiz-adv-x="239" d="M44 616q5 41 16.5 52t51.5 11q41 0 50.5 -11.5t4.5 -51.5q-4 -39 -16.5 -51t-52.5 -12t-49 11.5t-5 51.5zM56 0l55 499h132l-55 -499h-132zM209 616q5 41 16 52t51 11q41 0 51 -11t5 -52q-4 -39 -16.5 -51t-53.5 -12q-40 0 -49 11.5t-4 51.5z" />
<glyph unicode="&#xf0;" horiz-adv-x="471" d="M54 192q8 69 22 109.5t42 61t60.5 26.5t89.5 6q52 0 70 -5q3 22 0 81l-46 -52l-58 62l49 54q-18 10 -85 30l13 107q114 -27 153 -49q30 33 55 65l61 -61l-46 -51q28 -39 31 -108.5t-12 -200.5l-6 -49q-8 -74 -18.5 -114.5t-34.5 -65t-56.5 -31.5t-91.5 -7q-64 0 -98 5.5 t-61 25t-33.5 58t0.5 103.5zM183 201q-7 -66 3.5 -82t51.5 -16q49 0 61 15.5t20 93.5q2 15 2 26.5t-2 19.5l-3.5 14t-7.5 9t-8.5 5t-12 3t-13 1h-14.5q-44 0 -57 -13t-20 -76z" />
<glyph unicode="&#xf1;" d="M56 0l55 499h109l8 -42q2 1 20.5 11.5t27.5 15t26 12t32 10.5t30 3q57 0 91 -31t27 -95l-41 -383h-131l39 366q5 33 -21 33q-39 0 -99 -20l-42 -379h-131zM171 581q48 87 109 87q20 0 49.5 -18.5t36.5 -18.5q13 0 42 40q42 -33 55 -44q-41 -81 -99 -81q-24 0 -54.5 18 t-40.5 18q-15 0 -44 -44q-11 8 -29.5 23t-24.5 20z" />
<glyph unicode="&#xf2;" d="M70 250q9 82 21 128t38 77.5t65 42.5t105 11q87 0 126.5 -22.5t50 -80t-3.5 -156.5q-9 -80 -21 -126t-37.5 -78t-66 -43.5t-106.5 -11.5q-87 0 -126 22.5t-48.5 80.5t3.5 156zM199 250q-13 -104 -4.5 -135.5t57.5 -31.5t64.5 30t27.5 137q13 107 3.5 138.5t-58.5 31.5 q-48 0 -63 -30.5t-27 -139.5zM223 731l89 48l72 -181l-85 -47z" />
<glyph unicode="&#xf3;" d="M70 250q9 82 21 128t38 77.5t65 42.5t105 11q87 0 126.5 -22.5t50 -80t-3.5 -156.5q-9 -80 -21 -126t-37.5 -78t-66 -43.5t-106.5 -11.5q-87 0 -126 22.5t-48.5 80.5t3.5 156zM199 250q-13 -104 -4.5 -135.5t57.5 -31.5t64.5 30t27.5 137q13 107 3.5 138.5t-58.5 31.5 q-48 0 -63 -30.5t-27 -139.5zM229 596l112 181l78 -48l-115 -180z" />
<glyph unicode="&#xf4;" d="M71 250q9 82 21 128t38 77.5t65 42.5t105 11q87 0 126.5 -22.5t49.5 -80t-4 -156.5q-8 -80 -20 -126t-37.5 -78t-66 -43.5t-106.5 -11.5q-88 0 -127 22.5t-48.5 80.5t4.5 156zM158 627l172 137l139 -139l-65 -74l-89 90l-115 -89zM200 250q-14 -104 -5 -135.5t58 -31.5 t64.5 30t27.5 137q13 107 3.5 138.5t-58.5 31.5q-48 0 -63 -30.5t-27 -139.5z" />
<glyph unicode="&#xf5;" d="M70 250q9 82 21 128t38 77.5t65 42.5t105 11q87 0 126.5 -22.5t50 -80t-3.5 -156.5q-9 -80 -21 -126t-37.5 -78t-66 -43.5t-106.5 -11.5q-87 0 -126 22.5t-48.5 80.5t3.5 156zM160 592q48 87 109 87q20 0 49.5 -18.5t36.5 -18.5q15 0 42 40q9 -8 28 -22t29 -22 q-44 -81 -101 -81q-24 0 -54.5 18t-40.5 18q-13 0 -44 -44q-9 7 -27 21.5t-27 21.5zM199 250q-13 -104 -4.5 -135.5t57.5 -31.5t64.5 30t27.5 137q13 107 3.5 138.5t-58.5 31.5q-48 0 -63 -30.5t-27 -139.5z" />
<glyph unicode="&#xf6;" d="M70 250q9 82 21 128t38 77.5t65 42.5t105 11q87 0 126.5 -22.5t50 -80t-3.5 -156.5q-9 -80 -21 -126t-37.5 -78t-66 -43.5t-106.5 -11.5q-87 0 -126 22.5t-48.5 80.5t3.5 156zM164 615q5 41 16 52t52 11q40 0 49.5 -11.5t5.5 -51.5q-4 -39 -16.5 -51t-52.5 -12 q-41 0 -50 11.5t-4 51.5zM199 250q-13 -104 -4.5 -135.5t57.5 -31.5t64.5 30t27.5 137q13 107 3.5 138.5t-58.5 31.5q-48 0 -63 -30.5t-27 -139.5zM328 615q5 41 16.5 52t51.5 11q41 0 51 -11t5 -52q-5 -39 -17 -51t-53 -12q-40 0 -49 11.5t-5 51.5z" />
<glyph unicode="&#xf7;" horiz-adv-x="483" d="M66 196l12 118h398l-13 -118h-397zM182 83q5 48 18.5 60.5t61.5 12.5q46 0 57.5 -11t7.5 -54q-6 -55 -19 -68.5t-62 -13.5t-59 13.5t-5 60.5zM219 430q5 48 19 60.5t62 12.5q45 0 57 -12t7 -54q-6 -55 -19 -68.5t-62 -13.5t-59 13.5t-5 61.5z" />
<glyph unicode="&#xf8;" d="M70 250q9 82 21 128t38 77.5t65 42.5t105 11q28 0 52 -3l16 43h40l-19 -48q66 -16 82 -71t2 -180q-9 -80 -21 -126t-37.5 -78t-66 -43.5t-106.5 -11.5q-27 0 -51 3l-15 -41h-39l17 46q-66 16 -81.5 70t-1.5 181zM196 109l120 308q-10 3 -27 3q-48 0 -63 -30.5t-27 -139.5 q-13 -116 -3 -141zM226 85q7 -2 26 -2q49 0 64.5 30t27.5 137q13 113 2 143z" />
<glyph unicode="&#xf9;" horiz-adv-x="494" d="M67 116l41 383h131l-40 -366q-5 -33 21 -33q29 0 100 23l42 376h131l-55 -499h-110l-8 35q-8 -4 -31.5 -14.5t-36.5 -15.5t-32.5 -10t-35.5 -5q-57 0 -90.5 31t-26.5 95zM232 731l89 48l72 -181l-85 -47z" />
<glyph unicode="&#xfa;" horiz-adv-x="495" d="M67 116l41 383h131l-40 -366q-5 -33 21 -33q29 0 100 23l42 376h131l-55 -499h-110l-8 35q-8 -4 -31.5 -14.5t-36.5 -15.5t-32.5 -10t-35.5 -5q-57 0 -90.5 31t-26.5 95zM251 593l113 181l78 -48l-115 -180z" />
<glyph unicode="&#xfb;" horiz-adv-x="495" d="M67 116l41 383h131l-40 -366q-5 -33 21 -33q29 0 100 23l42 376h131l-55 -499h-110l-8 35q-8 -4 -31.5 -14.5t-36.5 -15.5t-32.5 -10t-35.5 -5q-57 0 -90.5 31t-26.5 95zM158 625l172 137l139 -139l-65 -74l-89 90l-115 -89z" />
<glyph unicode="&#xfc;" horiz-adv-x="495" d="M67 116l41 383h131l-40 -366q-5 -33 21 -33q29 0 100 23l42 376h131l-55 -499h-110l-8 35q-8 -4 -31.5 -14.5t-36.5 -15.5t-32.5 -10t-35.5 -5q-57 0 -90.5 31t-26.5 95zM178 614q5 41 16.5 52t52.5 11q40 0 49.5 -11.5t4.5 -51.5q-4 -39 -16.5 -51t-52.5 -12t-49 11.5 t-5 51.5zM343 614q4 41 15.5 52t51.5 11q41 0 51 -11t5 -52q-4 -39 -16 -51t-54 -12q-40 0 -49 11.5t-4 51.5z" />
<glyph unicode="&#xfd;" horiz-adv-x="463" d="M58 -157l27 58l36 -10q5 -1 10.5 1t11.5 8.5t11 13t11 18.5l10.5 21t12 23.5t11.5 23.5h-29l-94 500h132l57 -301l122 301h127l-240 -585q-20 -51 -54.5 -78t-72.5 -27q-48 0 -89 33zM231 597l112 181l78 -48l-115 -180z" />
<glyph unicode="&#xfe;" horiz-adv-x="475" d="M35 -182l97 867h128l-22 -191q70 15 92 15q87 0 117.5 -52t16.5 -173q-7 -68 -15 -109t-23 -80.5t-38.5 -59t-60 -31.5t-89.5 -12q-13 0 -53 2l-19 -176h-131zM196 93h51q16 0 28 4t20.5 16t13.5 23t10 37t7.5 45t7.5 59q9 73 2.5 103t-36.5 30q-20 0 -71 -12z" />
<glyph unicode="&#xff;" horiz-adv-x="463" d="M58 -157l27 58l36 -10q5 -1 10.5 1t11.5 8.5t11 13t11 18.5l10.5 21t12 23.5t11.5 23.5h-29l-94 500h132l57 -301l122 301h127l-240 -585q-20 -51 -54.5 -78t-72.5 -27q-48 0 -89 33zM166 616q5 41 16.5 52t52.5 11q40 0 49.5 -11.5t5.5 -51.5q-5 -39 -17.5 -51 t-52.5 -12t-49 11.5t-5 51.5zM331 616q5 41 16.5 52t51.5 11q41 0 50.5 -11t4.5 -52q-4 -39 -16 -51t-54 -12q-40 0 -48.5 11.5t-4.5 51.5z" />
<glyph unicode="&#x152;" horiz-adv-x="803" d="M73 176q-1 54 10 160q9 77 19 126t28.5 92.5t47.5 66t73 35t107 12.5h474l-11 -103h-267l-19 -173h244l-11 -105h-244l-21 -186h266l-10 -101h-475q-39 1 -64.5 4t-55.5 13.5t-47.5 28.5t-30 51t-13.5 79zM215 133q13 -32 81 -32h73l51 465h-73q-42 0 -62 -12t-37 -62 t-28 -156q-19 -167 -5 -203z" />
<glyph unicode="&#x153;" horiz-adv-x="769" d="M67 250q9 82 21 128t37.5 77.5t64.5 42.5t105 11q97 0 136 -29q45 32 143 32q101 0 141 -34t40 -118v-19q0 -11 -1 -21t-9 -30.5t-22 -35t-44.5 -26.5t-71.5 -13l-138 -2q-3 -24 -3 -65q0 -25 5.5 -40.5t17.5 -22t22 -8t29 -1.5q64 0 160 13l-6 -77q-100 -21 -188 -21 q-86 0 -123 30q-47 -30 -145 -30q-88 0 -127 22.5t-48.5 80.5t4.5 156zM195 250q-13 -104 -4 -135.5t57 -31.5q50 0 65 30t27 137q10 70 8 107.5t-15.5 50t-47.5 12.5q-48 0 -62.5 -30.5t-27.5 -139.5zM480 298h132q22 0 22 43v12q0 45 -14 60.5t-51 15.5q-48 0 -63.5 -27 t-25.5 -104z" />
<glyph unicode="&#x178;" horiz-adv-x="518" d="M68 668h149l78 -303l150 303h148l-247 -463l-22 -205h-137l23 205zM206 789q5 41 16.5 52t51.5 11q41 0 50.5 -11.5t4.5 -51.5q-4 -39 -16 -51t-52 -12q-41 0 -50 11.5t-5 51.5zM371 789q5 41 16 52t51 11q41 0 51 -11t5 -52q-4 -39 -16 -51t-53 -12q-40 0 -49.5 12 t-4.5 51z" />
<glyph unicode="&#x2c6;" horiz-adv-x="386" d="M98 546l171 137l139 -139l-65 -74l-89 90l-115 -89z" />
<glyph unicode="&#x2dc;" horiz-adv-x="399" d="M116 581q48 87 109 87q20 0 49.5 -18.5t36.5 -18.5q13 0 42 40q10 -8 28 -22t28 -22q-42 -81 -100 -81q-24 0 -54.5 18t-40.5 18q-15 0 -44 -44q-11 8 -29.5 23t-24.5 20z" />
<glyph unicode="&#x2000;" horiz-adv-x="478" />
<glyph unicode="&#x2001;" horiz-adv-x="957" />
<glyph unicode="&#x2002;" horiz-adv-x="478" />
<glyph unicode="&#x2003;" horiz-adv-x="957" />
<glyph unicode="&#x2004;" horiz-adv-x="319" />
<glyph unicode="&#x2005;" horiz-adv-x="239" />
<glyph unicode="&#x2006;" horiz-adv-x="159" />
<glyph unicode="&#x2007;" horiz-adv-x="159" />
<glyph unicode="&#x2008;" horiz-adv-x="119" />
<glyph unicode="&#x2009;" horiz-adv-x="191" />
<glyph unicode="&#x200a;" horiz-adv-x="53" />
<glyph unicode="&#x2010;" horiz-adv-x="346" d="M74 220l12 115h253l-12 -115h-253z" />
<glyph unicode="&#x2011;" horiz-adv-x="346" d="M74 220l12 115h253l-12 -115h-253z" />
<glyph unicode="&#x2012;" horiz-adv-x="346" d="M74 220l12 115h253l-12 -115h-253z" />
<glyph unicode="&#x2013;" horiz-adv-x="452" d="M74 220l12 120h341l-13 -120h-340z" />
<glyph unicode="&#x2014;" horiz-adv-x="576" d="M74 220l12 120h476l-13 -120h-475z" />
<glyph unicode="&#x2018;" horiz-adv-x="222" d="M88 459q5 50 33 86t92 73l31 -61q-27 -17 -36 -29q17 -6 21.5 -22.5t-0.5 -46.5q-5 -46 -18 -58t-61 -12q-47 0 -57 12t-5 58z" />
<glyph unicode="&#x2019;" horiz-adv-x="215" d="M89 453q27 17 36 29q-17 6 -21 21.5t-1 47.5q6 47 19 58.5t61 11.5q47 0 57 -12t5 -58q-5 -50 -33 -86t-92 -73z" />
<glyph unicode="&#x201a;" horiz-adv-x="230" d="M38 -25q27 17 36 29q-17 6 -21 20.5t-1 48.5q5 46 18 58t61 12q47 0 57.5 -12t4.5 -58q-5 -51 -33 -86.5t-92 -72.5z" />
<glyph unicode="&#x201c;" horiz-adv-x="373" d="M88 460q5 50 33.5 86t92.5 73l30 -61q-24 -15 -36 -29q17 -6 21.5 -22.5t-0.5 -46.5q-5 -46 -18 -58t-61 -12q-47 0 -57 12t-5 58zM254 460q5 51 33 86.5t93 72.5l29 -61q-23 -16 -36 -29q18 -6 22.5 -22.5t-0.5 -46.5q-5 -46 -18 -58t-61 -12q-47 0 -57 12t-5 58z" />
<glyph unicode="&#x201d;" horiz-adv-x="369" d="M88 449q25 16 35 29q-17 6 -21 22.5t1 46.5q5 46 17.5 58t60.5 12q47 0 57.5 -12t5.5 -58q-6 -50 -34 -86t-92 -73zM254 449q27 19 35 29q-17 6 -20.5 21t-0.5 48q5 46 17.5 58t60.5 12q47 0 57.5 -12t5.5 -58q-6 -51 -34 -86.5t-92 -72.5z" />
<glyph unicode="&#x201e;" horiz-adv-x="380" d="M38 -25q27 17 36 29q-17 6 -21 20.5t-1 48.5q5 46 18 58t61 12q47 0 57.5 -12t4.5 -58q-5 -51 -33 -86.5t-92 -72.5zM203 -25q25 15 36 29q-17 6 -20.5 21t-0.5 48q5 46 18 58t61 12q47 0 57 -12t5 -58q-5 -50 -33 -86t-92 -73z" />
<glyph unicode="&#x2022;" horiz-adv-x="376" d="M98 324q6 55 45.5 94t88.5 39t80 -39t25 -94q-7 -55 -46.5 -93.5t-88.5 -38.5t-79.5 38.5t-24.5 93.5z" />
<glyph unicode="&#x2026;" horiz-adv-x="606" d="M51 71q5 47 18.5 59.5t60.5 12.5q48 0 59 -12.5t6 -59.5q-5 -46 -19 -60t-62 -14q-47 0 -57.5 13.5t-5.5 60.5zM241 71q5 47 18.5 59.5t62.5 12.5q47 0 58 -12.5t6 -59.5q-5 -46 -19 -60t-61 -14q-49 0 -59.5 13.5t-5.5 60.5zM427 71q6 47 19.5 59.5t61.5 12.5 q47 0 58.5 -12.5t5.5 -59.5q-5 -46 -18.5 -60t-62.5 -14q-47 0 -58 13.5t-6 60.5z" />
<glyph unicode="&#x202f;" horiz-adv-x="191" />
<glyph unicode="&#x2039;" horiz-adv-x="283" d="M58 253l155 220l88 -66l-107 -154l74 -152l-103 -67z" />
<glyph unicode="&#x203a;" horiz-adv-x="283" d="M47 101l108 152l-75 154l104 66l108 -220l-156 -219z" />
<glyph unicode="&#x205f;" horiz-adv-x="239" />
<glyph unicode="&#x20ac;" horiz-adv-x="576" d="M66 263l6 61h67l4 33h-67l7 61h69q11 67 26.5 111.5t44.5 79t74.5 51t112.5 16.5q104 0 215 -15l-10 -88q-103 8 -186 8q-67 0 -96.5 -35.5t-45.5 -127.5h217l-7 -61h-220l-3 -33h219l-6 -61h-220q-8 -114 30 -149t130 -30q38 1 134 7l-9 -79q-121 -23 -217 -21 q-53 1 -89 12t-65 39.5t-41 83.5t-6 137h-68z" />
<glyph unicode="&#x2122;" horiz-adv-x="491" d="M118 627l6 49h159l-7 -49h-53l-19 -173h-52l19 173h-53zM281 454l25 222h57l28 -104l56 104h55l-25 -222h-50l12 105l-36 -68h-39l-19 68l-12 -105h-52z" />
<glyph unicode="&#xe000;" horiz-adv-x="500" d="M0 0v500h500v-500h-500z" />
</font>
</defs>
</svg>
